<svg width="438" height="124" viewBox="0 0 438 124" fill="none" xmlns="http://www.w3.org/2000/svg">
<g filter="url(#filter0_d_317_384)">
<path fill-rule="evenodd" clip-rule="evenodd" d="M408.475 36.1536L408.382 35.2082C407.984 31.152 406.294 28.071 403.326 25.8659C400.337 23.645 396.203 22.4766 390.815 22.4766C387.151 22.4766 384.123 23.0007 381.697 24.0069L381.686 24.0116C379.242 24.9911 377.43 26.3325 376.185 28.0055C374.974 29.6792 374.369 31.5691 374.369 33.7102V33.7293L374.369 33.7483C374.304 35.5365 374.673 37.0409 375.435 38.3051C376.268 39.6289 377.414 40.7924 378.896 41.7903C380.414 42.7769 382.183 43.6542 384.209 44.4171C386.254 45.1514 388.443 45.7828 390.776 46.31L390.784 46.3117L400.555 48.67C400.558 48.6705 400.56 48.6711 400.563 48.6716C405.367 49.7576 409.79 51.208 413.826 53.0266C417.881 54.8533 421.41 57.1083 424.404 59.7981C427.415 62.5036 429.752 65.6959 431.407 69.3684C433.108 73.0649 433.963 77.2742 434 81.9738L434 81.9875C433.963 88.893 432.213 94.9322 428.715 100.06C425.256 105.149 420.268 109.073 413.811 111.856L413.808 111.857C407.376 114.608 399.666 115.963 390.709 115.963C381.818 115.963 374.025 114.588 367.353 111.807L367.351 111.806C360.701 109.019 355.468 104.875 351.695 99.3662L351.69 99.3596C347.941 93.7954 346.005 86.9548 345.824 78.8948L345.8 77.8222H370.102L370.168 78.8C370.405 82.3167 371.396 85.1842 373.092 87.4585C374.843 89.7236 377.181 91.4552 380.138 92.6435C383.153 93.8047 386.583 94.3955 390.443 94.3955C394.243 94.3955 397.491 93.8374 400.212 92.7526L400.216 92.751C402.986 91.6602 405.07 90.1682 406.528 88.3046C407.975 86.4554 408.696 84.3433 408.696 81.9283C408.696 79.6856 408.043 77.8649 406.773 76.3961L406.765 76.3865C405.484 74.8678 403.547 73.5205 400.88 72.3818L400.876 72.3799C398.217 71.2299 394.928 70.1737 390.997 69.2173L390.987 69.215L379.143 66.2133C379.142 66.2129 379.14 66.2126 379.139 66.2123C369.85 63.9315 362.435 60.3469 356.959 55.4102C351.394 50.3929 348.658 43.6382 348.693 35.2667C348.658 28.4162 350.469 22.3864 354.151 17.2216L354.153 17.2176C357.852 12.0806 362.912 8.09106 369.295 5.23639C375.683 2.37913 382.916 0.962891 390.975 0.962891C399.17 0.962891 406.373 2.37751 412.559 5.2412C418.769 8.10007 423.637 12.0966 427.122 17.2423C430.613 22.3968 432.402 28.3574 432.511 35.0875L432.529 36.1536H408.475ZM412.127 6.19531L412.559 5.2412C412.559 5.24126 412.558 5.24114 412.559 5.2412C412.559 5.24147 412.56 5.24173 412.56 5.242L412.127 6.19531ZM431.441 34.0559C431.175 27.9443 429.449 22.5371 426.264 17.8342C422.898 12.864 418.186 8.98435 412.127 6.19531C406.104 3.40628 399.053 2.01176 390.975 2.01176C383.038 2.01176 375.952 3.40628 369.716 6.19531C363.48 8.98435 358.573 12.864 354.994 17.8342C351.451 22.8044 349.697 28.6149 349.733 35.2656C349.697 43.3824 352.337 49.8365 357.652 54.628C362.966 59.4194 370.212 62.9414 379.389 65.1941L391.24 68.1977C395.209 69.1631 398.557 70.2358 401.285 71.4158C404.049 72.5958 406.139 74.0261 407.556 75.7066C409.009 77.3872 409.735 79.4611 409.735 81.9283C409.735 84.5743 408.938 86.9164 407.344 88.9545C405.749 90.9927 403.499 92.5839 400.594 93.7281C397.724 94.8723 394.341 95.4444 390.443 95.4444C386.475 95.4444 382.914 94.8365 379.761 93.6208C376.643 92.3693 374.145 90.5278 372.267 88.0964C370.425 85.6292 369.379 82.5541 369.131 78.8711H346.863C346.871 79.2233 346.882 79.5729 346.897 79.92C347.212 87.362 349.097 93.6453 352.55 98.7698C356.199 104.098 361.266 108.12 367.749 110.838C374.269 113.555 381.922 114.914 390.709 114.914C399.567 114.914 407.131 113.573 413.402 110.891C419.709 108.174 424.528 104.366 427.858 99.4671C431.224 94.5326 432.925 88.7042 432.96 81.982C432.925 77.4051 432.092 73.3467 430.462 69.8067C428.868 66.2668 426.618 63.1917 423.713 60.5815C420.808 57.9712 417.371 55.7722 413.402 53.9843C409.434 52.1965 405.076 50.7662 400.328 49.6935L390.549 47.3336C388.175 46.7972 385.943 46.1536 383.853 45.4027C381.762 44.616 379.92 43.7042 378.326 42.6673C376.731 41.5946 375.473 40.3252 374.552 38.8592C373.666 37.3932 373.259 35.6768 373.33 33.7102C373.33 31.3503 374.003 29.2406 375.349 27.3812C376.731 25.5219 378.715 24.0737 381.302 23.0368C383.888 21.9641 387.059 21.4277 390.815 21.4277C396.342 21.4277 400.718 22.6256 403.942 25.0213C407.167 27.417 408.991 30.7781 409.416 35.1047H431.472C431.467 34.7528 431.456 34.4032 431.441 34.0559Z" fill="white"/>
<path fill-rule="evenodd" clip-rule="evenodd" d="M252.433 113.359H275.445V77.7447H294.791C303.152 77.7447 310.274 76.1893 316.156 73.0784C322.073 69.9676 326.59 65.6231 329.708 60.0451C332.826 54.467 334.385 48.0308 334.385 40.7363C334.385 33.442 332.844 27.0057 329.761 21.4276C326.714 15.8138 322.285 11.4336 316.475 8.28701C310.664 5.10465 303.631 3.51347 295.375 3.51347H252.433V113.359ZM275.445 59.1332H291.07C295.499 59.1332 299.149 58.3645 302.019 56.8269C304.924 55.2536 307.085 53.0903 308.503 50.3371C309.955 47.548 310.682 44.3478 310.682 40.7363C310.682 37.0891 309.955 33.9068 308.503 31.1893C307.085 28.436 304.924 26.3085 302.019 24.8067C299.113 23.2691 295.428 22.5004 290.964 22.5004H275.445V59.1332ZM276.485 23.5492V58.0844H291.07C295.388 58.0844 298.855 57.334 301.53 55.9011C304.264 54.4201 306.267 52.4048 307.58 49.8535L307.583 49.849C308.946 47.2312 309.642 44.2028 309.642 40.7363C309.642 37.2315 308.945 34.2262 307.588 31.6873L307.584 31.6801L307.58 31.6728C306.269 29.1252 304.271 27.1492 301.545 25.7402L301.536 25.7356C298.823 24.3001 295.318 23.5492 290.964 23.5492H276.485ZM316.967 7.36364C310.972 4.0807 303.76 2.4646 295.375 2.4646H251.394V114.407H276.485V78.7936H294.791C303.277 78.7936 310.572 77.2152 316.636 74.0086C322.722 70.809 327.391 66.3247 330.613 60.5604C333.831 54.8043 335.424 48.1858 335.424 40.7363C335.424 33.2897 333.85 26.6738 330.67 20.9189C327.523 15.1224 322.946 10.6013 316.967 7.36364Z" fill="white"/>
<path fill-rule="evenodd" clip-rule="evenodd" d="M232.459 3.51347H209.447V113.359H232.459V3.51347ZM233.498 2.4646V114.407H208.407V2.4646H233.498Z" fill="white"/>
<path fill-rule="evenodd" clip-rule="evenodd" d="M110.193 113.359H133.205V74.4193H150.003L170.62 113.359H196.024L172.931 70.6845C173.251 70.5443 173.568 70.4001 173.881 70.252C173.893 70.2466 173.904 70.2412 173.915 70.2357C179.832 67.4467 184.35 63.4419 187.468 58.2214C190.586 52.9652 192.145 46.6899 192.145 39.3955C192.145 32.1368 190.603 25.8257 187.521 20.4622C184.474 15.0629 180.027 10.8973 174.181 7.9652C168.37 4.99738 161.355 3.51347 153.135 3.51347H110.193V113.359ZM133.205 55.7542H148.83C153.224 55.7542 156.873 55.1464 159.778 53.9306C162.684 52.7149 164.845 50.8913 166.262 48.4598C167.715 46.0284 168.441 43.0069 168.441 39.3955C168.441 35.7483 167.715 32.6732 166.262 30.1702C164.845 27.6672 162.666 25.7721 159.725 24.4849C156.82 23.1619 153.153 22.5004 148.724 22.5004H133.205V55.7542ZM134.244 23.5492V54.7054H148.83C153.137 54.7054 156.641 54.1082 159.38 52.9617C162.105 51.8218 164.078 50.1388 165.366 47.928L165.372 47.9182C166.704 45.6891 167.402 42.8672 167.402 39.3955C167.402 35.8873 166.704 33.006 165.365 30.7003L165.36 30.6906C164.068 28.4081 162.073 26.6558 159.312 25.4471L159.305 25.4441L159.298 25.4409C156.568 24.198 153.059 23.5492 148.724 23.5492H134.244ZM174.648 7.02799C168.659 3.96987 161.475 2.4646 153.135 2.4646H109.153V114.407H134.244V75.4682H149.38L169.997 114.407H197.776L174.38 71.1743C180.456 68.3051 185.129 64.169 188.358 58.7629L188.36 58.7602C191.591 53.3125 193.184 46.8432 193.184 39.3955C193.184 31.9855 191.61 25.4877 188.422 19.9397C185.267 14.351 180.664 10.0462 174.648 7.02799Z" fill="white"/>
<path fill-rule="evenodd" clip-rule="evenodd" d="M5.03931 22.6613H38.3622V113.359H61.109V22.6613H94.4319V3.51347H5.03931V22.6613ZM62.1483 23.7101H95.4712V2.4646H4V23.7101H37.3229V114.407H62.1483V23.7101Z" fill="white"/>
</g>
<defs>
<filter id="filter0_d_317_384" x="0" y="0.962891" width="438" height="123" filterUnits="userSpaceOnUse" color-interpolation-filters="sRGB">
<feFlood flood-opacity="0" result="BackgroundImageFix"/>
<feColorMatrix in="SourceAlpha" type="matrix" values="0 0 0 0 0 0 0 0 0 0 0 0 0 0 0 0 0 0 127 0" result="hardAlpha"/>
<feOffset dy="4"/>
<feGaussianBlur stdDeviation="2"/>
<feComposite in2="hardAlpha" operator="out"/>
<feColorMatrix type="matrix" values="0 0 0 0 0 0 0 0 0 0 0 0 0 0 0 0 0 0 0.25 0"/>
<feBlend mode="normal" in2="BackgroundImageFix" result="effect1_dropShadow_317_384"/>
<feBlend mode="normal" in="SourceGraphic" in2="effect1_dropShadow_317_384" result="shape"/>
</filter>
</defs>
</svg>
