<svg width="180" height="59" viewBox="0 0 180 59" fill="none" xmlns="http://www.w3.org/2000/svg">
<path d="M28.1211 37.1845L35.3533 20.9585H39.0621L46.3174 37.1845H42.3768L36.4427 22.8593H37.9263L31.969 37.1845H28.1211ZM31.7372 33.7075L32.7339 30.8564H41.0787L42.0987 33.7075H31.7372Z" fill="#EFF2F6"/>
<path d="M48.0009 37.1845V20.9585H55.3722C57.1338 20.9585 58.6869 21.2985 60.0313 21.9784C61.3758 22.6429 62.4266 23.5778 63.1838 24.7832C63.9411 25.9886 64.3197 27.418 64.3197 29.0715C64.3197 30.7096 63.9411 32.139 63.1838 33.3598C62.4266 34.5652 61.3758 35.5079 60.0313 36.1878C58.6869 36.8523 57.1338 37.1845 55.3722 37.1845H48.0009ZM51.7561 34.1016H55.1867C56.2684 34.1016 57.2034 33.9007 57.9915 33.4989C58.7951 33.0817 59.4132 32.4944 59.8459 31.7372C60.2941 30.98 60.5181 30.0914 60.5181 29.0715C60.5181 28.0361 60.2941 27.1476 59.8459 26.4058C59.4132 25.6486 58.7951 25.0691 57.9915 24.6673C57.2034 24.2501 56.2684 24.0414 55.1867 24.0414H51.7561V34.1016Z" fill="#EFF2F6"/>
<path d="M71.4761 37.1845L64.4758 20.9585H68.5323L74.6518 35.3301H72.2643L78.4765 20.9585H82.2085L75.185 37.1845H71.4761Z" fill="#EFF2F6"/>
<path d="M87.0171 27.4953H94.8288V30.416H87.0171V27.4953ZM87.2953 34.1711H96.1269V37.1845H83.5633V20.9585H95.8255V23.9719H87.2953V34.1711Z" fill="#EFF2F6"/>
<path d="M99.1147 37.1845V20.9585H102.221L111.794 32.6412H110.288V20.9585H113.996V37.1845H110.913L101.317 25.5018H102.824V37.1845H99.1147Z" fill="#EFF2F6"/>
<path d="M121.196 37.1845V24.0183H116.004V20.9585H130.144V24.0183H124.952V37.1845H121.196Z" fill="#EFF2F6"/>
<path d="M139.102 37.4627C136.799 37.4627 134.999 36.8214 133.701 35.5388C132.403 34.2561 131.754 32.4249 131.754 30.0451V20.9585H135.509V29.906C135.509 31.4513 135.826 32.564 136.459 33.2439C137.093 33.9239 137.981 34.2639 139.125 34.2639C140.269 34.2639 141.157 33.9239 141.791 33.2439C142.424 32.564 142.741 31.4513 142.741 29.906V20.9585H146.45V30.0451C146.45 32.4249 145.801 34.2561 144.503 35.5388C143.205 36.8214 141.404 37.4627 139.102 37.4627Z" fill="#EFF2F6"/>
<path d="M150.161 37.1845V20.9585H157.184C158.637 20.9585 159.889 21.198 160.939 21.6771C161.99 22.1407 162.802 22.8129 163.373 23.6937C163.945 24.5746 164.231 25.6254 164.231 26.8462C164.231 28.0516 163.945 29.0947 163.373 29.9755C162.802 30.8409 161.99 31.5054 160.939 31.969C159.889 32.4326 158.637 32.6644 157.184 32.6644H152.247L153.916 31.0186V37.1845H150.161ZM160.476 37.1845L156.419 31.2968H160.429L164.532 37.1845H160.476ZM153.916 31.4359L152.247 29.6742H156.976C158.135 29.6742 159 29.4269 159.572 28.9324C160.144 28.4225 160.429 27.7271 160.429 26.8462C160.429 25.9499 160.144 25.2545 159.572 24.76C159 24.2655 158.135 24.0183 156.976 24.0183H152.247L153.916 22.2334V31.4359Z" fill="#EFF2F6"/>
<path d="M170.66 27.4953H178.472V30.416H170.66V27.4953ZM170.938 34.1711H179.77V37.1845H167.206V20.9585H179.468V23.9719H170.938V34.1711Z" fill="#EFF2F6"/>
<rect width="105.79" height="13.1501" transform="translate(48.9795 45.3062)" fill="#FFB500"/>
<path d="M55.6938 56.007C55.0834 56.007 54.5155 55.9065 53.9901 55.7056C53.4724 55.497 53.0204 55.2073 52.6341 54.8364C52.2555 54.4578 51.958 54.0212 51.7416 53.5267C51.533 53.0245 51.4287 52.4759 51.4287 51.8809C51.4287 51.286 51.533 50.7412 51.7416 50.2467C51.958 49.7445 52.2555 49.3079 52.6341 48.9371C53.0204 48.5585 53.4724 48.2687 53.9901 48.0678C54.5078 47.8592 55.0757 47.7549 55.6938 47.7549C56.3043 47.7549 56.8683 47.8592 57.386 48.0678C57.9037 48.2687 58.3518 48.5546 58.7304 48.9255C59.1168 49.2964 59.4142 49.7329 59.6229 50.2351C59.8392 50.7374 59.9474 51.286 59.9474 51.8809C59.9474 52.4759 59.8392 53.0245 59.6229 53.5267C59.4142 54.029 59.1168 54.4655 58.7304 54.8364C58.3518 55.2073 57.9037 55.497 57.386 55.7056C56.8683 55.9065 56.3043 56.007 55.6938 56.007ZM55.6938 55.242C56.1806 55.242 56.6288 55.1609 57.0383 54.9987C57.4555 54.8287 57.8148 54.593 58.1162 54.2917C58.4252 53.9826 58.6648 53.6272 58.8347 53.2254C59.0047 52.8159 59.0897 52.3677 59.0897 51.8809C59.0897 51.3942 59.0047 50.9499 58.8347 50.5481C58.6648 50.1386 58.4252 49.7831 58.1162 49.4818C57.8148 49.1727 57.4555 48.9371 57.0383 48.7748C56.6288 48.6048 56.1806 48.5198 55.6938 48.5198C55.2071 48.5198 54.7551 48.6048 54.3378 48.7748C53.9206 48.9371 53.5574 49.1727 53.2483 49.4818C52.947 49.7831 52.7075 50.1386 52.5298 50.5481C52.3598 50.9499 52.2748 51.3942 52.2748 51.8809C52.2748 52.36 52.3598 52.8043 52.5298 53.2138C52.7075 53.6233 52.947 53.9826 53.2483 54.2917C53.5574 54.593 53.9206 54.8287 54.3378 54.9987C54.7551 55.1609 55.2071 55.242 55.6938 55.242Z" fill="#051529"/>
<path d="M72.9769 55.9374V47.8244H73.6839L79.2819 54.8712H78.911V47.8244H79.7571V55.9374H79.0501L73.4637 48.8907H73.8346V55.9374H72.9769Z" fill="#051529"/>
<path d="M93.5122 55.9374V47.8244H94.3699V55.1957H98.9132V55.9374H93.5122Z" fill="#051529"/>
<path d="M111.444 55.9374V47.8244H112.302V55.9374H111.444Z" fill="#051529"/>
<path d="M126.049 55.9374V47.8244H126.756L132.354 54.8712H131.983V47.8244H132.829V55.9374H132.122L126.536 48.8907H126.906V55.9374H126.049Z" fill="#051529"/>
<path d="M147.349 51.4521H151.637V52.1823H147.349V51.4521ZM147.442 55.1957H152.321V55.9374H146.584V47.8244H152.147V48.5662H147.442V55.1957Z" fill="#051529"/>
<g clip-path="url(#clip0_206_1906)">
<path d="M35.2073 10.0382C34.3358 10.4427 33.6098 10.7562 33.6098 10.7562L33.3271 12.1476C33.2797 12.3809 32.9501 12.3904 32.8894 12.1602L32.5933 11.0382C32.4361 11.0669 32.3522 11.0281 32.3522 11.0281C32.3522 11.0281 32.3631 10.9361 32.4699 10.8173L31.6704 9.9768C31.5064 9.80439 31.6872 9.52844 31.9106 9.61032L33.2427 10.0987C33.2427 10.0987 33.89 9.64421 34.6911 9.11347L32.6928 7.02169C32.626 6.95176 32.6277 6.84048 32.6981 6.77417C32.8549 6.62645 33.1469 6.4267 33.4494 6.60826C33.7625 6.79613 35.2575 7.68459 36.1236 8.19908C36.5026 7.96933 36.854 7.76966 37.1282 7.63822C38.3298 7.06218 38.6095 7.52893 38.6095 7.52893C38.6095 7.52893 38.86 8.01201 37.7401 8.73418C37.4845 8.89897 37.1304 9.09386 36.7362 9.2965C36.7201 10.3043 36.6924 12.0442 36.6882 12.4096C36.6841 12.7626 36.3611 12.9067 36.1532 12.963C36.0599 12.9882 35.9643 12.9314 35.9398 12.8378L35.2073 10.0382ZM31.1985 12.5069C29.2855 13.9513 27.1714 15.3299 24.9581 16.5819C23.862 19.4779 21.066 21.5371 17.7881 21.5371C16.8148 21.5371 15.8858 21.352 15.0294 21.0209C12.0526 21.9888 9.27681 22.583 6.58756 22.6984C10.2989 31.4747 17.9128 37.1847 17.9128 37.1847C17.9128 37.1847 31.2268 27.203 31.2268 13.3464C31.2268 13.0641 31.2158 12.7847 31.1985 12.5069ZM31.0676 11.2895C25.123 14.5309 17.9753 16.923 11.2033 17.7965C8.96867 18.0688 6.83764 18.1368 4.93008 17.944C2.24847 17.622 0.604627 16.6107 0.107734 15.1564C-0.313286 13.7918 0.481797 11.8859 2.80876 10.1794C3.52204 9.65286 4.39483 9.13938 5.39968 8.67865V8.67702C7.28943 3.6076 12.1701 0 17.8928 0C22.32 0 26.2452 2.16035 28.6693 5.48432C29.8944 7.16009 30.7455 9.17091 31.0676 11.2895ZM4.66289 15.0057C4.40865 13.0155 4.63536 10.8698 5.27661 9.02547C4.21258 9.82375 3.35666 10.5286 2.93507 11.4646C2.31002 13.0463 3.04681 14.2991 4.66289 15.0057ZM25.4048 12.9961C25.1295 10.5489 23.7045 8.45014 21.6836 7.25409C20.542 6.57826 19.2093 6.19093 17.7875 6.19093C15.5901 6.19093 13.6096 7.1147 12.2122 8.59599C10.9167 9.97032 10.1216 11.8243 10.1216 13.8631C10.1216 14.5616 10.2155 15.2375 10.3904 15.8809C15.5053 15.7898 20.5613 14.6222 25.4048 12.9961Z" fill="#FFB500"/>
<path d="M12.5706 13.8629C12.5706 14.5614 12.6645 15.2372 12.8394 15.8806C10.7402 15.8786 8.84136 15.7454 7.11182 15.0054C6.85759 13.0153 7.0843 10.8695 7.72554 9.02518L7.84214 8.69781C9.3481 8.85502 11.7593 8.83395 14.6611 8.5957C13.3656 9.97003 12.5706 11.8241 12.5706 13.8629Z" fill="url(#paint0_linear_206_1906)"/>
<path d="M33.4251 10.7694C31.7167 11.5651 29.8464 12.3187 27.853 12.9962C27.5778 10.5489 26.1528 8.4502 24.1318 7.25415C26.462 6.78415 28.8327 6.19909 31.1176 5.48438C32.243 7.02887 33.0462 8.82295 33.4251 10.7694Z" fill="url(#paint1_linear_206_1906)"/>
</g>
<defs>
<linearGradient id="paint0_linear_206_1906" x1="11.0418" y1="12.5695" x2="13.16" y2="23.0381" gradientUnits="userSpaceOnUse">
<stop stop-opacity="0"/>
<stop offset="1" stop-opacity="0.4"/>
</linearGradient>
<linearGradient id="paint1_linear_206_1906" x1="28.9192" y1="9.70777" x2="30.6904" y2="18.4609" gradientUnits="userSpaceOnUse">
<stop stop-opacity="0"/>
<stop offset="1" stop-opacity="0.4"/>
</linearGradient>
<clipPath id="clip0_206_1906">
<rect width="41.6326" height="36.7347" fill="white"/>
</clipPath>
</defs>
</svg>
