<svg width="147" height="49" viewBox="0 0 147 49" fill="none" xmlns="http://www.w3.org/2000/svg">
<path d="M22.9658 30.8675L28.8721 17.6162H31.901L37.8262 30.8675H34.608L29.7618 19.1685H30.9734L26.1083 30.8675H22.9658ZM25.919 28.0279L26.733 25.6995H33.5479L34.3809 28.0279H25.919Z" fill="#051529"/>
<path d="M39.201 30.8675V17.6162H45.2209C46.6596 17.6162 47.9279 17.8939 49.0259 18.4491C50.1239 18.9918 50.982 19.7553 51.6004 20.7397C52.2188 21.7241 52.528 22.8915 52.528 24.2419C52.528 25.5796 52.2188 26.747 51.6004 27.744C50.982 28.7284 50.1239 29.4982 49.0259 30.0535C47.9279 30.5962 46.6596 30.8675 45.2209 30.8675H39.201ZM42.2677 28.3498H45.0694C45.9529 28.3498 46.7164 28.1857 47.36 27.8576C48.0163 27.5168 48.5211 27.0372 48.8744 26.4189C49.2404 25.8005 49.4234 25.0748 49.4234 24.2419C49.4234 23.3963 49.2404 22.6706 48.8744 22.0649C48.5211 21.4465 48.0163 20.9732 47.36 20.6451C46.7164 20.3043 45.9529 20.134 45.0694 20.134H42.2677V28.3498Z" fill="#051529"/>
<path d="M58.3725 30.8675L52.6555 17.6162H55.9683L60.9659 29.3531H59.0161L64.0895 17.6162H67.1373L61.4013 30.8675H58.3725Z" fill="#051529"/>
<path d="M71.0643 22.9546H77.4438V25.3398H71.0643V22.9546ZM71.2914 28.4065H78.5039V30.8675H68.2437V17.6162H78.2578V20.0772H71.2914V28.4065Z" fill="#051529"/>
<path d="M80.944 30.8675V17.6162H83.4807L91.299 27.1571H90.0685V17.6162H93.0974V30.8675H90.5796L82.7424 21.3266H83.9729V30.8675H80.944Z" fill="#051529"/>
<path d="M98.9775 30.8675V20.115H94.7371V17.6162H106.285V20.115H102.044V30.8675H98.9775Z" fill="#051529"/>
<path d="M113.6 31.0947C111.72 31.0947 110.249 30.5709 109.189 29.5234C108.129 28.476 107.599 26.9805 107.599 25.0369V17.6162H110.666V24.9233C110.666 26.1854 110.925 27.094 111.442 27.6493C111.96 28.2046 112.685 28.4823 113.619 28.4823C114.553 28.4823 115.279 28.2046 115.796 27.6493C116.314 27.094 116.572 26.1854 116.572 24.9233V17.6162H119.601V25.0369C119.601 26.9805 119.071 28.476 118.011 29.5234C116.951 30.5709 115.481 31.0947 113.6 31.0947Z" fill="#051529"/>
<path d="M122.632 30.8675V17.6162H128.368C129.554 17.6162 130.576 17.8118 131.434 18.2031C132.292 18.5817 132.955 19.1306 133.422 19.85C133.889 20.5694 134.122 21.4275 134.122 22.4245C134.122 23.4089 133.889 24.2608 133.422 24.9801C132.955 25.6869 132.292 26.2295 131.434 26.6082C130.576 26.9868 129.554 27.1761 128.368 27.1761H124.335L125.698 25.832V30.8675H122.632ZM131.056 30.8675L127.743 26.0592H131.018L134.368 30.8675H131.056ZM125.698 26.1728L124.335 24.734H128.197C129.144 24.734 129.85 24.5321 130.317 24.1283C130.784 23.7118 131.018 23.1439 131.018 22.4245C131.018 21.6926 130.784 21.1246 130.317 20.7208C129.85 20.3169 129.144 20.115 128.197 20.115H124.335L125.698 18.6574V26.1728Z" fill="#051529"/>
<path d="M139.373 22.9546H145.752V25.3398H139.373V22.9546ZM139.6 28.4065H146.812V30.8675H136.552V17.6162H146.566V20.0772H139.6V28.4065Z" fill="#051529"/>
<rect width="86.3956" height="10.7392" transform="translate(40 37.5)" fill="#FFB500"/>
<path d="M45.4832 46.2392C44.9847 46.2392 44.5209 46.1572 44.0918 45.9931C43.669 45.8228 43.2999 45.5861 42.9844 45.2832C42.6752 44.974 42.4322 44.6175 42.2556 44.2137C42.0852 43.8035 42 43.3555 42 42.8696C42 42.3837 42.0852 41.9389 42.2556 41.535C42.4322 41.1249 42.6752 40.7683 42.9844 40.4655C43.2999 40.1563 43.669 39.9196 44.0918 39.7556C44.5146 39.5852 44.9784 39.5 45.4832 39.5C45.9817 39.5 46.4423 39.5852 46.8651 39.7556C47.2879 39.9196 47.6539 40.1531 47.9631 40.456C48.2786 40.7589 48.5215 41.1154 48.6919 41.5256C48.8686 41.9357 48.9569 42.3837 48.9569 42.8696C48.9569 43.3555 48.8686 43.8035 48.6919 44.2137C48.5215 44.6238 48.2786 44.9804 47.9631 45.2832C47.6539 45.5861 47.2879 45.8228 46.8651 45.9931C46.4423 46.1572 45.9817 46.2392 45.4832 46.2392ZM45.4832 45.6145C45.8807 45.6145 46.2467 45.5483 46.5812 45.4158C46.9219 45.2769 47.2153 45.0845 47.4614 44.8384C47.7138 44.586 47.9094 44.2957 48.0483 43.9676C48.1871 43.6331 48.2565 43.2672 48.2565 42.8696C48.2565 42.4721 48.1871 42.1092 48.0483 41.7811C47.9094 41.4467 47.7138 41.1564 47.4614 40.9103C47.2153 40.6579 46.9219 40.4655 46.5812 40.3329C46.2467 40.1941 45.8807 40.1247 45.4832 40.1247C45.0857 40.1247 44.7165 40.1941 44.3758 40.3329C44.035 40.4655 43.7384 40.6579 43.486 40.9103C43.2399 41.1564 43.0443 41.4467 42.8992 41.7811C42.7604 42.1092 42.691 42.4721 42.691 42.8696C42.691 43.2608 42.7604 43.6237 42.8992 43.9581C43.0443 44.2925 43.2399 44.586 43.486 44.8384C43.7384 45.0845 44.035 45.2769 44.3758 45.4158C44.7165 45.5483 45.0857 45.6145 45.4832 45.6145Z" fill="#051529"/>
<path d="M59.5977 46.1824V39.5568H60.1751L64.7468 45.3116H64.4439V39.5568H65.1349V46.1824H64.5575L59.9952 40.4276H60.2981V46.1824H59.5977Z" fill="#051529"/>
<path d="M76.3682 46.1824V39.5568H77.0687V45.5767H80.779V46.1824H76.3682Z" fill="#051529"/>
<path d="M91.0128 46.1824V39.5568H91.7132V46.1824H91.0128Z" fill="#051529"/>
<path d="M102.94 46.1824V39.5568H103.517L108.089 45.3116H107.786V39.5568H108.477V46.1824H107.9L103.337 40.4276H103.64V46.1824H102.94Z" fill="#051529"/>
<path d="M120.335 42.5194H123.837V43.1157H120.335V42.5194ZM120.411 45.5767H124.396V46.1824H119.71V39.5568H124.254V40.1626H120.411V45.5767Z" fill="#051529"/>
<g clip-path="url(#clip0_203_563)">
<path d="M28.7527 8.69783C28.0409 9.02823 27.448 9.28427 27.448 9.28427L27.2172 10.4205C27.1784 10.6111 26.9093 10.6188 26.8597 10.4309L26.6179 9.51457C26.4895 9.53801 26.421 9.50628 26.421 9.50628C26.421 9.50628 26.4299 9.43118 26.5171 9.33411L25.8642 8.64773C25.7302 8.50692 25.8779 8.28157 26.0603 8.34844L27.1482 8.74725C27.1482 8.74725 27.6769 8.37611 28.3311 7.94268L26.6991 6.23438C26.6446 6.17727 26.646 6.0864 26.7035 6.03225C26.8316 5.9116 27.07 5.74847 27.3171 5.89675C27.5727 6.05018 28.7937 6.77575 29.5009 7.19592C29.8105 7.00829 30.0975 6.84523 30.3214 6.73789C31.3027 6.26745 31.5311 6.64863 31.5311 6.64863C31.5311 6.64863 31.7357 7.04315 30.8211 7.63292C30.6124 7.7675 30.3232 7.92666 30.0013 8.09215C29.9881 8.91519 29.9655 10.3361 29.9621 10.6345C29.9587 10.9228 29.6949 11.0405 29.5252 11.0864C29.4489 11.107 29.3709 11.0606 29.3509 10.9842L28.7527 8.69783ZM25.4788 10.714C23.9165 11.8935 22.19 13.0194 20.3825 14.0419C19.4873 16.407 17.2039 18.0887 14.5269 18.0887C13.7321 18.0887 12.9734 17.9375 12.274 17.6671C9.84294 18.4575 7.57607 18.9428 5.37985 19.0371C8.41074 26.2044 14.6288 30.8675 14.6288 30.8675C14.6288 30.8675 25.5019 22.7158 25.5019 11.3995C25.5019 11.169 25.4929 10.9408 25.4788 10.714ZM25.3719 9.71979C20.5172 12.3669 14.6799 14.3204 9.1494 15.0338C7.32442 15.2562 5.58408 15.3118 4.02624 15.1543C1.83625 14.8913 0.49378 14.0654 0.0879829 12.8778C-0.25585 11.7633 0.393468 10.2069 2.29383 8.81317C2.87633 8.38317 3.58912 7.96384 4.40974 7.58757V7.58624C5.95304 3.44621 9.9389 0.5 14.6124 0.5C18.228 0.5 21.4336 2.26428 23.4133 4.97886C24.4138 6.34741 25.1089 7.98959 25.3719 9.71979ZM3.80803 12.7547C3.6004 11.1294 3.78555 9.377 4.30923 7.87081C3.44028 8.52274 2.74127 9.09839 2.39698 9.86274C1.88652 11.1545 2.48823 12.1776 3.80803 12.7547ZM20.7473 11.1135C20.5225 9.11493 19.3587 7.40095 17.7083 6.42418C16.776 5.87225 15.6876 5.55593 14.5265 5.55593C12.7319 5.55593 11.1146 6.31035 9.97328 7.52007C8.91532 8.64244 8.266 10.1566 8.266 11.8216C8.266 12.392 8.3427 12.9439 8.48553 13.4694C12.6627 13.395 16.7918 12.4415 20.7473 11.1135Z" fill="#FFB500"/>
<path d="M10.2659 11.8217C10.2659 12.3921 10.3426 12.944 10.4855 13.4695C8.77112 13.4679 7.22041 13.359 5.80795 12.7548C5.60033 11.1294 5.78548 9.37708 6.30916 7.87088L6.40438 7.60353C7.63425 7.73191 9.60338 7.71471 11.9732 7.52014C10.9152 8.64251 10.2659 10.1566 10.2659 11.8217Z" fill="url(#paint0_linear_203_563)"/>
<path d="M27.2975 9.29496C25.9024 9.94482 24.3749 10.5603 22.747 11.1135C22.5222 9.11495 21.3584 7.40097 19.708 6.4242C21.611 6.04037 23.5471 5.56257 25.413 4.97888C26.3322 6.24022 26.9881 7.70538 27.2975 9.29496Z" fill="url(#paint1_linear_203_563)"/>
</g>
<defs>
<linearGradient id="paint0_linear_203_563" x1="9.01743" y1="10.7654" x2="10.7473" y2="19.3148" gradientUnits="userSpaceOnUse">
<stop stop-opacity="0"/>
<stop offset="1" stop-opacity="0.4"/>
</linearGradient>
<linearGradient id="paint1_linear_203_563" x1="23.6177" y1="8.42799" x2="25.0641" y2="15.5764" gradientUnits="userSpaceOnUse">
<stop stop-opacity="0"/>
<stop offset="1" stop-opacity="0.4"/>
</linearGradient>
<clipPath id="clip0_203_563">
<rect width="34" height="30" fill="white" transform="translate(0 0.5)"/>
</clipPath>
</defs>
</svg>
