<svg aria-hidden="true" style="position: absolute; width: 0; height: 0; overflow: hidden;" version="1.1" xmlns="http://www.w3.org/2000/svg" xmlns:xlink="http://www.w3.org/1999/xlink">
<defs>
<symbol id="icon-car" viewBox="0 0 32 32">
  <path d="M10 24.5c-0.827 0-1.5 0.673-1.5 1.5s0.673 1.5 1.5 1.5c0.827 0 1.5-0.673 1.5-1.5s-0.673-1.5-1.5-1.5zM10 26.5c-0.066 0-0.131-0.013-0.191-0.038s-0.116-0.062-0.162-0.109c-0.046-0.047-0.083-0.102-0.108-0.162s-0.038-0.126-0.038-0.191c0-0.066 0.013-0.131 0.038-0.191s0.062-0.116 0.109-0.162c0.046-0.046 0.102-0.083 0.162-0.108s0.126-0.038 0.191-0.038c0.133 0 0.26 0.053 0.354 0.147s0.146 0.221 0.146 0.354-0.053 0.26-0.147 0.354c-0.094 0.094-0.221 0.146-0.354 0.146zM24.5 24.5c-0.827 0-1.5 0.673-1.5 1.5s0.673 1.5 1.5 1.5c0.827 0 1.5-0.673 1.5-1.5s-0.673-1.5-1.5-1.5zM24.5 26.5c-0.066 0-0.131-0.013-0.191-0.038s-0.116-0.062-0.162-0.109c-0.047-0.047-0.083-0.102-0.108-0.162s-0.038-0.126-0.038-0.191c0-0.066 0.013-0.131 0.038-0.191s0.062-0.116 0.109-0.162c0.047-0.046 0.102-0.083 0.162-0.108s0.126-0.038 0.191-0.038c0.133 0 0.26 0.053 0.354 0.147s0.146 0.221 0.146 0.354c-0 0.133-0.053 0.26-0.147 0.354s-0.221 0.146-0.354 0.146zM20.954 9.79c-0.040-0.087-0.104-0.16-0.185-0.212s-0.174-0.079-0.269-0.079h-5.5c-0.133 0-0.26 0.053-0.354 0.146s-0.146 0.221-0.146 0.354v6.5c0 0.133 0.053 0.26 0.146 0.354s0.221 0.146 0.354 0.146h8.5c0.084-0 0.166-0.022 0.24-0.062s0.136-0.099 0.181-0.169c0.045-0.071 0.072-0.151 0.078-0.235s-0.009-0.167-0.044-0.243l-3-6.5zM15.5 16v-5.5h4.68l2.539 5.5h-7.219zM13 9.5h-7.5c-0.133 0-0.26 0.053-0.354 0.146s-0.146 0.221-0.146 0.354v6.5c0 0.133 0.053 0.26 0.146 0.354s0.221 0.146 0.354 0.146h7.5c0.133 0 0.26-0.053 0.354-0.146s0.146-0.221 0.146-0.354v-6.5c0-0.133-0.053-0.26-0.146-0.354s-0.221-0.146-0.354-0.146zM6 16v-5.5h1v5.5h-1zM12.5 16h-4.5v-5.5h4.5v5.5z"></path>
  <path d="M32 21.5v-3c0-0.133-0.053-0.26-0.146-0.354s-0.221-0.146-0.354-0.146c0-1.103-0.897-2-2-2h-3.183l-3.325-7.062c-0.202-0.429-0.522-0.792-0.923-1.047s-0.865-0.39-1.34-0.391h-0.14c0.584-0.604 0.91-1.41 0.91-2.25 0-1.792-1.458-3.25-3.25-3.25h-10.5c-0.862 0.001-1.688 0.344-2.297 0.953s-0.952 1.435-0.953 2.297c0 0.877 0.351 1.673 0.918 2.258-1.34 0.045-2.418 1.141-2.418 2.492v1h-1.5c-0.827 0-1.5 0.673-1.5 1.5v6c0 0.827 0.673 1.5 1.5 1.5h1.5v4c-0.551 0-1 0.449-1 1v2c0 0.551 0.449 1 1 1h3.541c0.693 1.193 1.982 2 3.459 2s2.766-0.807 3.459-2h7.582c0.693 1.193 1.982 2 3.459 2s2.766-0.807 3.459-2h3.041c0.551 0 1-0.449 1-1v-2c0-0.369-0.203-0.687-0.5-0.861v-2.139c0.133 0 0.26-0.053 0.354-0.146s0.146-0.221 0.146-0.354zM30 21c-0.551 0-1-0.449-1-1s0.449-1 1-1h1v2h-1zM20.5 5.25c0 1.24-1.009 2.25-2.25 2.25h-0.75v-4.5h0.75c1.241 0 2.25 1.010 2.25 2.25zM16.5 3v4.5h-1v-4.5h1zM11.5 7.5v-4.5h3v4.5h-3zM10.5 3v4.5h-1v-4.5h1zM7.75 3h0.75v4.5h-0.75c-1.24 0-2.25-1.010-2.25-2.25s1.010-2.25 2.25-2.25zM4 21h1.5v1h-1.5v-1zM5.5 20h-1.5v-1h1.5v1zM1.5 19c-0.133 0-0.26-0.053-0.354-0.146s-0.146-0.221-0.146-0.354v-6c0-0.133 0.053-0.26 0.146-0.354s0.221-0.146 0.354-0.146h1.5v7h-1.5zM3 27v-2h3.131c-0.083 0.32-0.131 0.654-0.131 1s0.048 0.68 0.131 1h-3.131zM10 29c-1.655 0-3-1.345-3-3s1.345-3 3-3c1.655 0 3 1.345 3 3s-1.345 3-3 3zM13.869 27c0.083-0.32 0.131-0.654 0.131-1s-0.049-0.68-0.131-1h6.763c-0.083 0.32-0.131 0.654-0.131 1s0.049 0.68 0.131 1h-6.763zM24.5 29c-1.655 0-3-1.345-3-3s1.345-3 3-3c1.655 0 3 1.345 3 3s-1.345 3-3 3zM31 27h-2.631c0.083-0.32 0.131-0.654 0.131-1s-0.049-0.68-0.131-1h2.631v2zM30.5 24h-2.541c-0.693-1.193-1.982-2-3.459-2s-2.766 0.807-3.459 2h-7.582c-0.693-1.193-1.982-2-3.459-2s-2.766 0.807-3.459 2h-2.541v-1h2c0.133 0 0.26-0.053 0.354-0.146s0.146-0.221 0.146-0.354v-4c0-0.133-0.053-0.26-0.146-0.354s-0.221-0.146-0.354-0.146h-2v-8c0-0.827 0.673-1.5 1.5-1.5h15.23c0.58 0 1.113 0.338 1.358 0.863l3.46 7.35c0.082 0.175 0.258 0.287 0.452 0.287h3.5c0.551 0 1 0.449 1 1h-0.5c-1.103 0-2 0.897-2 2s0.897 2 2 2h0.5v2z"></path>
  <path d="M16 18.5h-1c-0.133 0-0.26 0.053-0.354 0.146s-0.146 0.221-0.146 0.354 0.053 0.26 0.146 0.354c0.094 0.094 0.221 0.146 0.354 0.146h1c0.133 0 0.26-0.053 0.354-0.146s0.146-0.221 0.146-0.354-0.053-0.26-0.146-0.354c-0.094-0.094-0.221-0.146-0.354-0.146z"></path>
</symbol>
<symbol id="icon-city" viewBox="0 0 32 32">
  <path d="M29.28 29.918v-14.4h-0.96v-1.92h-0.96v-2.88h-0.96v-1.92h-0.96v1.92h-0.96v2.88h-0.96v-10.666l-2.88 0.576v-1.43h-0.96v1.622l-0.96 0.192v-2.774h-0.96v2.966l-0.96 0.192v-2.198h-0.96v2.391l-2.88 0.576v2.793h-8.64v0.96h0.96v5.804c-0.159-0.028-0.319-0.042-0.48-0.044-1.852 0-3.36 1.723-3.36 3.84 0 1.93 1.255 3.528 2.88 3.796v0.626c-0.402-0.363-0.9-0.582-1.44-0.582-1.323 0-2.4 1.292-2.4 2.88 0 1.391 0.826 2.554 1.92 2.822v1.978h-1.92v0.96h29.76v-0.96h-0.96zM8.16 29.438c0-0.794 0.646-1.44 1.44-1.44 0.255 0 0.506 0.068 0.726 0.197s0.403 0.314 0.529 0.536l0.149 0.264 0.516-0.036c0.141 0 0.29 0.027 0.455 0.083l0.467 0.157 0.145-0.47c0.15-0.491 0.454-0.92 0.867-1.224s0.913-0.468 1.426-0.466c0.873 0 1.678 0.476 2.102 1.242l0.3 0.543 0.45-0.427c0.541-0.513 1.434-0.513 1.975 0l0.45 0.427 0.3-0.543c0.208-0.376 0.512-0.689 0.882-0.908s0.791-0.334 1.22-0.334c0.507-0.001 1.001 0.159 1.411 0.457s0.715 0.718 0.871 1.201l0.135 0.414 0.426-0.094c0.951-0.211 1.881 0.18 2.428 0.902h-19.577c-0.058-0.154-0.090-0.316-0.093-0.48zM28.32 16.478v12.546c-0.277-0.285-0.602-0.519-0.96-0.692v-10.894h-6.72v9.25c-0.272 0.188-0.515 0.415-0.721 0.674-0.077-0.044-0.157-0.083-0.239-0.118v-10.766h8.64zM22.56 26.078c-0.33 0-0.652 0.054-0.96 0.146v-7.826h1.92v7.819c-0.312-0.092-0.635-0.139-0.96-0.139zM24.48 18.398h1.92v9.645c-0.264-0.042-0.531-0.052-0.797-0.030-0.251-0.533-0.638-0.991-1.123-1.327v-8.289zM20.64 15.518v-0.96h6.72v0.96h-6.72zM25.44 11.678h0.96v1.92h-0.96v-1.92zM22.56 4.103v9.494h-2.88v1.92h-0.96v11.527c-0.419 0-0.837 0.106-1.199 0.316-0.314-0.4-0.716-0.723-1.173-0.945s-0.959-0.338-1.468-0.338c-0.332 0-0.655 0.048-0.96 0.138v-20.385l8.64-1.728zM6.24 8.798h6.72v17.885c-0.489 0.338-0.878 0.8-1.129 1.339-0.103-0.014-0.207-0.022-0.311-0.023-0.224-0.298-0.514-0.54-0.847-0.707s-0.701-0.254-1.074-0.254c-1.323 0-2.4 1.077-2.4 2.4 0 0.162 0.022 0.322 0.054 0.48h-1.974v-1.743l2.88-3.36v-1.181c1.625-0.268 2.88-1.866 2.88-3.796 0-1.445-0.703-2.705-1.737-3.36h0.777v-0.96h-0.96v0.856c-0.441-0.244-0.936-0.374-1.44-0.376-0.083 0-0.167 0.005-0.252 0.013-0.307-0.446-0.713-0.815-1.188-1.078v-6.136zM8.16 18.398c0-0.504-0.088-0.985-0.243-1.426 1.212 0.143 2.163 1.374 2.163 2.866 0 1.588-1.077 2.88-2.4 2.88-0.606 0-1.181-0.279-1.62-0.763 1.23-0.571 2.1-1.949 2.1-3.557zM5.28 22.516c0.515 0.604 1.187 0.998 1.92 1.119v0.825l-1.92 2.24v-4.184zM2.4 18.398c0-1.588 1.077-2.88 2.4-2.88s2.4 1.292 2.4 2.88c0 1.391-0.826 2.554-1.92 2.822v-3.302h-0.96v3.302c-1.094-0.268-1.92-1.431-1.92-2.822zM1.44 25.118c0-1.059 0.646-1.92 1.44-1.92s1.44 0.861 1.44 1.92c0 1.059-0.646 1.92-1.44 1.92s-1.44-0.861-1.44-1.92zM3.36 27.94c0.355-0.087 0.681-0.271 0.96-0.523v2.501h-0.96v-1.978z"></path>
  <path d="M17.76 6.878h-2.88v3.84h2.88v-3.84zM16.8 9.758h-0.96v-1.92h0.96v1.92zM17.76 11.678h-2.88v3.84h2.88v-3.84zM16.8 14.558h-0.96v-1.92h0.96v1.92zM17.76 16.478h-2.88v3.84h2.88v-3.84zM16.8 19.358h-0.96v-1.92h0.96v1.92zM17.76 21.278h-2.88v3.84h2.88v-3.84zM16.8 24.158h-0.96v-1.92h0.96v1.92zM21.6 6.878h-2.88v3.84h2.88v-3.84zM20.64 9.758h-0.96v-1.92h0.96v1.92zM7.2 9.758h0.96v0.96h-0.96v-0.96zM9.12 9.758h0.96v0.96h-0.96v-0.96zM11.040 9.758h0.96v0.96h-0.96v-0.96zM7.2 11.678h0.96v0.96h-0.96v-0.96zM9.12 11.678h0.96v0.96h-0.96v-0.96zM11.040 11.678h0.96v0.96h-0.96v-0.96zM9.12 13.598h0.96v0.96h-0.96v-0.96zM7.2 13.598h0.96v0.96h-0.96v-0.96zM11.040 13.598h0.96v0.96h-0.96v-0.96zM11.040 15.518h0.96v0.96h-0.96v-0.96z"></path>
</symbol>
<symbol id="icon-cruise" viewBox="0 0 32 32">
  <path d="M24.111 17.913l-3.881-2.395c-0.279-0.172-0.655-0.081-0.826 0.195s-0.081 0.655 0.196 0.826l3.881 2.395c0.279 0.172 0.654 0.083 0.826-0.196s0.084-0.654-0.195-0.826zM17.873 14.169c-0.383-0-0.672 0.365-0.585 0.738 0.035 0.149 0.137 0.284 0.271 0.369 0.092 0.059 0.2 0.094 0.312 0.094 0.21 0 0.401-0.106 0.511-0.285 0.234-0.381-0.060-0.915-0.51-0.915zM11.66 15.683c-0.169-0.27-0.559-0.357-0.828-0.187l-3.857 2.432c-0.277 0.175-0.362 0.55-0.187 0.827 0.105 0.167 0.308 0.264 0.508 0.27 0.113 0.003 0.225-0.023 0.319-0.082l3.857-2.433c0.277-0.175 0.362-0.55 0.187-0.827zM13.181 14.123c-0.279 0-0.523 0.196-0.584 0.467-0.084 0.37 0.209 0.733 0.586 0.733 0.278 0 0.524-0.196 0.585-0.467 0.084-0.372-0.206-0.733-0.586-0.733z"></path>
  <path d="M30.573 27.522c-0.217-0.25-0.596-0.276-0.846-0.059-0.64 0.556-1.232 1.133-2.071 1.365-0.933 0.258-1.82 0.054-2.665-0.368l3.125-10.513c0.038-0.127 0.032-0.263-0.015-0.387s-0.135-0.228-0.249-0.297l-2.891-1.752v-5.115c0-0.331-0.269-0.6-0.6-0.6h-1.2v-1.8c0-0.331-0.269-0.6-0.6-0.6h-1.89v-1.8c0-0.331-0.269-0.6-0.6-0.6h-2.91v-4.2c0-0.331-0.269-0.6-0.6-0.6h-2.4c-0.331 0-0.6 0.269-0.6 0.6v4.2h-2.91c-0.331 0-0.6 0.269-0.6 0.6v1.8h-1.89c-0.331 0-0.6 0.269-0.6 0.6v1.8h-1.2c-0.331 0-0.6 0.269-0.6 0.6v5.115l-2.891 1.752c-0.114 0.069-0.201 0.173-0.249 0.297s-0.053 0.26-0.015 0.387l3.118 10.492c-0.053-0.179-1.013-0.297-1.183-0.319-1.747-0.226-3.075 0.649-4.334 1.743-0.25 0.217-0.276 0.596-0.059 0.846 0.208 0.239 0.594 0.279 0.846 0.059 1.296-1.127 2.758-1.986 4.474-1.128 1.552 0.776 3.158 1.108 4.774 0.258 1.303-0.686 2.561-1.278 4.016-0.586l1.496 0.712c1.28 0.609 2.74 0.595 4.008-0.039 0.781-0.391 1.575-0.91 2.467-0.972 0.875-0.060 1.72 0.265 2.488 0.65 1.015 0.508 2.204 0.609 3.294 0.298 1.004-0.286 1.735-0.926 2.504-1.594 0.25-0.217 0.276-0.596 0.059-0.846zM23.76 10.996v3.788l-6.252-3.788h6.252zM14.76 1.396h1.2v3.6h-1.2v-3.6zM11.25 6.196h8.22v1.2h-8.22v-1.2zM6.96 10.996h6.252l-6.252 3.788v-3.788zM14.76 28.223c0-0.107-0.855-0.303-0.967-0.328-1.044-0.226-2.165-0.083-3.112 0.416-0.687 0.361-1.35 0.783-2.135 0.884l-0.004 0.001c-0.459 0.056-0.929 0.022-1.373-0.108l-3.281-11.040 10.873-6.588v16.762zM8.76 9.796v-1.2h13.2v1.2h-13.2zM23.881 27.979c0.007-0.186-1.682-0.184-1.796-0.172-1.041 0.11-1.942 0.646-2.861 1.106-1.086 0.543-2.203 0.387-3.264-0.119v-17.333l10.873 6.588-2.952 9.93z"></path>
</symbol>
<symbol id="icon-fly" viewBox="0 0 32 32">
  <path d="M5.42 14.5h-2.92c-0.827 0-1.5-0.673-1.5-1.5s0.673-1.5 1.5-1.5c0.133 0 0.26-0.053 0.354-0.146s0.146-0.221 0.146-0.354c-0.001-0.556 0.184-1.097 0.526-1.535s0.821-0.75 1.36-0.885c0.065-0.015 0.126-0.042 0.181-0.081s0.1-0.088 0.135-0.145c0.035-0.057 0.058-0.12 0.068-0.186s0.007-0.133-0.009-0.198c-0.016-0.065-0.045-0.125-0.085-0.179s-0.090-0.098-0.148-0.132c-0.058-0.034-0.121-0.055-0.187-0.064s-0.133-0.004-0.197 0.014c-0.68 0.169-1.294 0.54-1.76 1.064s-0.764 1.176-0.854 1.871c-0.571 0.11-1.085 0.415-1.456 0.863s-0.573 1.011-0.574 1.592c0 1.378 1.122 2.5 2.5 2.5h2.92c0.133 0 0.26-0.053 0.354-0.146s0.146-0.221 0.146-0.354c0-0.133-0.053-0.26-0.146-0.353s-0.221-0.147-0.354-0.147z"></path>
  <path d="M26.447 9.448c-0.018-0.129-0.085-0.245-0.187-0.325s-0.231-0.117-0.361-0.104c-0.129 0.014-0.248 0.077-0.331 0.176s-0.125 0.228-0.115 0.357c0.023 0.22 0.034 0.447 0.040 0.682-1.629 0.66-3.509 0.488-4.981-0.494l-0.047-0.031c-0.201-3.302-1.35-6.348-3.253-8.631 1.713 0.219 3.334 0.901 4.688 1.974 0.104 0.082 0.236 0.12 0.368 0.105s0.252-0.082 0.334-0.186 0.12-0.236 0.105-0.368c-0.015-0.132-0.082-0.252-0.186-0.334-2.003-1.59-4.524-2.387-7.092-2.254-5.502 0.292-9.949 5.013-9.928 10.53v0.005l-0.001 0.023c0.021 3.235 1.54 6.242 4.049 8.198l1.328 5.754c-0.107 0.026-0.202 0.087-0.27 0.173s-0.106 0.193-0.107 0.302v2c0 0.133 0.053 0.26 0.146 0.353s0.221 0.147 0.354 0.147h0.553l0.401 3.61c0.027 0.245 0.143 0.471 0.327 0.635s0.421 0.255 0.667 0.255h6.105c0.246 0 0.484-0.090 0.667-0.255s0.3-0.391 0.327-0.635l0.401-3.61h0.553c0.133 0 0.26-0.053 0.354-0.147s0.146-0.221 0.146-0.353v-2c-0.001-0.11-0.038-0.216-0.107-0.302s-0.163-0.147-0.27-0.173l1.327-5.753c1.252-0.974 2.267-2.22 2.968-3.643s1.070-2.987 1.079-4.574v-0.009c0.001-0.015 0.002-0.030 0.002-0.045 0-0.371-0.016-0.716-0.052-1.052zM17.559 24.5h-3.117l-0.375-3h3.867l-0.375 3zM16 1.212c2.016 2.143 3.243 5.165 3.461 8.475-1.089 0.488-2.268 0.74-3.461 0.74s-2.373-0.252-3.462-0.74c0.218-3.31 1.445-6.332 3.462-8.475zM16 11.439c1.191 0 2.38-0.226 3.5-0.672-0.005 3.716-1.273 7.153-3.5 9.521-2.227-2.367-3.495-5.805-3.5-9.52 1.114 0.443 2.301 0.671 3.5 0.671zM14.779 1.087c-1.897 2.282-3.043 5.324-3.244 8.621l-0.048 0.031c-1.47 0.98-3.345 1.155-4.973 0.498 0.135-4.623 3.718-8.556 8.265-9.15v-0zM6.538 11.317c0.641 0.21 1.309 0.318 1.975 0.318 1.034 0 2.063-0.254 2.99-0.745 0.030 3.685 1.236 7.114 3.352 9.61h-1.151l-0.126-0.123c-0.568-0.568-1.259-1.070-2.115-1.536-1.378-0.75-2.55-1.829-3.409-3.142s-1.381-2.818-1.517-4.381zM10.986 19.719c0.77 0.42 1.386 0.866 1.889 1.368l0.15 0.148 0.408 3.265h-1.535l-1.133-4.912c0.074 0.043 0.146 0.089 0.222 0.13zM19.053 31h-6.105l-0.389-3.5h6.883l-0.389 3.5zM20.5 26.5h-9v-1h9v1zM20.102 24.5h-1.535l0.409-3.268 0.152-0.152c0.503-0.499 1.115-0.941 1.871-1.351 0.081-0.044 0.157-0.093 0.237-0.139l-1.133 4.909zM20.521 18.851c-0.84 0.455-1.527 0.952-2.1 1.521l-0.129 0.129h-1.148c2.115-2.496 3.323-5.925 3.352-9.61 0.921 0.489 1.947 0.745 2.99 0.745 0.666 0 1.332-0.108 1.974-0.318-0.136 1.566-0.658 3.074-1.52 4.389s-2.037 2.395-3.419 3.144z"></path>
  <path d="M29.7 2.584c-0.274-0.621-0.722-1.148-1.29-1.518s-1.232-0.567-1.91-0.566c-1.775 0-3.247 1.329-3.471 3.045-0.571 0.11-1.085 0.415-1.456 0.863s-0.573 1.011-0.574 1.592c0 1.378 1.121 2.5 2.5 2.5h5.5c1.655 0 3-1.345 3-3 0-1.396-0.97-2.6-2.3-2.916zM29 7.5h-5.5c-0.827 0-1.5-0.673-1.5-1.5s0.673-1.5 1.5-1.5c0.133 0 0.26-0.053 0.354-0.146s0.146-0.221 0.146-0.354c0-1.378 1.121-2.5 2.5-2.5 0.52-0.001 1.028 0.161 1.452 0.464s0.742 0.73 0.91 1.222c0.061 0.18 0.219 0.31 0.408 0.335 0.503 0.067 0.962 0.323 1.283 0.716s0.481 0.894 0.447 1.4c-0.034 0.506-0.26 0.981-0.632 1.327s-0.861 0.538-1.368 0.536z"></path>
</symbol>
<symbol id="icon-hotel" viewBox="0 0 32 32">
  <path d="M8.703 14.464h-3.583c-0.136 0-0.266 0.054-0.362 0.15s-0.15 0.226-0.15 0.362v5.119c0 0.136 0.054 0.266 0.15 0.362s0.226 0.15 0.362 0.15h3.583c0.136 0 0.266-0.054 0.362-0.15s0.15-0.226 0.15-0.362v-5.119c0-0.136-0.054-0.266-0.15-0.362s-0.226-0.15-0.362-0.15zM8.191 19.584h-2.56v-4.096h2.56v4.096zM17.405 14.464h-3.584c-0.136 0-0.266 0.054-0.362 0.15s-0.15 0.226-0.15 0.362v5.119c0 0.136 0.054 0.266 0.15 0.362s0.226 0.15 0.362 0.15h3.584c0.136 0 0.266-0.054 0.362-0.15s0.15-0.226 0.15-0.362v-5.119c0-0.136-0.054-0.266-0.15-0.362s-0.226-0.15-0.362-0.15zM16.894 19.584h-2.56v-4.096h2.56v4.096zM17.405 22.655h-3.584c-0.136 0-0.266 0.054-0.362 0.15s-0.15 0.226-0.15 0.362v5.119c0 0.136 0.054 0.266 0.15 0.362s0.226 0.15 0.362 0.15h3.584c0.136 0 0.266-0.054 0.362-0.15s0.15-0.226 0.15-0.362v-5.119c-0-0.136-0.054-0.266-0.15-0.362s-0.226-0.15-0.362-0.15zM16.894 27.774h-2.56v-4.095h2.56v4.095zM25.596 14.464h-3.584c-0.136 0-0.266 0.054-0.362 0.15s-0.15 0.226-0.15 0.362v5.119c0 0.136 0.054 0.266 0.15 0.362s0.226 0.15 0.362 0.15h3.584c0.136 0 0.266-0.054 0.362-0.15s0.15-0.226 0.15-0.362v-5.119c0-0.136-0.054-0.266-0.15-0.362s-0.226-0.15-0.362-0.15zM25.084 19.584h-2.56v-4.096h2.56v4.096zM8.703 22.655h-3.583c-0.136 0-0.266 0.054-0.362 0.15s-0.15 0.226-0.15 0.362v5.119c0 0.136 0.054 0.266 0.15 0.362s0.226 0.15 0.362 0.15h3.583c0.136 0 0.266-0.054 0.362-0.15s0.15-0.226 0.15-0.362v-5.119c0-0.136-0.054-0.266-0.15-0.362s-0.226-0.15-0.362-0.15zM8.191 27.774h-2.56v-4.095h2.56v4.095zM25.596 22.655h-3.584c-0.136 0-0.266 0.054-0.362 0.15s-0.15 0.226-0.15 0.362v5.119c0 0.136 0.054 0.266 0.15 0.362s0.226 0.15 0.362 0.15h3.584c0.136 0 0.266-0.054 0.362-0.15s0.15-0.226 0.15-0.362v-5.119c0-0.136-0.054-0.266-0.15-0.362s-0.226-0.15-0.362-0.15zM25.084 27.774h-2.56v-4.095h2.56v4.095z"></path>
  <path d="M28.668 30.334v-17.406h0.512c0.136 0 0.266-0.054 0.362-0.15s0.15-0.226 0.15-0.362v-2.56c0-0.067-0.013-0.134-0.039-0.196s-0.063-0.119-0.111-0.166c-0.047-0.048-0.104-0.085-0.166-0.111s-0.129-0.039-0.196-0.039h-0.512v-2.048c0-0.136-0.054-0.266-0.15-0.362s-0.226-0.15-0.362-0.15h-1.024v-5.631c0-0.136-0.054-0.266-0.15-0.362s-0.226-0.15-0.362-0.15h-22.525c-0.136 0-0.266 0.054-0.362 0.15s-0.15 0.226-0.15 0.362v5.631h-1.024c-0.136 0-0.266 0.054-0.362 0.15s-0.15 0.226-0.15 0.362v2.048h-0.512c-0.136 0-0.266 0.054-0.362 0.15s-0.15 0.226-0.15 0.362v2.56c0 0.136 0.054 0.266 0.15 0.362s0.226 0.15 0.362 0.15h0.512v17.405h-2.048v1.024h30.72v-1.024l-2.052 0zM4.607 1.666h21.501v5.119h-21.501v-5.119zM3.072 7.809h24.572v1.536h-24.572v-1.536zM27.644 30.334h-24.572v-17.406h24.572v17.406zM2.56 11.905h-0.512v-1.536h26.62v1.536h-26.108z"></path>
  <path d="M14.571 3.418c-0.081-0.208-0.196-0.388-0.343-0.539s-0.325-0.27-0.532-0.356-0.437-0.129-0.689-0.129c-0.252 0-0.482 0.043-0.69 0.128s-0.386 0.204-0.534 0.356c-0.148 0.152-0.263 0.332-0.344 0.54s-0.122 0.434-0.122 0.678 0.041 0.47 0.122 0.678c0.081 0.208 0.196 0.388 0.344 0.54s0.326 0.271 0.534 0.356 0.438 0.128 0.69 0.128c0.252 0 0.481-0.043 0.689-0.128s0.385-0.204 0.532-0.356c0.147-0.152 0.262-0.332 0.343-0.54s0.122-0.434 0.122-0.678c0-0.244-0.041-0.47-0.122-0.679zM13.985 4.588c-0.048 0.145-0.118 0.268-0.209 0.369s-0.201 0.178-0.331 0.232-0.276 0.081-0.439 0.081c-0.163 0-0.309-0.027-0.44-0.081s-0.242-0.131-0.333-0.232-0.162-0.223-0.211-0.369c-0.049-0.145-0.074-0.309-0.074-0.492s0.025-0.347 0.074-0.492c0.049-0.145 0.119-0.268 0.211-0.37s0.202-0.179 0.333-0.233c0.131-0.054 0.277-0.081 0.44-0.081s0.309 0.027 0.439 0.081 0.24 0.131 0.331 0.233c0.091 0.101 0.16 0.225 0.209 0.37s0.072 0.309 0.072 0.492-0.024 0.347-0.072 0.492zM10.201 2.43v1.433h-1.562v-1.433h-0.624v3.331h0.624v-1.456h1.562v1.456h0.624v-3.331h-0.624zM21.001 5.25v-2.82h-0.62v3.331h1.954v-0.511h-1.334zM14.721 2.43v0.509h1.007v2.822h0.62v-2.822h1.002v-0.509h-2.628zM19.844 2.923v-0.493h-2.101v3.331h2.101v-0.495h-1.477v-0.942h1.163v-0.477h-1.163v-0.924h1.477z"></path>
</symbol>
<symbol id="icon-mail" viewBox="0 0 32 32">
  <path d="M11.475 18.934l4.528 3.096 4.365-3.011 9.784 9.653c-0.258 0.083-0.533 0.128-0.819 0.128h-26.666c-0.352 0-0.688-0.069-0.997-0.192l9.805-9.674zM32 11.002v15.131c0 0.395-0.086 0.77-0.24 1.107l-9.59-9.462 9.83-6.776zM0 11.086l9.667 6.611-9.498 9.373c-0.113-0.3-0.17-0.617-0.17-0.938v-15.046zM29.333 4.8c1.472 0 2.667 1.194 2.667 2.667v0.938l-16.003 11.032-15.997-10.941v-1.029c0-1.472 1.194-2.667 2.667-2.667h26.666z"></path>
</symbol>
<symbol id="icon-plane" viewBox="0 0 32 32">
  <path d="M29.737 14.047l-1.702-1.221c-0.652-0.463-1.431-0.712-2.231-0.712h-3.046l-3.36-3.36h0.761c0.127 0 0.249-0.051 0.339-0.141s0.141-0.212 0.141-0.339v-2.88c0-0.127-0.051-0.249-0.141-0.339s-0.212-0.141-0.339-0.141h-4.601l-4.179-4.179c-0.090-0.090-0.212-0.141-0.339-0.141h-4.8c-0.127 0-0.249 0.051-0.339 0.141s-0.141 0.212-0.141 0.339c0 0.127 0.051 0.249 0.141 0.339s0.212 0.141 0.339 0.141h0.663l5.28 10.56h-6.225l-1.779-1.779c-0.090-0.090-0.212-0.141-0.339-0.141h-3.36c-0.083 0-0.165 0.022-0.238 0.063s-0.133 0.101-0.175 0.172c-0.043 0.072-0.066 0.153-0.067 0.236s0.019 0.165 0.059 0.239l1.766 3.237-1.661 1.452c-0.052 0.045-0.093 0.101-0.121 0.163s-0.043 0.13-0.043 0.198c0 0.068 0.015 0.136 0.043 0.199s0.070 0.118 0.121 0.163l1.661 1.452-1.766 3.237c-0.040 0.073-0.060 0.155-0.059 0.239s0.025 0.165 0.067 0.236c0.043 0.072 0.103 0.131 0.175 0.172s0.154 0.063 0.238 0.063h3.36c0.127 0 0.249-0.051 0.339-0.141l1.779-1.779h6.225l-5.28 10.56h-0.663c-0.127 0-0.249 0.051-0.339 0.141s-0.141 0.212-0.141 0.339c0 0.127 0.051 0.249 0.141 0.339s0.212 0.141 0.339 0.141h4.8c0.063 0 0.125-0.012 0.184-0.036s0.111-0.060 0.156-0.104l4.179-4.179h4.601c0.127 0 0.249-0.051 0.339-0.141s0.141-0.212 0.141-0.339v-2.88c0-0.127-0.051-0.249-0.141-0.339s-0.212-0.141-0.339-0.141h-0.761l3.36-3.36h3.046c0.8-0 1.581-0.25 2.233-0.714l1.699-1.219c0.614-0.44 0.983-1.153 0.983-1.907s-0.368-1.467-0.983-1.907zM19.68 5.874v1.92h-1.241l-1.92-1.92h3.161zM7.977 1.554h2.865l10.56 10.56h-8.145l-5.28-10.56zM3.641 11.154l4.32 4.32h-4.316l-2.357-4.32h2.353zM1.209 15.954l1.086-0.949 0.517 0.949-0.518 0.95-1.085-0.95zM3.641 20.754h-2.352l2.356-4.32h4.316l-4.32 4.32zM19.68 24.114v1.92h-3.161l1.92-1.92h1.241zM10.841 30.354h-2.865l5.28-10.56h8.145l-10.56 10.56zM29.178 17.081l-1.696 1.217c-0.49 0.348-1.076 0.536-1.677 0.536h-18.886l2.541-2.541c0.090-0.090 0.141-0.212 0.141-0.339s-0.051-0.249-0.141-0.339l-2.541-2.541h18.886c0.6 0 1.18 0.185 1.674 0.534l1.7 1.219c0.364 0.262 0.582 0.683 0.582 1.127s-0.217 0.866-0.582 1.127z"></path>
  <path d="M23.661 14.175c-0.090 0.090-0.141 0.212-0.141 0.339s0.051 0.249 0.141 0.339c0.291 0.292 0.455 0.688 0.455 1.101s-0.164 0.808-0.455 1.101c-0.046 0.044-0.082 0.097-0.108 0.156s-0.038 0.121-0.039 0.185c-0.001 0.064 0.012 0.127 0.036 0.186s0.060 0.113 0.105 0.158c0.045 0.045 0.099 0.081 0.158 0.105s0.122 0.036 0.186 0.036c0.064-0.001 0.127-0.014 0.185-0.039s0.111-0.062 0.156-0.108c0.471-0.472 0.736-1.112 0.736-1.779s-0.265-1.307-0.736-1.779c-0.090-0.090-0.212-0.141-0.339-0.141s-0.249 0.050-0.339 0.141z"></path>
</symbol>
<symbol id="icon-train" viewBox="0 0 31 32">
  <path d="M26.307 22.773l-2.082-14.988c-0.082-0.573-0.367-1.097-0.803-1.477s-0.995-0.591-1.574-0.593h-3.609v-0.96c0-0.529-0.431-0.96-0.96-0.96h-1.44v-1.92h4.121l0.819 0.819c0.044 0.045 0.097 0.080 0.156 0.104s0.121 0.037 0.184 0.037c0.063 0 0.125-0.012 0.184-0.037s0.111-0.060 0.156-0.104c0.090-0.090 0.141-0.212 0.141-0.339s-0.051-0.249-0.141-0.339l-0.96-0.96c-0.090-0.090-0.212-0.141-0.339-0.141h-9.6c-0.127 0-0.249 0.051-0.339 0.141l-0.96 0.96c-0.046 0.044-0.082 0.097-0.108 0.156s-0.038 0.122-0.039 0.185c-0.001 0.064 0.012 0.127 0.036 0.186s0.060 0.113 0.105 0.158c0.045 0.045 0.099 0.081 0.158 0.105s0.122 0.036 0.186 0.036c0.064-0.001 0.127-0.014 0.185-0.039s0.112-0.062 0.156-0.108l0.819-0.819h4.121v1.92h-1.44c-0.529 0-0.96 0.431-0.96 0.96v0.96h-3.608c-0.579 0.002-1.138 0.213-1.574 0.593s-0.722 0.905-0.803 1.478l-2.081 14.988c-0.071 0.516 0.027 1.040 0.279 1.496l1.54 2.772c0.208 0.374 0.512 0.686 0.881 0.903s0.789 0.332 1.217 0.332h0.062l-1.153 2.691c-0.026 0.058-0.040 0.121-0.041 0.184s0.010 0.127 0.033 0.186 0.058 0.113 0.102 0.159c0.044 0.046 0.097 0.082 0.156 0.107s0.121 0.038 0.185 0.039c0.064 0.001 0.127-0.012 0.186-0.035s0.112-0.060 0.157-0.104c0.045-0.045 0.081-0.098 0.105-0.157l0.492-1.149h13.493l0.493 1.149c0.025 0.058 0.061 0.111 0.106 0.155s0.098 0.079 0.157 0.102c0.058 0.023 0.121 0.035 0.184 0.034s0.125-0.014 0.183-0.039c0.117-0.050 0.209-0.145 0.256-0.263s0.046-0.25-0.004-0.367l-1.153-2.691h0.062c0.872 0 1.675-0.473 2.098-1.235l1.54-2.772c0.251-0.452 0.35-0.983 0.279-1.496zM13.44 4.754h3.84v0.96h-3.84v-0.96zM21.695 29.234h-12.67l0.411-0.96h11.847l0.411 0.96zM19.68 27.314h-8.64v-1.44c0-0.265 0.216-0.48 0.48-0.48h7.68c0.127 0 0.249 0.051 0.339 0.141s0.141 0.212 0.141 0.339v1.44zM25.189 23.802l-1.54 2.771c-0.125 0.224-0.307 0.412-0.529 0.542s-0.474 0.199-0.73 0.199h-1.75v-1.44c0-0.794-0.646-1.44-1.44-1.44h-7.68c-0.794 0-1.44 0.646-1.44 1.44v1.44h-1.75c-0.257 0-0.509-0.069-0.73-0.199s-0.404-0.317-0.529-0.542l-1.54-2.771c-0.151-0.273-0.21-0.588-0.167-0.898l2.082-14.988c0.049-0.344 0.22-0.658 0.482-0.886s0.597-0.354 0.944-0.356h12.977c0.347 0.001 0.682 0.128 0.944 0.356s0.433 0.543 0.482 0.886l2.082 14.988c0.042 0.309-0.016 0.624-0.167 0.898z"></path>
  <path d="M10.080 19.154c-1.323 0-2.4 1.077-2.4 2.4s1.077 2.4 2.4 2.4 2.4-1.077 2.4-2.4c0-1.323-1.077-2.4-2.4-2.4zM10.080 22.994c-0.794 0-1.44-0.646-1.44-1.44s0.646-1.44 1.44-1.44 1.44 0.646 1.44 1.44c0 0.794-0.646 1.44-1.44 1.44zM20.65 19.164c-1.319 0-2.391 1.072-2.391 2.39s1.072 2.39 2.391 2.39c1.318 0 2.39-1.072 2.39-2.39s-1.072-2.39-2.39-2.39zM20.65 22.985c-0.789 0-1.431-0.641-1.431-1.43s0.642-1.43 1.431-1.43c0.789 0 1.43 0.641 1.43 1.43s-0.642 1.43-1.43 1.43zM8.16 17.714h14.4c0.067 0 0.134-0.014 0.196-0.042s0.117-0.068 0.162-0.118c0.045-0.050 0.079-0.109 0.099-0.174s0.027-0.132 0.020-0.199l-0.96-8.64c-0.013-0.117-0.069-0.226-0.157-0.305s-0.202-0.122-0.32-0.122h-12.48c-0.118 0-0.232 0.044-0.32 0.122s-0.144 0.187-0.157 0.305l-0.96 8.64c-0.008 0.067-0.001 0.135 0.020 0.199s0.054 0.124 0.099 0.174c0.045 0.050 0.1 0.090 0.162 0.118s0.129 0.042 0.196 0.041zM9.55 9.074h11.621l0.853 7.68h-13.328l0.853-7.68zM16.8 20.114h-2.88c-0.127 0-0.249 0.051-0.339 0.141s-0.141 0.212-0.141 0.339c0 0.127 0.051 0.249 0.141 0.339s0.212 0.141 0.339 0.141h2.88c0.127 0 0.249-0.051 0.339-0.141s0.141-0.212 0.141-0.339c0-0.127-0.051-0.249-0.141-0.339s-0.212-0.141-0.339-0.141zM16.8 22.034h-2.88c-0.127 0-0.249 0.051-0.339 0.141s-0.141 0.212-0.141 0.339c0 0.127 0.051 0.249 0.141 0.339s0.212 0.141 0.339 0.141h2.88c0.127 0 0.249-0.051 0.339-0.141s0.141-0.212 0.141-0.339c0-0.127-0.051-0.249-0.141-0.339s-0.212-0.141-0.339-0.141z"></path>
</symbol>
<symbol id="icon-trip" viewBox="0 0 31 32">
  <path d="M26.764 6.522l-2.88-3.36c-0.045-0.053-0.101-0.095-0.164-0.124s-0.131-0.044-0.201-0.044h-6.72v-1.44c0-0.794-0.646-1.44-1.44-1.44s-1.44 0.646-1.44 1.44v1.44h-2.88c-0.127 0-0.249 0.051-0.339 0.141s-0.141 0.212-0.141 0.339v6.72c0 0.127 0.051 0.249 0.141 0.339s0.212 0.141 0.339 0.141h2.88v1.92h-6.72c-0.069 0-0.138 0.015-0.201 0.044s-0.119 0.071-0.164 0.124l-2.88 3.36c-0.075 0.087-0.116 0.198-0.116 0.312s0.041 0.225 0.116 0.312l2.88 3.36c0.091 0.107 0.224 0.168 0.364 0.168h6.72v3.451c0 0.127 0.051 0.249 0.141 0.339s0.212 0.141 0.339 0.141c0.127 0 0.249-0.051 0.339-0.141s0.141-0.212 0.141-0.339v-3.451h0.96v3.451c0 0.127 0.051 0.249 0.141 0.339s0.212 0.141 0.339 0.141c0.127 0 0.249-0.051 0.339-0.141s0.141-0.212 0.141-0.339v-3.451h2.88c0.127 0 0.249-0.051 0.339-0.141s0.141-0.212 0.141-0.339v-6.72c0-0.127-0.051-0.249-0.141-0.339s-0.212-0.141-0.339-0.141h-2.88v-1.92h6.72c0.14 0 0.274-0.061 0.364-0.168l2.88-3.36c0.075-0.087 0.116-0.198 0.116-0.312s-0.041-0.225-0.116-0.312zM14.88 1.554c0-0.127 0.051-0.249 0.141-0.339s0.212-0.141 0.339-0.141c0.127 0 0.249 0.051 0.339 0.141s0.141 0.212 0.141 0.339v1.44h-0.96v-1.44zM19.2 19.314h-11.779l-2.469-2.88 2.469-2.88h11.779v5.76zM15.84 12.594h-0.96v-1.92h0.96v1.92zM23.299 9.714h-11.779v-5.76h11.779l2.469 2.88-2.469 2.88z"></path>
  <path d="M21.12 5.394h-7.68c-0.127 0-0.249 0.051-0.339 0.141s-0.141 0.212-0.141 0.339 0.051 0.249 0.141 0.339c0.090 0.090 0.212 0.141 0.339 0.141h7.68c0.127 0 0.249-0.051 0.339-0.141s0.141-0.212 0.141-0.339-0.051-0.249-0.141-0.339c-0.090-0.090-0.212-0.141-0.339-0.141zM18.24 7.314h-4.8c-0.127 0-0.249 0.051-0.339 0.141s-0.141 0.212-0.141 0.339 0.051 0.249 0.141 0.339c0.090 0.090 0.212 0.141 0.339 0.141h4.8c0.127 0 0.249-0.051 0.339-0.141s0.141-0.212 0.141-0.339-0.051-0.249-0.141-0.339c-0.090-0.090-0.212-0.141-0.339-0.141zM9.12 15.474c0 0.127 0.051 0.249 0.141 0.339s0.212 0.141 0.339 0.141h7.68c0.127 0 0.249-0.051 0.339-0.141s0.141-0.212 0.141-0.339c0-0.127-0.051-0.249-0.141-0.339s-0.212-0.141-0.339-0.141h-7.68c-0.127 0-0.249 0.051-0.339 0.141s-0.141 0.212-0.141 0.339zM17.28 16.914h-4.8c-0.127 0-0.249 0.051-0.339 0.141s-0.141 0.212-0.141 0.339c0 0.127 0.051 0.249 0.141 0.339s0.212 0.141 0.339 0.141h4.8c0.127 0 0.249-0.051 0.339-0.141s0.141-0.212 0.141-0.339c0-0.127-0.051-0.249-0.141-0.339s-0.212-0.141-0.339-0.141zM23.040 27.474c-0.331 0-0.659 0.058-0.969 0.17-0.3-0.492-0.722-0.899-1.225-1.181s-1.070-0.43-1.646-0.429c-0.379 0-0.749 0.062-1.103 0.187-0.72-0.733-1.699-1.147-2.737-1.147s-2.017 0.414-2.737 1.147c-0.354-0.124-0.727-0.187-1.103-0.187-0.576-0.001-1.143 0.147-1.646 0.429s-0.925 0.689-1.225 1.181c-0.311-0.112-0.639-0.17-0.969-0.17-1.588 0-2.88 1.292-2.88 2.88 0 0.127 0.051 0.249 0.141 0.339s0.212 0.141 0.339 0.141h20.16c0.127 0 0.249-0.051 0.339-0.141s0.141-0.212 0.141-0.339c0-1.588-1.292-2.88-2.88-2.88zM5.821 29.874c0.107-0.412 0.347-0.777 0.684-1.037s0.75-0.402 1.175-0.403c0.336 0 0.654 0.085 0.946 0.252 0.059 0.034 0.124 0.055 0.192 0.061s0.136-0.001 0.2-0.023c0.064-0.022 0.123-0.057 0.173-0.103s0.089-0.102 0.116-0.165c0.184-0.435 0.492-0.805 0.886-1.066s0.855-0.399 1.327-0.398c0.358 0 0.703 0.078 1.028 0.232 0.199 0.095 0.438 0.041 0.577-0.13 0.27-0.332 0.611-0.6 0.997-0.784s0.809-0.279 1.237-0.278c0.428-0 0.851 0.095 1.237 0.278s0.727 0.452 0.997 0.784c0.068 0.083 0.162 0.141 0.266 0.164s0.214 0.011 0.311-0.035c0.321-0.153 0.672-0.232 1.028-0.232 0.472-0.001 0.934 0.137 1.327 0.398s0.702 0.631 0.886 1.066c0.027 0.062 0.066 0.119 0.116 0.165s0.109 0.081 0.173 0.103c0.064 0.022 0.133 0.029 0.2 0.023s0.133-0.028 0.192-0.061c0.287-0.166 0.614-0.253 0.946-0.252 0.425 0 0.839 0.142 1.175 0.403s0.577 0.625 0.684 1.037h-19.078z"></path>
</symbol>
<symbol id="icon-biking" viewBox="0 0 32 32">
  <path d="M8.675 11.458h-0.48c-0.085 0-0.166 0.034-0.226 0.094s-0.094 0.141-0.094 0.226 0.034 0.166 0.094 0.226c0.060 0.060 0.141 0.094 0.226 0.094h0.48c0.085 0 0.166-0.034 0.226-0.094s0.094-0.141 0.094-0.226-0.034-0.166-0.094-0.226c-0.060-0.060-0.141-0.094-0.226-0.094zM20.865 22.296c0 0.085 0.034 0.166 0.094 0.226s0.141 0.094 0.226 0.094h0.969c0.085 0 0.166-0.034 0.226-0.094s0.094-0.141 0.094-0.226-0.034-0.166-0.094-0.226c-0.060-0.060-0.141-0.094-0.226-0.094h-0.969c-0.085 0-0.166 0.034-0.226 0.094s-0.094 0.141-0.094 0.226zM14.026 16.61h-0.969c-0.085 0-0.166 0.034-0.226 0.094s-0.094 0.141-0.094 0.226 0.034 0.166 0.094 0.226c0.060 0.060 0.141 0.094 0.226 0.094h0.969c0.085 0 0.166-0.034 0.226-0.094s0.094-0.141 0.094-0.226-0.034-0.166-0.094-0.226c-0.060-0.060-0.141-0.094-0.226-0.094zM27.525 21.719c0.030 0.030 0.065 0.053 0.104 0.069s0.081 0.024 0.123 0.023c0.042-0 0.084-0.009 0.122-0.025s0.074-0.040 0.103-0.070c0.256-0.259 0.46-0.565 0.602-0.901 0.030-0.078 0.029-0.164-0.003-0.241s-0.094-0.138-0.171-0.17-0.163-0.033-0.241-0.003c-0.078 0.030-0.14 0.090-0.175 0.166-0.11 0.261-0.269 0.499-0.468 0.7-0.059 0.060-0.092 0.142-0.092 0.227s0.035 0.166 0.096 0.225zM14.083 22.296c0 0.085 0.034 0.166 0.094 0.226s0.141 0.094 0.226 0.094h0.969c0.085 0 0.166-0.034 0.226-0.094s0.094-0.141 0.094-0.226-0.034-0.166-0.094-0.226c-0.060-0.060-0.141-0.094-0.226-0.094h-0.969c-0.085 0-0.166 0.034-0.226 0.094s-0.094 0.141-0.094 0.226zM18.604 22.296c0 0.085 0.034 0.166 0.094 0.226s0.141 0.094 0.226 0.094h0.969c0.085 0 0.166-0.034 0.226-0.094s0.094-0.141 0.094-0.226-0.034-0.166-0.094-0.226c-0.060-0.060-0.141-0.094-0.226-0.094h-0.969c-0.085 0-0.166 0.034-0.226 0.094s-0.094 0.141-0.094 0.226zM20.808 16.61h-0.969c-0.085 0-0.166 0.034-0.226 0.094s-0.094 0.141-0.094 0.226 0.034 0.166 0.094 0.226c0.060 0.060 0.141 0.094 0.226 0.094h0.969c0.085 0 0.166-0.034 0.226-0.094s0.094-0.141 0.094-0.226-0.034-0.166-0.094-0.226c-0.060-0.060-0.141-0.094-0.226-0.094zM28.478 19.745h0.011c0.042-0.001 0.083-0.011 0.122-0.028s0.073-0.042 0.102-0.073c0.029-0.031 0.051-0.067 0.066-0.106s0.022-0.081 0.020-0.123c-0.011-0.365-0.094-0.725-0.243-1.058-0.017-0.038-0.042-0.073-0.072-0.102s-0.066-0.052-0.106-0.067c-0.039-0.015-0.081-0.022-0.123-0.021s-0.083 0.011-0.122 0.028c-0.038 0.017-0.073 0.042-0.102 0.072s-0.052 0.066-0.067 0.106c-0.015 0.039-0.022 0.081-0.021 0.123s0.011 0.083 0.028 0.122c0.116 0.259 0.179 0.534 0.188 0.818 0.005 0.173 0.148 0.31 0.319 0.31zM25.706 21.976c-0.085 0-0.166 0.034-0.226 0.094s-0.094 0.141-0.094 0.226 0.034 0.166 0.094 0.226c0.060 0.060 0.141 0.094 0.226 0.094h0.105c0.324 0 0.643-0.050 0.948-0.149 0.041-0.012 0.079-0.033 0.112-0.060s0.060-0.061 0.080-0.098c0.020-0.038 0.032-0.079 0.035-0.121s-0.001-0.085-0.014-0.126c-0.013-0.040-0.034-0.078-0.062-0.11s-0.062-0.059-0.1-0.078c-0.038-0.019-0.080-0.030-0.122-0.033s-0.085 0.003-0.125 0.017c-0.243 0.078-0.496 0.118-0.751 0.118h-0.105zM23.069 16.61h-0.969c-0.085 0-0.166 0.034-0.226 0.094s-0.094 0.141-0.094 0.226 0.034 0.166 0.094 0.226c0.060 0.060 0.141 0.094 0.226 0.094h0.969c0.085 0 0.166-0.034 0.226-0.094s0.094-0.141 0.094-0.226-0.034-0.166-0.094-0.226c-0.060-0.060-0.141-0.094-0.226-0.094h-0zM26.702 16.741c-0.080-0.020-0.165-0.009-0.236 0.032s-0.125 0.107-0.149 0.186c-0.024 0.079-0.016 0.164 0.021 0.238s0.101 0.13 0.179 0.157c0.275 0.083 0.53 0.213 0.756 0.387 0.033 0.026 0.071 0.044 0.112 0.055s0.083 0.014 0.125 0.008c0.042-0.006 0.082-0.019 0.118-0.040s0.068-0.049 0.094-0.083c0.052-0.067 0.074-0.152 0.063-0.237s-0.055-0.16-0.123-0.212c-0.287-0.22-0.612-0.387-0.959-0.492zM16.287 16.61h-0.969c-0.085 0-0.166 0.034-0.226 0.094s-0.094 0.141-0.094 0.226 0.034 0.166 0.094 0.226c0.060 0.060 0.141 0.094 0.226 0.094h0.969c0.085 0 0.166-0.034 0.226-0.094s0.094-0.141 0.094-0.226-0.034-0.166-0.094-0.226c-0.060-0.060-0.141-0.094-0.226-0.094zM18.547 16.61h-0.968c-0.085 0-0.166 0.034-0.226 0.094s-0.094 0.141-0.094 0.226 0.034 0.166 0.094 0.226c0.060 0.060 0.141 0.094 0.226 0.094h0.969c0.085 0 0.166-0.034 0.226-0.094s0.094-0.141 0.094-0.226-0.034-0.166-0.094-0.226c-0.060-0.060-0.142-0.094-0.227-0.094zM16.343 22.296c0 0.085 0.034 0.166 0.094 0.226s0.141 0.094 0.226 0.094h0.969c0.085 0 0.166-0.034 0.226-0.094s0.094-0.141 0.094-0.226-0.034-0.166-0.094-0.226c-0.060-0.060-0.141-0.094-0.226-0.094h-0.969c-0.085 0-0.166 0.034-0.226 0.094s-0.094 0.141-0.094 0.226zM23.126 22.296c0 0.085 0.034 0.166 0.094 0.226s0.141 0.094 0.226 0.094h0.969c0.085 0 0.166-0.034 0.226-0.094s0.094-0.141 0.094-0.226-0.034-0.166-0.094-0.226c-0.060-0.060-0.141-0.094-0.226-0.094h-0.969c-0.085 0-0.166 0.034-0.226 0.094s-0.094 0.141-0.094 0.226zM25.33 16.61h-0.969c-0.085 0-0.166 0.034-0.226 0.094s-0.094 0.141-0.094 0.226 0.034 0.166 0.094 0.226c0.060 0.060 0.141 0.094 0.226 0.094h0.969c0.085 0 0.166-0.034 0.226-0.094s0.094-0.141 0.094-0.226-0.034-0.166-0.094-0.226c-0.060-0.060-0.141-0.094-0.226-0.094zM8.216 16.93c0 0.085 0.034 0.166 0.094 0.226s0.141 0.094 0.226 0.094h0.968c0.085 0 0.166-0.034 0.226-0.094s0.094-0.141 0.094-0.226-0.034-0.166-0.094-0.226c-0.060-0.060-0.141-0.094-0.226-0.094h-0.969c-0.085 0-0.166 0.034-0.226 0.094s-0.093 0.141-0.093 0.226zM3.222 14.001c-0.046 0.362-0.021 0.73 0.074 1.083 0.023 0.081 0.077 0.149 0.15 0.191s0.16 0.052 0.241 0.030c0.081-0.022 0.151-0.075 0.193-0.147s0.055-0.159 0.034-0.24c-0.073-0.273-0.092-0.557-0.057-0.837 0.005-0.042 0.002-0.084-0.009-0.125s-0.030-0.078-0.056-0.112c-0.052-0.067-0.129-0.111-0.213-0.121s-0.169 0.013-0.236 0.065c-0.067 0.052-0.11 0.129-0.121 0.213zM5.955 16.93c0 0.085 0.034 0.166 0.094 0.226s0.141 0.094 0.226 0.094h0.969c0.085 0 0.166-0.034 0.226-0.094s0.094-0.141 0.094-0.226-0.034-0.166-0.094-0.226c-0.060-0.060-0.141-0.094-0.226-0.094h-0.969c-0.085 0-0.166 0.034-0.226 0.094s-0.094 0.141-0.094 0.226zM11.765 17.25c0.085 0 0.166-0.034 0.226-0.094s0.094-0.141 0.094-0.226-0.034-0.166-0.094-0.226c-0.060-0.060-0.141-0.094-0.226-0.094h-0.969c-0.085 0-0.166 0.034-0.226 0.094s-0.094 0.141-0.094 0.226 0.034 0.166 0.094 0.226c0.060 0.060 0.141 0.094 0.226 0.094h0.969zM6.903 11.458h-0.715c-0.095 0-0.19 0.004-0.283 0.012-0.042 0.004-0.083 0.016-0.12 0.035s-0.070 0.046-0.097 0.078c-0.027 0.032-0.047 0.070-0.060 0.11s-0.017 0.082-0.013 0.124c0.004 0.042 0.016 0.083 0.035 0.12s0.046 0.070 0.078 0.097c0.032 0.027 0.070 0.047 0.11 0.060s0.082 0.017 0.124 0.013c0.074-0.006 0.149-0.010 0.225-0.010h0.715c0.085 0 0.166-0.034 0.226-0.094s0.094-0.141 0.094-0.226-0.034-0.166-0.094-0.226c-0.060-0.060-0.141-0.094-0.226-0.094zM4.552 11.931c-0.307 0.194-0.576 0.443-0.792 0.735-0.025 0.034-0.043 0.072-0.053 0.113s-0.012 0.083-0.006 0.125c0.006 0.042 0.021 0.081 0.042 0.118s0.050 0.067 0.084 0.092 0.072 0.043 0.113 0.053c0.041 0.010 0.083 0.012 0.125 0.006s0.081-0.021 0.117-0.042c0.036-0.022 0.067-0.050 0.092-0.084 0.169-0.229 0.38-0.424 0.62-0.576 0.036-0.022 0.068-0.051 0.093-0.086s0.043-0.074 0.052-0.115c0.010-0.041 0.011-0.084 0.004-0.126s-0.023-0.082-0.045-0.118c-0.023-0.036-0.053-0.067-0.087-0.091s-0.074-0.041-0.116-0.050-0.085-0.009-0.126-0.001c-0.042 0.008-0.082 0.024-0.117 0.048zM4.015 15.881c-0.030 0.029-0.054 0.064-0.071 0.102s-0.026 0.080-0.026 0.122c-0.001 0.042 0.007 0.084 0.022 0.123s0.038 0.075 0.068 0.105c0.252 0.261 0.55 0.474 0.878 0.627 0.038 0.018 0.079 0.028 0.121 0.030s0.084-0.004 0.123-0.019c0.040-0.014 0.076-0.036 0.107-0.065s0.056-0.063 0.074-0.101c0.036-0.077 0.040-0.165 0.011-0.245s-0.088-0.145-0.165-0.181c-0.258-0.121-0.492-0.288-0.69-0.492-0.059-0.061-0.14-0.096-0.224-0.097s-0.167 0.031-0.228 0.090zM12.292 22.296c0 0.085 0.034 0.166 0.094 0.226s0.141 0.094 0.226 0.094h0.48c0.085 0 0.166-0.034 0.226-0.094s0.094-0.141 0.094-0.226-0.034-0.166-0.094-0.226c-0.060-0.060-0.141-0.094-0.226-0.094h-0.48c-0.085 0-0.166 0.034-0.226 0.094s-0.094 0.141-0.094 0.226zM6.954 28.8h0.003c0.089-0.001 0.173-0.038 0.233-0.104 0.144-0.157 3.518-3.869 3.518-6.531 0-2.070-1.684-3.754-3.754-3.754s-3.754 1.684-3.754 3.754c0 2.808 3.379 6.385 3.523 6.536 0.060 0.063 0.144 0.099 0.231 0.099zM6.954 19.051c1.717 0 3.114 1.397 3.114 3.114 0 2.035-2.359 4.949-3.117 5.834-0.763-0.861-3.11-3.686-3.11-5.834 0-1.717 1.397-3.114 3.114-3.114zM25.287 8.265c-0.503 0-0.981 0.108-1.415 0.3l-1.058-4.365h1.984c0.028 0.008 0.057 0.012 0.086 0.012 0.497 0 0.902 0.405 0.902 0.902s-0.405 0.902-0.902 0.902c-0.085 0-0.166 0.034-0.226 0.094s-0.094 0.141-0.094 0.226c0 0.085 0.034 0.166 0.094 0.226s0.141 0.094 0.226 0.094c0.409-0 0.801-0.163 1.090-0.452s0.452-0.681 0.452-1.090c-0-0.394-0.152-0.773-0.422-1.059s-0.641-0.458-1.034-0.48c-0.031-0.010-0.062-0.014-0.094-0.014h-2.468c-0.048 0-0.096 0.011-0.14 0.032s-0.082 0.052-0.112 0.090c-0.030 0.038-0.051 0.082-0.061 0.13s-0.010 0.096 0.002 0.143l0.499 2.061h-5.226l-0.758-2.176h0.894c0.085 0 0.166-0.034 0.226-0.094s0.094-0.141 0.094-0.226-0.034-0.166-0.094-0.226c-0.060-0.060-0.141-0.094-0.226-0.094h-2.599c-0.085 0-0.166 0.034-0.226 0.094s-0.094 0.141-0.094 0.226c0 0.085 0.034 0.166 0.094 0.226s0.141 0.094 0.226 0.094h1.027l0.857 2.462-1.359 2.304c-0.468-0.224-0.981-0.34-1.5-0.341-1.937 0-3.513 1.576-3.513 3.513s1.576 3.513 3.513 3.513c1.655 0 3.043-1.152 3.413-2.695l0.497 0.072c0.071 0.734 0.684 1.312 1.437 1.312 0.8 0 1.45-0.651 1.45-1.451 0-0.444-0.205-0.838-0.521-1.104l2.744-3.937 0.34 1.402c-0.916 0.635-1.518 1.692-1.518 2.888 0 1.937 1.576 3.513 3.513 3.513s3.513-1.576 3.513-3.513c0-1.937-1.576-3.513-3.513-3.513zM13.932 14.651c-1.584 0-2.873-1.289-2.873-2.873s1.289-2.873 2.873-2.873c0.418 0 0.815 0.092 1.174 0.253l-1.446 2.451c-0.001 0.002-0.002 0.003-0.003 0.005l-0 0.001c-0.004 0.007-0.004 0.016-0.008 0.023-0.016 0.029-0.027 0.061-0.033 0.093v0.002c-0.006 0.042-0.004 0.084 0.007 0.124 0.007 0.029 0.023 0.053 0.037 0.079 0.006 0.010 0.008 0.022 0.016 0.032 0.025 0.034 0.057 0.062 0.093 0.084 0.001 0 0.001 0.001 0.001 0.001 0.033 0.018 0.068 0.031 0.105 0.037 0.004 0.001 0.007 0.004 0.012 0.004l2.822 0.409c-0.323 1.234-1.443 2.148-2.777 2.148zM16.805 11.778c0 0.031-0.004 0.061-0.005 0.092l-2.351-0.34 1.206-2.045c0.696 0.525 1.149 1.356 1.149 2.293zM15.983 8.931l1.084-1.837 1.462 4.199c-0.28 0.171-0.494 0.431-0.607 0.739l-0.485-0.070c0.003-0.061 0.010-0.122 0.010-0.184 0-1.171-0.579-2.208-1.463-2.847zM19.279 13.339c-0.447 0-0.811-0.364-0.811-0.811s0.364-0.811 0.811-0.811c0.447 0 0.811 0.364 0.811 0.811s-0.363 0.811-0.81 0.811zM19.635 11.127c-0.116-0.031-0.236-0.048-0.357-0.050-0.049 0-0.095 0.010-0.143 0.014l-1.543-4.436h5.159l-3.116 4.471zM25.287 14.651c-1.584 0-2.873-1.289-2.873-2.873 0-0.937 0.453-1.768 1.149-2.293l1.554 2.463c0.045 0.072 0.117 0.123 0.2 0.141s0.17 0.004 0.241-0.041c0.072-0.045 0.123-0.117 0.141-0.2s0.004-0.17-0.041-0.241l-1.544-2.449c0.369-0.167 0.769-0.253 1.173-0.253 1.584 0 2.873 1.289 2.873 2.873s-1.289 2.873-2.873 2.873z"></path>
  <path d="M8.405 21.954c0-0.8-0.651-1.451-1.451-1.451s-1.451 0.651-1.451 1.451 0.651 1.451 1.451 1.451c0.385-0 0.753-0.153 1.025-0.425s0.425-0.641 0.425-1.025zM6.143 21.954c0-0.447 0.364-0.811 0.811-0.811s0.811 0.364 0.811 0.811c0 0.447-0.364 0.811-0.811 0.811s-0.811-0.364-0.811-0.811z"></path>
</symbol>
<symbol id="icon-hikking" viewBox="0 0 32 32">
  <path d="M0.4 19.832c-0.053-0-0.105 0.010-0.153 0.030s-0.093 0.050-0.13 0.087c-0.037 0.037-0.067 0.081-0.087 0.13s-0.030 0.101-0.030 0.153c-0 0.052 0.010 0.104 0.030 0.153s0.050 0.093 0.087 0.13c0.037 0.037 0.081 0.067 0.13 0.087s0.1 0.030 0.153 0.030h12.158c0.052 0 0.104-0.010 0.153-0.030s0.093-0.049 0.13-0.087c0.037-0.037 0.066-0.081 0.087-0.13s0.030-0.1 0.030-0.153c0-0.052-0.010-0.104-0.030-0.153s-0.049-0.093-0.087-0.13-0.081-0.067-0.13-0.087c-0.048-0.020-0.1-0.030-0.153-0.030h-2.846c0.113-2.277 1.996-4.096 4.3-4.096 2.269 0 4.13 1.764 4.295 3.992-1.4 0.187-2.509 1.3-2.689 2.702h-4.488c-0.052 0-0.104 0.010-0.153 0.030s-0.093 0.050-0.13 0.087c-0.037 0.037-0.066 0.081-0.087 0.13s-0.030 0.1-0.030 0.153c0 0.053 0.010 0.104 0.030 0.153s0.049 0.093 0.087 0.13 0.081 0.067 0.13 0.087c0.048 0.020 0.1 0.030 0.153 0.030h4.86c0.052 0 0.104-0.010 0.153-0.030s0.093-0.050 0.13-0.087c0.037-0.037 0.067-0.081 0.087-0.13s0.030-0.1 0.030-0.153c0-1.287 1.046-2.333 2.333-2.333s2.334 1.046 2.334 2.333c0 0.053 0.010 0.105 0.030 0.153s0.050 0.093 0.087 0.13 0.081 0.067 0.13 0.087c0.049 0.020 0.101 0.030 0.153 0.030h10.134c0.053 0 0.105-0.010 0.153-0.030s0.093-0.050 0.13-0.087 0.067-0.081 0.087-0.13c0.020-0.048 0.030-0.1 0.030-0.153s-0.010-0.104-0.030-0.153-0.050-0.093-0.087-0.13c-0.037-0.037-0.081-0.067-0.13-0.087s-0.1-0.030-0.153-0.030h-1.134c-0.010-1.722-1.258-3.153-2.898-3.452v-7.385l3.749 3.767c0.075 0.074 0.176 0.116 0.282 0.116s0.207-0.042 0.281-0.116c0.075-0.074 0.117-0.175 0.118-0.281s-0.040-0.207-0.114-0.282l-4.316-4.337v-2.819l3.749 3.767c0.155 0.156 0.409 0.157 0.565 0.002 0.037-0.037 0.067-0.081 0.087-0.129s0.031-0.1 0.031-0.153c0-0.052-0.010-0.104-0.030-0.153s-0.049-0.093-0.086-0.13l-4.316-4.336v-2.818l3.749 3.767c0.155 0.156 0.409 0.157 0.565 0.002 0.037-0.037 0.067-0.081 0.087-0.129s0.031-0.1 0.031-0.153-0.010-0.104-0.030-0.153c-0.020-0.049-0.049-0.093-0.086-0.13l-4.432-4.454c-0.037-0.037-0.081-0.067-0.13-0.087s-0.101-0.031-0.153-0.031c-0.053 0-0.105 0.011-0.154 0.031s-0.093 0.050-0.13 0.087l-4.432 4.454c-0.037 0.037-0.066 0.081-0.086 0.13s-0.030 0.101-0.030 0.153c0 0.053 0.011 0.104 0.031 0.153s0.050 0.092 0.087 0.129c0.037 0.037 0.081 0.066 0.129 0.086s0.1 0.030 0.153 0.030c0.053 0 0.105-0.010 0.154-0.031s0.093-0.050 0.13-0.087l3.749-3.767v2.818l-4.316 4.337c-0.037 0.037-0.066 0.081-0.086 0.13s-0.030 0.101-0.030 0.153c0 0.053 0.011 0.104 0.031 0.153s0.050 0.092 0.087 0.129c0.037 0.037 0.081 0.066 0.129 0.086s0.1 0.030 0.152 0.030c0.053 0 0.105-0.010 0.153-0.030s0.093-0.050 0.13-0.087l3.749-3.767v2.819l-4.316 4.337c-0.037 0.037-0.066 0.081-0.086 0.13s-0.030 0.101-0.030 0.153c0 0.053 0.011 0.104 0.031 0.153s0.050 0.092 0.087 0.129c0.037 0.037 0.081 0.066 0.129 0.086s0.1 0.030 0.152 0.030c0.053 0 0.105-0.010 0.154-0.031s0.093-0.050 0.13-0.087l3.749-3.767v7.333c-1.865 0.086-3.358 1.621-3.369 3.505h-1.563c-0.181-1.413-1.306-2.534-2.721-2.707-0.16-2.534-2.171-4.569-4.694-4.766v-5.786l3.957 3.976c0.037 0.037 0.081 0.067 0.13 0.087s0.101 0.031 0.153 0.030c0.052 0 0.104-0.010 0.153-0.030s0.092-0.049 0.129-0.086c0.037-0.037 0.067-0.081 0.087-0.129s0.031-0.1 0.031-0.153c0-0.052-0.010-0.104-0.030-0.153s-0.049-0.093-0.086-0.13l-4.524-4.546v-2.735l3.957 3.976c0.037 0.037 0.081 0.067 0.13 0.087s0.101 0.031 0.154 0.031c0.052 0 0.104-0.010 0.153-0.030s0.092-0.049 0.129-0.086c0.037-0.037 0.067-0.081 0.087-0.129s0.031-0.1 0.031-0.153c0-0.052-0.010-0.104-0.030-0.153s-0.049-0.093-0.086-0.13l-4.524-4.545v-2.734l3.957 3.976c0.037 0.037 0.081 0.067 0.129 0.087s0.1 0.031 0.153 0.031 0.104-0.010 0.153-0.030c0.049-0.020 0.093-0.049 0.13-0.086s0.067-0.081 0.087-0.129c0.020-0.048 0.031-0.1 0.031-0.153s-0.010-0.104-0.030-0.153-0.049-0.093-0.086-0.13l-4.64-4.662c0 0-0 0-0-0-0.037-0.037-0.081-0.067-0.13-0.087s-0.101-0.031-0.153-0.030c-0.053-0-0.105 0.010-0.153 0.031s-0.093 0.050-0.13 0.087c0 0-0 0-0 0l-4.64 4.662c-0.037 0.037-0.066 0.081-0.086 0.13s-0.030 0.101-0.030 0.153c0 0.053 0.011 0.104 0.031 0.153s0.050 0.092 0.087 0.129c0.156 0.156 0.41 0.155 0.565-0.002l3.957-3.976v2.734l-4.524 4.546c-0.037 0.037-0.066 0.081-0.086 0.13s-0.030 0.101-0.030 0.153c0 0.052 0.011 0.104 0.031 0.153s0.050 0.092 0.087 0.129c0.156 0.156 0.41 0.155 0.565-0.002l3.957-3.976v2.735l-4.524 4.546c-0.037 0.037-0.066 0.081-0.086 0.13s-0.030 0.101-0.030 0.153c0 0.053 0.011 0.104 0.031 0.153s0.050 0.092 0.087 0.129c0.156 0.156 0.41 0.155 0.565-0.002l3.957-3.976v5.786c-2.56 0.2-4.591 2.291-4.7 4.875h-4.475v-5.604l2.954 2.969c0.037 0.037 0.081 0.067 0.13 0.087s0.101 0.031 0.153 0.030c0.079 0 0.156-0.023 0.222-0.067s0.117-0.106 0.147-0.179c0.030-0.073 0.038-0.153 0.023-0.231s-0.053-0.149-0.109-0.205l-3.521-3.538v-2.195l2.954 2.969c0.037 0.037 0.081 0.067 0.13 0.087s0.101 0.031 0.153 0.030c0.079 0 0.156-0.023 0.222-0.067s0.117-0.106 0.147-0.179c0.030-0.073 0.038-0.153 0.023-0.231s-0.053-0.149-0.109-0.205l-3.521-3.538v-2.195l2.954 2.969c0.037 0.037 0.081 0.067 0.13 0.087s0.101 0.031 0.153 0.030c0.079 0 0.156-0.023 0.222-0.067s0.117-0.106 0.147-0.179c0.030-0.073 0.038-0.153 0.023-0.231s-0.053-0.149-0.109-0.205l-3.637-3.655c-0.15-0.151-0.417-0.151-0.567 0l-3.637 3.655c-0.037 0.037-0.066 0.081-0.086 0.13s-0.030 0.101-0.030 0.153c0 0.052 0.011 0.104 0.031 0.153s0.050 0.092 0.087 0.129c0.037 0.037 0.081 0.066 0.13 0.086s0.101 0.030 0.153 0.030c0.052-0 0.104-0.011 0.153-0.031s0.092-0.050 0.129-0.087l2.954-2.969v2.195l-3.521 3.538c-0.037 0.037-0.066 0.081-0.086 0.13s-0.030 0.101-0.030 0.153c0 0.052 0.011 0.104 0.031 0.153s0.050 0.092 0.087 0.129c0.037 0.037 0.081 0.066 0.13 0.086s0.101 0.030 0.153 0.030c0.052-0 0.104-0.011 0.153-0.031s0.092-0.050 0.129-0.087l2.954-2.969v2.195l-3.521 3.538c-0.037 0.037-0.066 0.081-0.086 0.13s-0.030 0.101-0.030 0.153c0 0.052 0.011 0.104 0.031 0.153s0.050 0.092 0.087 0.129c0.037 0.037 0.081 0.066 0.13 0.086s0.101 0.030 0.153 0.030c0.052-0 0.104-0.011 0.153-0.031s0.092-0.050 0.129-0.087l2.954-2.969v5.604l-3.238 0zM26.923 19.717c1.501 0 2.722 1.215 2.734 2.713h-5.467c0.012-1.498 1.233-2.713 2.733-2.713zM0.449 25.828h0.6c0.052 0 0.105-0.010 0.153-0.030s0.093-0.050 0.13-0.087c0.037-0.037 0.067-0.081 0.087-0.13s0.030-0.101 0.030-0.153c0-0.052-0.010-0.105-0.030-0.153s-0.050-0.093-0.087-0.13-0.081-0.067-0.13-0.087c-0.049-0.020-0.101-0.030-0.153-0.030h-0.6c-0.106 0-0.208 0.042-0.283 0.117s-0.117 0.177-0.117 0.283c0 0.106 0.042 0.208 0.117 0.283s0.177 0.117 0.283 0.117zM12.038 25.828c0.052 0 0.104-0.010 0.153-0.030s0.093-0.050 0.13-0.087c0.037-0.037 0.067-0.081 0.087-0.13s0.030-0.1 0.030-0.153c0-0.052-0.010-0.104-0.030-0.153s-0.049-0.093-0.087-0.13c-0.037-0.037-0.081-0.067-0.13-0.087s-0.1-0.030-0.153-0.030h-1.178c-0.106 0-0.208 0.042-0.283 0.117s-0.117 0.177-0.117 0.283c0 0.106 0.042 0.208 0.117 0.283s0.177 0.117 0.283 0.117h1.178zM9.848 30.747c-0 0.052 0.010 0.105 0.030 0.153s0.050 0.093 0.087 0.13c0.037 0.037 0.081 0.067 0.13 0.087s0.101 0.030 0.153 0.030h1.177c0.053 0 0.105-0.010 0.153-0.030s0.093-0.050 0.13-0.087c0.037-0.037 0.067-0.081 0.087-0.13s0.030-0.101 0.030-0.153c0-0.052-0.010-0.104-0.030-0.153s-0.050-0.093-0.087-0.13c-0.037-0.037-0.081-0.067-0.13-0.087s-0.1-0.030-0.153-0.030h-1.177c-0.053-0-0.105 0.010-0.153 0.030s-0.093 0.050-0.13 0.087c-0.037 0.037-0.067 0.081-0.087 0.13s-0.030 0.101-0.030 0.153zM15.342 30.747c-0 0.052 0.010 0.104 0.030 0.153s0.049 0.093 0.087 0.13 0.081 0.067 0.13 0.087c0.048 0.020 0.1 0.030 0.153 0.030h1.178c0.106 0 0.208-0.042 0.283-0.117s0.117-0.177 0.117-0.283-0.042-0.208-0.117-0.283c-0.075-0.075-0.177-0.117-0.283-0.117h-1.178c-0.052 0-0.104 0.010-0.153 0.030s-0.093 0.050-0.13 0.087c-0.037 0.037-0.066 0.081-0.087 0.13s-0.030 0.1-0.030 0.153zM31.544 27.408c-0.052 0.005-0.103 0.021-0.149 0.046s-0.087 0.059-0.12 0.1c-0.033 0.041-0.058 0.088-0.073 0.138s-0.020 0.103-0.014 0.155c0.008 0.078 0.012 0.158 0.012 0.24 0 0.256-0.043 0.507-0.126 0.746-0.035 0.1-0.029 0.21 0.018 0.306s0.128 0.169 0.228 0.204c0.042 0.014 0.087 0.022 0.132 0.022 0.083 0 0.164-0.026 0.232-0.074s0.119-0.116 0.146-0.194c0.113-0.324 0.171-0.665 0.17-1.008 0.001-0.11-0.005-0.219-0.017-0.325-0.023-0.22-0.221-0.38-0.439-0.356zM4.354 30.747c-0 0.052 0.010 0.104 0.030 0.153s0.049 0.093 0.087 0.13 0.081 0.067 0.13 0.087c0.048 0.020 0.101 0.030 0.153 0.030h1.177c0.053 0 0.105-0.010 0.153-0.030s0.093-0.050 0.13-0.087c0.037-0.037 0.067-0.081 0.087-0.13s0.030-0.101 0.030-0.153c0-0.052-0.010-0.104-0.030-0.153s-0.050-0.093-0.087-0.13-0.081-0.067-0.13-0.087c-0.048-0.020-0.101-0.030-0.153-0.030h-1.177c-0.052 0-0.104 0.010-0.153 0.030s-0.093 0.050-0.13 0.087c-0.037 0.037-0.067 0.081-0.087 0.13s-0.030 0.1-0.030 0.153zM12.595 30.747c0 0.052 0.010 0.104 0.030 0.153s0.050 0.093 0.087 0.13 0.081 0.067 0.13 0.087c0.048 0.020 0.1 0.030 0.153 0.030h1.178c0.052 0 0.104-0.010 0.153-0.030s0.093-0.050 0.13-0.087c0.037-0.037 0.067-0.081 0.087-0.13s0.030-0.1 0.030-0.153c0-0.052-0.010-0.104-0.030-0.153s-0.050-0.093-0.087-0.13c-0.037-0.037-0.081-0.067-0.13-0.087s-0.1-0.030-0.153-0.030h-1.178c-0.052-0-0.104 0.010-0.153 0.030s-0.093 0.050-0.13 0.087c-0.037 0.037-0.067 0.081-0.087 0.13s-0.030 0.1-0.030 0.153zM6.543 25.828c0.106 0 0.208-0.042 0.283-0.117s0.117-0.177 0.117-0.283c0-0.106-0.042-0.208-0.117-0.283s-0.177-0.117-0.283-0.117h-1.177c-0.053 0-0.104 0.010-0.153 0.030s-0.093 0.050-0.13 0.087c-0.037 0.037-0.067 0.081-0.087 0.13s-0.030 0.1-0.030 0.153c-0 0.052 0.010 0.104 0.030 0.153s0.049 0.093 0.087 0.13 0.081 0.067 0.13 0.087c0.048 0.020 0.1 0.030 0.153 0.030h1.177zM2.618 25.828h1.177c0.053 0 0.105-0.010 0.153-0.030s0.093-0.050 0.13-0.087c0.037-0.037 0.067-0.081 0.087-0.13s0.030-0.101 0.030-0.153c0-0.052-0.010-0.105-0.030-0.153s-0.050-0.093-0.087-0.13-0.081-0.067-0.13-0.087c-0.049-0.020-0.101-0.030-0.153-0.030h-1.177c-0.053 0-0.104 0.010-0.153 0.030s-0.093 0.050-0.13 0.087c-0.037 0.037-0.067 0.081-0.087 0.13s-0.030 0.101-0.030 0.153c-0 0.052 0.010 0.105 0.030 0.153s0.050 0.093 0.087 0.13 0.081 0.067 0.13 0.087c0.049 0.020 0.101 0.030 0.153 0.030zM14.784 25.828c0.052 0 0.104-0.010 0.153-0.030s0.092-0.050 0.13-0.087c0.037-0.037 0.067-0.081 0.087-0.13s0.030-0.1 0.030-0.153c0-0.052-0.010-0.104-0.030-0.153s-0.049-0.093-0.087-0.13c-0.037-0.037-0.081-0.067-0.13-0.087s-0.1-0.030-0.153-0.030h-1.177c-0.052 0-0.104 0.010-0.153 0.030s-0.093 0.050-0.13 0.087c-0.037 0.037-0.067 0.081-0.087 0.13s-0.030 0.1-0.030 0.153c-0 0.052 0.010 0.104 0.030 0.153s0.049 0.093 0.087 0.13 0.081 0.067 0.13 0.087c0.048 0.020 0.1 0.030 0.153 0.030h1.177zM9.29 25.828c0.053 0 0.105-0.010 0.153-0.030s0.093-0.050 0.13-0.087 0.067-0.081 0.087-0.13c0.020-0.049 0.030-0.101 0.030-0.153s-0.010-0.105-0.030-0.153c-0.020-0.049-0.050-0.093-0.087-0.13s-0.081-0.067-0.13-0.087c-0.048-0.020-0.1-0.030-0.153-0.030h-1.177c-0.052 0-0.104 0.010-0.153 0.030s-0.093 0.050-0.13 0.087c-0.037 0.037-0.067 0.081-0.087 0.13s-0.030 0.101-0.030 0.153c-0 0.052 0.010 0.105 0.030 0.153s0.050 0.093 0.087 0.13 0.081 0.067 0.13 0.087c0.049 0.020 0.101 0.030 0.153 0.030h1.177zM20.836 30.747c0 0.052 0.010 0.104 0.030 0.153s0.050 0.093 0.087 0.13c0.037 0.037 0.081 0.067 0.13 0.087s0.1 0.030 0.153 0.030h1.178c0.052 0 0.104-0.010 0.153-0.030s0.093-0.050 0.13-0.087c0.037-0.037 0.067-0.081 0.087-0.13s0.030-0.1 0.030-0.153-0.010-0.104-0.030-0.153c-0.020-0.048-0.050-0.093-0.087-0.13s-0.081-0.067-0.13-0.087c-0.049-0.020-0.1-0.030-0.153-0.030h-1.178c-0.052 0-0.104 0.010-0.153 0.030s-0.093 0.050-0.13 0.087c-0.037 0.037-0.067 0.081-0.087 0.13s-0.030 0.1-0.030 0.153h-0zM26.331 30.747c-0 0.052 0.010 0.105 0.030 0.153s0.050 0.093 0.087 0.13c0.037 0.037 0.081 0.067 0.13 0.087s0.101 0.030 0.153 0.030h1.177c0.053 0 0.105-0.010 0.153-0.030s0.093-0.050 0.13-0.087c0.037-0.037 0.067-0.081 0.087-0.13s0.030-0.101 0.030-0.153c0-0.052-0.010-0.104-0.030-0.153s-0.050-0.093-0.087-0.13c-0.037-0.037-0.081-0.067-0.13-0.087s-0.1-0.030-0.153-0.030h-1.177c-0.053-0-0.104 0.010-0.153 0.030s-0.093 0.049-0.13 0.087-0.067 0.081-0.087 0.13c-0.020 0.048-0.030 0.1-0.030 0.153zM25.773 25.828c0.052 0 0.104-0.010 0.153-0.030s0.093-0.050 0.13-0.087c0.037-0.037 0.067-0.081 0.087-0.13s0.030-0.101 0.030-0.153c0-0.052-0.010-0.105-0.030-0.153s-0.050-0.093-0.087-0.13-0.081-0.067-0.13-0.087c-0.048-0.020-0.1-0.030-0.153-0.030h-1.177c-0.052-0-0.104 0.010-0.153 0.030s-0.093 0.050-0.13 0.087-0.067 0.081-0.087 0.13c-0.020 0.048-0.030 0.101-0.030 0.153s0.010 0.105 0.030 0.153c0.020 0.049 0.050 0.093 0.087 0.13s0.081 0.067 0.13 0.087c0.049 0.020 0.101 0.030 0.153 0.030h1.177zM7.101 30.747c-0 0.052 0.010 0.104 0.030 0.153s0.049 0.093 0.087 0.13c0.037 0.037 0.081 0.067 0.13 0.087s0.101 0.030 0.153 0.030h1.178c0.106 0 0.208-0.042 0.283-0.117s0.117-0.177 0.117-0.283-0.042-0.208-0.117-0.283c-0.075-0.075-0.177-0.117-0.283-0.117h-1.178c-0.052-0-0.104 0.010-0.153 0.030s-0.093 0.050-0.13 0.087c-0.037 0.037-0.067 0.081-0.087 0.13s-0.030 0.1-0.030 0.153zM23.584 30.747c-0 0.052 0.010 0.105 0.030 0.153s0.050 0.093 0.087 0.13c0.037 0.037 0.081 0.067 0.13 0.087s0.101 0.030 0.153 0.030h1.177c0.106 0 0.208-0.042 0.283-0.117s0.117-0.177 0.117-0.283-0.042-0.208-0.117-0.283c-0.075-0.075-0.177-0.117-0.283-0.117h-1.177c-0.053-0-0.105 0.010-0.153 0.030s-0.093 0.050-0.13 0.087c-0.037 0.037-0.067 0.081-0.087 0.13s-0.030 0.101-0.030 0.153h-0zM23.026 25.828c0.052 0 0.104-0.010 0.153-0.030s0.093-0.050 0.13-0.087c0.037-0.037 0.066-0.081 0.087-0.13s0.030-0.1 0.030-0.153c0-0.052-0.010-0.104-0.030-0.153s-0.050-0.093-0.087-0.13c-0.037-0.037-0.081-0.067-0.13-0.087s-0.1-0.030-0.153-0.030h-1.178c-0.106 0-0.208 0.042-0.283 0.117s-0.117 0.177-0.117 0.283 0.042 0.208 0.117 0.283c0.075 0.075 0.177 0.117 0.283 0.117h1.178zM20.278 25.828c0.052 0 0.104-0.010 0.153-0.030s0.093-0.050 0.13-0.087c0.037-0.037 0.067-0.081 0.087-0.13s0.030-0.101 0.030-0.153-0.010-0.105-0.030-0.153c-0.020-0.049-0.049-0.093-0.087-0.13s-0.081-0.067-0.13-0.087c-0.049-0.020-0.101-0.030-0.153-0.030h-1.177c-0.053-0-0.105 0.010-0.153 0.030s-0.093 0.050-0.13 0.087c-0.037 0.037-0.067 0.081-0.087 0.13s-0.030 0.101-0.030 0.153c-0 0.052 0.010 0.105 0.030 0.153s0.050 0.093 0.087 0.13 0.081 0.067 0.13 0.087c0.048 0.020 0.1 0.030 0.153 0.030h1.177zM17.531 25.828c0.106 0 0.208-0.042 0.283-0.117s0.117-0.177 0.117-0.283-0.042-0.208-0.117-0.283c-0.075-0.075-0.177-0.117-0.283-0.117h-1.177c-0.053-0-0.105 0.010-0.153 0.030s-0.093 0.050-0.13 0.087c-0.037 0.037-0.067 0.081-0.087 0.13s-0.030 0.101-0.030 0.153c-0 0.052 0.010 0.105 0.030 0.153s0.050 0.093 0.087 0.13 0.081 0.067 0.13 0.087c0.048 0.020 0.1 0.030 0.153 0.030h1.177zM31.288 26.126c-0.291-0.347-0.655-0.626-1.066-0.817-0.096-0.044-0.206-0.049-0.306-0.012s-0.18 0.111-0.225 0.208c-0.022 0.048-0.034 0.099-0.036 0.152s0.006 0.105 0.024 0.154 0.046 0.094 0.081 0.133c0.036 0.039 0.079 0.070 0.126 0.092 0.304 0.141 0.573 0.347 0.788 0.604 0.038 0.045 0.085 0.081 0.138 0.106s0.111 0.038 0.17 0.038c0.094-0 0.184-0.033 0.256-0.093 0.081-0.068 0.132-0.166 0.142-0.271s-0.023-0.211-0.091-0.292zM28.52 25.828c0.052 0 0.105-0.010 0.153-0.030s0.093-0.050 0.13-0.087c0.037-0.037 0.067-0.081 0.087-0.13s0.030-0.1 0.030-0.153c0-0.053-0.010-0.105-0.030-0.153s-0.050-0.093-0.087-0.13-0.081-0.067-0.13-0.087c-0.049-0.020-0.101-0.030-0.153-0.030h-1.177c-0.052 0-0.104 0.010-0.153 0.030s-0.093 0.050-0.13 0.087c-0.037 0.037-0.067 0.081-0.087 0.13s-0.030 0.101-0.030 0.153 0.010 0.105 0.030 0.153c0.020 0.049 0.050 0.093 0.087 0.13s0.081 0.067 0.13 0.087c0.049 0.020 0.101 0.030 0.153 0.030h1.177zM29.473 31.094c0.027 0 0.054-0.003 0.081-0.008 0.444-0.091 0.862-0.28 1.224-0.552 0.042-0.032 0.077-0.071 0.104-0.116s0.044-0.095 0.052-0.147c0.007-0.052 0.004-0.105-0.009-0.156s-0.036-0.099-0.068-0.14c-0.064-0.085-0.159-0.141-0.264-0.155s-0.212 0.013-0.296 0.076c-0.267 0.201-0.576 0.34-0.904 0.408-0.051 0.010-0.1 0.031-0.144 0.060s-0.081 0.067-0.11 0.111-0.049 0.093-0.059 0.144c-0.010 0.052-0.010 0.105 0.001 0.156 0.018 0.090 0.067 0.171 0.139 0.229s0.16 0.090 0.252 0.090zM18.089 30.747c-0 0.052 0.010 0.104 0.030 0.153s0.050 0.093 0.087 0.13c0.037 0.037 0.081 0.067 0.13 0.087s0.101 0.030 0.153 0.030h1.177c0.052 0 0.104-0.010 0.153-0.030s0.093-0.050 0.13-0.087c0.037-0.037 0.067-0.081 0.087-0.13s0.030-0.101 0.030-0.153-0.010-0.104-0.030-0.153c-0.020-0.048-0.050-0.093-0.087-0.13s-0.081-0.067-0.13-0.087c-0.049-0.020-0.101-0.030-0.153-0.030h-1.177c-0.052-0-0.104 0.010-0.153 0.030s-0.093 0.050-0.13 0.087c-0.037 0.037-0.067 0.081-0.087 0.13s-0.030 0.101-0.030 0.153zM2.568 31.147h0.6c0.053 0 0.104-0.010 0.153-0.030s0.093-0.050 0.13-0.087c0.037-0.037 0.067-0.081 0.087-0.13s0.030-0.101 0.030-0.153c0-0.052-0.010-0.104-0.030-0.153s-0.050-0.093-0.087-0.13-0.081-0.067-0.13-0.087c-0.049-0.020-0.1-0.030-0.153-0.030h-0.6c-0.106 0-0.208 0.042-0.283 0.117s-0.117 0.177-0.117 0.283c0 0.106 0.042 0.208 0.117 0.283s0.177 0.117 0.283 0.117zM0.136 31.029l0.9 0.9c0.078 0.078 0.181 0.117 0.283 0.117 0.079 0 0.156-0.023 0.222-0.067s0.117-0.106 0.147-0.179c0.030-0.073 0.038-0.153 0.023-0.231s-0.054-0.149-0.11-0.205l-0.618-0.618 0.618-0.618c0.156-0.156 0.156-0.409 0-0.565s-0.409-0.156-0.566 0l-0.9 0.901c-0.156 0.156-0.156 0.409 0 0.565z"></path>
</symbol>
<symbol id="icon-watersport" viewBox="0 0 32 32">
  <path d="M27.267 20.878l-2.568-2.568c-0.069-0.069-0.162-0.108-0.259-0.108h-1.316l-1.73-1.728c2.782-3.323 4.817-7.205 5.968-11.383 0.017-0.063 0.018-0.129 0.001-0.191s-0.049-0.12-0.095-0.166c-0.046-0.046-0.103-0.079-0.166-0.095s-0.129-0.016-0.192 0.001c-4.178 1.151-8.060 3.186-11.383 5.968l-1.728-1.73v-1.316c0-0.097-0.039-0.191-0.108-0.259l-2.568-2.568c-0.069-0.069-0.162-0.107-0.259-0.107s-0.191 0.039-0.259 0.107l-2.568 2.569c-0.069 0.069-0.107 0.162-0.107 0.259s0.039 0.191 0.107 0.259l2.568 2.569c0.069 0.069 0.162 0.107 0.259 0.107h1.316l1.637 1.637c-4.2 4.118-7.348 9.187-9.177 14.777-0.015 0.054-0.017 0.112-0.007 0.167s0.034 0.108 0.068 0.153c0.034 0.045 0.078 0.082 0.129 0.107s0.106 0.038 0.163 0.038c0.033 0 0.066-0.004 0.098-0.013 5.59-1.83 10.659-4.977 14.777-9.177l1.637 1.637v1.316c0 0.097 0.039 0.191 0.108 0.259l2.568 2.569c0.069 0.069 0.162 0.107 0.259 0.107s0.191-0.039 0.259-0.107l2.568-2.569c0.069-0.069 0.107-0.162 0.107-0.259s-0.039-0.191-0.107-0.259zM25.699 5.782l-2.62 2.62 0.519 0.519 2.62-2.62c-1.158 3.524-2.971 6.798-5.344 9.65l-1.058-1.057c0.624-1.134 1.147-2.523 0.479-3.19s-2.055-0.143-3.19 0.479l-1.058-1.058c2.852-2.372 6.127-4.185 9.651-5.344zM17.651 12.728c1.138-0.59 1.919-0.712 2.128-0.504s0.086 0.991-0.505 2.128l-1.624-1.624zM8.813 7.561l2.050-2.050 2.202 2.202v1.164l-0.886 0.886h-1.164l-2.202-2.202zM13.432 9.547l9.021 9.021-0.582 0.582-9.021-9.021 0.582-0.582zM17.995 16.313c-0.245 0.313-0.508 0.612-0.787 0.896-1.529 1.529-3.232 1.958-3.803 1.386s-0.143-2.275 1.386-3.803c0.283-0.279 0.582-0.542 0.896-0.787l2.308 2.308zM6.369 26.15l2.552-2.552-0.519-0.519-2.552 2.552c1.862-4.886 4.756-9.314 8.485-12.98l0.83 0.83c-0.311 0.247-0.609 0.511-0.892 0.791-1.746 1.746-2.355 3.872-1.386 4.84 0.166 0.156 0.361 0.277 0.574 0.356s0.44 0.114 0.668 0.104c1.054 0 2.415-0.66 3.599-1.846 0.28-0.283 0.544-0.58 0.791-0.892l0.83 0.83c-3.666 3.729-8.094 6.623-12.981 8.485zM24.439 23.187l-2.202-2.202v-1.164l0.886-0.886h1.164l2.202 2.202-2.050 2.050z"></path>
</symbol>
<symbol id="icon-chevron" viewBox="0 0 24 24">
  <path d="M11.2929 8.29289C11.6834 7.90237 12.3166 7.90237 12.7071 8.29289L18.7071 14.2929C19.0976 14.6834 19.0976 15.3166 18.7071 15.7071C18.3166 16.0976 17.6834 16.0976 17.2929 15.7071L12 10.4142L6.70711 15.7071C6.31658 16.0976 5.68342 16.0976 5.29289 15.7071C4.90237 15.3166 4.90237 14.6834 5.29289 14.2929L11.2929 8.29289Z"></path>
</symbol>
</defs>
</svg>
