<svg aria-hidden="true" style="position: absolute; width: 0; height: 0; overflow: hidden;" version="1.1" xmlns="http://www.w3.org/2000/svg" xmlns:xlink="http://www.w3.org/1999/xlink">
<defs>
<symbol id="icon-cruise" viewBox="0 0 31 32">
  <path d="M24.111 18.556l-3.881-2.395c-0.279-0.172-0.655-0.081-0.826 0.195s-0.081 0.655 0.196 0.826l3.881 2.395c0.279 0.172 0.654 0.084 0.826-0.195s0.084-0.654-0.195-0.826zM17.873 14.812c-0.383 0-0.672 0.365-0.585 0.738 0.035 0.149 0.137 0.284 0.271 0.369 0.092 0.059 0.2 0.094 0.312 0.094 0.21 0 0.401-0.106 0.511-0.285 0.234-0.381-0.060-0.915-0.51-0.915zM11.66 16.326c-0.169-0.27-0.559-0.357-0.828-0.187l-3.857 2.432c-0.277 0.175-0.362 0.55-0.187 0.827 0.105 0.167 0.308 0.264 0.508 0.27 0.113 0.003 0.225-0.023 0.319-0.082l3.857-2.433c0.277-0.175 0.362-0.549 0.187-0.827zM13.181 14.765c-0.279 0-0.523 0.196-0.584 0.467-0.084 0.37 0.209 0.733 0.586 0.733 0.278 0 0.524-0.196 0.585-0.467 0.084-0.372-0.206-0.733-0.586-0.733z"></path>
  <path d="M30.573 28.165c-0.217-0.25-0.596-0.276-0.846-0.059-0.64 0.556-1.232 1.133-2.071 1.365-0.933 0.258-1.82 0.054-2.665-0.368l3.125-10.513c0.038-0.127 0.032-0.263-0.015-0.387s-0.135-0.228-0.249-0.297l-2.891-1.752v-5.115c0-0.331-0.269-0.6-0.6-0.6h-1.2v-1.8c0-0.331-0.269-0.6-0.6-0.6h-1.89v-1.8c0-0.331-0.269-0.6-0.6-0.6h-2.91v-4.2c0-0.331-0.269-0.6-0.6-0.6h-2.4c-0.331 0-0.6 0.269-0.6 0.6v4.2h-2.91c-0.331 0-0.6 0.269-0.6 0.6v1.8h-1.89c-0.331 0-0.6 0.269-0.6 0.6v1.8h-1.2c-0.331 0-0.6 0.269-0.6 0.6v5.115l-2.891 1.752c-0.114 0.069-0.201 0.173-0.249 0.297s-0.053 0.26-0.015 0.387l3.118 10.492c-0.053-0.179-1.013-0.297-1.183-0.319-1.747-0.226-3.075 0.649-4.334 1.743-0.25 0.217-0.276 0.596-0.059 0.846 0.208 0.239 0.594 0.279 0.846 0.059 1.296-1.127 2.758-1.986 4.474-1.128 1.552 0.776 3.158 1.109 4.774 0.258 1.303-0.686 2.561-1.278 4.016-0.586l1.496 0.712c1.28 0.609 2.74 0.595 4.008-0.039 0.781-0.391 1.575-0.91 2.467-0.972 0.875-0.060 1.72 0.266 2.488 0.65 1.015 0.508 2.204 0.609 3.294 0.298 1.004-0.286 1.735-0.926 2.504-1.594 0.25-0.217 0.276-0.596 0.059-0.846zM23.76 11.638v3.788l-6.252-3.788h6.252zM14.76 2.038h1.2v3.6h-1.2v-3.6zM11.25 6.838h8.22v1.2h-8.22v-1.2zM6.96 11.638h6.252l-6.252 3.788v-3.788zM14.76 28.865c0-0.107-0.855-0.303-0.967-0.328-1.044-0.226-2.165-0.083-3.112 0.416-0.687 0.362-1.35 0.783-2.135 0.884l-0.004 0c-0.459 0.056-0.929 0.022-1.373-0.108l-3.281-11.040 10.873-6.588v16.762zM8.76 10.438v-1.2h13.2v1.2h-13.2zM23.881 28.622c0.007-0.186-1.682-0.184-1.796-0.172-1.041 0.11-1.942 0.646-2.861 1.106-1.086 0.543-2.203 0.387-3.264-0.119v-17.333l10.873 6.588-2.952 9.93z"></path>
</symbol>
<symbol id="icon-car" viewBox="0 0 31 32">
  <path d="M9.6 24.162c-0.794 0-1.44 0.646-1.44 1.44s0.646 1.44 1.44 1.44 1.44-0.646 1.44-1.44c0-0.794-0.646-1.44-1.44-1.44zM9.6 26.082c-0.063 0-0.126-0.012-0.184-0.037s-0.111-0.060-0.156-0.104c-0.045-0.045-0.080-0.098-0.104-0.156s-0.037-0.121-0.036-0.184c0-0.063 0.012-0.126 0.037-0.184s0.060-0.111 0.104-0.156c0.045-0.045 0.098-0.080 0.156-0.104s0.121-0.036 0.184-0.036c0.127 0 0.249 0.051 0.34 0.141s0.141 0.212 0.14 0.34c-0 0.127-0.051 0.249-0.141 0.34s-0.212 0.141-0.34 0.14zM23.52 24.162c-0.794 0-1.44 0.646-1.44 1.44s0.646 1.44 1.44 1.44 1.44-0.646 1.44-1.44c0-0.794-0.646-1.44-1.44-1.44zM23.52 26.082c-0.063 0-0.126-0.012-0.184-0.037s-0.111-0.060-0.156-0.104c-0.045-0.045-0.080-0.098-0.104-0.156s-0.036-0.121-0.036-0.184c0-0.063 0.013-0.126 0.037-0.184s0.060-0.111 0.104-0.156c0.045-0.045 0.098-0.080 0.156-0.104s0.121-0.036 0.184-0.036c0.127 0 0.249 0.051 0.339 0.141s0.141 0.212 0.141 0.34c-0 0.127-0.051 0.249-0.141 0.34s-0.212 0.141-0.34 0.14zM20.116 10.041c-0.039-0.083-0.1-0.154-0.177-0.203s-0.167-0.076-0.259-0.076h-5.28c-0.127 0-0.249 0.051-0.339 0.141s-0.141 0.212-0.141 0.339v6.24c0 0.127 0.051 0.249 0.141 0.339s0.212 0.141 0.339 0.141h8.16c0.081-0 0.16-0.021 0.23-0.059s0.13-0.094 0.174-0.162c0.043-0.068 0.069-0.145 0.075-0.226s-0.009-0.161-0.043-0.234l-2.88-6.24zM14.88 16.002v-5.28h4.493l2.437 5.28h-6.93zM12.48 9.762h-7.2c-0.127 0-0.249 0.051-0.339 0.141s-0.141 0.212-0.141 0.339v6.24c0 0.127 0.051 0.249 0.141 0.339s0.212 0.141 0.339 0.141h7.2c0.127 0 0.249-0.051 0.339-0.141s0.141-0.212 0.141-0.339v-6.24c0-0.127-0.051-0.249-0.141-0.339s-0.212-0.141-0.339-0.141zM5.76 16.002v-5.28h0.96v5.28h-0.96zM12 16.002h-4.32v-5.28h4.32v5.28z"></path>
  <path d="M30.72 21.282v-2.88c0-0.127-0.051-0.249-0.141-0.339s-0.212-0.141-0.339-0.141c0-1.059-0.861-1.92-1.92-1.92h-3.055l-3.192-6.779c-0.194-0.412-0.502-0.761-0.886-1.005s-0.83-0.375-1.286-0.375h-0.134c0.56-0.579 0.874-1.354 0.874-2.16 0-1.72-1.4-3.12-3.12-3.12h-10.080c-0.827 0.001-1.62 0.33-2.205 0.915s-0.914 1.378-0.915 2.205c0 0.842 0.337 1.606 0.881 2.168-1.286 0.043-2.321 1.095-2.321 2.392v0.96h-1.44c-0.794 0-1.44 0.646-1.44 1.44v5.76c0 0.794 0.646 1.44 1.44 1.44h1.44v3.84c-0.529 0-0.96 0.431-0.96 0.96v1.92c0 0.53 0.431 0.96 0.96 0.96h3.399c0.665 1.146 1.903 1.92 3.321 1.92s2.655-0.774 3.321-1.92h7.279c0.665 1.146 1.903 1.92 3.321 1.92s2.655-0.774 3.321-1.92h2.919c0.529 0 0.96-0.43 0.96-0.96v-1.92c0-0.354-0.194-0.66-0.48-0.826v-2.053c0.127 0 0.249-0.051 0.339-0.141s0.141-0.212 0.141-0.339zM28.8 20.802c-0.529 0-0.96-0.43-0.96-0.96s0.431-0.96 0.96-0.96h0.96v1.92h-0.96zM19.68 5.682c0 1.191-0.969 2.16-2.16 2.16h-0.72v-4.32h0.72c1.191 0 2.16 0.969 2.16 2.16zM15.84 3.522v4.32h-0.96v-4.32h0.96zM11.040 7.842v-4.32h2.88v4.32h-2.88zM10.080 3.522v4.32h-0.96v-4.32h0.96zM7.44 3.522h0.72v4.32h-0.72c-1.191 0-2.16-0.969-2.16-2.16s0.969-2.16 2.16-2.16zM3.84 20.802h1.44v0.96h-1.44v-0.96zM5.28 19.842h-1.44v-0.96h1.44v0.96zM1.44 18.882c-0.127 0-0.249-0.051-0.339-0.141s-0.141-0.212-0.141-0.339v-5.76c0-0.127 0.051-0.249 0.141-0.339s0.212-0.141 0.339-0.141h1.44v6.72h-1.44zM2.88 26.562v-1.92h3.006c-0.080 0.307-0.126 0.628-0.126 0.96s0.047 0.653 0.126 0.96h-3.006zM9.6 28.482c-1.588 0-2.88-1.292-2.88-2.88s1.292-2.88 2.88-2.88 2.88 1.292 2.88 2.88c0 1.588-1.292 2.88-2.88 2.88zM13.314 26.562c0.080-0.307 0.126-0.628 0.126-0.96s-0.047-0.653-0.126-0.96h6.492c-0.080 0.307-0.126 0.628-0.126 0.96s0.047 0.653 0.126 0.96h-6.492zM23.52 28.482c-1.588 0-2.88-1.292-2.88-2.88s1.292-2.88 2.88-2.88 2.88 1.292 2.88 2.88c0 1.588-1.292 2.88-2.88 2.88zM29.76 26.562h-2.526c0.080-0.307 0.126-0.628 0.126-0.96s-0.047-0.653-0.126-0.96h2.526v1.92zM29.28 23.682h-2.439c-0.665-1.146-1.903-1.92-3.321-1.92s-2.655 0.774-3.321 1.92h-7.279c-0.665-1.146-1.903-1.92-3.321-1.92s-2.655 0.774-3.321 1.92h-2.439v-0.96h1.92c0.127 0 0.249-0.051 0.339-0.141s0.141-0.212 0.141-0.339v-3.84c0-0.127-0.051-0.249-0.141-0.339s-0.212-0.141-0.339-0.141h-1.92v-7.68c0-0.794 0.646-1.44 1.44-1.44h14.621c0.557 0 1.068 0.325 1.304 0.828l3.322 7.056c0.079 0.168 0.248 0.275 0.434 0.275h3.36c0.529 0 0.96 0.431 0.96 0.96h-0.48c-1.059 0-1.92 0.861-1.92 1.92s0.861 1.92 1.92 1.92h0.48v1.92z"></path>
  <path d="M15.36 18.402h-0.96c-0.127 0-0.249 0.051-0.339 0.141s-0.141 0.212-0.141 0.339c0 0.127 0.051 0.249 0.141 0.339s0.212 0.141 0.339 0.141h0.96c0.127 0 0.249-0.051 0.339-0.141s0.141-0.212 0.141-0.339c0-0.127-0.051-0.249-0.141-0.339s-0.212-0.141-0.339-0.141z"></path>
</symbol>
<symbol id="icon-city" viewBox="0 0 32 32">
  <path d="M30.5 30.5v-15h-1v-2h-1v-3h-1v-2h-1v2h-1v3h-1v-11.11l-3 0.6v-1.49h-1v1.69l-1 0.2v-2.89h-1v3.090l-1 0.2v-2.29h-1v2.49l-3 0.6v2.909h-9v1h1v6.045c-0.165-0.029-0.332-0.044-0.5-0.045-1.929 0-3.5 1.795-3.5 4 0 2.011 1.307 3.675 3 3.955v0.651c-0.418-0.379-0.937-0.606-1.5-0.606-1.379 0-2.5 1.345-2.5 3 0 1.449 0.861 2.661 2 2.939v2.061h-2v1h31v-1h-1zM8.5 30c0-0.827 0.673-1.5 1.5-1.5 0.266 0 0.527 0.071 0.757 0.205s0.42 0.327 0.551 0.558l0.155 0.275 0.537-0.038c0.147 0 0.302 0.029 0.474 0.087l0.486 0.163 0.152-0.489c0.156-0.511 0.473-0.958 0.903-1.275s0.951-0.487 1.485-0.485c0.909 0 1.748 0.495 2.189 1.293l0.313 0.566 0.469-0.445c0.563-0.534 1.494-0.534 2.057 0l0.469 0.445 0.313-0.566c0.216-0.391 0.534-0.718 0.919-0.945s0.824-0.348 1.271-0.348c0.528-0.001 1.043 0.166 1.47 0.476s0.745 0.748 0.907 1.251l0.141 0.432 0.443-0.098c0.991-0.22 1.959 0.188 2.529 0.939h-20.392c-0.061-0.16-0.093-0.329-0.097-0.5zM29.5 16.5v13.069c-0.289-0.297-0.627-0.541-1-0.721v-11.348h-7v9.635c-0.283 0.196-0.537 0.432-0.751 0.702-0.081-0.046-0.164-0.087-0.249-0.122v-11.215h9zM23.5 26.5c-0.344 0-0.679 0.056-1 0.152v-8.152h2v8.145c-0.325-0.096-0.661-0.145-1-0.145zM25.5 18.5h2v10.047c-0.275-0.044-0.553-0.054-0.831-0.031-0.261-0.556-0.665-1.032-1.169-1.382v-8.634zM21.5 15.5v-1h7v1h-7zM26.5 11.5h1v2h-1v-2zM23.5 3.61v9.89h-3v2h-1v12.007c-0.436 0-0.871 0.11-1.249 0.329-0.327-0.416-0.745-0.753-1.222-0.985s-0.999-0.352-1.529-0.352c-0.346 0-0.682 0.050-1 0.143v-21.234l9-1.8zM6.5 8.5h7v18.631c-0.509 0.352-0.915 0.833-1.175 1.394-0.107-0.015-0.215-0.023-0.323-0.023-0.233-0.311-0.535-0.563-0.883-0.736s-0.73-0.265-1.119-0.265c-1.379 0-2.5 1.121-2.5 2.5 0 0.169 0.022 0.335 0.056 0.5h-2.056v-1.815l3-3.5v-1.23c1.693-0.279 3-1.944 3-3.955 0-1.505-0.732-2.817-1.809-3.5h0.809v-1h-1v0.891c-0.459-0.255-0.975-0.389-1.5-0.391-0.086 0-0.174 0.005-0.263 0.014-0.32-0.465-0.743-0.849-1.237-1.123v-6.391zM8.5 18.5c0-0.525-0.091-1.025-0.253-1.485 1.263 0.15 2.253 1.431 2.253 2.985 0 1.655-1.121 3-2.5 3-0.631 0-1.231-0.291-1.688-0.795 1.281-0.595 2.188-2.031 2.188-3.705zM5.5 22.791c0.537 0.629 1.236 1.040 2 1.165v0.859l-2 2.334v-4.359zM2.5 18.5c0-1.655 1.122-3 2.5-3s2.5 1.345 2.5 3c0 1.449-0.861 2.661-2 2.939v-3.439h-1v3.439c-1.139-0.279-2-1.49-2-2.939zM1.5 25.5c0-1.103 0.673-2 1.5-2s1.5 0.897 1.5 2c0 1.103-0.673 2-1.5 2s-1.5-0.897-1.5-2zM3.5 28.439c0.37-0.090 0.709-0.282 1-0.545v2.605h-1v-2.061z"></path>
  <path d="M18.5 6.5h-3v4h3v-4zM17.5 9.5h-1v-2h1v2zM18.5 11.5h-3v4h3v-4zM17.5 14.5h-1v-2h1v2zM18.5 16.5h-3v4h3v-4zM17.5 19.5h-1v-2h1v2zM18.5 21.5h-3v4h3v-4zM17.5 24.5h-1v-2h1v2zM22.5 6.5h-3v4h3v-4zM21.5 9.5h-1v-2h1v2zM7.5 9.5h1v1h-1v-1zM9.5 9.5h1v1h-1v-1zM11.5 9.5h1v1h-1v-1zM7.5 11.5h1v1h-1v-1zM9.5 11.5h1v1h-1v-1zM11.5 11.5h1v1h-1v-1zM9.5 13.5h1v1h-1v-1zM7.5 13.5h1v1h-1v-1zM11.5 13.5h1v1h-1v-1zM11.5 15.5h1v1h-1v-1z"></path>
</symbol>
<symbol id="icon-fly" viewBox="0 0 31 32">
  <path d="M5.203 14.562h-2.803c-0.794 0-1.44-0.646-1.44-1.44s0.646-1.44 1.44-1.44c0.127 0 0.249-0.051 0.339-0.141s0.141-0.212 0.141-0.339c-0.001-0.534 0.177-1.053 0.505-1.474s0.788-0.72 1.306-0.849c0.062-0.014 0.121-0.040 0.173-0.078s0.096-0.084 0.13-0.139c0.034-0.054 0.056-0.115 0.066-0.178s0.007-0.128-0.009-0.19c-0.016-0.062-0.043-0.12-0.082-0.172s-0.087-0.094-0.142-0.127c-0.055-0.032-0.116-0.053-0.18-0.062s-0.128-0.004-0.19 0.013c-0.653 0.163-1.242 0.518-1.69 1.021s-0.734 1.129-0.82 1.796c-0.548 0.106-1.042 0.399-1.397 0.829s-0.55 0.97-0.551 1.528c0 1.323 1.077 2.4 2.4 2.4h2.803c0.127 0 0.249-0.051 0.339-0.141s0.141-0.212 0.141-0.339c0-0.127-0.051-0.249-0.141-0.339s-0.212-0.141-0.339-0.141z"></path>
  <path d="M25.39 9.712c-0.017-0.123-0.081-0.235-0.179-0.312s-0.222-0.113-0.346-0.1c-0.124 0.013-0.238 0.074-0.318 0.169s-0.12 0.219-0.111 0.343c0.022 0.211 0.033 0.429 0.038 0.655-1.564 0.634-3.368 0.468-4.782-0.474l-0.046-0.030c-0.192-3.17-1.296-6.095-3.122-8.286 1.645 0.21 3.201 0.865 4.5 1.895 0.1 0.079 0.227 0.115 0.353 0.101s0.242-0.079 0.321-0.178 0.115-0.227 0.101-0.353c-0.015-0.126-0.079-0.242-0.179-0.321-1.923-1.526-4.343-2.292-6.809-2.164-5.281 0.281-9.551 4.813-9.53 10.109v0.005l-0.001 0.022c0.021 3.105 1.479 5.992 3.887 7.87l1.275 5.524c-0.102 0.025-0.194 0.083-0.259 0.166s-0.102 0.185-0.103 0.29v1.92c0 0.127 0.051 0.249 0.141 0.339s0.212 0.141 0.339 0.141h0.53l0.385 3.466c0.026 0.235 0.137 0.452 0.314 0.61s0.404 0.245 0.641 0.244h5.861c0.236 0 0.465-0.087 0.641-0.244s0.288-0.375 0.313-0.61l0.385-3.466h0.53c0.127 0 0.249-0.051 0.339-0.141s0.141-0.212 0.141-0.339v-1.92c-0.001-0.105-0.037-0.208-0.102-0.29s-0.157-0.141-0.26-0.166l1.274-5.523c1.202-0.935 2.177-2.131 2.85-3.498s1.027-2.868 1.036-4.391v-0.009c0-0.014 0.002-0.029 0.002-0.043 0-0.357-0.016-0.687-0.050-1.010zM16.856 24.162h-2.992l-0.36-2.88h3.712l-0.36 2.88zM15.36 1.806c1.935 2.058 3.114 4.958 3.323 8.136-1.045 0.468-2.178 0.71-3.323 0.71s-2.278-0.242-3.323-0.71c0.209-3.178 1.387-6.078 3.323-8.136zM15.36 11.624c1.143 0 2.285-0.217 3.36-0.645-0.004 3.567-1.223 6.867-3.36 9.14-2.138-2.273-3.356-5.573-3.36-9.139 1.069 0.425 2.209 0.644 3.36 0.645zM14.188 1.686c-1.822 2.191-2.922 5.112-3.114 8.277l-0.046 0.030c-1.411 0.941-3.212 1.108-4.774 0.478 0.129-4.438 3.569-8.214 7.934-8.784v-0zM6.276 11.507c0.616 0.201 1.256 0.305 1.896 0.305 0.993 0 1.98-0.243 2.87-0.716 0.029 3.538 1.187 6.829 3.218 9.226h-1.105l-0.121-0.119c-0.545-0.545-1.209-1.027-2.030-1.474-1.323-0.72-2.448-1.756-3.273-3.016s-1.325-2.705-1.456-4.206zM10.547 19.572c0.739 0.403 1.331 0.832 1.813 1.314l0.145 0.142 0.392 3.134h-1.474l-1.088-4.715c0.071 0.041 0.14 0.085 0.213 0.125zM18.29 30.402h-5.861l-0.373-3.36h6.608l-0.373 3.36zM19.68 26.082h-8.64v-0.96h8.64v0.96zM19.298 24.162h-1.474l0.392-3.137 0.146-0.146c0.483-0.479 1.070-0.903 1.797-1.296 0.078-0.042 0.151-0.090 0.227-0.133l-1.088 4.713zM19.701 18.739c-0.806 0.437-1.466 0.914-2.016 1.46l-0.123 0.123h-1.102c2.031-2.396 3.189-5.688 3.218-9.226 0.884 0.469 1.87 0.715 2.87 0.715 0.639 0 1.279-0.104 1.895-0.305-0.13 1.504-0.632 2.951-1.459 4.213s-1.955 2.299-3.282 3.018z"></path>
  <path d="M28.512 3.123c-0.263-0.596-0.693-1.102-1.238-1.457s-1.183-0.544-1.834-0.543c-1.704 0-3.117 1.276-3.332 2.923-0.548 0.106-1.042 0.399-1.397 0.829s-0.55 0.97-0.551 1.528c0 1.323 1.077 2.4 2.4 2.4h5.28c1.588 0 2.88-1.292 2.88-2.88 0-1.341-0.931-2.496-2.208-2.799zM27.84 7.842h-5.28c-0.794 0-1.44-0.646-1.44-1.44s0.646-1.44 1.44-1.44c0.127 0 0.249-0.051 0.339-0.141s0.141-0.212 0.141-0.339c0-1.323 1.077-2.4 2.4-2.4 0.5-0.001 0.987 0.155 1.394 0.445s0.712 0.701 0.874 1.173c0.058 0.173 0.21 0.298 0.392 0.321 0.483 0.064 0.924 0.31 1.232 0.687s0.462 0.858 0.429 1.344c-0.033 0.486-0.25 0.942-0.606 1.274s-0.826 0.516-1.314 0.515z"></path>
</symbol>
<symbol id="icon-hotel" viewBox="0 0 32 32">
  <path d="M9.065 14.403h-3.733c-0.141 0-0.277 0.056-0.377 0.156s-0.156 0.236-0.156 0.377v5.333c0 0.141 0.056 0.277 0.156 0.377s0.236 0.156 0.377 0.156h3.733c0.141 0 0.277-0.056 0.377-0.156s0.156-0.236 0.156-0.377v-5.333c0-0.141-0.056-0.277-0.156-0.377s-0.236-0.156-0.377-0.156zM8.532 19.735h-2.666v-4.266h2.666v4.266zM18.131 14.403h-3.733c-0.141 0-0.277 0.056-0.377 0.156s-0.156 0.236-0.156 0.377v5.333c0 0.141 0.056 0.277 0.156 0.377s0.236 0.156 0.377 0.156h3.733c0.141 0 0.277-0.056 0.377-0.156s0.156-0.236 0.156-0.377v-5.333c0-0.141-0.056-0.277-0.156-0.377s-0.236-0.156-0.377-0.156zM17.597 19.735h-2.666v-4.266h2.666v4.266zM18.131 22.935h-3.733c-0.141 0-0.277 0.056-0.377 0.156s-0.156 0.236-0.156 0.377v5.333c0 0.141 0.056 0.277 0.156 0.377s0.236 0.156 0.377 0.156h3.733c0.141 0 0.277-0.056 0.377-0.156s0.156-0.236 0.156-0.377v-5.333c-0-0.141-0.056-0.277-0.156-0.377s-0.236-0.156-0.377-0.156zM17.597 28.267h-2.666v-4.266h2.666v4.266zM26.663 14.403h-3.733c-0.141 0-0.277 0.056-0.377 0.156s-0.156 0.236-0.156 0.377v5.333c0 0.141 0.056 0.277 0.156 0.377s0.236 0.156 0.377 0.156h3.733c0.141 0 0.277-0.056 0.377-0.156s0.156-0.236 0.156-0.377v-5.333c0-0.141-0.056-0.277-0.156-0.377s-0.236-0.156-0.377-0.156zM26.13 19.735h-2.666v-4.266h2.666v4.266zM9.065 22.935h-3.733c-0.141 0-0.277 0.056-0.377 0.156s-0.156 0.236-0.156 0.377v5.333c0 0.141 0.056 0.277 0.156 0.377s0.236 0.156 0.377 0.156h3.733c0.141 0 0.277-0.056 0.377-0.156s0.156-0.236 0.156-0.377v-5.333c0-0.141-0.056-0.277-0.156-0.377s-0.236-0.156-0.377-0.156zM8.532 28.267h-2.666v-4.266h2.666v4.266zM26.663 22.935h-3.733c-0.141 0-0.277 0.056-0.377 0.156s-0.156 0.236-0.156 0.377v5.333c0 0.141 0.056 0.277 0.156 0.377s0.236 0.156 0.377 0.156h3.733c0.141 0 0.277-0.056 0.377-0.156s0.156-0.236 0.156-0.377v-5.333c0-0.141-0.056-0.277-0.156-0.377s-0.236-0.156-0.377-0.156zM26.13 28.267h-2.666v-4.266h2.666v4.266z"></path>
  <path d="M29.862 30.934v-18.131h0.533c0.141 0 0.277-0.056 0.377-0.156s0.156-0.236 0.156-0.377v-2.666c0-0.070-0.014-0.139-0.041-0.204s-0.066-0.123-0.116-0.173c-0.049-0.050-0.108-0.089-0.173-0.116s-0.134-0.041-0.204-0.041h-0.533v-2.133c0-0.141-0.056-0.277-0.156-0.377s-0.236-0.156-0.377-0.156h-1.066v-5.866c0-0.141-0.056-0.277-0.156-0.377s-0.236-0.156-0.377-0.156h-23.463c-0.141 0-0.277 0.056-0.377 0.156s-0.156 0.236-0.156 0.377v5.866h-1.067c-0.141 0-0.277 0.056-0.377 0.156s-0.156 0.236-0.156 0.377v2.133h-0.533c-0.141 0-0.277 0.056-0.377 0.156s-0.156 0.236-0.156 0.377v2.666c0 0.141 0.056 0.277 0.156 0.377s0.236 0.156 0.377 0.156h0.533v18.131h-2.133v1.067h32v-1.067l-2.138 0zM4.799 1.071h22.397v5.333h-22.397v-5.333zM3.2 7.47h25.596v1.6h-25.596v-1.6zM28.796 30.934h-25.596v-18.131h25.596v18.131zM2.666 11.736h-0.533v-1.6h27.729v1.6h-27.196z"></path>
  <path d="M15.179 2.896c-0.085-0.217-0.204-0.404-0.358-0.562s-0.338-0.281-0.554-0.371-0.455-0.134-0.717-0.134c-0.262 0-0.502 0.044-0.719 0.133s-0.402 0.212-0.557 0.371c-0.154 0.158-0.274 0.346-0.359 0.563s-0.127 0.452-0.127 0.707 0.042 0.49 0.127 0.707c0.085 0.217 0.204 0.404 0.359 0.563s0.34 0.282 0.557 0.371 0.456 0.133 0.719 0.133c0.262 0 0.501-0.044 0.717-0.133s0.401-0.212 0.554-0.371c0.154-0.158 0.273-0.346 0.358-0.563s0.127-0.452 0.127-0.707c0-0.254-0.042-0.49-0.127-0.707zM14.568 4.115c-0.050 0.151-0.123 0.279-0.217 0.384s-0.209 0.185-0.344 0.241-0.288 0.084-0.457 0.084c-0.169 0-0.322-0.028-0.458-0.084s-0.252-0.136-0.347-0.241-0.168-0.233-0.22-0.384c-0.051-0.151-0.077-0.322-0.077-0.512s0.026-0.361 0.077-0.512c0.051-0.151 0.124-0.28 0.22-0.385s0.211-0.186 0.347-0.242c0.136-0.056 0.289-0.084 0.458-0.084s0.322 0.028 0.457 0.084 0.25 0.137 0.344 0.242c0.094 0.106 0.167 0.234 0.217 0.385s0.075 0.322 0.075 0.512-0.025 0.361-0.075 0.512zM10.626 1.867v1.493h-1.627v-1.493h-0.65v3.47h0.65v-1.517h1.627v1.517h0.65v-3.47h-0.65zM21.876 4.805v-2.937h-0.646v3.47h2.035v-0.533h-1.389zM15.335 1.867v0.53h1.049v2.94h0.645v-2.94h1.044v-0.53h-2.738zM20.671 2.381v-0.514h-2.188v3.47h2.188v-0.516h-1.538v-0.981h1.212v-0.497h-1.212v-0.962h1.538z"></path>
</symbol>
<symbol id="icon-plane" viewBox="0 0 31 32">
  <path d="M29.737 14.69l-1.702-1.221c-0.652-0.463-1.431-0.712-2.231-0.712h-3.046l-3.36-3.36h0.761c0.127 0 0.249-0.051 0.339-0.141s0.141-0.212 0.141-0.339v-2.88c0-0.127-0.051-0.249-0.141-0.339s-0.212-0.141-0.339-0.141h-4.601l-4.179-4.179c-0.090-0.090-0.212-0.141-0.339-0.141h-4.8c-0.127 0-0.249 0.051-0.339 0.141s-0.141 0.212-0.141 0.339c0 0.127 0.051 0.249 0.141 0.339s0.212 0.141 0.339 0.141h0.663l5.28 10.56h-6.225l-1.779-1.779c-0.090-0.090-0.212-0.141-0.339-0.141h-3.36c-0.083 0-0.165 0.022-0.238 0.063s-0.133 0.101-0.175 0.172c-0.043 0.072-0.066 0.153-0.067 0.236s0.019 0.165 0.059 0.239l1.766 3.237-1.661 1.452c-0.052 0.045-0.093 0.101-0.121 0.163s-0.043 0.13-0.043 0.199c0 0.068 0.015 0.136 0.043 0.198s0.070 0.118 0.121 0.163l1.661 1.452-1.766 3.237c-0.040 0.073-0.060 0.155-0.059 0.239s0.025 0.165 0.067 0.236c0.043 0.072 0.103 0.131 0.175 0.172s0.154 0.063 0.238 0.063h3.36c0.127-0 0.249-0.051 0.339-0.141l1.779-1.779h6.225l-5.28 10.56h-0.663c-0.127 0-0.249 0.051-0.339 0.141s-0.141 0.212-0.141 0.339c0 0.127 0.051 0.249 0.141 0.339s0.212 0.141 0.339 0.141h4.8c0.063 0 0.125-0.012 0.184-0.036s0.111-0.060 0.156-0.104l4.179-4.179h4.601c0.127 0 0.249-0.051 0.339-0.141s0.141-0.212 0.141-0.339v-2.88c0-0.127-0.051-0.249-0.141-0.339s-0.212-0.141-0.339-0.141h-0.761l3.36-3.36h3.046c0.8-0 1.581-0.25 2.233-0.714l1.699-1.219c0.614-0.44 0.983-1.153 0.983-1.907s-0.368-1.467-0.983-1.907zM19.68 6.517v1.92h-1.241l-1.92-1.92h3.161zM7.977 2.197h2.865l10.56 10.56h-8.145l-5.28-10.56zM3.641 11.797l4.32 4.32h-4.316l-2.357-4.32h2.353zM1.209 16.597l1.086-0.95 0.517 0.95-0.518 0.949-1.085-0.949zM3.641 21.397h-2.352l2.356-4.32h4.316l-4.32 4.32zM19.68 24.757v1.92h-3.161l1.92-1.92h1.241zM10.841 30.997h-2.865l5.28-10.56h8.145l-10.56 10.56zM29.178 17.724l-1.696 1.217c-0.49 0.348-1.076 0.536-1.677 0.536h-18.886l2.541-2.541c0.090-0.090 0.141-0.212 0.141-0.339s-0.051-0.249-0.141-0.339l-2.541-2.541h18.886c0.6 0 1.18 0.185 1.674 0.534l1.7 1.219c0.364 0.261 0.582 0.682 0.582 1.127s-0.217 0.866-0.582 1.127z"></path>
  <path d="M23.661 14.817c-0.090 0.090-0.141 0.212-0.141 0.339s0.051 0.249 0.141 0.339c0.291 0.292 0.455 0.688 0.455 1.101s-0.164 0.808-0.455 1.101c-0.046 0.044-0.082 0.097-0.108 0.156s-0.038 0.122-0.039 0.185c-0.001 0.064 0.012 0.127 0.036 0.186s0.060 0.113 0.105 0.158 0.099 0.081 0.158 0.105c0.059 0.024 0.122 0.036 0.186 0.036s0.127-0.014 0.185-0.039c0.058-0.025 0.111-0.062 0.156-0.108 0.471-0.472 0.736-1.112 0.736-1.779s-0.265-1.307-0.736-1.779c-0.090-0.090-0.212-0.141-0.339-0.141s-0.249 0.051-0.339 0.141z"></path>
</symbol>
<symbol id="icon-train" viewBox="0 0 31 32">
  <path d="M26.307 22.135l-2.082-14.988c-0.082-0.573-0.367-1.097-0.803-1.477s-0.995-0.591-1.574-0.593h-3.609v-0.96c0-0.529-0.431-0.96-0.96-0.96h-1.44v-1.92h4.121l0.819 0.819c0.044 0.045 0.097 0.080 0.156 0.104s0.121 0.037 0.184 0.037c0.063 0 0.125-0.012 0.184-0.037s0.111-0.060 0.156-0.104c0.090-0.090 0.141-0.212 0.141-0.339s-0.051-0.249-0.141-0.339l-0.96-0.96c-0.090-0.090-0.212-0.141-0.339-0.141h-9.6c-0.127 0-0.249 0.051-0.339 0.141l-0.96 0.96c-0.046 0.044-0.082 0.097-0.108 0.156s-0.038 0.122-0.039 0.185c-0.001 0.064 0.012 0.127 0.036 0.186s0.060 0.113 0.105 0.158c0.045 0.045 0.099 0.081 0.158 0.105s0.122 0.036 0.186 0.036c0.064-0.001 0.127-0.014 0.185-0.039s0.112-0.062 0.156-0.108l0.819-0.819h4.121v1.92h-1.44c-0.529 0-0.96 0.431-0.96 0.96v0.96h-3.608c-0.579 0.002-1.138 0.213-1.574 0.593s-0.722 0.905-0.803 1.478l-2.081 14.988c-0.071 0.516 0.027 1.040 0.279 1.496l1.54 2.772c0.208 0.374 0.512 0.686 0.881 0.903s0.789 0.332 1.217 0.332h0.062l-1.153 2.691c-0.026 0.058-0.040 0.121-0.041 0.184s0.010 0.127 0.033 0.186c0.023 0.059 0.058 0.113 0.102 0.159s0.097 0.082 0.156 0.107c0.058 0.025 0.121 0.038 0.185 0.039s0.127-0.012 0.186-0.036 0.112-0.060 0.157-0.104c0.045-0.045 0.081-0.098 0.105-0.157l0.492-1.149h13.493l0.493 1.149c0.025 0.058 0.061 0.111 0.106 0.155s0.098 0.079 0.157 0.102c0.058 0.023 0.121 0.035 0.184 0.034s0.125-0.014 0.183-0.039c0.117-0.050 0.209-0.145 0.256-0.263s0.046-0.25-0.004-0.367l-1.153-2.691h0.062c0.872 0 1.675-0.473 2.098-1.235l1.54-2.772c0.251-0.452 0.35-0.983 0.279-1.496zM13.44 4.117h3.84v0.96h-3.84v-0.96zM21.695 28.597h-12.67l0.411-0.96h11.847l0.411 0.96zM19.68 26.677h-8.64v-1.44c0-0.265 0.216-0.48 0.48-0.48h7.68c0.127 0 0.249 0.051 0.339 0.141s0.141 0.212 0.141 0.339v1.44zM25.189 23.165l-1.54 2.772c-0.125 0.224-0.307 0.412-0.529 0.542s-0.474 0.199-0.73 0.199h-1.75v-1.44c0-0.794-0.646-1.44-1.44-1.44h-7.68c-0.794 0-1.44 0.646-1.44 1.44v1.44h-1.75c-0.257 0-0.509-0.069-0.73-0.199s-0.404-0.317-0.529-0.542l-1.54-2.771c-0.151-0.273-0.21-0.588-0.167-0.898l2.082-14.988c0.049-0.344 0.22-0.658 0.482-0.886s0.597-0.354 0.944-0.356h12.977c0.347 0.001 0.682 0.128 0.944 0.356s0.433 0.543 0.482 0.886l2.082 14.988c0.042 0.309-0.016 0.624-0.167 0.898z"></path>
  <path d="M10.080 18.517c-1.323 0-2.4 1.077-2.4 2.4s1.077 2.4 2.4 2.4c1.323 0 2.4-1.077 2.4-2.4s-1.077-2.4-2.4-2.4zM10.080 22.357c-0.794 0-1.44-0.646-1.44-1.44s0.646-1.44 1.44-1.44 1.44 0.646 1.44 1.44c0 0.794-0.646 1.44-1.44 1.44zM20.65 18.526c-1.319 0-2.391 1.072-2.391 2.39s1.072 2.39 2.391 2.39c1.318 0 2.39-1.072 2.39-2.39s-1.072-2.39-2.39-2.39zM20.65 22.347c-0.789 0-1.431-0.641-1.431-1.43s0.642-1.43 1.431-1.43c0.789 0 1.43 0.641 1.43 1.43s-0.642 1.43-1.43 1.43zM8.16 17.077h14.4c0.067 0 0.134-0.014 0.196-0.042s0.117-0.068 0.162-0.118c0.045-0.050 0.079-0.11 0.099-0.174s0.027-0.132 0.020-0.199l-0.96-8.64c-0.013-0.117-0.069-0.226-0.157-0.305s-0.202-0.122-0.32-0.122h-12.48c-0.118 0-0.232 0.044-0.32 0.122s-0.144 0.187-0.157 0.305l-0.96 8.64c-0.008 0.067-0.001 0.135 0.020 0.199s0.054 0.124 0.099 0.174 0.1 0.090 0.162 0.118c0.062 0.028 0.129 0.042 0.196 0.041zM9.55 8.437h11.621l0.853 7.68h-13.328l0.853-7.68zM16.8 19.477h-2.88c-0.127 0-0.249 0.051-0.339 0.141s-0.141 0.212-0.141 0.339c0 0.127 0.051 0.249 0.141 0.339s0.212 0.141 0.339 0.141h2.88c0.127 0 0.249-0.051 0.339-0.141s0.141-0.212 0.141-0.339c0-0.127-0.051-0.249-0.141-0.339s-0.212-0.141-0.339-0.141zM16.8 21.397h-2.88c-0.127 0-0.249 0.051-0.339 0.141s-0.141 0.212-0.141 0.339c0 0.127 0.051 0.249 0.141 0.339s0.212 0.141 0.339 0.141h2.88c0.127 0 0.249-0.051 0.339-0.141s0.141-0.212 0.141-0.339c0-0.127-0.051-0.249-0.141-0.339s-0.212-0.141-0.339-0.141z"></path>
</symbol>
<symbol id="icon-trip" viewBox="0 0 31 32">
  <path d="M26.764 7.165l-2.88-3.36c-0.045-0.053-0.101-0.095-0.164-0.124s-0.131-0.044-0.201-0.044h-6.72v-1.44c0-0.794-0.646-1.44-1.44-1.44s-1.44 0.646-1.44 1.44v1.44h-2.88c-0.127 0-0.249 0.051-0.339 0.141s-0.141 0.212-0.141 0.339v6.72c0 0.127 0.051 0.249 0.141 0.339s0.212 0.141 0.339 0.141h2.88v1.92h-6.72c-0.069 0-0.138 0.015-0.201 0.044s-0.119 0.071-0.164 0.124l-2.88 3.36c-0.075 0.087-0.116 0.198-0.116 0.312s0.041 0.225 0.116 0.312l2.88 3.36c0.091 0.107 0.224 0.168 0.364 0.168h6.72v3.451c0 0.127 0.051 0.249 0.141 0.339s0.212 0.141 0.339 0.141c0.127 0 0.249-0.051 0.339-0.141s0.141-0.212 0.141-0.339v-3.451h0.96v3.451c0 0.127 0.051 0.249 0.141 0.339s0.212 0.141 0.339 0.141c0.127 0 0.249-0.051 0.339-0.141s0.141-0.212 0.141-0.339v-3.451h2.88c0.127 0 0.249-0.051 0.339-0.141s0.141-0.212 0.141-0.339v-6.72c0-0.127-0.051-0.249-0.141-0.339s-0.212-0.141-0.339-0.141h-2.88v-1.92h6.72c0.14 0 0.274-0.061 0.364-0.168l2.88-3.36c0.075-0.087 0.116-0.198 0.116-0.312s-0.041-0.225-0.116-0.312zM14.88 2.197c0-0.127 0.051-0.249 0.141-0.339s0.212-0.141 0.339-0.141c0.127 0 0.249 0.051 0.339 0.141s0.141 0.212 0.141 0.339v1.44h-0.96v-1.44zM19.2 19.957h-11.779l-2.469-2.88 2.469-2.88h11.779v5.76zM15.84 13.237h-0.96v-1.92h0.96v1.92zM23.299 10.357h-11.779v-5.76h11.779l2.469 2.88-2.469 2.88z"></path>
  <path d="M21.12 6.037h-7.68c-0.127 0-0.249 0.051-0.339 0.141s-0.141 0.212-0.141 0.339 0.051 0.249 0.141 0.339c0.090 0.090 0.212 0.141 0.339 0.141h7.68c0.127 0 0.249-0.051 0.339-0.141s0.141-0.212 0.141-0.339-0.051-0.249-0.141-0.339c-0.090-0.090-0.212-0.141-0.339-0.141zM18.24 7.957h-4.8c-0.127 0-0.249 0.051-0.339 0.141s-0.141 0.212-0.141 0.339 0.051 0.249 0.141 0.339c0.090 0.090 0.212 0.141 0.339 0.141h4.8c0.127 0 0.249-0.051 0.339-0.141s0.141-0.212 0.141-0.339-0.051-0.249-0.141-0.339c-0.090-0.090-0.212-0.141-0.339-0.141zM9.12 16.117c0 0.127 0.051 0.249 0.141 0.339s0.212 0.141 0.339 0.141h7.68c0.127 0 0.249-0.051 0.339-0.141s0.141-0.212 0.141-0.339c0-0.127-0.051-0.249-0.141-0.339s-0.212-0.141-0.339-0.141h-7.68c-0.127 0-0.249 0.051-0.339 0.141s-0.141 0.212-0.141 0.339zM17.28 17.557h-4.8c-0.127 0-0.249 0.051-0.339 0.141s-0.141 0.212-0.141 0.339c0 0.127 0.051 0.249 0.141 0.339s0.212 0.141 0.339 0.141h4.8c0.127 0 0.249-0.051 0.339-0.141s0.141-0.212 0.141-0.339c0-0.127-0.051-0.249-0.141-0.339s-0.212-0.141-0.339-0.141zM23.040 28.117c-0.331 0-0.659 0.058-0.969 0.17-0.3-0.492-0.722-0.899-1.225-1.181s-1.070-0.43-1.646-0.429c-0.379 0-0.749 0.062-1.103 0.187-0.72-0.733-1.699-1.147-2.737-1.147s-2.017 0.414-2.737 1.147c-0.354-0.124-0.727-0.187-1.103-0.187-0.576-0.001-1.143 0.147-1.646 0.429s-0.925 0.689-1.225 1.181c-0.311-0.112-0.639-0.17-0.969-0.17-1.588 0-2.88 1.292-2.88 2.88 0 0.127 0.051 0.249 0.141 0.339s0.212 0.141 0.339 0.141h20.16c0.127 0 0.249-0.051 0.339-0.141s0.141-0.212 0.141-0.339c0-1.588-1.292-2.88-2.88-2.88zM5.821 30.517c0.107-0.412 0.347-0.777 0.684-1.037s0.75-0.402 1.175-0.403c0.336 0 0.654 0.085 0.946 0.252 0.059 0.034 0.124 0.055 0.192 0.061s0.136-0.001 0.2-0.023c0.064-0.022 0.123-0.057 0.173-0.103s0.089-0.102 0.116-0.165c0.184-0.435 0.492-0.805 0.886-1.066s0.855-0.399 1.327-0.398c0.358 0 0.703 0.078 1.028 0.232 0.199 0.095 0.438 0.041 0.577-0.13 0.27-0.332 0.611-0.6 0.997-0.784s0.809-0.279 1.237-0.279c0.428-0 0.851 0.095 1.237 0.279s0.727 0.451 0.997 0.784c0.068 0.083 0.162 0.141 0.266 0.164s0.214 0.011 0.311-0.035c0.321-0.153 0.672-0.232 1.028-0.232 0.472-0.001 0.934 0.138 1.327 0.398s0.702 0.631 0.886 1.066c0.027 0.062 0.066 0.119 0.116 0.165s0.109 0.081 0.173 0.103c0.064 0.022 0.133 0.029 0.2 0.023s0.133-0.028 0.192-0.061c0.287-0.166 0.614-0.253 0.946-0.252 0.425 0 0.839 0.142 1.175 0.403s0.577 0.625 0.684 1.037h-19.078z"></path>
</symbol>
<symbol id="icon-geo" viewBox="0 0 32 32">
  <path  d="M16 32c0 0 10.667-10.108 10.667-17.778 0-2.829-1.124-5.542-3.124-7.542s-4.714-3.124-7.543-3.124c-2.829 0-5.542 1.124-7.542 3.124s-3.124 4.713-3.124 7.542c0 7.669 10.667 17.778 10.667 17.778zM16 19.556c-1.415 0-2.771-0.562-3.771-1.562s-1.562-2.357-1.562-3.771c0-1.415 0.562-2.771 1.562-3.771s2.357-1.562 3.771-1.562c1.415 0 2.771 0.562 3.771 1.562s1.562 2.357 1.562 3.771c0 1.415-0.562 2.771-1.562 3.771s-2.357 1.562-3.771 1.562z"></path>
</symbol>
<symbol id="icon-mail" viewBox="0 0 32 32">
  <path d="M11.475 18.934l4.528 3.096 4.365-3.011 9.784 9.653c-0.258 0.083-0.533 0.128-0.819 0.128h-26.666c-0.352 0-0.688-0.069-0.997-0.192l9.805-9.674zM32 11.002v15.131c0 0.395-0.086 0.77-0.24 1.107l-9.59-9.462 9.83-6.776zM0 11.086l9.667 6.611-9.498 9.373c-0.113-0.3-0.17-0.617-0.17-0.938v-15.046zM29.333 4.8c1.472 0 2.667 1.194 2.667 2.667v0.938l-16.003 11.032-15.997-10.941v-1.029c0-1.472 1.194-2.667 2.667-2.667h26.666z"></path>
</symbol>
</defs>
</svg>
