<svg width="1585" height="164" viewBox="0 0 1585 164" fill="none" xmlns="http://www.w3.org/2000/svg">
<path d="M111.943 65.9375V66.9375H113.068L112.936 65.8203L111.943 65.9375ZM89.5455 65.9375L88.5553 66.0773L88.6767 66.9375H89.5455V65.9375ZM87.0398 58.2159L86.1644 58.6993L86.1675 58.7049L87.0398 58.2159ZM82.1818 52.3864L81.5522 53.1633L82.1818 52.3864ZM75.3295 48.7045L75.0133 49.6532L75.0171 49.6545L75.3295 48.7045ZM52.8295 51.4659L53.381 52.3001L53.3859 52.2969L52.8295 51.4659ZM43.4716 63.125L44.3882 63.5249L44.3891 63.5226L43.4716 63.125ZM43.4716 100.455L42.555 100.854L42.5573 100.86L43.4716 100.455ZM52.8807 111.96L52.3392 112.801L52.8807 111.96ZM75.0739 114.67L74.7807 113.714L74.7771 113.716L75.0739 114.67ZM81.875 111.244L82.4794 112.041L82.488 112.034L81.875 111.244ZM86.7841 105.67L85.9301 105.15L85.9242 105.16L86.7841 105.67ZM89.5455 98.2045L89.55 97.2046L88.7125 97.2007L88.5618 98.0246L89.5455 98.2045ZM111.943 98.3068L112.936 98.4265L113.07 97.312L111.948 97.3068L111.943 98.3068ZM107.597 112.216L106.709 111.755L106.708 111.758L107.597 112.216ZM98.3409 124.131L99.011 124.873L99.0113 124.873L98.3409 124.131ZM84.5341 132.415L84.8878 133.35L84.8911 133.349L84.5341 132.415ZM41.4261 129.091L40.9265 129.957L40.9283 129.958L41.4261 129.091ZM24.0398 110.733L23.1553 111.2L23.1569 111.203L24.0398 110.733ZM24.142 52.4886L25.0234 52.9612L24.142 52.4886ZM41.6307 34.1818L42.1255 35.0508L42.1286 35.0491L41.6307 34.1818ZM83.358 30.3977L83.0455 31.3477L83.0473 31.3483L83.358 30.3977ZM97.2159 37.8636L96.5848 38.6394L96.5888 38.6426L97.2159 37.8636ZM107.034 49.7784L106.153 50.251L106.155 50.2559L107.034 49.7784ZM111.943 64.9375H89.5455V66.9375H111.943V64.9375ZM90.5356 65.7977C90.1115 62.7936 89.2416 60.0985 87.9121 57.7269L86.1675 58.7049C87.3607 60.8333 88.1612 63.2859 88.5553 66.0773L90.5356 65.7977ZM87.9152 57.7325C86.5931 55.3385 84.8913 53.2949 82.8114 51.6094L81.5522 53.1633C83.4269 54.6824 84.9637 56.5251 86.1644 58.6993L87.9152 57.7325ZM82.8114 51.6094C80.7332 49.9254 78.3399 48.6421 75.642 47.7546L75.0171 49.6545C77.501 50.4715 79.6759 51.6428 81.5522 53.1633L82.8114 51.6094ZM75.6458 47.7559C72.9762 46.866 70.0898 46.4261 66.9943 46.4261V48.4261C69.8989 48.4261 72.5693 48.8386 75.0133 49.6532L75.6458 47.7559ZM66.9943 46.4261C61.4004 46.4261 56.4799 47.8186 52.2732 50.6349L53.3859 52.2969C57.2247 49.7268 61.7474 48.4261 66.9943 48.4261V46.4261ZM52.2781 50.6317C48.0696 53.4136 44.8348 57.4642 42.554 62.7274L44.3891 63.5226C46.5402 58.5585 49.5441 54.8364 53.381 52.3001L52.2781 50.6317ZM42.555 62.7252C40.2699 67.9634 39.1477 74.2781 39.1477 81.6364H41.1477C41.1477 74.4719 42.2415 68.4457 44.3882 63.5248L42.555 62.7252ZM39.1477 81.6364C39.1477 89.1948 40.2685 95.6131 42.555 100.854L44.3882 100.055C42.2428 95.1369 41.1477 89.0098 41.1477 81.6364H39.1477ZM42.5573 100.86C44.8733 106.088 48.1272 110.088 52.3392 112.801L53.4222 111.12C49.5887 108.651 46.5699 104.98 44.3859 100.05L42.5573 100.86ZM52.3392 112.801C56.54 115.507 61.3855 116.847 66.8409 116.847V114.847C61.7281 114.847 57.2668 113.596 53.4222 111.12L52.3392 112.801ZM66.8409 116.847C69.8953 116.847 72.7409 116.443 75.3707 115.625L74.7771 113.716C72.3614 114.466 69.7184 114.847 66.8409 114.847V116.847ZM75.3671 115.627C78.0274 114.811 80.4015 113.617 82.4794 112.041L81.2706 110.448C79.3939 111.871 77.2339 112.962 74.7807 113.714L75.3671 115.627ZM82.488 112.034C84.5658 110.422 86.2854 108.469 87.644 106.181L85.9242 105.16C84.6919 107.235 83.1388 108.998 81.262 110.454L82.488 112.034ZM87.638 106.191C89.0381 103.893 89.9982 101.287 90.5291 98.3845L88.5618 98.0246C88.07 100.713 87.1892 103.084 85.9302 105.15L87.638 106.191ZM89.5409 99.2045L111.939 99.3068L111.948 97.3068L89.55 97.2046L89.5409 99.2045ZM110.95 98.1871C110.386 102.87 108.974 107.391 106.709 111.755L108.484 112.677C110.855 108.109 112.342 103.357 112.936 98.4265L110.95 98.1871ZM106.708 111.758C104.482 116.077 101.472 119.954 97.6705 123.389L99.0113 124.873C102.982 121.285 106.143 117.218 108.485 112.674L106.708 111.758ZM97.6709 123.388C93.9193 126.775 89.4261 129.475 84.1771 131.481L84.8911 133.349C90.3466 131.264 95.058 128.441 99.011 124.873L97.6709 123.388ZM84.1803 131.479C78.9936 133.441 73.0994 134.432 66.483 134.432V136.432C73.2983 136.432 79.4382 135.411 84.8878 133.35L84.1803 131.479ZM66.483 134.432C57.2988 134.432 49.1213 132.355 41.924 128.224L40.9283 129.958C48.4583 134.281 56.9853 136.432 66.483 136.432V134.432ZM41.9257 128.225C34.7705 124.098 29.1026 118.122 24.9226 110.263L23.1569 111.203C27.4997 119.367 33.4227 125.629 40.9265 129.957L41.9257 128.225ZM24.9242 110.266C20.7899 102.431 18.6989 92.901 18.6989 81.6364H16.6989C16.6989 93.1444 18.8351 103.012 23.1553 111.2L24.9242 110.266ZM18.6989 81.6364C18.6989 70.3394 20.8233 60.7946 25.0234 52.9612L23.2607 52.0161C18.8699 60.2054 16.6989 70.0925 16.6989 81.6364H18.6989ZM25.0234 52.9612C29.2366 45.1031 34.9374 39.144 42.1255 35.0508L41.1358 33.3128C33.5967 37.606 27.6384 43.8514 23.2607 52.0161L25.0234 52.9612ZM42.1286 35.0491C49.3281 30.916 57.438 28.8409 66.483 28.8409V26.8409C57.1188 26.8409 48.6606 28.9931 41.1328 33.3146L42.1286 35.0491ZM66.483 28.8409C72.4568 28.8409 77.9752 29.6798 83.0455 31.3477L83.6704 29.4478C78.3771 27.7066 72.6455 26.8409 66.483 26.8409V28.8409ZM83.0473 31.3483C88.1535 33.0169 92.6627 35.4485 96.5848 38.6393L97.847 37.0879C93.7236 33.7333 88.9943 31.1876 83.6686 29.4472L83.0473 31.3483ZM96.5888 38.6426C100.504 41.7943 103.691 45.6605 106.153 50.251L107.915 49.3058C105.331 44.4872 101.974 40.4102 97.843 37.0847L96.5888 38.6426ZM106.155 50.2559C108.644 54.8341 110.247 60.0951 110.95 66.0547L112.936 65.8203C112.208 59.6435 110.538 54.1318 107.913 49.3009L106.155 50.2559ZM128.821 134H127.821V135H128.821V134ZM128.821 29.2727V28.2727H127.821V29.2727H128.821ZM150.963 29.2727H151.963V28.2727H150.963V29.2727ZM150.963 72.483H149.963V73.483H150.963V72.483ZM195.912 72.483V73.483H196.912V72.483H195.912ZM195.912 29.2727V28.2727H194.912V29.2727H195.912ZM218.003 29.2727H219.003V28.2727H218.003V29.2727ZM218.003 134V135H219.003V134H218.003ZM195.912 134H194.912V135H195.912V134ZM195.912 90.7386H196.912V89.7386H195.912V90.7386ZM150.963 90.7386V89.7386H149.963V90.7386H150.963ZM150.963 134V135H151.963V134H150.963ZM129.821 134V29.2727H127.821V134H129.821ZM128.821 30.2727H150.963V28.2727H128.821V30.2727ZM149.963 29.2727V72.483H151.963V29.2727H149.963ZM150.963 73.483H195.912V71.483H150.963V73.483ZM196.912 72.483V29.2727H194.912V72.483H196.912ZM195.912 30.2727H218.003V28.2727H195.912V30.2727ZM217.003 29.2727V134H219.003V29.2727H217.003ZM218.003 133H195.912V135H218.003V133ZM196.912 134V90.7386H194.912V134H196.912ZM195.912 89.7386H150.963V91.7386H195.912V89.7386ZM149.963 90.7386V134H151.963V90.7386H149.963ZM150.963 133H128.821V135H150.963V133ZM327.003 110.784L326.123 110.309L326.122 110.312L327.003 110.784ZM309.412 129.142L309.905 130.012L309.906 130.011L309.412 129.142ZM259.401 129.091L259.897 128.223L259.401 129.091ZM241.861 110.733L240.979 111.205L241.861 110.733ZM241.861 52.4886L242.742 52.9612L241.861 52.4886ZM259.401 34.1818L259.894 35.0518L259.897 35.0501L259.401 34.1818ZM309.412 34.1818L308.916 35.0501L308.921 35.0528L309.412 34.1818ZM327.003 52.4886L326.122 52.9612L326.123 52.9641L327.003 52.4886ZM307.724 62.9205L306.806 63.3151L306.808 63.3203L307.724 62.9205ZM298.469 51.3636L297.919 52.199L298.469 51.3636ZM270.446 51.3636L270.996 52.199L270.446 51.3636ZM261.139 62.9205L260.223 62.5206L260.22 62.5258L261.139 62.9205ZM261.139 100.352L260.22 100.747L260.223 100.752L261.139 100.352ZM270.446 111.909L270.996 111.074L270.446 111.909ZM298.469 111.909L297.919 111.074L298.469 111.909ZM307.724 100.352L306.808 99.9524L306.806 99.9576L307.724 100.352ZM332.497 81.6364C332.497 92.9322 330.356 102.476 326.123 110.309L327.883 111.26C332.309 103.07 334.497 93.1814 334.497 81.6364H332.497ZM326.122 110.312C321.909 118.168 316.175 124.145 308.918 128.273L309.906 130.011C317.512 125.685 323.506 119.423 327.884 111.257L326.122 110.312ZM308.919 128.272C301.684 132.373 293.539 134.432 284.457 134.432V136.432C293.853 136.432 302.344 134.298 309.905 130.012L308.919 128.272ZM284.457 134.432C275.308 134.432 267.13 132.356 259.897 128.223L258.904 129.959C266.467 134.281 274.993 136.432 284.457 136.432V134.432ZM259.897 128.223C252.673 124.095 246.955 118.118 242.742 110.26L240.979 111.205C245.357 119.371 251.333 125.632 258.904 129.959L259.897 128.223ZM242.742 110.26C238.542 102.427 236.418 92.8987 236.418 81.6364H234.418C234.418 93.1467 236.589 103.017 240.979 111.205L242.742 110.26ZM236.418 81.6364C236.418 70.3394 238.542 60.7946 242.742 52.9612L240.979 52.0161C236.589 60.2054 234.418 70.0925 234.418 81.6364H236.418ZM242.742 52.9612C246.955 45.1043 252.672 39.1453 259.894 35.0518L258.907 33.3119C251.334 37.6047 245.358 43.8502 240.979 52.0161L242.742 52.9612ZM259.897 35.0501C267.13 30.917 275.308 28.8409 284.457 28.8409V26.8409C274.993 26.8409 266.467 28.9921 258.904 33.3136L259.897 35.0501ZM284.457 28.8409C293.537 28.8409 301.682 30.9163 308.916 35.0501L309.908 33.3136C302.347 28.9928 293.855 26.8409 284.457 26.8409V28.8409ZM308.921 35.0528C316.176 39.1466 321.91 45.1055 326.122 52.9612L327.884 52.0161C323.505 43.8491 317.511 37.6034 309.903 33.3109L308.921 35.0528ZM326.123 52.9641C330.356 60.7969 332.497 70.3405 332.497 81.6364H334.497C334.497 70.0913 332.309 60.2031 327.883 52.0132L326.123 52.9641ZM312.048 81.6364C312.048 74.1447 310.927 67.7609 308.641 62.5206L306.808 63.3203C308.954 68.2391 310.048 74.3326 310.048 81.6364H312.048ZM308.643 62.5258C306.397 57.2955 303.195 53.2771 299.018 50.5283L297.919 52.199C301.72 54.7002 304.689 58.3863 306.806 63.3151L308.643 62.5258ZM299.018 50.5283C294.847 47.7832 289.981 46.4261 284.457 46.4261V48.4261C289.639 48.4261 294.113 49.6941 297.919 52.199L299.018 50.5283ZM284.457 46.4261C278.934 46.4261 274.067 47.7832 269.896 50.5283L270.996 52.199C274.802 49.6941 279.276 48.4261 284.457 48.4261V46.4261ZM269.896 50.5283C265.721 53.2761 262.503 57.2926 260.223 62.5206L262.056 63.3203C264.207 58.3892 267.194 54.7012 270.996 52.199L269.896 50.5283ZM260.22 62.5258C257.97 67.7645 256.866 74.1463 256.866 81.6364H258.866C258.866 74.3309 259.945 68.2355 262.058 63.3151L260.22 62.5258ZM256.866 81.6364C256.866 89.1264 257.97 95.5082 260.22 100.747L262.058 99.9576C259.945 95.0372 258.866 88.9418 258.866 81.6364H256.866ZM260.223 100.752C262.503 105.98 265.721 109.997 269.896 112.744L270.996 111.074C267.194 108.572 264.207 104.884 262.056 99.9524L260.223 100.752ZM269.896 112.744C274.067 115.49 278.934 116.847 284.457 116.847V114.847C279.276 114.847 274.802 113.579 270.996 111.074L269.896 112.744ZM284.457 116.847C289.981 116.847 294.847 115.49 299.018 112.744L297.919 111.074C294.113 113.579 289.639 114.847 284.457 114.847V116.847ZM299.018 112.744C303.195 109.996 306.397 105.977 308.643 100.747L306.806 99.9576C304.689 104.886 301.72 108.573 297.919 111.074L299.018 112.744ZM308.641 100.752C310.927 95.5118 312.048 89.128 312.048 81.6364H310.048C310.048 88.9401 308.954 95.0337 306.808 99.9524L308.641 100.752ZM440.643 110.784L439.764 110.309L439.762 110.312L440.643 110.784ZM423.053 129.142L423.546 130.012L423.547 130.011L423.053 129.142ZM373.041 129.091L373.537 128.223L373.041 129.091ZM355.501 110.733L354.62 111.205L355.501 110.733ZM355.501 52.4886L356.383 52.9612L355.501 52.4886ZM373.041 34.1818L373.534 35.0518L373.537 35.0501L373.041 34.1818ZM423.053 34.1818L422.556 35.0501L422.561 35.0528L423.053 34.1818ZM440.643 52.4886L439.762 52.9612L439.764 52.9641L440.643 52.4886ZM421.365 62.9205L420.446 63.3151L420.448 63.3203L421.365 62.9205ZM412.109 51.3636L411.56 52.199L412.109 51.3636ZM384.087 51.3636L384.636 52.199L384.087 51.3636ZM374.78 62.9205L373.863 62.5206L373.861 62.5258L374.78 62.9205ZM374.78 100.352L373.861 100.747L373.863 100.752L374.78 100.352ZM384.087 111.909L384.636 111.074L384.087 111.909ZM412.109 111.909L411.56 111.074L412.109 111.909ZM421.365 100.352L420.448 99.9524L420.446 99.9576L421.365 100.352ZM446.138 81.6364C446.138 92.9322 443.997 102.476 439.764 110.309L441.523 111.26C445.949 103.07 448.138 93.1814 448.138 81.6364H446.138ZM439.762 110.312C435.55 118.168 429.816 124.145 422.558 128.273L423.547 130.011C431.153 125.685 437.146 119.423 441.525 111.257L439.762 110.312ZM422.559 128.272C415.325 132.373 407.179 134.432 398.098 134.432V136.432C407.494 136.432 415.985 134.298 423.546 130.012L422.559 128.272ZM398.098 134.432C388.949 134.432 380.77 132.356 373.537 128.223L372.545 129.959C380.108 134.281 388.634 136.432 398.098 136.432V134.432ZM373.537 128.223C366.314 124.095 360.596 118.118 356.383 110.26L354.62 111.205C358.998 119.371 364.973 125.632 372.545 129.959L373.537 128.223ZM356.383 110.26C352.182 102.427 350.058 92.8987 350.058 81.6364H348.058C348.058 93.1467 350.229 103.017 354.62 111.205L356.383 110.26ZM350.058 81.6364C350.058 70.3394 352.183 60.7946 356.383 52.9612L354.62 52.0161C350.229 60.2054 348.058 70.0925 348.058 81.6364H350.058ZM356.383 52.9612C360.595 45.1043 366.312 39.1453 373.534 35.0518L372.548 33.3119C364.975 37.6047 358.998 43.8502 354.62 52.0161L356.383 52.9612ZM373.537 35.0501C380.77 30.917 388.949 28.8409 398.098 28.8409V26.8409C388.634 26.8409 380.108 28.9921 372.545 33.3136L373.537 35.0501ZM398.098 28.8409C407.178 28.8409 415.322 30.9163 422.556 35.0501L423.549 33.3136C415.987 28.9928 407.496 26.8409 398.098 26.8409V28.8409ZM422.561 35.0528C429.817 39.1466 435.55 45.1055 439.762 52.9612L441.525 52.0161C437.146 43.8491 431.152 37.6034 423.544 33.3109L422.561 35.0528ZM439.764 52.9641C443.997 60.7969 446.138 70.3405 446.138 81.6364H448.138C448.138 70.0913 445.949 60.2031 441.523 52.0132L439.764 52.9641ZM425.689 81.6364C425.689 74.1447 424.568 67.7609 422.282 62.5206L420.448 63.3203C422.594 68.2391 423.689 74.3326 423.689 81.6364H425.689ZM422.284 62.5258C420.037 57.2955 416.836 53.2771 412.659 50.5283L411.56 52.199C415.36 54.7002 418.329 58.3863 420.446 63.3151L422.284 62.5258ZM412.659 50.5283C408.488 47.7832 403.621 46.4261 398.098 46.4261V48.4261C403.279 48.4261 407.754 49.6941 411.56 52.199L412.659 50.5283ZM398.098 46.4261C392.575 46.4261 387.708 47.7832 383.537 50.5283L384.636 52.199C388.443 49.6941 392.917 48.4261 398.098 48.4261V46.4261ZM383.537 50.5283C379.362 53.2761 376.144 57.2926 373.863 62.5206L375.696 63.3203C377.848 58.3892 380.834 54.7012 384.636 52.199L383.537 50.5283ZM373.861 62.5258C371.611 67.7645 370.507 74.1463 370.507 81.6364H372.507C372.507 74.3309 373.585 68.2355 375.699 63.3151L373.861 62.5258ZM370.507 81.6364C370.507 89.1264 371.611 95.5082 373.861 100.747L375.699 99.9576C373.585 95.0372 372.507 88.9418 372.507 81.6364H370.507ZM373.863 100.752C376.144 105.98 379.362 109.997 383.537 112.744L384.636 111.074C380.834 108.572 377.848 104.884 375.696 99.9524L373.863 100.752ZM383.537 112.744C387.708 115.49 392.575 116.847 398.098 116.847V114.847C392.917 114.847 388.443 113.579 384.636 111.074L383.537 112.744ZM398.098 116.847C403.621 116.847 408.488 115.49 412.659 112.744L411.56 111.074C407.754 113.579 403.279 114.847 398.098 114.847V116.847ZM412.659 112.744C416.836 109.996 420.037 105.977 422.284 100.747L420.446 99.9576C418.329 104.886 415.36 108.573 411.56 111.074L412.659 112.744ZM422.282 100.752C424.568 95.5118 425.689 89.128 425.689 81.6364H423.689C423.689 88.9401 422.594 95.0337 420.448 99.9524L422.282 100.752ZM521.352 59.392L520.357 59.4907L520.447 60.392H521.352V59.392ZM494.301 47.8864L494.67 48.8158L494.681 48.8113L494.301 47.8864ZM488.574 52.0284L487.774 51.4284L487.766 51.4384L488.574 52.0284ZM486.631 58.0625L487.63 58.0988L487.631 58.0807V58.0625H486.631ZM487.807 62.9716L486.953 63.4922L486.958 63.4997L486.962 63.5071L487.807 62.9716ZM491.438 66.6023L490.883 67.4343L490.889 67.4386L490.896 67.4428L491.438 66.6023ZM496.756 69.2102L496.406 70.1472L496.413 70.1498L496.42 70.1523L496.756 69.2102ZM503.199 71.0511L503.431 70.0786L503.424 70.0769L503.417 70.0753L503.199 71.0511ZM512.608 73.3011L512.375 74.2737L512.382 74.2754L512.389 74.277L512.608 73.3011ZM525.188 77.392L524.78 78.3052L525.188 77.392ZM535.108 83.6818L535.773 82.9349L535.108 83.6818ZM541.602 92.4773L540.692 92.8911L540.695 92.8987L541.602 92.4773ZM544.006 104.085L545.006 104.091L545.006 104.077L544.006 104.085ZM539.097 120.756L538.273 120.189L538.272 120.19L539.097 120.756ZM525.188 131.648L525.578 132.568L525.58 132.567L525.188 131.648ZM481.261 131.597L480.878 132.52L480.88 132.521L481.261 131.597ZM466.636 120.091L465.809 120.653L465.814 120.66L466.636 120.091ZM461.165 101.119V100.119H460.142L460.165 101.142L461.165 101.119ZM482.591 101.119L483.589 101.052L483.525 100.119H482.591V101.119ZM485.608 109.915L484.809 110.517L484.814 110.523L484.819 110.53L485.608 109.915ZM492.818 115.182L492.449 116.111L492.461 116.116L492.818 115.182ZM512.864 115.284L512.5 114.353L512.496 114.354L512.864 115.284ZM519.358 110.733L520.143 111.353L519.358 110.733ZM519.562 98.1023L518.801 98.7504L518.809 98.7596L519.562 98.1023ZM513.528 94.0114L513.134 94.9305L513.139 94.9323L513.528 94.0114ZM503.864 90.9432L503.62 91.9131L503.629 91.9153L503.864 90.9432ZM492.46 88.0795L492.704 87.1096L492.697 87.1079L492.46 88.0795ZM471.545 78.0057L470.879 78.7514L471.545 78.0057ZM463.926 59.5454L464.926 59.5499L464.926 59.5401L463.926 59.5454ZM468.989 42.9261L468.18 42.3383L468.177 42.3421L468.989 42.9261ZM523.96 31.8295L523.543 32.7384L523.545 32.7394L523.96 31.8295ZM537.562 42.9261L536.737 43.4904L537.562 42.9261ZM542.574 59.392V60.392H543.59L543.574 59.3757L542.574 59.392ZM522.347 59.2934C521.913 54.9106 520.027 51.439 516.678 48.9731L515.492 50.5837C518.348 52.686 519.974 55.6235 520.357 59.4907L522.347 59.2934ZM516.678 48.9731C513.35 46.5224 508.907 45.3523 503.455 45.3523V47.3523C508.639 47.3523 512.616 48.4662 515.492 50.5837L516.678 48.9731ZM503.455 45.3523C499.753 45.3523 496.564 45.8753 493.921 46.9614L494.681 48.8113C497.016 47.852 499.929 47.3523 503.455 47.3523V45.3523ZM493.932 46.957C491.308 47.9994 489.235 49.4802 487.774 51.4284L489.374 52.6284C490.572 51.0311 492.317 49.7506 494.67 48.8157L493.932 46.957ZM487.766 51.4384C486.343 53.3869 485.631 55.606 485.631 58.0625H487.631C487.631 56.019 488.214 54.2154 489.381 52.6184L487.766 51.4384ZM485.631 58.0262C485.557 60.0676 485.984 61.9036 486.953 63.4922L488.661 62.451C487.925 61.2441 487.568 59.8074 487.63 58.0988L485.631 58.0262ZM486.962 63.5071C487.932 65.0357 489.246 66.343 490.883 67.4343L491.992 65.7702C490.561 64.8161 489.455 63.703 488.651 62.436L486.962 63.5071ZM490.896 67.4428C492.5 68.4765 494.339 69.3763 496.406 70.1472L497.105 68.2732C495.15 67.5441 493.443 66.7053 491.979 65.7617L490.896 67.4428ZM496.42 70.1523C498.473 70.8831 500.66 71.5076 502.98 72.027L503.417 70.0753C501.169 69.572 499.061 68.9692 497.091 68.2681L496.42 70.1523ZM502.966 72.0237L512.375 74.2737L512.841 72.3286L503.431 70.0786L502.966 72.0237ZM512.389 74.277C516.9 75.2869 521.029 76.6308 524.78 78.3052L525.595 76.4789C521.709 74.7442 517.452 73.3609 512.826 72.3253L512.389 74.277ZM524.78 78.3052C528.515 79.9727 531.733 82.0159 534.443 84.4287L535.773 82.9349C532.892 80.3705 529.496 78.2205 525.595 76.4789L524.78 78.3052ZM534.443 84.4287C537.135 86.8256 539.216 89.6442 540.692 92.8911L542.513 92.0635C540.92 88.5603 538.671 85.5153 535.773 82.9349L534.443 84.4287ZM540.695 92.8987C542.194 96.1236 542.973 99.8479 543.006 104.093L545.006 104.077C544.971 99.5953 544.147 95.581 542.509 92.0559L540.695 92.8987ZM543.006 104.08C542.973 110.314 541.384 115.669 538.273 120.189L539.92 121.323C543.286 116.433 544.971 110.675 545.006 104.091L543.006 104.08ZM538.272 120.19C535.192 124.679 530.718 128.199 524.795 130.728L525.58 132.567C531.794 129.914 536.592 126.173 539.921 121.321L538.272 120.19ZM524.797 130.727C518.918 133.218 511.779 134.483 503.352 134.483V136.483C511.971 136.483 519.389 135.191 525.578 132.568L524.797 130.727ZM503.352 134.483C494.998 134.483 487.769 133.203 481.643 130.672L480.88 132.521C487.299 135.172 494.798 136.483 503.352 136.483V134.483ZM481.645 130.673C475.566 128.149 470.851 124.429 467.459 119.522L465.814 120.66C469.445 125.912 474.479 129.863 480.878 132.52L481.645 130.673ZM467.463 119.529C464.116 114.606 462.332 108.48 462.165 101.097L460.165 101.142C460.339 108.826 462.202 115.348 465.809 120.653L467.463 119.529ZM461.165 102.119H482.591V100.119H461.165V102.119ZM481.593 101.187C481.842 104.854 482.899 107.981 484.809 110.517L486.407 109.313C484.772 107.144 483.817 104.408 483.589 101.052L481.593 101.187ZM484.819 110.53C486.746 113.001 489.3 114.859 492.449 116.111L493.188 114.253C490.336 113.118 488.084 111.464 486.397 109.3L484.819 110.53ZM492.461 116.116C495.627 117.326 499.177 117.92 503.097 117.92V115.92C499.379 115.92 496.077 115.356 493.175 114.248L492.461 116.116ZM503.097 117.92C506.941 117.92 510.326 117.362 513.231 116.214L512.496 114.354C509.878 115.388 506.753 115.92 503.097 115.92V117.92ZM513.227 116.216C516.153 115.074 518.477 113.462 520.143 111.353L518.573 110.113C517.17 111.89 515.165 113.313 512.5 114.353L513.227 116.216ZM520.143 111.353C521.819 109.229 522.659 106.777 522.659 104.034H520.659C520.659 106.337 519.965 108.35 518.573 110.113L520.143 111.353ZM522.659 104.034C522.659 101.468 521.89 99.2491 520.316 97.4449L518.809 98.7596C520.031 100.16 520.659 101.896 520.659 104.034H522.659ZM520.324 97.4542C518.829 95.6974 516.67 94.2547 513.918 93.0904L513.139 94.9323C515.705 96.018 517.569 97.3026 518.801 98.7504L520.324 97.4542ZM513.922 93.0922C511.231 91.9386 507.952 90.9001 504.098 89.971L503.629 91.9153C507.412 92.8271 510.576 93.8341 513.134 94.9305L513.922 93.0922ZM504.107 89.9733L492.704 87.1097L492.217 89.0494L503.62 91.9131L504.107 89.9733ZM492.697 87.1079C483.977 84.9868 477.169 81.6888 472.212 77.2599L470.879 78.7514C476.149 83.4589 483.285 86.8768 492.224 89.0512L492.697 87.1079ZM472.212 77.2599C467.34 72.9082 464.893 67.0431 464.926 59.5499L462.926 59.541C462.891 67.525 465.523 73.9668 470.879 78.7514L472.212 77.2599ZM464.926 59.5401C464.893 53.3913 466.526 48.0622 469.8 43.5101L468.177 42.3421C464.634 47.2674 462.891 53.0177 462.926 59.5508L464.926 59.5401ZM469.798 43.514C473.125 38.9344 477.7 35.3403 483.559 32.7438L482.748 30.9153C476.607 33.637 471.738 37.4406 468.18 42.3383L469.798 43.514ZM483.559 32.7438C489.412 30.1497 496.089 28.8409 503.608 28.8409V26.8409C495.855 26.8409 488.895 28.1912 482.748 30.9153L483.559 32.7438ZM503.608 28.8409C511.268 28.8409 517.904 30.151 523.543 32.7384L524.377 30.9206C518.426 28.1899 511.494 26.8409 503.608 26.8409V28.8409ZM523.545 32.7394C529.229 35.3319 533.613 38.9192 536.737 43.4904L538.388 42.3619C535.035 37.4558 530.351 33.6454 524.375 30.9197L523.545 32.7394ZM536.737 43.4904C539.855 48.0533 541.475 53.3477 541.574 59.4084L543.574 59.3757C543.469 52.9591 541.747 47.2762 538.388 42.3619L536.737 43.4904ZM542.574 58.392H521.352V60.392H542.574V58.392ZM559.899 134H558.899V135H559.899V134ZM559.899 29.2727V28.2727H558.899V29.2727H559.899ZM630.467 29.2727H631.467V28.2727H630.467V29.2727ZM630.467 47.5284V48.5284H631.467V47.5284H630.467ZM582.041 47.5284V46.5284H581.041V47.5284H582.041ZM582.041 72.483H581.041V73.483H582.041V72.483ZM626.837 72.483H627.837V71.483H626.837V72.483ZM626.837 90.7386V91.7386H627.837V90.7386H626.837ZM582.041 90.7386V89.7386H581.041V90.7386H582.041ZM582.041 115.744H581.041V116.744H582.041V115.744ZM630.672 115.744H631.672V114.744H630.672V115.744ZM630.672 134V135H631.672V134H630.672ZM560.899 134V29.2727H558.899V134H560.899ZM559.899 30.2727H630.467V28.2727H559.899V30.2727ZM629.467 29.2727V47.5284H631.467V29.2727H629.467ZM630.467 46.5284H582.041V48.5284H630.467V46.5284ZM581.041 47.5284V72.483H583.041V47.5284H581.041ZM582.041 73.483H626.837V71.483H582.041V73.483ZM625.837 72.483V90.7386H627.837V72.483H625.837ZM626.837 89.7386H582.041V91.7386H626.837V89.7386ZM581.041 90.7386V115.744H583.041V90.7386H581.041ZM582.041 116.744H630.672V114.744H582.041V116.744ZM629.672 115.744V134H631.672V115.744H629.672ZM630.672 133H559.899V135H630.672V133ZM701.45 134V135H702.177L702.401 134.309L701.45 134ZM677.723 134L676.778 133.674L676.32 135H677.723V134ZM713.876 29.2727V28.2727H713.164L712.931 28.9464L713.876 29.2727ZM742.411 29.2727L743.356 28.9468L743.124 28.2727H742.411V29.2727ZM778.513 134V135H779.915L779.458 133.674L778.513 134ZM754.786 134L753.834 134.309L754.059 135H754.786V134ZM728.553 53.2045L729.504 52.8957L729.279 52.2045H728.553V53.2045ZM727.734 53.2045V52.2045H727.008L726.783 52.8952L727.734 53.2045ZM699.967 92.8352V91.8352H698.967V92.8352H699.967ZM756.013 92.8352H757.013V91.8352H756.013V92.8352ZM756.013 110.119V111.119H757.013V110.119H756.013ZM699.967 110.119H698.967V111.119H699.967V110.119ZM701.45 133H677.723V135H701.45V133ZM678.668 134.326L714.822 29.599L712.931 28.9464L676.778 133.674L678.668 134.326ZM713.876 30.2727H742.411V28.2727H713.876V30.2727ZM741.465 29.5986L777.567 134.326L779.458 133.674L743.356 28.9468L741.465 29.5986ZM778.513 133H754.786V135H778.513V133ZM755.737 133.691L729.504 52.8957L727.601 53.5134L753.834 134.309L755.737 133.691ZM728.553 52.2045H727.734V54.2045H728.553V52.2045ZM726.783 52.8952L700.499 133.691L702.401 134.309L728.685 53.5139L726.783 52.8952ZM699.967 93.8352H756.013V91.8352H699.967V93.8352ZM755.013 92.8352V110.119H757.013V92.8352H755.013ZM756.013 109.119H699.967V111.119H756.013V109.119ZM700.967 110.119V92.8352H698.967V110.119H700.967ZM792.118 134H791.118V135H792.118V134ZM792.118 29.2727V28.2727H791.118V29.2727H792.118ZM856.754 35.5625L856.271 36.4381L856.274 36.4398L856.754 35.5625ZM874.294 53.5114L873.408 53.9755L873.41 53.9785L874.294 53.5114ZM874.294 109.659L873.409 109.193L873.407 109.197L874.294 109.659ZM856.652 127.71L856.172 126.833L856.171 126.834L856.652 127.71ZM814.26 115.028H813.26V116.028H814.26V115.028ZM844.839 111.551L845.3 112.439L845.303 112.437L844.839 111.551ZM854.964 100.659L854.057 100.24L854.055 100.242L854.964 100.659ZM854.964 62.5625L854.055 62.9792L854.058 62.9844L854.964 62.5625ZM844.891 51.7216L845.351 50.834L844.891 51.7216ZM814.26 48.2443V47.2443H813.26V48.2443H814.26ZM829.243 133H792.118V135H829.243V133ZM793.118 134V29.2727H791.118V134H793.118ZM792.118 30.2727H829.55V28.2727H792.118V30.2727ZM829.55 30.2727C839.951 30.2727 848.845 32.3422 856.271 36.4381L857.237 34.6869C849.459 30.3964 840.217 28.2727 829.55 28.2727V30.2727ZM856.274 36.4398C863.7 40.5025 869.407 46.3402 873.408 53.9755L875.18 53.0472C870.999 45.0688 865.013 38.9407 857.234 34.6852L856.274 36.4398ZM873.41 53.9785C877.443 61.6118 879.482 70.7847 879.482 81.5341H881.482C881.482 70.5334 879.395 61.0246 875.178 53.0442L873.41 53.9785ZM879.482 81.5341C879.482 92.3179 877.443 101.526 873.409 109.194L875.179 110.125C879.395 102.111 881.482 92.5684 881.482 81.5341H879.482ZM873.407 109.197C869.407 116.864 863.667 122.736 856.172 126.833L857.132 128.588C864.978 124.298 870.999 118.136 875.181 110.122L873.407 109.197ZM856.171 126.834C848.711 130.93 839.748 133 829.243 133V135C840.011 135 849.32 132.877 857.133 128.587L856.171 126.834ZM814.26 116.028H828.322V114.028H814.26V116.028ZM828.322 116.028C834.982 116.028 840.656 114.85 845.3 112.439L844.379 110.664C840.091 112.889 834.754 114.028 828.322 114.028V116.028ZM845.303 112.437C850.012 109.976 853.537 106.173 855.874 101.076L854.055 100.242C851.892 104.964 848.667 108.422 844.376 110.665L845.303 112.437ZM855.872 101.079C858.238 95.9597 859.391 89.4276 859.391 81.5341H857.391C857.391 89.2543 856.26 95.4721 854.057 100.24L855.872 101.079ZM859.391 81.5341C859.391 73.7078 858.237 67.226 855.871 62.1406L854.058 62.9844C856.26 67.7172 857.391 73.8831 857.391 81.5341H859.391ZM855.874 62.1458C853.538 57.0501 850.03 53.2626 845.351 50.834L844.43 52.6091C848.683 54.8169 851.891 58.2568 854.055 62.9792L855.874 62.1458ZM845.351 50.834C840.707 48.4231 835.033 47.2443 828.374 47.2443V49.2443C834.805 49.2443 840.143 50.3837 844.43 52.6091L845.351 50.834ZM828.374 47.2443H814.26V49.2443H828.374V47.2443ZM813.26 48.2443V115.028H815.26V48.2443H813.26ZM910.898 29.2727L911.851 28.9696L911.629 28.2727H910.898V29.2727ZM936.21 108.841L935.257 109.144L935.479 109.841H936.21V108.841ZM937.182 108.841V109.841H937.913L938.135 109.145L937.182 108.841ZM962.545 29.2727V28.2727H961.815L961.593 28.969L962.545 29.2727ZM987.091 29.2727L988.036 29.5986L988.493 28.2727H987.091V29.2727ZM950.989 134V135H951.702L951.934 134.326L950.989 134ZM922.455 134L921.509 134.326L921.742 135H922.455V134ZM886.301 29.2727V28.2727H884.898L885.356 29.599L886.301 29.2727ZM909.945 29.5759L935.257 109.144L937.163 108.538L911.851 28.9696L909.945 29.5759ZM936.21 109.841H937.182V107.841H936.21V109.841ZM938.135 109.145L963.498 29.5764L961.593 28.969L936.229 108.537L938.135 109.145ZM962.545 30.2727H987.091V28.2727H962.545V30.2727ZM986.146 28.9468L950.043 133.674L951.934 134.326L988.036 29.5986L986.146 28.9468ZM950.989 133H922.455V135H950.989V133ZM923.4 133.674L887.246 28.9464L885.356 29.599L921.509 134.326L923.4 133.674ZM886.301 30.2727H910.898V28.2727H886.301V30.2727ZM1000.7 134H999.696V135H1000.7V134ZM1000.7 29.2727V28.2727H999.696V29.2727H1000.7ZM1071.26 29.2727H1072.26V28.2727H1071.26V29.2727ZM1071.26 47.5284V48.5284H1072.26V47.5284H1071.26ZM1022.84 47.5284V46.5284H1021.84V47.5284H1022.84ZM1022.84 72.483H1021.84V73.483H1022.84V72.483ZM1067.63 72.483H1068.63V71.483H1067.63V72.483ZM1067.63 90.7386V91.7386H1068.63V90.7386H1067.63ZM1022.84 90.7386V89.7386H1021.84V90.7386H1022.84ZM1022.84 115.744H1021.84V116.744H1022.84V115.744ZM1071.47 115.744H1072.47V114.744H1071.47V115.744ZM1071.47 134V135H1072.47V134H1071.47ZM1001.7 134V29.2727H999.696V134H1001.7ZM1000.7 30.2727H1071.26V28.2727H1000.7V30.2727ZM1070.26 29.2727V47.5284H1072.26V29.2727H1070.26ZM1071.26 46.5284H1022.84V48.5284H1071.26V46.5284ZM1021.84 47.5284V72.483H1023.84V47.5284H1021.84ZM1022.84 73.483H1067.63V71.483H1022.84V73.483ZM1066.63 72.483V90.7386H1068.63V72.483H1066.63ZM1067.63 89.7386H1022.84V91.7386H1067.63V89.7386ZM1021.84 90.7386V115.744H1023.84V90.7386H1021.84ZM1022.84 116.744H1071.47V114.744H1022.84V116.744ZM1070.47 115.744V134H1072.47V115.744H1070.47ZM1071.47 133H1000.7V135H1071.47V133ZM1177.46 29.2727H1178.46V28.2727H1177.46V29.2727ZM1177.46 134V135H1178.46V134H1177.46ZM1158.34 134L1157.52 134.569L1157.82 135H1158.34V134ZM1112.78 68.0852L1113.6 67.5166L1113.3 67.0852H1112.78V68.0852ZM1112.01 68.0852V67.0852H1111.01V68.0852H1112.01ZM1112.01 134V135H1113.01V134H1112.01ZM1089.87 134H1088.87V135H1089.87V134ZM1089.87 29.2727V28.2727H1088.87V29.2727H1089.87ZM1109.3 29.2727L1110.12 28.7068L1109.83 28.2727H1109.3V29.2727ZM1154.5 95.1364L1153.68 95.7022L1153.98 96.1364H1154.5V95.1364ZM1155.42 95.1364V96.1364H1156.42V95.1364H1155.42ZM1155.42 29.2727V28.2727H1154.42V29.2727H1155.42ZM1176.46 29.2727V134H1178.46V29.2727H1176.46ZM1177.46 133H1158.34V135H1177.46V133ZM1159.16 133.431L1113.6 67.5166L1111.95 68.6538L1157.52 134.569L1159.16 133.431ZM1112.78 67.0852H1112.01V69.0852H1112.78V67.0852ZM1111.01 68.0852V134H1113.01V68.0852H1111.01ZM1112.01 133H1089.87V135H1112.01V133ZM1090.87 134V29.2727H1088.87V134H1090.87ZM1089.87 30.2727H1109.3V28.2727H1089.87V30.2727ZM1108.48 29.8386L1153.68 95.7022L1155.33 94.5705L1110.12 28.7068L1108.48 29.8386ZM1154.5 96.1364H1155.42V94.1364H1154.5V96.1364ZM1156.42 95.1364V29.2727H1154.42V95.1364H1156.42ZM1155.42 30.2727H1177.46V28.2727H1155.42V30.2727ZM1192.77 47.5284H1191.77V48.5284H1192.77V47.5284ZM1192.77 29.2727V28.2727H1191.77V29.2727H1192.77ZM1278.78 29.2727H1279.78V28.2727H1278.78V29.2727ZM1278.78 47.5284V48.5284H1279.78V47.5284H1278.78ZM1246.72 47.5284V46.5284H1245.72V47.5284H1246.72ZM1246.72 134V135H1247.72V134H1246.72ZM1224.83 134H1223.83V135H1224.83V134ZM1224.83 47.5284H1225.83V46.5284H1224.83V47.5284ZM1193.77 47.5284V29.2727H1191.77V47.5284H1193.77ZM1192.77 30.2727H1278.78V28.2727H1192.77V30.2727ZM1277.78 29.2727V47.5284H1279.78V29.2727H1277.78ZM1278.78 46.5284H1246.72V48.5284H1278.78V46.5284ZM1245.72 47.5284V134H1247.72V47.5284H1245.72ZM1246.72 133H1224.83V135H1246.72V133ZM1225.83 134V47.5284H1223.83V134H1225.83ZM1224.83 46.5284H1192.77V48.5284H1224.83V46.5284ZM1358.63 29.2727V28.2727H1357.63V29.2727H1358.63ZM1380.78 29.2727H1381.78V28.2727H1380.78V29.2727ZM1375.3 117.33L1374.46 116.792L1374.46 116.796L1375.3 117.33ZM1360.12 130.727L1360.55 131.626L1360.56 131.625L1360.12 130.727ZM1314.55 130.727L1314.11 131.625L1314.12 131.626L1314.55 130.727ZM1299.37 117.33L1298.52 117.863L1299.37 117.33ZM1293.95 29.2727V28.2727H1292.95V29.2727H1293.95ZM1316.09 29.2727H1317.09V28.2727H1316.09V29.2727ZM1318.7 106.028L1317.82 106.517L1317.83 106.525L1318.7 106.028ZM1326.16 113.341L1325.68 114.216L1326.16 113.341ZM1348.56 113.341L1348.08 112.466L1348.07 112.468L1348.56 113.341ZM1355.97 106.028L1355.11 105.532L1355.1 105.54L1355.97 106.028ZM1358.63 30.2727H1380.78V28.2727H1358.63V30.2727ZM1379.78 29.2727V97.2841H1381.78V29.2727H1379.78ZM1379.78 97.2841C1379.78 104.755 1377.99 111.245 1374.46 116.792L1376.15 117.867C1379.91 111.96 1381.78 105.086 1381.78 97.2841H1379.78ZM1374.46 116.796C1370.95 122.356 1366.03 126.701 1359.67 129.83L1360.56 131.625C1367.22 128.344 1372.43 123.758 1376.15 117.863L1374.46 116.796ZM1359.68 129.828C1353.33 132.92 1345.9 134.483 1337.36 134.483V136.483C1346.14 136.483 1353.88 134.875 1360.55 131.626L1359.68 129.828ZM1337.36 134.483C1328.79 134.483 1321.34 132.92 1314.99 129.828L1314.12 131.626C1320.79 134.875 1328.55 136.483 1337.36 136.483V134.483ZM1315 129.83C1308.64 126.701 1303.72 122.356 1300.21 116.796L1298.52 117.863C1302.24 123.758 1307.45 128.344 1314.11 131.625L1315 129.83ZM1300.21 116.796C1296.71 111.248 1294.95 104.756 1294.95 97.2841H1292.95C1292.95 105.085 1294.79 111.956 1298.52 117.863L1300.21 116.796ZM1294.95 97.2841V29.2727H1292.95V97.2841H1294.95ZM1293.95 30.2727H1316.09V28.2727H1293.95V30.2727ZM1315.09 29.2727V95.392H1317.09V29.2727H1315.09ZM1315.09 95.392C1315.09 99.5307 1315.99 103.248 1317.82 106.517L1319.57 105.54C1317.92 102.604 1317.09 99.2307 1317.09 95.392H1315.09ZM1317.83 106.525C1319.69 109.79 1322.32 112.357 1325.68 114.216L1326.65 112.466C1323.6 110.78 1321.24 108.471 1319.56 105.532L1317.83 106.525ZM1325.68 114.216C1329.05 116.083 1332.96 117 1337.36 117V115C1333.24 115 1329.68 114.144 1326.65 112.466L1325.68 114.216ZM1337.36 117C1341.8 117 1345.7 116.084 1349.05 114.214L1348.07 112.468C1345.08 114.143 1341.52 115 1337.36 115V117ZM1349.04 114.216C1352.41 112.356 1355.01 109.787 1356.85 106.517L1355.1 105.54C1353.46 108.474 1351.12 110.78 1348.08 112.466L1349.04 114.216ZM1356.84 106.525C1358.71 103.254 1359.63 99.534 1359.63 95.392H1357.63C1357.63 99.2273 1356.78 102.598 1355.11 105.532L1356.84 106.525ZM1359.63 95.392V29.2727H1357.63V95.392H1359.63ZM1399.99 134H1398.99V135H1399.99V134ZM1399.99 29.2727V28.2727H1398.99V29.2727H1399.99ZM1461.56 33.517L1461.11 34.4093L1461.12 34.4126L1461.56 33.517ZM1474.4 45.4318L1473.53 45.9267L1473.53 45.9335L1474.4 45.4318ZM1474.35 81.4318L1475.2 81.948L1475.2 81.9454L1474.35 81.4318ZM1461.31 92.8864L1460.88 91.9803L1460.88 91.9813L1461.31 92.8864ZM1413.08 96.875H1412.08V97.875H1413.08V96.875ZM1413.08 79.0795V78.0795H1412.08V79.0795H1413.08ZM1447.7 77.3409L1448.09 78.2646L1447.7 77.3409ZM1453.94 72.125L1453.09 71.6086L1453.08 71.618L1453.94 72.125ZM1453.94 54.6875L1453.07 55.1837L1453.08 55.1929L1453.94 54.6875ZM1447.65 49.267L1447.24 50.1785L1447.25 50.1816L1447.25 50.1845L1447.65 49.267ZM1422.13 47.375V46.375H1421.13V47.375H1422.13ZM1422.13 134V135H1423.13V134H1422.13ZM1456.55 86.3409L1457.43 85.8616L1457.14 85.3409H1456.55V86.3409ZM1482.58 134V135H1484.26L1483.46 133.521L1482.58 134ZM1458.13 134L1457.25 134.471L1457.54 135H1458.13V134ZM1432.67 86.3409V85.3409H1431L1431.79 86.8122L1432.67 86.3409ZM1400.99 134V29.2727H1398.99V134H1400.99ZM1399.99 30.2727H1441.31V28.2727H1399.99V30.2727ZM1441.31 30.2727C1449.1 30.2727 1455.69 31.6667 1461.11 34.4093L1462.01 32.6248C1456.25 29.7083 1449.34 28.2727 1441.31 28.2727V30.2727ZM1461.12 34.4126C1466.57 37.1252 1470.7 40.9623 1473.53 45.9267L1475.27 44.9369C1472.23 39.6058 1467.8 35.4998 1462.01 32.6215L1461.12 34.4126ZM1473.53 45.9335C1476.39 50.8705 1477.85 56.7084 1477.85 63.483H1479.85C1479.85 56.4166 1478.33 50.2204 1475.26 44.9301L1473.53 45.9335ZM1477.85 63.483C1477.85 70.2913 1476.38 76.0893 1473.49 80.9182L1475.2 81.9454C1478.31 76.7516 1479.85 70.5837 1479.85 63.483H1477.85ZM1473.49 80.9156C1470.6 85.7089 1466.41 89.3981 1460.88 91.9803L1461.73 93.7924C1467.59 91.0564 1472.09 87.1093 1475.2 81.948L1473.49 80.9156ZM1460.88 91.9813C1455.39 94.5626 1448.69 95.875 1440.75 95.875V97.875C1448.9 97.875 1455.91 96.5283 1461.73 93.7914L1460.88 91.9813ZM1440.75 95.875H1413.08V97.875H1440.75V95.875ZM1414.08 96.875V79.0795H1412.08V96.875H1414.08ZM1413.08 80.0795H1437.17V78.0795H1413.08V80.0795ZM1437.17 80.0795C1441.48 80.0795 1445.13 79.4898 1448.09 78.2646L1447.32 76.4172C1444.68 77.5102 1441.31 78.0795 1437.17 78.0795V80.0795ZM1448.09 78.2646C1451.06 77.0333 1453.32 75.1606 1454.8 72.632L1453.08 71.618C1451.84 73.7257 1449.94 75.3303 1447.32 76.4172L1448.09 78.2646ZM1454.8 72.6413C1456.31 70.1302 1457.04 67.0593 1457.04 63.483H1455.04C1455.04 66.793 1454.37 69.4834 1453.09 71.6087L1454.8 72.6413ZM1457.04 63.483C1457.04 59.8732 1456.31 56.7565 1454.8 54.1821L1453.08 55.1929C1454.37 57.3912 1455.04 60.1382 1455.04 63.483H1457.04ZM1454.81 54.1914C1453.33 51.5948 1451.05 49.6518 1448.05 48.3496L1447.25 50.1845C1449.91 51.3368 1451.83 53.0075 1453.07 55.1836L1454.81 54.1914ZM1448.06 48.3555C1445.1 47.0178 1441.42 46.375 1437.07 46.375V48.375C1441.24 48.375 1444.61 48.9936 1447.24 50.1785L1448.06 48.3555ZM1437.07 46.375H1422.13V48.375H1437.07V46.375ZM1421.13 47.375V134H1423.13V47.375H1421.13ZM1422.13 133H1399.99V135H1422.13V133ZM1455.67 86.8202L1481.7 134.479L1483.46 133.521L1457.43 85.8616L1455.67 86.8202ZM1482.58 133H1458.13V135H1482.58V133ZM1459.02 133.529L1433.55 85.8696L1431.79 86.8122L1457.25 134.471L1459.02 133.529ZM1432.67 87.3409H1456.55V85.3409H1432.67V87.3409ZM1495.49 134H1494.49V135H1495.49V134ZM1495.49 29.2727V28.2727H1494.49V29.2727H1495.49ZM1566.06 29.2727H1567.06V28.2727H1566.06V29.2727ZM1566.06 47.5284V48.5284H1567.06V47.5284H1566.06ZM1517.63 47.5284V46.5284H1516.63V47.5284H1517.63ZM1517.63 72.483H1516.63V73.483H1517.63V72.483ZM1562.43 72.483H1563.43V71.483H1562.43V72.483ZM1562.43 90.7386V91.7386H1563.43V90.7386H1562.43ZM1517.63 90.7386V89.7386H1516.63V90.7386H1517.63ZM1517.63 115.744H1516.63V116.744H1517.63V115.744ZM1566.27 115.744H1567.27V114.744H1566.27V115.744ZM1566.27 134V135H1567.27V134H1566.27ZM1496.49 134V29.2727H1494.49V134H1496.49ZM1495.49 30.2727H1566.06V28.2727H1495.49V30.2727ZM1565.06 29.2727V47.5284H1567.06V29.2727H1565.06ZM1566.06 46.5284H1517.63V48.5284H1566.06V46.5284ZM1516.63 47.5284V72.483H1518.63V47.5284H1516.63ZM1517.63 73.483H1562.43V71.483H1517.63V73.483ZM1561.43 72.483V90.7386H1563.43V72.483H1561.43ZM1562.43 89.7386H1517.63V91.7386H1562.43V89.7386ZM1516.63 90.7386V115.744H1518.63V90.7386H1516.63ZM1517.63 116.744H1566.27V114.744H1517.63V116.744ZM1565.27 115.744V134H1567.27V115.744H1565.27ZM1566.27 133H1495.49V135H1566.27V133Z" fill="white" fill-opacity="0.3"/>
</svg>
