<svg width="40" height="40" viewBox="0 0 40 40" fill="none" xmlns="http://www.w3.org/2000/svg">
<path d="M10.844 14.3224H10.244C10.1379 14.3224 10.0362 14.3645 9.96117 14.4396C9.88616 14.5146 9.84401 14.6163 9.84401 14.7224C9.84401 14.8285 9.88616 14.9302 9.96117 15.0052C10.0362 15.0803 10.1379 15.1224 10.244 15.1224H10.844C10.9501 15.1224 11.0518 15.0803 11.1269 15.0052C11.2019 14.9302 11.244 14.8285 11.244 14.7224C11.244 14.6163 11.2019 14.5146 11.1269 14.4396C11.0518 14.3645 10.9501 14.3224 10.844 14.3224ZM26.0808 27.8704C26.0808 27.9765 26.123 28.0782 26.198 28.1532C26.273 28.2283 26.3747 28.2704 26.4808 28.2704H27.692C27.7981 28.2704 27.8998 28.2283 27.9749 28.1532C28.0499 28.0782 28.092 27.9765 28.092 27.8704C28.092 27.7643 28.0499 27.6626 27.9749 27.5876C27.8998 27.5125 27.7981 27.4704 27.692 27.4704H26.4808C26.3747 27.4704 26.273 27.5125 26.198 27.5876C26.123 27.6626 26.0808 27.7643 26.0808 27.8704ZM17.5324 20.762H16.3216C16.2155 20.762 16.1138 20.8041 16.0388 20.8792C15.9638 20.9542 15.9216 21.0559 15.9216 21.162C15.9216 21.2681 15.9638 21.3698 16.0388 21.4448C16.1138 21.5199 16.2155 21.562 16.3216 21.562H17.5324C17.6385 21.562 17.7402 21.5199 17.8153 21.4448C17.8903 21.3698 17.9324 21.2681 17.9324 21.162C17.9324 21.0559 17.8903 20.9542 17.8153 20.8792C17.7402 20.8041 17.6385 20.762 17.5324 20.762ZM34.4064 27.1488C34.4438 27.1857 34.4882 27.2148 34.5369 27.2345C34.5856 27.2542 34.6377 27.2641 34.6902 27.2637C34.7427 27.2632 34.7947 27.2524 34.843 27.2319C34.8914 27.2114 34.9352 27.1815 34.972 27.144C35.2919 26.8198 35.5471 26.4377 35.724 26.018C35.7619 25.9209 35.7604 25.8127 35.7197 25.7167C35.6791 25.6207 35.6025 25.5443 35.5064 25.5039C35.4103 25.4635 35.3022 25.4622 35.2051 25.5003C35.1081 25.5384 35.0297 25.613 34.9868 25.708C34.8491 26.0342 34.6505 26.3313 34.4016 26.5832C34.3273 26.6588 34.286 26.7609 34.2869 26.867C34.2878 26.9731 34.3308 27.0744 34.4064 27.1488ZM17.6032 27.8704C17.6032 27.9765 17.6454 28.0782 17.7204 28.1532C17.7954 28.2283 17.8971 28.2704 18.0032 28.2704H19.214C19.3201 28.2704 19.4218 28.2283 19.4969 28.1532C19.5719 28.0782 19.614 27.9765 19.614 27.8704C19.614 27.7643 19.5719 27.6626 19.4969 27.5876C19.4218 27.5125 19.3201 27.4704 19.214 27.4704H18.0032C17.8971 27.4704 17.7954 27.5125 17.7204 27.5876C17.6454 27.6626 17.6032 27.7643 17.6032 27.8704ZM23.2552 27.8704C23.2552 27.9765 23.2974 28.0782 23.3724 28.1532C23.4474 28.2283 23.5491 28.2704 23.6552 28.2704H24.866C24.9721 28.2704 25.0738 28.2283 25.1489 28.1532C25.2239 28.0782 25.266 27.9765 25.266 27.8704C25.266 27.7643 25.2239 27.6626 25.1489 27.5876C25.0738 27.5125 24.9721 27.4704 24.866 27.4704H23.6552C23.5491 27.4704 23.4474 27.5125 23.3724 27.5876C23.2974 27.6626 23.2552 27.7643 23.2552 27.8704ZM26.0104 20.762H24.7992C24.6931 20.762 24.5914 20.8041 24.5164 20.8792C24.4414 20.9542 24.3992 21.0559 24.3992 21.162C24.3992 21.2681 24.4414 21.3698 24.5164 21.4448C24.5914 21.5199 24.6931 21.562 24.7992 21.562H26.0104C26.1165 21.562 26.2182 21.5199 26.2933 21.4448C26.3683 21.3698 26.4104 21.2681 26.4104 21.162C26.4104 21.0559 26.3683 20.9542 26.2933 20.8792C26.2182 20.8041 26.1165 20.762 26.0104 20.762ZM35.598 24.6812H35.6112C35.6638 24.6796 35.7155 24.6676 35.7634 24.646C35.8113 24.6244 35.8544 24.5935 35.8904 24.5551C35.9263 24.5168 35.9543 24.4717 35.9728 24.4225C35.9913 24.3733 35.9998 24.3209 35.998 24.2684C35.984 23.8118 35.8807 23.3625 35.694 22.9456C35.6726 22.8976 35.642 22.8544 35.6038 22.8183C35.5657 22.7821 35.5208 22.7539 35.4718 22.7351C35.4227 22.7163 35.3705 22.7074 35.318 22.7088C35.2655 22.7102 35.2138 22.722 35.1658 22.7434C35.1179 22.7648 35.0746 22.7954 35.0385 22.8336C35.0024 22.8717 34.9741 22.9166 34.9553 22.9656C34.9365 23.0147 34.9276 23.0669 34.929 23.1194C34.9305 23.1719 34.9422 23.2236 34.9636 23.2716C35.1084 23.5956 35.1876 23.9396 35.1988 24.294C35.2056 24.5104 35.3832 24.6812 35.598 24.6812ZM32.1328 27.4704C32.0267 27.4704 31.925 27.5125 31.85 27.5876C31.775 27.6626 31.7328 27.7643 31.7328 27.8704C31.7328 27.9765 31.775 28.0782 31.85 28.1532C31.925 28.2283 32.0267 28.2704 32.1328 28.2704H32.264C32.6696 28.2704 33.068 28.208 33.4496 28.084C33.5006 28.0686 33.5479 28.0432 33.589 28.0093C33.63 27.9754 33.6638 27.9336 33.6885 27.8865C33.7132 27.8393 33.7282 27.7877 33.7327 27.7347C33.7371 27.6816 33.731 27.6283 33.7146 27.5776C33.6981 27.527 33.6718 27.4802 33.637 27.4398C33.6023 27.3995 33.5598 27.3666 33.5121 27.3429C33.4645 27.3192 33.4126 27.3052 33.3595 27.3019C33.3064 27.2985 33.2531 27.3057 33.2028 27.3232C32.8995 27.4212 32.5827 27.4709 32.264 27.4704H32.1328ZM28.836 20.762H27.6252C27.5191 20.762 27.4174 20.8041 27.3424 20.8792C27.2674 20.9542 27.2252 21.0559 27.2252 21.162C27.2252 21.2681 27.2674 21.3698 27.3424 21.4448C27.4174 21.5199 27.5191 21.562 27.6252 21.562H28.8364C28.9425 21.562 29.0442 21.5199 29.1193 21.4448C29.1943 21.3698 29.2364 21.2681 29.2364 21.162C29.2364 21.0559 29.1943 20.9542 29.1193 20.8792C29.0442 20.8041 28.9425 20.762 28.8364 20.762H28.836ZM33.378 20.926C33.2781 20.9006 33.1723 20.9147 33.0826 20.9654C32.9928 21.016 32.9261 21.0993 32.8962 21.1979C32.8663 21.2966 32.8756 21.4029 32.9221 21.4949C32.9686 21.5868 33.0488 21.6573 33.146 21.6916C33.49 21.7956 33.808 21.9584 34.0916 22.1756C34.1333 22.2077 34.1808 22.2312 34.2316 22.2448C34.2823 22.2584 34.3353 22.2618 34.3874 22.2548C34.4395 22.2479 34.4897 22.2307 34.5351 22.2043C34.5805 22.1778 34.6202 22.1427 34.652 22.1008C34.7164 22.0165 34.7446 21.9102 34.7306 21.8051C34.7166 21.7 34.6614 21.6048 34.5772 21.5404C34.2179 21.2649 33.8116 21.0567 33.378 20.926ZM20.3584 20.762H19.1472C19.0411 20.762 18.9394 20.8041 18.8644 20.8792C18.7894 20.9542 18.7472 21.0559 18.7472 21.162C18.7472 21.2681 18.7894 21.3698 18.8644 21.4448C18.9394 21.5199 19.0411 21.562 19.1472 21.562H20.3584C20.4645 21.562 20.5662 21.5199 20.6413 21.4448C20.7163 21.3698 20.7584 21.2681 20.7584 21.162C20.7584 21.0559 20.7163 20.9542 20.6413 20.8792C20.5662 20.8041 20.4645 20.762 20.3584 20.762ZM23.184 20.762H21.9736C21.8675 20.762 21.7658 20.8041 21.6908 20.8792C21.6158 20.9542 21.5736 21.0559 21.5736 21.162C21.5736 21.2681 21.6158 21.3698 21.6908 21.4448C21.7658 21.5199 21.8675 21.562 21.9736 21.562H23.1844C23.2905 21.562 23.3922 21.5199 23.4673 21.4448C23.5423 21.3698 23.5844 21.2681 23.5844 21.162C23.5844 21.0559 23.5423 20.9542 23.4673 20.8792C23.3922 20.8041 23.2901 20.762 23.184 20.762ZM20.4288 27.8704C20.4288 27.9765 20.471 28.0782 20.546 28.1532C20.621 28.2283 20.7227 28.2704 20.8288 28.2704H22.0404C22.1465 28.2704 22.2482 28.2283 22.3233 28.1532C22.3983 28.0782 22.4404 27.9765 22.4404 27.8704C22.4404 27.7643 22.3983 27.6626 22.3233 27.5876C22.2482 27.5125 22.1465 27.4704 22.0404 27.4704H20.8288C20.7227 27.4704 20.621 27.5125 20.546 27.5876C20.471 27.6626 20.4288 27.7643 20.4288 27.8704ZM28.9072 27.8704C28.9072 27.9765 28.9494 28.0782 29.0244 28.1532C29.0994 28.2283 29.2011 28.2704 29.3072 28.2704H30.518C30.6241 28.2704 30.7258 28.2283 30.8009 28.1532C30.8759 28.0782 30.918 27.9765 30.918 27.8704C30.918 27.7643 30.8759 27.6626 30.8009 27.5876C30.7258 27.5125 30.6241 27.4704 30.518 27.4704H29.3072C29.2011 27.4704 29.0994 27.5125 29.0244 27.5876C28.9494 27.6626 28.9072 27.7643 28.9072 27.8704ZM31.6624 20.762H30.4512C30.3451 20.762 30.2434 20.8041 30.1684 20.8792C30.0934 20.9542 30.0512 21.0559 30.0512 21.162C30.0512 21.2681 30.0934 21.3698 30.1684 21.4448C30.2434 21.5199 30.3451 21.562 30.4512 21.562H31.6624C31.7685 21.562 31.8702 21.5199 31.9453 21.4448C32.0203 21.3698 32.0624 21.2681 32.0624 21.162C32.0624 21.0559 32.0203 20.9542 31.9453 20.8792C31.8702 20.8041 31.7685 20.762 31.6624 20.762ZM10.2696 21.162C10.2696 21.2681 10.3118 21.3698 10.3868 21.4448C10.4618 21.5199 10.5635 21.562 10.6696 21.562H11.88C11.9861 21.562 12.0878 21.5199 12.1629 21.4448C12.2379 21.3698 12.28 21.2681 12.28 21.162C12.28 21.0559 12.2379 20.9542 12.1629 20.8792C12.0878 20.8041 11.9861 20.762 11.88 20.762H10.6692C10.5631 20.762 10.4614 20.8041 10.3864 20.8792C10.3114 20.9542 10.2696 21.0559 10.2696 21.162ZM4.02801 17.5012C3.97031 17.9541 4.00156 18.4139 4.12001 18.8548C4.14881 18.9559 4.21621 19.0415 4.30766 19.0933C4.3991 19.1451 4.50725 19.1588 4.60872 19.1314C4.71019 19.1041 4.79683 19.038 4.84991 18.9473C4.903 18.8566 4.91827 18.7487 4.89241 18.6468C4.80098 18.3059 4.77693 17.9505 4.82161 17.6004C4.82813 17.5483 4.82431 17.4954 4.81038 17.4447C4.79644 17.394 4.77267 17.3466 4.74041 17.3052C4.67526 17.2214 4.57951 17.167 4.47421 17.1538C4.36892 17.1406 4.26272 17.1699 4.17897 17.235C4.09521 17.3002 4.04117 17.3959 4.02801 17.5012ZM7.44321 21.162C7.44321 21.2681 7.48536 21.3698 7.56037 21.4448C7.63539 21.5199 7.73713 21.562 7.84321 21.562H9.05481C9.1609 21.562 9.26264 21.5199 9.33766 21.4448C9.41267 21.3698 9.45481 21.2681 9.45481 21.162C9.45481 21.0559 9.41267 20.9542 9.33766 20.8792C9.26264 20.8041 9.1609 20.762 9.05481 20.762H7.84321C7.73713 20.762 7.63539 20.8041 7.56037 20.8792C7.48536 20.9542 7.44321 21.0559 7.44321 21.162ZM14.7068 21.562C14.8129 21.562 14.9146 21.5199 14.9897 21.4448C15.0647 21.3698 15.1068 21.2681 15.1068 21.162C15.1068 21.0559 15.0647 20.9542 14.9897 20.8792C14.9146 20.8041 14.8129 20.762 14.7068 20.762H13.4952C13.3891 20.762 13.2874 20.8041 13.2124 20.8792C13.1374 20.9542 13.0952 21.0559 13.0952 21.162C13.0952 21.2681 13.1374 21.3698 13.2124 21.4448C13.2874 21.5199 13.3891 21.562 13.4952 21.562H14.7068ZM8.62921 14.3224H7.73601C7.61681 14.3224 7.49881 14.3272 7.38281 14.338C7.3305 14.3427 7.27962 14.3577 7.23309 14.3821C7.18657 14.4065 7.1453 14.4398 7.11165 14.4801C7.078 14.5205 7.05262 14.5671 7.03696 14.6172C7.02131 14.6673 7.01569 14.7201 7.02041 14.7724C7.02514 14.8247 7.04013 14.8756 7.06452 14.9221C7.08891 14.9686 7.12222 15.0099 7.16256 15.0436C7.2029 15.0772 7.24947 15.1026 7.29961 15.1182C7.34976 15.1339 7.4025 15.1395 7.45481 15.1348C7.54721 15.1268 7.64121 15.1224 7.73601 15.1224H8.62921C8.7353 15.1224 8.83704 15.0803 8.91206 15.0052C8.98707 14.9302 9.02921 14.8285 9.02921 14.7224C9.02921 14.6163 8.98707 14.5146 8.91206 14.4396C8.83704 14.3645 8.7353 14.3224 8.62921 14.3224ZM5.69001 14.9132C5.30614 15.1558 4.9706 15.4674 4.70041 15.8324C4.66916 15.8746 4.64652 15.9226 4.6338 15.9735C4.62108 16.0245 4.61851 16.0774 4.62626 16.1294C4.634 16.1813 4.6519 16.2312 4.67894 16.2763C4.70597 16.3213 4.74161 16.3605 4.78381 16.3918C4.82602 16.4231 4.87397 16.4457 4.92493 16.4584C4.97588 16.4711 5.02884 16.4737 5.08079 16.466C5.13273 16.4582 5.18264 16.4403 5.22767 16.4133C5.2727 16.3862 5.31196 16.3506 5.34321 16.3084C5.55501 16.0225 5.81799 15.7784 6.11881 15.5884C6.16424 15.5608 6.2037 15.5243 6.23488 15.4813C6.26607 15.4382 6.28835 15.3893 6.30043 15.3376C6.31251 15.2858 6.31415 15.2321 6.30524 15.1797C6.29633 15.1273 6.27706 15.0771 6.24855 15.0322C6.22005 14.9874 6.18288 14.9486 6.13922 14.9183C6.09556 14.8879 6.04628 14.8666 5.99427 14.8555C5.94227 14.8444 5.88857 14.8438 5.83633 14.8537C5.78409 14.8636 5.73435 14.8838 5.69001 14.9132ZM5.01881 19.8512C4.98103 19.8876 4.9508 19.9312 4.92985 19.9793C4.9089 20.0274 4.89764 20.0792 4.89671 20.1317C4.89578 20.1842 4.9052 20.2364 4.92444 20.2852C4.94367 20.3341 4.97235 20.3786 5.00881 20.4164C5.32364 20.7427 5.69567 21.0084 6.10641 21.2004C6.15394 21.2228 6.20542 21.2356 6.25791 21.2381C6.31039 21.2406 6.36286 21.2327 6.41228 21.2149C6.46171 21.197 6.50713 21.1696 6.54593 21.1342C6.58474 21.0987 6.61617 21.056 6.63841 21.0084C6.68348 20.9124 6.68857 20.8024 6.65257 20.7026C6.61656 20.6029 6.54241 20.5215 6.44641 20.4764C6.12379 20.3255 5.83151 20.1169 5.58401 19.8608C5.5103 19.7846 5.40937 19.7409 5.3034 19.7391C5.19743 19.7373 5.09507 19.7776 5.01881 19.8512ZM15.3656 27.8704C15.3656 27.9765 15.4078 28.0782 15.4828 28.1532C15.5578 28.2283 15.6595 28.2704 15.7656 28.2704H16.3656C16.4717 28.2704 16.5734 28.2283 16.6485 28.1532C16.7235 28.0782 16.7656 27.9765 16.7656 27.8704C16.7656 27.7643 16.7235 27.6626 16.6485 27.5876C16.5734 27.5125 16.4717 27.4704 16.3656 27.4704H15.7656C15.6595 27.4704 15.5578 27.5125 15.4828 27.5876C15.4078 27.6626 15.3656 27.7643 15.3656 27.8704ZM8.69241 36H8.69641C8.80761 35.9988 8.91241 35.952 8.98761 35.8704C9.16721 35.6744 13.3848 31.0336 13.3848 27.7064C13.3848 25.1192 11.2796 23.0144 8.69281 23.0144C6.10481 23.0144 4.00001 25.1192 4.00001 27.7064C4.00001 31.2164 8.22361 35.6876 8.40321 35.876C8.47841 35.9552 8.58321 36 8.69241 36ZM8.69241 23.814C10.8388 23.814 12.5844 25.56 12.5844 27.7068C12.5844 30.2508 9.63601 33.8936 8.68761 34.9996C7.73441 33.9236 4.80001 30.3916 4.80001 27.7068C4.80001 25.56 6.54601 23.814 8.69241 23.814ZM31.6088 10.3312C30.9796 10.3312 30.382 10.4668 29.84 10.7064L28.5176 5.2504H30.9976C31.0326 5.26024 31.0688 5.26522 31.1052 5.2652C31.7268 5.2652 32.2328 5.7712 32.2328 6.3932C32.2328 7.0152 31.7268 7.5208 31.1048 7.5208C30.9987 7.5208 30.897 7.56294 30.822 7.63796C30.747 7.71297 30.7048 7.81471 30.7048 7.9208C30.7048 8.02689 30.747 8.12863 30.822 8.20364C30.897 8.27866 30.9987 8.3208 31.1048 8.3208C31.616 8.32027 32.1061 8.11697 32.4675 7.75552C32.829 7.39406 33.0323 6.90397 33.0328 6.3928C33.0322 5.90027 32.8433 5.42662 32.5047 5.06885C32.1662 4.71108 31.7038 4.49627 31.212 4.4684C31.1738 4.4565 31.134 4.45043 31.094 4.4504H28.0088C27.9483 4.45046 27.8886 4.46424 27.8342 4.4907C27.7798 4.51716 27.7322 4.55562 27.6948 4.60317C27.6574 4.65072 27.6313 4.70614 27.6184 4.76524C27.6055 4.82435 27.6062 4.8856 27.6204 4.9444L28.2444 7.5204H21.712L20.764 4.8H21.882C21.9881 4.8 22.0898 4.75786 22.1649 4.68284C22.2399 4.60783 22.282 4.50609 22.282 4.4C22.282 4.29391 22.2399 4.19217 22.1649 4.11716C22.0898 4.04214 21.9881 4 21.882 4H18.6336C18.5275 4 18.4258 4.04214 18.3508 4.11716C18.2758 4.19217 18.2336 4.29391 18.2336 4.4C18.2336 4.50609 18.2758 4.60783 18.3508 4.68284C18.4258 4.75786 18.5275 4.8 18.6336 4.8H19.9172L20.988 7.8772L19.2892 10.7572C18.7039 10.4774 18.0635 10.3319 17.4148 10.3312C14.9936 10.3312 13.024 12.3012 13.024 14.7224C13.024 17.1436 14.9936 19.1136 17.4148 19.1136C19.484 19.1136 21.2188 17.6736 21.6812 15.7444L22.302 15.8344C22.3908 16.752 23.1572 17.474 24.098 17.474C25.098 17.474 25.9108 16.6604 25.9108 15.6604C25.9108 15.1052 25.6548 14.6132 25.26 14.2804L28.69 9.3592L29.1148 11.112C27.97 11.9056 27.2172 13.2272 27.2172 14.7224C27.2172 17.1436 29.1872 19.1136 31.6084 19.1136C34.0296 19.1136 36 17.144 36 14.7224C36 12.3008 34.03 10.3312 31.6088 10.3312ZM17.4152 18.3136C15.4352 18.3136 13.8244 16.7028 13.8244 14.7224C13.8244 12.7424 15.4352 11.1312 17.4152 11.1312C17.938 11.1312 18.4336 11.246 18.8824 11.448L17.0752 14.512C17.0739 14.5141 17.0725 14.5162 17.0712 14.5184L17.0708 14.5192C17.0652 14.5284 17.0652 14.5392 17.0604 14.5484C17.0408 14.5848 17.0271 14.6241 17.0196 14.6648V14.6668C17.0124 14.7188 17.0152 14.772 17.028 14.8224C17.0372 14.8584 17.0564 14.8892 17.0748 14.9208C17.0828 14.9336 17.0852 14.9488 17.0944 14.9608C17.1258 15.003 17.1652 15.0387 17.2104 15.0656C17.2112 15.0656 17.2116 15.0664 17.212 15.0668C17.2527 15.0898 17.2971 15.1054 17.3432 15.1128C17.3484 15.1136 17.3524 15.1172 17.358 15.118L20.886 15.6292C20.4828 17.1712 19.082 18.3136 17.4152 18.3136ZM21.0068 14.7224C21.0068 14.7612 21.002 14.7992 21.0008 14.8376L18.0624 14.412L19.5704 11.856C20.4404 12.512 21.0068 13.5512 21.0068 14.7224ZM19.9784 11.164L21.3328 8.8676L23.16 14.1168C22.8098 14.3301 22.5423 14.6558 22.4012 15.0408L21.7952 14.9528C21.7992 14.876 21.8072 14.8 21.8072 14.7224C21.8072 13.2584 21.0836 11.9624 19.9784 11.164ZM24.0984 16.674C23.5396 16.674 23.0848 16.2192 23.0848 15.6604C23.0848 15.1016 23.5396 14.6472 24.098 14.6472C24.6564 14.6472 25.1112 15.102 25.1112 15.6604C25.1112 16.2188 24.6572 16.674 24.0984 16.674ZM24.544 13.9092C24.3985 13.8699 24.2487 13.849 24.098 13.8472C24.0368 13.8472 23.9792 13.8592 23.9192 13.8652L21.99 8.3208H28.4388L24.544 13.9092ZM31.6088 18.3136C29.6288 18.3136 28.0176 16.7028 28.0176 14.7224C28.0176 13.5512 28.5836 12.5124 29.4536 11.8564L31.3956 14.9356C31.4522 15.0253 31.5421 15.0889 31.6456 15.1124C31.7491 15.1358 31.8577 15.1172 31.9474 15.0606C32.0372 15.004 32.1008 14.9141 32.1242 14.8106C32.1476 14.7071 32.129 14.5985 32.0724 14.5088L30.142 11.448C30.6029 11.2396 31.1029 11.1316 31.6088 11.1312C33.5888 11.1312 35.2 12.742 35.2 14.7224C35.2 16.7024 33.5892 18.3136 31.6088 18.3136Z" fill="black"/>
<path d="M10.5057 27.4424C10.5057 26.4424 9.69207 25.6292 8.69247 25.6292C7.69247 25.6292 6.87927 26.4424 6.87927 27.4424C6.87927 28.4424 7.69247 29.256 8.69247 29.256C9.17327 29.2554 9.63422 29.0642 9.97415 28.7242C10.3141 28.3841 10.5052 27.9231 10.5057 27.4424ZM7.67927 27.4424C7.67927 26.884 8.13407 26.4292 8.69247 26.4292C9.25087 26.4292 9.70567 26.884 9.70567 27.4424C9.70567 28.0008 9.25127 28.456 8.69247 28.456C8.13367 28.456 7.67927 28.0012 7.67927 27.4424Z" fill="black"/>
</svg>
