<svg width="24" height="24" viewBox="0 0 24 24" fill="none" xmlns="http://www.w3.org/2000/svg">
<path d="M7.5 18.375C6.87975 18.375 6.375 18.8798 6.375 19.5C6.375 20.1202 6.87975 20.625 7.5 20.625C8.12025 20.625 8.625 20.1202 8.625 19.5C8.625 18.8798 8.12025 18.375 7.5 18.375ZM7.5 19.875C7.45073 19.875 7.40195 19.8652 7.35644 19.8464C7.31093 19.8275 7.26958 19.7998 7.23476 19.765C7.19994 19.7301 7.17232 19.6887 7.15349 19.6432C7.13466 19.5977 7.12498 19.5489 7.125 19.4996C7.12502 19.4504 7.13475 19.4016 7.15363 19.3561C7.17251 19.3106 7.20017 19.2692 7.23502 19.2344C7.26988 19.1996 7.31125 19.1719 7.35678 19.1531C7.40231 19.1343 7.4511 19.1246 7.50037 19.1246C7.59988 19.1247 7.69529 19.1643 7.76562 19.2346C7.83594 19.305 7.87542 19.4005 7.87537 19.5C7.87533 19.5995 7.83575 19.6949 7.76535 19.7652C7.69496 19.8356 7.59951 19.875 7.5 19.875ZM18.375 18.375C17.7548 18.375 17.25 18.8798 17.25 19.5C17.25 20.1202 17.7548 20.625 18.375 20.625C18.9952 20.625 19.5 20.1202 19.5 19.5C19.5 18.8798 18.9952 18.375 18.375 18.375ZM18.375 19.875C18.3257 19.875 18.2769 19.8652 18.2314 19.8464C18.1859 19.8275 18.1446 19.7998 18.1098 19.765C18.0749 19.7301 18.0473 19.6887 18.0285 19.6432C18.0097 19.5977 18 19.5489 18 19.4996C18 19.4504 18.0098 19.4016 18.0286 19.3561C18.0475 19.3106 18.0752 19.2692 18.11 19.2344C18.1449 19.1996 18.1863 19.1719 18.2318 19.1531C18.2773 19.1343 18.3261 19.1246 18.3754 19.1246C18.4749 19.1247 18.5703 19.1643 18.6406 19.2346C18.7109 19.305 18.7504 19.4005 18.7504 19.5C18.7503 19.5995 18.7107 19.6949 18.6404 19.7652C18.57 19.8356 18.4745 19.875 18.375 19.875ZM15.7155 7.34287C15.6854 7.27786 15.6374 7.22279 15.5771 7.18419C15.5167 7.14558 15.4466 7.12504 15.375 7.125H11.25C11.1505 7.125 11.0552 7.16451 10.9848 7.23483C10.9145 7.30516 10.875 7.40054 10.875 7.5V12.375C10.875 12.4745 10.9145 12.5698 10.9848 12.6402C11.0552 12.7105 11.1505 12.75 11.25 12.75H17.625C17.6879 12.7498 17.7497 12.7338 17.8047 12.7036C17.8598 12.6733 17.9065 12.6297 17.9403 12.5768C17.9742 12.5238 17.9943 12.4632 17.9987 12.4005C18.0031 12.3378 17.9917 12.275 17.9655 12.2179L15.7155 7.34287ZM11.625 12V7.875H15.135L17.0389 12H11.625ZM9.75 7.125H4.125C4.02554 7.125 3.93016 7.16451 3.85984 7.23483C3.78951 7.30516 3.75 7.40054 3.75 7.5V12.375C3.75 12.4745 3.78951 12.5698 3.85984 12.6402C3.93016 12.7105 4.02554 12.75 4.125 12.75H9.75C9.84946 12.75 9.94484 12.7105 10.0152 12.6402C10.0855 12.5698 10.125 12.4745 10.125 12.375V7.5C10.125 7.40054 10.0855 7.30516 10.0152 7.23483C9.94484 7.16451 9.84946 7.125 9.75 7.125ZM4.5 12V7.875H5.25V12H4.5ZM9.375 12H6V7.875H9.375V12Z" fill="black"/>
<path d="M24 16.125V13.875C24 13.7755 23.9605 13.6802 23.8902 13.6098C23.8198 13.5395 23.7245 13.5 23.625 13.5C23.625 12.6727 22.9522 12 22.125 12H19.7381L17.2444 6.7035C17.0926 6.38153 16.8526 6.10925 16.5522 5.91833C16.2518 5.72741 15.9034 5.62569 15.5475 5.625H15.4425C15.8803 5.17233 16.125 4.56724 16.125 3.9375C16.125 2.5935 15.0315 1.5 13.6875 1.5H5.8125C5.16628 1.50079 4.54675 1.75786 4.0898 2.2148C3.63286 2.67175 3.37579 3.29128 3.375 3.9375C3.375 4.59525 3.63825 5.19225 4.0635 5.63138C3.0585 5.66475 2.25 6.48712 2.25 7.5V8.25H1.125C0.50475 8.25 0 8.75475 0 9.375V13.875C0 14.4952 0.50475 15 1.125 15H2.25V18C1.83637 18 1.5 18.3364 1.5 18.75V20.25C1.5 20.6636 1.83637 21 2.25 21H4.90575C5.4255 21.8951 6.39262 22.5 7.5 22.5C8.60738 22.5 9.5745 21.8951 10.0942 21H15.7808C16.3005 21.8951 17.2676 22.5 18.375 22.5C19.4824 22.5 20.4495 21.8951 20.9692 21H23.25C23.6636 21 24 20.6636 24 20.25V18.75C24 18.4736 23.8481 18.2344 23.625 18.1042V16.5C23.7245 16.5 23.8198 16.4605 23.8902 16.3902C23.9605 16.3198 24 16.2245 24 16.125ZM22.5 15.75C22.0864 15.75 21.75 15.4136 21.75 15C21.75 14.5864 22.0864 14.25 22.5 14.25H23.25V15.75H22.5ZM15.375 3.9375C15.375 4.86788 14.6179 5.625 13.6875 5.625H13.125V2.25H13.6875C14.6179 2.25 15.375 3.00713 15.375 3.9375ZM12.375 2.25V5.625H11.625V2.25H12.375ZM8.625 5.625V2.25H10.875V5.625H8.625ZM7.875 2.25V5.625H7.125V2.25H7.875ZM5.8125 2.25H6.375V5.625H5.8125C4.88212 5.625 4.125 4.86788 4.125 3.9375C4.125 3.00713 4.88212 2.25 5.8125 2.25ZM3 15.75H4.125V16.5H3V15.75ZM4.125 15H3V14.25H4.125V15ZM1.125 14.25C1.02554 14.25 0.930161 14.2105 0.859835 14.1402C0.789509 14.0698 0.75 13.9745 0.75 13.875V9.375C0.75 9.27554 0.789509 9.18016 0.859835 9.10983C0.930161 9.03951 1.02554 9 1.125 9H2.25V14.25H1.125ZM2.25 20.25V18.75H4.59862C4.53638 18.99 4.5 19.2405 4.5 19.5C4.5 19.7595 4.53638 20.01 4.59862 20.25H2.25ZM7.5 21.75C6.25912 21.75 5.25 20.7409 5.25 19.5C5.25 18.2591 6.25912 17.25 7.5 17.25C8.74088 17.25 9.75 18.2591 9.75 19.5C9.75 20.7409 8.74088 21.75 7.5 21.75ZM10.4014 20.25C10.4636 20.01 10.5 19.7595 10.5 19.5C10.5 19.2405 10.4636 18.99 10.4014 18.75H15.4736C15.4114 18.99 15.375 19.2405 15.375 19.5C15.375 19.7595 15.4114 20.01 15.4736 20.25H10.4014ZM18.375 21.75C17.1341 21.75 16.125 20.7409 16.125 19.5C16.125 18.2591 17.1341 17.25 18.375 17.25C19.6159 17.25 20.625 18.2591 20.625 19.5C20.625 20.7409 19.6159 21.75 18.375 21.75ZM23.25 20.25H21.2764C21.3386 20.01 21.375 19.7595 21.375 19.5C21.375 19.2405 21.3386 18.99 21.2764 18.75H23.25V20.25ZM22.875 18H20.9692C20.4495 17.1049 19.4824 16.5 18.375 16.5C17.2676 16.5 16.3005 17.1049 15.7808 18H10.0942C9.5745 17.1049 8.60738 16.5 7.5 16.5C6.39262 16.5 5.4255 17.1049 4.90575 18H3V17.25H4.5C4.59946 17.25 4.69484 17.2105 4.76516 17.1402C4.83549 17.0698 4.875 16.9745 4.875 16.875V13.875C4.875 13.7755 4.83549 13.6802 4.76516 13.6098C4.69484 13.5395 4.59946 13.5 4.5 13.5H3V7.5C3 6.87975 3.50475 6.375 4.125 6.375H15.5475C15.9825 6.375 16.3819 6.62887 16.566 7.02225L19.161 12.5347C19.2225 12.666 19.3545 12.75 19.5 12.75H22.125C22.5386 12.75 22.875 13.0864 22.875 13.5H22.5C21.6728 13.5 21 14.1727 21 15C21 15.8273 21.6728 16.5 22.5 16.5H22.875V18Z" fill="black"/>
<path d="M12 13.875H11.25C11.1505 13.875 11.0552 13.9145 10.9848 13.9848C10.9145 14.0552 10.875 14.1505 10.875 14.25C10.875 14.3495 10.9145 14.4448 10.9848 14.5152C11.0552 14.5855 11.1505 14.625 11.25 14.625H12C12.0995 14.625 12.1948 14.5855 12.2652 14.5152C12.3355 14.4448 12.375 14.3495 12.375 14.25C12.375 14.1505 12.3355 14.0552 12.2652 13.9848C12.1948 13.9145 12.0995 13.875 12 13.875Z" fill="black"/>
</svg>
