<svg width="24" height="25" viewBox="0 0 24 25" fill="none" xmlns="http://www.w3.org/2000/svg">
<g clip-path="url(#clip0_236_1020)">
<path d="M22.875 23.3732V12.1232H22.125V10.6232H21.375V8.37317H20.625V6.87317H19.875V8.37317H19.125V10.6232H18.375V2.29067L16.125 2.74067V1.62317H15.375V2.89067L14.625 3.04067V0.873169H13.875V3.19067L13.125 3.34067V1.62317H12.375V3.49104L10.125 3.94104V6.12317H3.375V6.87317H4.125V11.4073C4.00114 11.3857 3.87572 11.3743 3.75 11.3732C2.30288 11.3732 1.125 12.719 1.125 14.3732C1.125 15.8814 2.10525 17.1298 3.375 17.339V17.8277C3.06113 17.5438 2.67225 17.3732 2.25 17.3732C1.21613 17.3732 0.375 18.3823 0.375 19.6232C0.375 20.7099 1.02038 21.6185 1.875 21.8278V23.3732H0.375V24.1232H23.625V23.3732H22.875ZM6.375 22.9982C6.375 22.3779 6.87975 21.8732 7.5 21.8732C7.69947 21.8735 7.89531 21.9266 8.06757 22.0272C8.23982 22.1278 8.38235 22.2722 8.48063 22.4458L8.59687 22.6517L9 22.6232C9.11025 22.6232 9.2265 22.6445 9.3555 22.688L9.72 22.8103L9.83362 22.4432C9.95083 22.0599 10.1883 21.7246 10.511 21.4869C10.8336 21.2491 11.2242 21.1216 11.625 21.1232C12.3068 21.1232 12.936 21.4948 13.2671 22.0933L13.5015 22.5178L13.8533 22.184C14.2759 21.7835 14.9738 21.7835 15.3964 22.184L15.7481 22.5178L15.9825 22.0933C16.1448 21.7997 16.3827 21.5549 16.6715 21.3843C16.9603 21.2137 17.2896 21.1236 17.625 21.1232C18.021 21.1226 18.4069 21.2477 18.7272 21.4804C19.0475 21.7132 19.2857 22.0416 19.4074 22.4184L19.5128 22.742L19.8454 22.6685C20.5886 22.5035 21.315 22.8095 21.7421 23.3732H6.44775C6.40227 23.2532 6.37767 23.1264 6.375 22.9982ZM22.125 12.8732V22.6745C21.9086 22.4518 21.6548 22.2689 21.375 22.1342V13.6232H16.125V20.8494C15.9124 20.9963 15.7226 21.1737 15.5618 21.3759C15.5014 21.3416 15.439 21.3109 15.375 21.284V12.8732H22.125ZM17.625 20.3732C17.367 20.3732 17.1154 20.4152 16.875 20.4872V14.3732H18.375V20.4819C18.1315 20.4097 17.8789 20.3731 17.625 20.3732ZM19.125 14.3732H20.625V21.9084C20.4191 21.8755 20.2099 21.8676 20.0021 21.8852C19.8061 21.4685 19.5035 21.1109 19.125 20.8487V14.3732ZM16.125 12.1232V11.3732H21.375V12.1232H16.125ZM19.875 9.12317H20.625V10.6232H19.875V9.12317ZM17.625 3.20567V10.6232H15.375V12.1232H14.625V21.1288C14.298 21.1288 13.9714 21.2113 13.6882 21.3759C13.4426 21.0636 13.1292 20.8111 12.7719 20.6375C12.4145 20.4638 12.0224 20.3734 11.625 20.3732C11.3655 20.3732 11.1135 20.4107 10.875 20.4808V4.55529L17.625 3.20567ZM4.875 6.87317H10.125V20.846C9.74316 21.1099 9.43878 21.4709 9.24337 21.8919C9.16296 21.8809 9.08192 21.875 9.00075 21.8743C8.8259 21.6414 8.59931 21.4523 8.33887 21.3219C8.07842 21.1916 7.79124 21.1235 7.5 21.1232C6.46613 21.1232 5.625 21.9643 5.625 22.9982C5.625 23.1249 5.64188 23.2498 5.667 23.3732H4.125V22.0115L6.375 19.3869V18.464C7.64475 18.2548 8.625 17.0064 8.625 15.4982C8.625 14.3694 8.076 13.385 7.26788 12.8732H7.875V12.1232H7.125V12.7918C6.7807 12.6008 6.39374 12.4998 6 12.4982C5.9355 12.4982 5.8695 12.5023 5.80275 12.5087C5.56298 12.1599 5.24536 11.8717 4.875 11.6668V6.87317ZM6.375 14.3732C6.375 13.9794 6.30638 13.604 6.18525 13.2594C7.1325 13.3715 7.875 14.3327 7.875 15.4982C7.875 16.739 7.03387 17.7482 6 17.7482C5.52675 17.7482 5.07713 17.5303 4.734 17.1523C5.69475 16.7064 6.375 15.6294 6.375 14.3732ZM4.125 17.591C4.52738 18.0628 5.052 18.371 5.625 18.4652V19.1098L4.125 20.8599V17.591ZM1.875 14.3732C1.875 13.1323 2.71613 12.1232 3.75 12.1232C4.78387 12.1232 5.625 13.1323 5.625 14.3732C5.625 15.4599 4.97963 16.3685 4.125 16.5778V13.9982H3.375V16.5778C2.52038 16.3685 1.875 15.4599 1.875 14.3732ZM1.125 19.6232C1.125 18.7959 1.62975 18.1232 2.25 18.1232C2.87025 18.1232 3.375 18.7959 3.375 19.6232C3.375 20.4504 2.87025 21.1232 2.25 21.1232C1.62975 21.1232 1.125 20.4504 1.125 19.6232ZM2.625 21.8278C2.9025 21.7599 3.15675 21.6163 3.375 21.419V23.3732H2.625V21.8278Z" fill="black"/>
<path d="M13.875 5.37317H11.625V8.37317H13.875V5.37317ZM13.125 7.62317H12.375V6.12317H13.125V7.62317ZM13.875 9.12317H11.625V12.1232H13.875V9.12317ZM13.125 11.3732H12.375V9.87317H13.125V11.3732ZM13.875 12.8732H11.625V15.8732H13.875V12.8732ZM13.125 15.1232H12.375V13.6232H13.125V15.1232ZM13.875 16.6232H11.625V19.6232H13.875V16.6232ZM13.125 18.8732H12.375V17.3732H13.125V18.8732ZM16.875 5.37317H14.625V8.37317H16.875V5.37317ZM16.125 7.62317H15.375V6.12317H16.125V7.62317ZM5.625 7.62317H6.375V8.37317H5.625V7.62317ZM7.125 7.62317H7.875V8.37317H7.125V7.62317ZM8.625 7.62317H9.375V8.37317H8.625V7.62317ZM5.625 9.12317H6.375V9.87317H5.625V9.12317ZM7.125 9.12317H7.875V9.87317H7.125V9.12317ZM8.625 9.12317H9.375V9.87317H8.625V9.12317ZM7.125 10.6232H7.875V11.3732H7.125V10.6232ZM5.625 10.6232H6.375V11.3732H5.625V10.6232ZM8.625 10.6232H9.375V11.3732H8.625V10.6232ZM8.625 12.1232H9.375V12.8732H8.625V12.1232Z" fill="black"/>
</g>
<defs>
<clipPath id="clip0_236_1020">
<rect width="24" height="24" fill="white" transform="translate(0 0.498169)"/>
</clipPath>
</defs>
</svg>
