<svg width="24" height="25" viewBox="0 0 24 25" fill="none" xmlns="http://www.w3.org/2000/svg">
<g clip-path="url(#clip0_236_1009)">
<path d="M18.8368 13.9948L15.8049 12.1241C15.587 11.9896 15.2935 12.0605 15.1594 12.2768C15.0251 12.4936 15.0964 12.7887 15.3122 12.9218L18.3441 14.7926C18.5619 14.927 18.8552 14.8578 18.9891 14.6398C19.123 14.4218 19.0548 14.1292 18.8368 13.9948ZM13.9633 11.0698C13.6639 11.0697 13.4381 11.3547 13.5066 11.6461C13.5338 11.7622 13.6136 11.8676 13.7187 11.9342C13.7908 11.9799 13.8749 12.0073 13.9622 12.0073C14.1262 12.0073 14.2758 11.9244 14.3616 11.7847C14.5443 11.4873 14.3146 11.0698 13.9633 11.0698ZM9.10936 12.2526C8.97712 12.042 8.67225 11.9739 8.46286 12.1062L5.44926 14.0065C5.23247 14.1432 5.16633 14.4361 5.30287 14.6527C5.38495 14.7829 5.54334 14.8593 5.70014 14.8637C5.78836 14.8662 5.87606 14.8459 5.94942 14.7996L8.96301 12.8988C9.17976 12.7622 9.24557 12.4695 9.10936 12.2526ZM10.298 11.0337C10.0803 11.0337 9.88959 11.1867 9.84145 11.3988C9.77587 11.6876 10.0046 11.9712 10.299 11.9712C10.5162 11.9712 10.708 11.8182 10.756 11.606C10.8217 11.3154 10.5951 11.0337 10.298 11.0337Z" fill="black"/>
<path d="M23.885 21.5017C23.7151 21.3064 23.4191 21.2857 23.2237 21.4556C22.7239 21.8902 22.2613 22.3408 21.6055 22.522C20.8764 22.7235 20.1836 22.5645 19.5238 22.2346L21.965 14.021C21.9945 13.9216 21.9902 13.8153 21.9529 13.7186C21.9156 13.6219 21.8472 13.5403 21.7586 13.4866L19.5 12.118V8.12181C19.5 7.86297 19.2901 7.65306 19.0312 7.65306H18.0937V6.24681C18.0937 5.98797 17.8839 5.77807 17.625 5.77807H16.1484V4.37182C16.1484 4.11297 15.9386 3.90307 15.6797 3.90307H13.4062V0.621825C13.4062 0.362982 13.1964 0.153076 12.9375 0.153076H11.0625C10.8036 0.153076 10.5938 0.362982 10.5938 0.621825V3.90307H8.32032C8.06143 3.90307 7.85157 4.11297 7.85157 4.37182V5.77807H6.37501C6.11612 5.77807 5.90626 5.98797 5.90626 6.24681V7.65306H4.96876C4.70987 7.65306 4.50002 7.86297 4.50002 8.12181V12.118L2.24149 13.4865C2.15283 13.5402 2.08448 13.6218 2.04714 13.7185C2.0098 13.8152 2.00556 13.9216 2.0351 14.0209L4.47133 22.2178C4.42975 22.0779 3.67966 21.9858 3.54705 21.9686C2.18219 21.792 1.14434 22.4757 0.161181 23.3306C-0.034194 23.5004 -0.0548189 23.7965 0.115009 23.9918C0.277149 24.1783 0.578883 24.2096 0.776273 24.038C1.78915 23.1575 2.93107 22.4863 4.27122 23.1565C5.48359 23.7626 6.73853 24.0225 8.00129 23.358C9.01951 22.8221 10.0021 22.3593 11.1386 22.9004L12.3071 23.4568C13.3067 23.9329 14.448 23.9219 15.4383 23.4267C16.0485 23.1216 16.6687 22.7156 17.3657 22.6677C18.049 22.6207 18.7092 22.8751 19.3095 23.1755C20.1026 23.5721 21.031 23.6513 21.8826 23.4086C22.6671 23.1849 23.238 22.6853 23.8388 22.163C24.0342 21.9931 24.0548 21.6971 23.885 21.5017ZM18.5625 8.59056V11.55L13.6782 8.59056H18.5625ZM11.5313 1.09057H12.4688V3.90307H11.5313V1.09057ZM8.78907 4.84057H15.2109V5.77807H8.78907V4.84057ZM5.43751 8.59056H10.3218L5.43751 11.55V8.59056ZM11.5313 22.0491C11.5313 21.9658 10.863 21.8121 10.7756 21.7932C9.95982 21.6166 9.08401 21.7287 8.34441 22.118C7.80779 22.4004 7.29006 22.7299 6.67632 22.8089L6.67295 22.8094C6.31436 22.853 5.94733 22.8266 5.60026 22.7254L3.03682 14.1008L11.5313 8.95393V22.0491ZM6.84376 7.65306V6.71556H17.1562V7.65306H6.84376ZM18.6573 21.8589C18.6625 21.7139 17.3429 21.7152 17.2545 21.7245C16.4409 21.8106 15.737 22.2292 15.019 22.5883C14.1707 23.0124 13.2979 22.8905 12.4688 22.4954V8.95393L20.9632 14.1008L18.6573 21.8589Z" fill="black"/>
</g>
<defs>
<clipPath id="clip0_236_1009">
<rect width="24" height="24" fill="white" transform="translate(0 0.151855)"/>
</clipPath>
</defs>
</svg>
