<svg width="24" height="24" viewBox="0 0 24 24" fill="none" xmlns="http://www.w3.org/2000/svg">
<g clip-path="url(#clip0_236_1004)">
<path d="M4.065 10.8749H1.875C1.25475 10.8749 0.75 10.3702 0.75 9.74994C0.75 9.12969 1.25475 8.62494 1.875 8.62494C1.97446 8.62494 2.06984 8.58543 2.14016 8.51511C2.21049 8.44478 2.25 8.3494 2.25 8.24994C2.24914 7.83288 2.38796 7.42754 2.64434 7.09858C2.90071 6.76962 3.25986 6.53598 3.6645 6.43494C3.71326 6.42397 3.75933 6.40336 3.80001 6.37433C3.84069 6.3453 3.87516 6.30843 3.90138 6.26589C3.92761 6.22335 3.94507 6.176 3.95274 6.12661C3.9604 6.07723 3.95812 6.02681 3.94602 5.97832C3.93392 5.92983 3.91226 5.88424 3.88229 5.84425C3.85233 5.80425 3.81467 5.77065 3.77153 5.74541C3.72839 5.72018 3.68065 5.70382 3.6311 5.6973C3.58155 5.69078 3.5312 5.69423 3.483 5.70744C2.97268 5.83445 2.51254 6.11244 2.16271 6.50509C1.81288 6.89774 1.58963 7.38678 1.52213 7.90832C1.0941 7.99092 0.708149 8.21985 0.430434 8.55586C0.15272 8.89187 0.000545117 9.31402 0 9.74994C0 10.7838 0.841125 11.6249 1.875 11.6249H4.065C4.16446 11.6249 4.25984 11.5854 4.33016 11.5151C4.40049 11.4448 4.44 11.3494 4.44 11.2499C4.44 11.1505 4.40049 11.0551 4.33016 10.9848C4.25984 10.9145 4.16446 10.8749 4.065 10.8749Z" fill="black"/>
<path d="M19.8356 7.08598C19.8223 6.98953 19.772 6.90204 19.6954 6.842C19.6187 6.78196 19.5218 6.75409 19.4249 6.76427C19.3281 6.77445 19.239 6.82188 19.1766 6.89655C19.1141 6.97121 19.0831 7.06725 19.0901 7.16435C19.107 7.32898 19.1156 7.4996 19.1201 7.67585C17.898 8.17085 16.4887 8.04148 15.384 7.30535L15.3484 7.28173C15.198 4.80523 14.3359 2.52035 12.909 0.808475C14.194 0.972554 15.4097 1.48447 16.425 2.28898C16.5029 2.35074 16.6021 2.37903 16.7008 2.36764C16.7996 2.35625 16.8897 2.3061 16.9515 2.22823C17.0133 2.15035 17.0416 2.05113 17.0302 1.95239C17.0188 1.85366 16.9686 1.76349 16.8907 1.70173C15.3881 0.509225 13.4978 -0.0885249 11.5714 0.0112251C7.44525 0.2306 4.11 3.77098 4.12575 7.9091V7.91285L4.125 7.92973C4.14113 10.3556 5.28037 12.6112 7.16175 14.0779L8.15775 18.3937C8.07766 18.4131 8.00635 18.4587 7.95512 18.5232C7.9039 18.5878 7.8757 18.6676 7.875 18.75V20.25C7.875 20.3494 7.91451 20.4448 7.98483 20.5151C8.05516 20.5855 8.15054 20.625 8.25 20.625H8.66437L8.96513 23.3325C8.98528 23.5161 9.07252 23.6857 9.21011 23.8089C9.3477 23.9321 9.52594 24.0002 9.71063 24H14.2894C14.4741 24.0002 14.6524 23.9322 14.79 23.809C14.9276 23.6858 15.0148 23.5161 15.0349 23.3325L15.3356 20.625H15.75C15.8495 20.625 15.9448 20.5855 16.0152 20.5151C16.0855 20.4448 16.125 20.3494 16.125 20.25V18.75C16.1244 18.6676 16.0962 18.5877 16.045 18.5232C15.9937 18.4586 15.9224 18.4131 15.8422 18.3937L16.8375 14.0786C17.7768 13.3479 18.538 12.4136 19.0638 11.346C19.5897 10.2785 19.8664 9.10549 19.8731 7.91548V7.90873C19.8735 7.89748 19.8746 7.88623 19.8746 7.87498C19.8746 7.59635 19.8623 7.33798 19.8356 7.08598ZM13.1689 18.375H10.8311L10.5499 16.125H13.4501L13.1689 18.375ZM12 0.90935C13.512 2.51698 14.4326 4.7831 14.5961 7.2656C13.7795 7.63135 12.8948 7.82042 12 7.82042C11.1052 7.82042 10.2205 7.63135 9.40387 7.2656C9.56737 4.7831 10.4876 2.51698 12 0.90935ZM12 8.57923C12.8929 8.57923 13.785 8.40935 14.625 8.07523C14.6216 10.8619 13.6699 13.44 12 15.2156C10.3298 13.44 9.37838 10.8619 9.375 8.0756C10.2103 8.408 11.101 8.5789 12 8.57923ZM11.0846 0.8156C9.6615 2.5271 8.802 4.80898 8.65162 7.28173L8.61563 7.30535C7.51313 8.04035 6.1065 8.17123 4.88588 7.67848C4.98675 4.21123 7.67438 1.26148 11.0846 0.815975V0.8156ZM4.9035 8.4881C5.38463 8.64523 5.88487 8.7266 6.38475 8.7266C7.16025 8.7266 7.932 8.53648 8.62725 8.16748C8.64975 10.9312 9.55463 13.503 11.1416 15.375H10.2784L10.1839 15.2824C9.75825 14.8567 9.23962 14.4799 8.598 14.1307C7.56415 13.5684 6.68566 12.7588 6.04098 11.7741C5.3963 10.7895 5.00551 9.66057 4.9035 8.4881ZM8.2395 14.7889C8.817 15.1039 9.27938 15.4387 9.65625 15.8152L9.76912 15.9262L10.0751 18.375H8.9235L8.07337 14.6913C8.12887 14.7232 8.1825 14.7581 8.2395 14.7889ZM14.2894 23.25H9.71063L9.41888 20.625H14.5811L14.2894 23.25ZM15.375 19.875H8.625V19.125H15.375V19.875ZM15.0765 18.375H13.9249L14.2313 15.924L14.3453 15.81C14.7229 15.4357 15.1815 15.1042 15.7489 14.7971C15.8096 14.7641 15.867 14.727 15.9263 14.6929L15.0765 18.375ZM15.3911 14.1379C14.7611 14.4795 14.2459 14.8522 13.8161 15.2786L13.7197 15.375H12.8584C14.445 13.503 15.3503 10.9312 15.3727 8.16748C16.0634 8.53408 16.8333 8.72592 17.6152 8.72623C18.1147 8.72623 18.6143 8.64523 19.0954 8.4881C18.9935 9.66276 18.6018 10.7938 17.9553 11.7798C17.3088 12.7658 16.4277 13.5761 15.3911 14.1379Z" fill="black"/>
<path d="M22.275 1.938C22.0698 1.47263 21.7337 1.07704 21.3075 0.799492C20.8813 0.521946 20.3836 0.37445 19.875 0.375002C18.5438 0.375002 17.4401 1.37175 17.2721 2.65838C16.8441 2.74098 16.4581 2.96991 16.1804 3.30592C15.9027 3.64193 15.7505 4.06408 15.75 4.5C15.75 5.53388 16.5911 6.375 17.625 6.375H21.75C22.9909 6.375 24 5.36588 24 4.125C24 3.07763 23.2725 2.175 22.275 1.938ZM21.75 5.625H17.625C17.0048 5.625 16.5 5.12025 16.5 4.5C16.5 3.87975 17.0048 3.375 17.625 3.375C17.7245 3.375 17.8198 3.33549 17.8902 3.26517C17.9605 3.19484 18 3.09946 18 3C18 1.96613 18.8411 1.125 19.875 1.125C20.2653 1.12438 20.6461 1.246 20.9638 1.47278C21.2815 1.69957 21.5202 2.02013 21.6465 2.3895C21.6922 2.5245 21.8108 2.622 21.9525 2.64038C22.3299 2.69064 22.6741 2.88267 22.9151 3.17746C23.1561 3.47225 23.2758 3.84771 23.2501 4.2276C23.2243 4.60748 23.0549 4.96333 22.7763 5.22286C22.4977 5.4824 22.1308 5.62618 21.75 5.625Z" fill="black"/>
</g>
<defs>
<clipPath id="clip0_236_1004">
<rect width="24" height="24" fill="white"/>
</clipPath>
</defs>
</svg>
