<svg width="40" height="40" viewBox="0 0 40 40" fill="none" xmlns="http://www.w3.org/2000/svg">
<g clip-path="url(#clip0_32_1227)">
<path d="M0.499825 24.7899C0.434164 24.7898 0.369135 24.8027 0.308462 24.8278C0.247788 24.8529 0.192661 24.8897 0.146236 24.9362C0.0998113 24.9826 0.0630009 25.0377 0.0379121 25.0984C0.0128234 25.1591 -5.10343e-05 25.2241 2.60035e-05 25.2898C2.99147e-07 25.3554 0.0129133 25.4204 0.0380262 25.481C0.0631391 25.5416 0.0999592 25.5967 0.14638 25.6431C0.192801 25.6895 0.247912 25.7263 0.308559 25.7513C0.369207 25.7764 0.434201 25.7893 0.499825 25.7892H15.6973C15.7629 25.7892 15.8278 25.7763 15.8884 25.7512C15.949 25.7261 16.0041 25.6894 16.0505 25.643C16.0968 25.5966 16.1336 25.5415 16.1587 25.4809C16.1838 25.4203 16.1967 25.3554 16.1967 25.2898C16.1968 25.2242 16.1839 25.1592 16.1588 25.0985C16.1337 25.0379 16.097 24.9828 16.0506 24.9364C16.0042 24.89 15.9491 24.8532 15.8885 24.8281C15.8279 24.803 15.7629 24.7901 15.6973 24.7901H12.1392C12.281 21.944 14.6339 19.6703 17.5143 19.6703C20.3511 19.6703 22.6774 21.875 22.8829 24.6604C21.133 24.8941 19.7472 26.2852 19.5222 28.0382H13.9116C13.846 28.0382 13.7811 28.0511 13.7205 28.0762C13.6599 28.1013 13.6048 28.1381 13.5584 28.1845C13.5121 28.2308 13.4753 28.2859 13.4502 28.3465C13.4251 28.4071 13.4122 28.4721 13.4122 28.5376C13.4122 28.6033 13.425 28.6682 13.4501 28.7289C13.4752 28.7895 13.5119 28.8446 13.5583 28.891C13.6047 28.9374 13.6598 28.9742 13.7204 28.9994C13.781 29.0245 13.846 29.0374 13.9116 29.0373H19.9867C20.0523 29.0374 20.1173 29.0245 20.178 28.9994C20.2386 28.9743 20.2937 28.9375 20.3401 28.891C20.3866 28.8446 20.4234 28.7895 20.4485 28.7289C20.4736 28.6683 20.4865 28.6033 20.4865 28.5376C20.4865 26.9292 21.7946 25.6211 23.403 25.6211C25.0114 25.6211 26.3199 26.9291 26.3199 28.5376C26.3199 28.6033 26.3328 28.6683 26.3579 28.7289C26.383 28.7896 26.4198 28.8447 26.4662 28.8911C26.5126 28.9375 26.5677 28.9743 26.6283 28.9994C26.689 29.0245 26.754 29.0374 26.8196 29.0373H39.4876C39.5533 29.0374 39.6183 29.0245 39.6789 28.9994C39.7396 28.9743 39.7947 28.9375 39.8411 28.8911C39.8875 28.8447 39.9243 28.7896 39.9494 28.7289C39.9745 28.6683 39.9874 28.6033 39.9873 28.5376C39.9874 28.472 39.9745 28.407 39.9494 28.3464C39.9243 28.2858 39.8875 28.2307 39.8411 28.1843C39.7946 28.1379 39.7395 28.1011 39.6789 28.076C39.6183 28.0509 39.5533 28.0381 39.4876 28.0381H38.0697C38.0572 25.8857 36.4971 24.0965 34.4476 23.7226V14.4916L39.1335 19.1999C39.2272 19.2926 39.3537 19.3445 39.4855 19.3444C39.6173 19.3442 39.7438 19.292 39.8372 19.1991C39.9307 19.1061 39.9837 18.98 39.9846 18.8482C39.9856 18.7164 39.9344 18.5896 39.8422 18.4953L34.4476 13.0744V9.55095L39.1335 14.2597C39.3275 14.4549 39.6447 14.4563 39.8399 14.2616C39.8865 14.2154 39.9235 14.1604 39.9488 14.0998C39.9741 14.0393 39.9873 13.9743 39.9875 13.9086C39.9877 13.843 39.975 13.778 39.9501 13.7172C39.9251 13.6565 39.8885 13.6013 39.8422 13.5547L34.4476 8.13412V4.61123L39.1335 9.31955C39.3275 9.51474 39.6447 9.51631 39.8399 9.3215C39.8864 9.27528 39.9234 9.22035 39.9487 9.15982C39.9741 9.0993 39.9872 9.03438 39.9874 8.96878C39.9876 8.90318 39.9749 8.83817 39.95 8.77748C39.9251 8.71679 39.8885 8.66161 39.8422 8.61509L34.3024 3.0481C34.2559 3.00143 34.2007 2.96438 34.1399 2.93908C34.0791 2.91377 34.0139 2.90071 33.9481 2.90063C33.8822 2.90075 33.817 2.91384 33.7562 2.93916C33.6954 2.96448 33.6401 3.00153 33.5936 3.0482L28.0538 8.61509C28.0074 8.66157 27.9708 8.71672 27.9458 8.7774C27.9208 8.83808 27.908 8.90308 27.9082 8.9687C27.9084 9.03431 27.9215 9.09925 27.9468 9.15979C27.9721 9.22033 28.0091 9.27528 28.0557 9.3215C28.1019 9.36781 28.1569 9.40451 28.2173 9.4295C28.2778 9.4545 28.3426 9.46728 28.408 9.46712C28.4739 9.4672 28.5391 9.4542 28.5999 9.42887C28.6607 9.40353 28.7158 9.36637 28.7621 9.31955L33.4484 4.61123V8.13393L28.0538 13.5548C28.0074 13.6013 27.9707 13.6565 27.9458 13.7172C27.9208 13.7779 27.908 13.843 27.9082 13.9086C27.9084 13.9743 27.9215 14.0392 27.9468 14.0998C27.9721 14.1604 28.0091 14.2154 28.0557 14.2616C28.102 14.3079 28.1569 14.3445 28.2174 14.3694C28.2778 14.3944 28.3426 14.4071 28.408 14.4068C28.4738 14.4069 28.539 14.394 28.5998 14.3687C28.6606 14.3435 28.7157 14.3064 28.7621 14.2598L33.4484 9.55105V13.0744L28.0538 18.4953C28.0074 18.5418 27.9707 18.597 27.9458 18.6577C27.9208 18.7184 27.908 18.7835 27.9082 18.8491C27.9084 18.9148 27.9215 18.9797 27.9468 19.0403C27.9721 19.1009 28.0091 19.1559 28.0557 19.2021C28.102 19.2483 28.157 19.2849 28.2174 19.3098C28.2779 19.3347 28.3426 19.3475 28.408 19.3473C28.4739 19.3474 28.5391 19.3344 28.5999 19.3091C28.6607 19.2838 28.7158 19.2467 28.7621 19.1999L33.4484 14.4916V23.6574C31.1171 23.7652 29.2513 25.6836 29.2375 28.0381H27.2836C27.0572 26.2715 25.6516 24.8712 23.8823 24.6539C23.6821 21.4869 21.1689 18.9425 18.0142 18.6963V11.4633L22.96 16.4332C23.0064 16.4799 23.0616 16.5169 23.1224 16.5422C23.1832 16.5674 23.2484 16.5804 23.3142 16.5803C23.3796 16.5806 23.4444 16.5679 23.5049 16.5429C23.5654 16.518 23.6203 16.4814 23.6665 16.4351C23.7131 16.3889 23.7501 16.3339 23.7754 16.2734C23.8007 16.2129 23.8139 16.1479 23.8141 16.0823C23.8143 16.0167 23.8016 15.9517 23.7766 15.891C23.7517 15.8303 23.7151 15.7751 23.6688 15.7286L18.0142 10.0467V6.6279L22.96 11.5974C23.0064 11.6442 23.0615 11.6813 23.1223 11.7067C23.1831 11.732 23.2483 11.745 23.3142 11.745C23.3796 11.7451 23.4445 11.7323 23.5049 11.7073C23.5654 11.6823 23.6203 11.6456 23.6665 11.5993C23.7131 11.5531 23.7501 11.4982 23.7754 11.4376C23.8007 11.3771 23.8139 11.3122 23.8141 11.2465C23.8143 11.1809 23.8016 11.1159 23.7766 11.0552C23.7517 10.9945 23.7151 10.9393 23.6688 10.8928L18.0141 5.21097V1.79309L22.9599 6.76258C23.0062 6.80913 23.0611 6.84611 23.1217 6.8714C23.1822 6.89669 23.2471 6.9098 23.3127 6.90998C23.3783 6.91017 23.4433 6.89741 23.504 6.87246C23.5647 6.8475 23.6198 6.81082 23.6663 6.76453C23.7129 6.71832 23.7499 6.66337 23.7753 6.60284C23.8006 6.54231 23.8137 6.47738 23.8139 6.41176C23.8142 6.34615 23.8014 6.28113 23.7765 6.22044C23.7516 6.15974 23.715 6.10455 23.6687 6.05802L17.8688 0.229966C17.8688 0.229966 17.8684 0.229966 17.8684 0.229576C17.8221 0.182852 17.7669 0.145787 17.7061 0.120525C17.6453 0.0952624 17.5801 0.0823036 17.5143 0.082398C17.4485 0.0823391 17.3834 0.0953156 17.3226 0.120577C17.2619 0.145839 17.2068 0.182886 17.1605 0.229576C17.1605 0.229966 17.1601 0.229966 17.1601 0.229966L11.3602 6.05793C11.314 6.10445 11.2773 6.15964 11.2524 6.22034C11.2275 6.28104 11.2147 6.34605 11.215 6.41167C11.2152 6.47728 11.2283 6.54221 11.2537 6.60274C11.279 6.66327 11.316 6.71822 11.3626 6.76444C11.5578 6.95963 11.875 6.95807 12.069 6.76248L17.0148 1.793V5.21087L11.3602 10.8928C11.314 10.9394 11.2773 10.9945 11.2524 11.0552C11.2275 11.1159 11.2147 11.181 11.215 11.2466C11.2152 11.3122 11.2283 11.3771 11.2537 11.4376C11.279 11.4982 11.316 11.5531 11.3626 11.5993C11.5578 11.7945 11.875 11.7934 12.069 11.5974L17.0148 6.6279V10.0466L11.3602 15.7285C11.314 15.775 11.2773 15.8302 11.2524 15.8909C11.2275 15.9516 11.2147 16.0166 11.215 16.0822C11.2152 16.1479 11.2283 16.2128 11.2537 16.2733C11.279 16.3339 11.316 16.3888 11.3626 16.435C11.5578 16.6302 11.875 16.6287 12.069 16.4331L17.0148 11.4632V18.6962C13.8151 18.9458 11.2756 21.56 11.1399 24.7899H5.54593V17.7846L9.23864 21.4956C9.28506 21.5423 9.34026 21.5793 9.40107 21.6046C9.46187 21.6298 9.52708 21.6428 9.59292 21.6427C9.69165 21.6428 9.78818 21.6136 9.87033 21.5588C9.95247 21.5041 10.0166 21.4262 10.0545 21.335C10.0924 21.2439 10.1025 21.1435 10.0835 21.0467C10.0644 20.9498 10.0171 20.8607 9.94749 20.7907L5.54593 16.3679V13.6244L9.23864 17.3356C9.28506 17.3823 9.34026 17.4193 9.40107 17.4446C9.46187 17.4698 9.52708 17.4828 9.59292 17.4827C9.69165 17.4828 9.78818 17.4536 9.87033 17.3988C9.95247 17.344 10.0166 17.2662 10.0545 17.175C10.0924 17.0839 10.1025 16.9835 10.0835 16.8867C10.0644 16.7898 10.0171 16.7007 9.94749 16.6307L5.54583 12.2078V9.46429L9.23854 13.1753C9.28496 13.222 9.34016 13.2591 9.40097 13.2844C9.46178 13.3096 9.52698 13.3226 9.59282 13.3225C9.69155 13.3226 9.78808 13.2934 9.87023 13.2386C9.95238 13.1838 10.0165 13.106 10.0544 13.0148C10.0923 12.9237 10.1024 12.8233 10.0834 12.7264C10.0643 12.6296 10.017 12.5405 9.9474 12.4705L5.4006 7.90165C5.21302 7.71328 4.87943 7.71328 4.69185 7.90165L0.145252 12.4705C0.0989856 12.5171 0.0623451 12.5723 0.0374229 12.633C0.0125007 12.6937 -0.000214774 12.7587 2.74423e-06 12.8244C0.000220262 12.89 0.0133665 12.955 0.0386906 13.0155C0.0640147 13.0761 0.10102 13.131 0.147594 13.1773C0.194073 13.2236 0.24923 13.2603 0.309907 13.2853C0.370584 13.3103 0.435591 13.323 0.501206 13.3228C0.56682 13.3227 0.631755 13.3095 0.692294 13.2842C0.752832 13.2589 0.807785 13.2219 0.854007 13.1753L4.54672 9.46438V12.2079L0.145252 16.6305C0.0989856 16.6771 0.0623451 16.7323 0.0374229 16.793C0.0125007 16.8537 -0.000214774 16.9188 2.74423e-06 16.9844C0.000220262 17.05 0.0133665 17.115 0.0386906 17.1755C0.0640147 17.2361 0.10102 17.2911 0.147594 17.3373C0.194073 17.3836 0.24923 17.4203 0.309907 17.4453C0.370584 17.4703 0.435591 17.483 0.501206 17.4828C0.56682 17.4827 0.631755 17.4695 0.692294 17.4442C0.752832 17.4189 0.807785 17.3819 0.854007 17.3354L4.54672 13.6244V16.3679L0.145252 20.7906C0.0989856 20.8372 0.0623451 20.8924 0.0374229 20.9531C0.0125007 21.0138 -0.000214774 21.0789 2.74423e-06 21.1445C0.000220262 21.2101 0.0133665 21.2751 0.0386906 21.3356C0.0640147 21.3962 0.10102 21.4512 0.147594 21.4974C0.194073 21.5437 0.24923 21.5804 0.309907 21.6054C0.370584 21.6304 0.435591 21.6431 0.501206 21.643C0.56682 21.6428 0.631755 21.6297 0.692294 21.6043C0.752832 21.579 0.807785 21.542 0.854007 21.4955L4.54672 17.7845V24.7898L0.499825 24.7899ZM33.6533 24.6465C35.5295 24.6465 37.056 26.1654 37.0704 28.038H30.2366C30.2512 26.1654 31.7777 24.6465 33.6533 24.6465ZM0.561214 32.2855H1.31077C1.3764 32.2855 1.44139 32.2726 1.50203 32.2475C1.56267 32.2224 1.61777 32.1856 1.66417 32.1391C1.71058 32.0927 1.74738 32.0376 1.77248 31.977C1.79759 31.9163 1.81049 31.8513 1.81047 31.7857C1.81053 31.7201 1.79765 31.655 1.77256 31.5944C1.74747 31.5337 1.71067 31.4786 1.66426 31.4322C1.61784 31.3858 1.56273 31.3489 1.50208 31.3238C1.44142 31.2987 1.37641 31.2859 1.31077 31.2859H0.561214C0.428659 31.2859 0.301533 31.3386 0.207803 31.4323C0.114072 31.526 0.0614151 31.6531 0.0614151 31.7857C0.0614151 31.9183 0.114072 32.0454 0.207803 32.1391C0.301533 32.2328 0.428659 32.2855 0.561214 32.2855ZM15.0469 32.2855C15.1125 32.2855 15.1775 32.2725 15.2381 32.2474C15.2987 32.2223 15.3538 32.1855 15.4001 32.1391C15.4465 32.0926 15.4833 32.0375 15.5084 31.9769C15.5334 31.9163 15.5463 31.8513 15.5463 31.7857C15.5464 31.7201 15.5335 31.6551 15.5084 31.5944C15.4834 31.5338 15.4466 31.4787 15.4002 31.4323C15.3538 31.3858 15.2987 31.349 15.2381 31.3239C15.1775 31.2988 15.1125 31.2859 15.0469 31.2859H13.5749C13.4424 31.2859 13.3152 31.3386 13.2215 31.4323C13.1278 31.526 13.0751 31.6531 13.0751 31.7857C13.0751 31.9183 13.1278 32.0454 13.2215 32.1391C13.3152 32.2328 13.4424 32.2855 13.5749 32.2855H15.0469ZM12.3096 38.4334C12.3095 38.499 12.3224 38.5641 12.3475 38.6247C12.3726 38.6854 12.4094 38.7405 12.4558 38.7869C12.5022 38.8334 12.5573 38.8702 12.618 38.8953C12.6787 38.9204 12.7437 38.9332 12.8094 38.9332H14.2809C14.3466 38.9332 14.4116 38.9204 14.4723 38.8953C14.5329 38.8702 14.588 38.8334 14.6345 38.787C14.6809 38.7406 14.7177 38.6854 14.7428 38.6248C14.7679 38.5641 14.7808 38.4991 14.7807 38.4335C14.7808 38.3679 14.7679 38.3029 14.7428 38.2422C14.7177 38.1816 14.6809 38.1265 14.6345 38.0801C14.588 38.0337 14.5329 37.9969 14.4723 37.9719C14.4117 37.9468 14.3467 37.9339 14.281 37.934H12.8094C12.7437 37.9339 12.6787 37.9468 12.6181 37.9718C12.5574 37.9969 12.5023 38.0337 12.4559 38.0801C12.4095 38.1264 12.3727 38.1815 12.3476 38.2421C12.3224 38.3028 12.3095 38.3678 12.3096 38.4334ZM19.1776 38.4334C19.1775 38.499 19.1904 38.564 19.2155 38.6246C19.2405 38.6853 19.2773 38.7404 19.3237 38.7868C19.3701 38.8332 19.4252 38.8701 19.4858 38.8952C19.5464 38.9203 19.6114 38.9332 19.677 38.9332H21.149C21.2815 38.9332 21.4086 38.8805 21.5023 38.7869C21.596 38.6932 21.6486 38.5661 21.6486 38.4336C21.6486 38.3011 21.596 38.174 21.5023 38.0803C21.4086 37.9866 21.2815 37.934 21.149 37.934H19.677C19.6114 37.934 19.5465 37.9468 19.4859 37.9719C19.4253 37.997 19.3702 38.0338 19.3238 38.0802C19.2775 38.1266 19.2407 38.1816 19.2156 38.2422C19.1905 38.3028 19.1776 38.3678 19.1776 38.4334ZM39.43 34.2603C39.3647 34.2671 39.3014 34.2866 39.2437 34.3179C39.186 34.3492 39.135 34.3915 39.0937 34.4425C39.0524 34.4935 39.0216 34.5522 39.003 34.6151C38.9844 34.678 38.9784 34.744 38.9854 34.8093C38.9958 34.9073 39.001 35.0068 39.0006 35.1093C39.0006 35.4288 38.9473 35.7426 38.8428 36.0418C38.7992 36.1671 38.8071 36.3045 38.8647 36.424C38.9223 36.5434 39.025 36.6351 39.1501 36.679C39.2031 36.6971 39.2588 36.7063 39.3148 36.7063C39.4185 36.7064 39.5196 36.6742 39.6042 36.6142C39.6887 36.5543 39.7526 36.4695 39.7868 36.3716C39.9282 35.9665 40.0002 35.5404 39.9999 35.1113C40.0007 34.9736 39.9931 34.838 39.979 34.7049C39.9504 34.43 39.7026 34.2295 39.43 34.2603ZM5.44228 38.4334C5.4422 38.499 5.45506 38.564 5.48013 38.6246C5.5052 38.6853 5.54197 38.7404 5.58836 38.7868C5.63474 38.8332 5.68982 38.8701 5.75045 38.8952C5.81108 38.9203 5.87606 38.9332 5.94169 38.9332H7.41288C7.47852 38.9332 7.54354 38.9204 7.6042 38.8953C7.66486 38.8702 7.71997 38.8334 7.7664 38.787C7.81282 38.7406 7.84963 38.6854 7.87473 38.6248C7.89984 38.5641 7.91273 38.4991 7.91268 38.4335C7.91271 38.3679 7.89982 38.3029 7.87471 38.2422C7.84961 38.1816 7.8128 38.1265 7.76639 38.0801C7.71998 38.0337 7.66488 37.9969 7.60423 37.9719C7.54359 37.9468 7.4786 37.9339 7.41298 37.934H5.94159C5.876 37.934 5.81105 37.9468 5.75044 37.9719C5.68984 37.997 5.63478 38.0338 5.5884 38.0802C5.54202 38.1266 5.50523 38.1816 5.48014 38.2422C5.45506 38.3028 5.44225 38.3678 5.44228 38.4334ZM15.7434 38.4334C15.7434 38.499 15.7563 38.564 15.7814 38.6247C15.8065 38.6853 15.8433 38.7404 15.8897 38.7868C15.9361 38.8332 15.9912 38.87 16.0519 38.8952C16.1125 38.9203 16.1775 38.9332 16.2431 38.9332H17.7152C17.7808 38.9332 17.8458 38.9203 17.9064 38.8952C17.967 38.8701 18.0221 38.8333 18.0685 38.7869C18.1149 38.7405 18.1517 38.6854 18.1767 38.6247C18.2018 38.5641 18.2147 38.4991 18.2146 38.4335C18.2147 38.3679 18.2018 38.3029 18.1767 38.2423C18.1516 38.1817 18.1148 38.1266 18.0684 38.0802C18.0221 38.0338 17.967 37.997 17.9064 37.972C17.8458 37.9469 17.7808 37.934 17.7152 37.934H16.2432C16.1776 37.9339 16.1127 37.9468 16.052 37.9719C15.9914 37.997 15.9363 38.0338 15.8899 38.0801C15.8435 38.1265 15.8066 38.1816 15.7815 38.2422C15.7564 38.3028 15.7435 38.3678 15.7434 38.4334ZM8.17873 32.2855C8.31128 32.2855 8.43841 32.2328 8.53214 32.1391C8.62587 32.0454 8.67853 31.9183 8.67853 31.7857C8.67853 31.6531 8.62587 31.526 8.53214 31.4323C8.43841 31.3386 8.31128 31.2859 8.17873 31.2859H6.70695C6.64134 31.2859 6.57636 31.2988 6.51574 31.3239C6.45512 31.349 6.40004 31.3858 6.35366 31.4322C6.30727 31.4786 6.27049 31.5337 6.24542 31.5944C6.22035 31.655 6.20748 31.72 6.20754 31.7856C6.20749 31.8512 6.22037 31.9162 6.24545 31.9769C6.27052 32.0375 6.3073 32.0926 6.35367 32.139C6.40005 32.1854 6.45512 32.2223 6.51574 32.2474C6.57636 32.2725 6.64133 32.2855 6.70695 32.2855H8.17873ZM3.27297 32.2855H4.74455C4.81019 32.2855 4.8752 32.2726 4.93585 32.2475C4.9965 32.2224 5.0516 32.1856 5.09802 32.1392C5.14444 32.0928 5.18125 32.0376 5.20636 31.977C5.23147 31.9163 5.24438 31.8513 5.24435 31.7857C5.24441 31.7201 5.23153 31.655 5.20645 31.5944C5.18136 31.5337 5.14455 31.4786 5.09814 31.4322C5.05173 31.3858 4.99662 31.3489 4.93596 31.3238C4.8753 31.2987 4.81029 31.2859 4.74465 31.2859H3.27287C3.20724 31.2859 3.14224 31.2987 3.08159 31.3238C3.02094 31.3489 2.96583 31.3857 2.91942 31.4321C2.873 31.4786 2.8362 31.5337 2.81111 31.5943C2.78601 31.655 2.77312 31.72 2.77317 31.7856C2.77313 31.8512 2.78603 31.9163 2.81113 31.9769C2.83622 32.0376 2.87303 32.0927 2.91943 32.1391C2.96584 32.1855 3.02094 32.2224 3.08159 32.2475C3.14223 32.2726 3.20733 32.2855 3.27297 32.2855ZM18.4804 32.2855C18.546 32.2855 18.611 32.2725 18.6716 32.2474C18.7322 32.2223 18.7872 32.1855 18.8336 32.1391C18.88 32.0926 18.9168 32.0375 18.9419 31.9769C18.9669 31.9163 18.9798 31.8513 18.9798 31.7857C18.9799 31.7201 18.967 31.6551 18.9419 31.5944C18.9169 31.5338 18.8801 31.4787 18.8337 31.4323C18.7873 31.3858 18.7322 31.349 18.6716 31.3239C18.611 31.2988 18.546 31.2859 18.4804 31.2859H17.0087C16.9431 31.2859 16.8781 31.2988 16.8175 31.3239C16.7569 31.349 16.7018 31.3858 16.6554 31.4322C16.609 31.4786 16.5722 31.5337 16.5472 31.5944C16.5221 31.655 16.5092 31.72 16.5093 31.7856C16.5092 31.8512 16.5221 31.9162 16.5472 31.9769C16.5723 32.0375 16.609 32.0926 16.6554 32.139C16.7018 32.1854 16.7569 32.2223 16.8175 32.2474C16.8781 32.2725 16.9431 32.2855 17.0087 32.2855H18.4804ZM11.6126 32.2855C11.6783 32.2855 11.7433 32.2726 11.8039 32.2475C11.8646 32.2224 11.9197 32.1856 11.9661 32.1392C12.0125 32.0928 12.0493 32.0376 12.0744 31.977C12.0995 31.9163 12.1124 31.8513 12.1124 31.7857C12.1125 31.7201 12.0996 31.655 12.0745 31.5944C12.0494 31.5337 12.0126 31.4786 11.9662 31.4322C11.9198 31.3858 11.8647 31.3489 11.804 31.3238C11.7434 31.2987 11.6784 31.2859 11.6127 31.2859H10.141C10.0754 31.2859 10.0104 31.2987 9.94974 31.3238C9.88909 31.3489 9.83399 31.3857 9.78757 31.4321C9.74116 31.4786 9.70436 31.5337 9.67926 31.5943C9.65417 31.655 9.64128 31.72 9.64133 31.7856C9.64129 31.8512 9.65419 31.9163 9.67929 31.9769C9.70438 32.0376 9.74119 32.0927 9.78759 32.1391C9.834 32.1855 9.8891 32.2224 9.94974 32.2475C10.0104 32.2726 10.0754 32.2855 10.141 32.2855H11.6126ZM26.0453 38.4334C26.0453 38.499 26.0582 38.564 26.0833 38.6247C26.1084 38.6853 26.1452 38.7404 26.1916 38.7869C26.238 38.8333 26.2931 38.8701 26.3538 38.8952C26.4144 38.9203 26.4794 38.9332 26.5451 38.9332H28.0171C28.0827 38.9332 28.1477 38.9203 28.2083 38.8952C28.2689 38.8701 28.324 38.8333 28.3704 38.7869C28.4168 38.7405 28.4536 38.6854 28.4787 38.6247C28.5038 38.5641 28.5166 38.4991 28.5166 38.4335C28.5166 38.3679 28.5037 38.3029 28.4786 38.2423C28.4535 38.1817 28.4167 38.1266 28.3703 38.0802C28.324 38.0338 28.2689 37.997 28.2083 37.9719C28.1476 37.9468 28.0827 37.9339 28.0171 37.934H26.5451C26.4795 37.934 26.4145 37.9468 26.3539 37.9719C26.2933 37.997 26.2382 38.0338 26.1918 38.0802C26.1454 38.1265 26.1086 38.1816 26.0835 38.2422C26.0583 38.3028 26.0454 38.3678 26.0454 38.4334H26.0453ZM32.9134 38.4334C32.9133 38.499 32.9262 38.5641 32.9513 38.6247C32.9764 38.6854 33.0132 38.7405 33.0596 38.7869C33.106 38.8334 33.1611 38.8702 33.2218 38.8953C33.2825 38.9204 33.3475 38.9332 33.4132 38.9332H34.8848C34.9505 38.9332 35.0155 38.9203 35.0761 38.8953C35.1368 38.8702 35.1919 38.8334 35.2383 38.7869C35.2847 38.7405 35.3215 38.6854 35.3466 38.6248C35.3717 38.5641 35.3846 38.4991 35.3845 38.4335C35.3846 38.3679 35.3717 38.3029 35.3466 38.2422C35.3215 38.1816 35.2847 38.1265 35.2382 38.0801C35.1918 38.0337 35.1367 37.9969 35.0761 37.9719C35.0154 37.9468 34.9505 37.9339 34.8848 37.934H33.4132C33.3475 37.9339 33.2826 37.9468 33.2219 37.9719C33.1613 37.9969 33.1062 38.0337 33.0598 38.0801C33.0134 38.1265 32.9765 38.1815 32.9514 38.2422C32.9263 38.3028 32.9133 38.3678 32.9134 38.4334ZM32.2161 32.2855C32.2817 32.2855 32.3467 32.2726 32.4074 32.2475C32.468 32.2224 32.5231 32.1856 32.5695 32.1391C32.6159 32.0927 32.6527 32.0376 32.6778 31.977C32.7029 31.9163 32.7158 31.8513 32.7158 31.7857C32.7159 31.7201 32.703 31.655 32.6779 31.5944C32.6528 31.5337 32.616 31.4786 32.5696 31.4322C32.5232 31.3858 32.4681 31.3489 32.4074 31.3238C32.3468 31.2987 32.2818 31.2859 32.2161 31.2859H30.7445C30.6789 31.2858 30.6139 31.2987 30.5532 31.3238C30.4926 31.3489 30.4374 31.3857 30.391 31.4321C30.3446 31.4785 30.3078 31.5336 30.2827 31.5943C30.2576 31.6549 30.2447 31.72 30.2447 31.7856C30.2447 31.8512 30.2576 31.9163 30.2827 31.9769C30.3078 32.0376 30.3446 32.0927 30.391 32.1391C30.4374 32.1855 30.4925 32.2224 30.5531 32.2475C30.6138 32.2726 30.6788 32.2855 30.7444 32.2855H32.2161ZM8.87568 38.4334C8.8756 38.499 8.88846 38.564 8.91354 38.6247C8.93861 38.6853 8.97539 38.7404 9.02179 38.7869C9.06818 38.8333 9.12328 38.8701 9.18392 38.8952C9.24455 38.9203 9.30955 38.9332 9.37518 38.9332H10.8472C10.9797 38.9332 11.1067 38.8805 11.2004 38.7869C11.2941 38.6932 11.3468 38.5661 11.3468 38.4336C11.3468 38.3011 11.2941 38.174 11.2004 38.0803C11.1067 37.9866 10.9797 37.934 10.8472 37.934H9.37518C9.30958 37.9339 9.24462 37.9468 9.184 37.9719C9.12339 37.997 9.06832 38.0338 9.02192 38.0802C8.97554 38.1265 8.93874 38.1816 8.91365 38.2422C8.88855 38.3028 8.87565 38.3678 8.87568 38.4334ZM29.4795 38.4334C29.4794 38.499 29.4923 38.5641 29.5174 38.6247C29.5425 38.6854 29.5793 38.7406 29.6257 38.787C29.6722 38.8334 29.7273 38.8702 29.788 38.8953C29.8487 38.9204 29.9137 38.9333 29.9794 38.9332H31.4509C31.5834 38.9332 31.7105 38.8805 31.8042 38.7869C31.8979 38.6932 31.9505 38.5661 31.9505 38.4336C31.9505 38.3011 31.8979 38.174 31.8042 38.0803C31.7105 37.9866 31.5834 37.934 31.4509 37.934H29.9794C29.9137 37.9339 29.8487 37.9468 29.7881 37.9718C29.7275 37.9969 29.6723 38.0337 29.6259 38.0801C29.5795 38.1264 29.5427 38.1815 29.5176 38.2421C29.4925 38.3028 29.4795 38.3678 29.4796 38.4334H29.4795ZM28.7822 32.2855C28.8478 32.2855 28.9128 32.2725 28.9734 32.2474C29.034 32.2223 29.0891 32.1855 29.1355 32.1391C29.1819 32.0926 29.2186 32.0375 29.2437 31.9769C29.2688 31.9163 29.2817 31.8513 29.2816 31.7857C29.2817 31.7201 29.2689 31.6551 29.2438 31.5944C29.2187 31.5338 29.1819 31.4787 29.1356 31.4323C29.0892 31.3858 29.0341 31.349 28.9735 31.3239C28.9128 31.2988 28.8479 31.2859 28.7822 31.2859H27.3103C27.1777 31.2859 27.0506 31.3386 26.9568 31.4323C26.8631 31.526 26.8105 31.6531 26.8105 31.7857C26.8105 31.9183 26.8631 32.0454 26.9568 32.1391C27.0506 32.2328 27.1777 32.2855 27.3103 32.2855H28.7822ZM25.3481 32.2855C25.4137 32.2855 25.4787 32.2726 25.5393 32.2475C25.6 32.2224 25.6551 32.1856 25.7015 32.1391C25.7479 32.0927 25.7847 32.0376 25.8098 31.977C25.8349 31.9163 25.8478 31.8513 25.8478 31.7857C25.8478 31.7201 25.8349 31.655 25.8098 31.5944C25.7848 31.5337 25.748 31.4786 25.7015 31.4322C25.6551 31.3858 25.6 31.3489 25.5394 31.3238C25.4787 31.2987 25.4137 31.2859 25.3481 31.2859H23.8764C23.8107 31.2858 23.7457 31.2987 23.6851 31.3238C23.6244 31.3489 23.5693 31.3857 23.5229 31.4321C23.4764 31.4785 23.4396 31.5336 23.4145 31.5943C23.3894 31.6549 23.3765 31.72 23.3766 31.7856C23.3765 31.8512 23.3894 31.9163 23.4145 31.9769C23.4396 32.0376 23.4764 32.0927 23.5228 32.1391C23.5692 32.1855 23.6243 32.2224 23.685 32.2475C23.7456 32.2726 23.8106 32.2855 23.8763 32.2855H25.3481ZM21.9142 32.2855C22.0467 32.2855 22.1738 32.2328 22.2676 32.1391C22.3613 32.0454 22.414 31.9183 22.414 31.7857C22.414 31.6531 22.3613 31.526 22.2676 31.4323C22.1738 31.3386 22.0467 31.2859 21.9142 31.2859H20.443C20.3773 31.2858 20.3123 31.2987 20.2517 31.3238C20.191 31.3489 20.1359 31.3857 20.0895 31.4321C20.043 31.4785 20.0062 31.5336 19.9811 31.5943C19.956 31.6549 19.9431 31.72 19.9432 31.7856C19.9431 31.8512 19.956 31.9163 19.9811 31.9769C20.0062 32.0376 20.043 32.0927 20.0894 32.1391C20.1358 32.1855 20.1909 32.2224 20.2516 32.2475C20.3122 32.2726 20.3772 32.2855 20.4429 32.2855H21.9142ZM39.1104 32.6572C38.7463 32.2234 38.2913 31.8748 37.7776 31.6363C37.6573 31.5808 37.5198 31.5755 37.3955 31.6213C37.2711 31.6672 37.1701 31.7606 37.1146 31.881C37.0871 31.9405 37.0716 32.0049 37.069 32.0705C37.0663 32.1361 37.0767 32.2015 37.0994 32.2631C37.1221 32.3247 37.1567 32.3812 37.2012 32.4294C37.2458 32.4776 37.2994 32.5165 37.359 32.5439C37.7386 32.72 38.0747 32.9776 38.3434 33.2984C38.3904 33.3546 38.4491 33.3997 38.5154 33.4307C38.5818 33.4617 38.6541 33.4777 38.7274 33.4777C38.8444 33.4776 38.9577 33.4365 39.0475 33.3613C39.149 33.2762 39.2126 33.1543 39.2244 33.0223C39.2362 32.8903 39.1952 32.7591 39.1104 32.6572ZM35.6499 32.2855C35.7155 32.2855 35.7806 32.2726 35.8412 32.2475C35.9019 32.2224 35.957 32.1856 36.0034 32.1392C36.0499 32.0928 36.0867 32.0377 36.1118 31.977C36.1369 31.9164 36.1498 31.8514 36.1498 31.7857C36.1499 31.72 36.137 31.655 36.1119 31.5943C36.0868 31.5337 36.0499 31.4785 36.0035 31.4321C35.9571 31.3857 35.9019 31.3489 35.8413 31.3238C35.7806 31.2987 35.7156 31.2858 35.6499 31.2859H34.1783C34.1127 31.2859 34.0477 31.2987 33.987 31.3238C33.9264 31.3489 33.8713 31.3857 33.8249 31.4321C33.7784 31.4786 33.7416 31.5337 33.7165 31.5943C33.6915 31.655 33.6786 31.72 33.6786 31.7856C33.6786 31.8512 33.6915 31.9163 33.7166 31.9769C33.7417 32.0376 33.7785 32.0927 33.8249 32.1391C33.8713 32.1855 33.9264 32.2224 33.987 32.2475C34.0477 32.2726 34.1127 32.2855 34.1783 32.2855H35.6499ZM36.8417 38.8669C36.8749 38.8669 36.9088 38.8634 36.9424 38.8566C37.4973 38.7423 38.02 38.5067 38.473 38.1666C38.5255 38.1271 38.5696 38.0777 38.603 38.0212C38.6363 37.9647 38.6582 37.9022 38.6674 37.8372C38.6765 37.7723 38.6728 37.7061 38.6564 37.6426C38.64 37.5791 38.6113 37.5194 38.5718 37.467C38.492 37.3612 38.3735 37.2913 38.2422 37.2728C38.111 37.2543 37.9778 37.2886 37.8718 37.3682C37.5375 37.6194 37.1518 37.7933 36.7422 37.8776C36.6779 37.8907 36.6169 37.9164 36.5625 37.9532C36.5081 37.9899 36.4615 38.037 36.4254 38.0918C36.3893 38.1466 36.3643 38.2079 36.3518 38.2724C36.3394 38.3368 36.3398 38.4031 36.353 38.4674C36.376 38.58 36.4371 38.6813 36.5262 38.7541C36.6152 38.8269 36.7267 38.8668 36.8417 38.8669ZM22.6115 38.4334C22.6114 38.499 22.6243 38.564 22.6494 38.6247C22.6745 38.6854 22.7113 38.7405 22.7577 38.7869C22.8041 38.8333 22.8592 38.8701 22.9199 38.8952C22.9806 38.9203 23.0456 38.9332 23.1112 38.9332H24.5829C24.6485 38.9332 24.7135 38.9204 24.7742 38.8953C24.8349 38.8702 24.89 38.8334 24.9364 38.787C24.9828 38.7406 25.0196 38.6854 25.0447 38.6248C25.0698 38.5641 25.0827 38.4991 25.0827 38.4335C25.0827 38.3679 25.0698 38.3029 25.0447 38.2422C25.0196 38.1816 24.9828 38.1265 24.9364 38.0801C24.8899 38.0337 24.8348 37.9969 24.7742 37.9718C24.7135 37.9468 24.6485 37.9339 24.5829 37.934H23.1112C23.0456 37.9339 22.9806 37.9468 22.9199 37.9718C22.8593 37.9969 22.8042 38.0337 22.7578 38.0801C22.7113 38.1264 22.6745 38.1815 22.6494 38.2421C22.6243 38.3028 22.6115 38.3678 22.6115 38.4334ZM3.21051 38.9332H3.96006C4.0257 38.9332 4.0907 38.9203 4.15135 38.8953C4.212 38.8702 4.26711 38.8334 4.31352 38.7869C4.35993 38.7405 4.39673 38.6854 4.42183 38.6248C4.44692 38.5641 4.45981 38.4991 4.45976 38.4335C4.4598 38.3679 4.4469 38.3029 4.4218 38.2422C4.3967 38.1816 4.35989 38.1265 4.31348 38.0801C4.26706 38.0337 4.21196 37.9969 4.15132 37.9719C4.09068 37.9468 4.02568 37.9339 3.96006 37.934H3.21051C3.07801 37.934 2.95093 37.9866 2.85724 38.0803C2.76354 38.174 2.7109 38.3011 2.7109 38.4336C2.7109 38.5661 2.76354 38.6932 2.85724 38.7869C2.95093 38.8805 3.07801 38.9332 3.21051 38.9332ZM0.170432 38.7868L1.29544 39.9122C1.39304 40.0098 1.52119 40.0586 1.64894 40.0586C1.74781 40.0586 1.84447 40.0293 1.92669 39.9744C2.00891 39.9195 2.07299 39.8414 2.11082 39.7501C2.14866 39.6588 2.15855 39.5583 2.13924 39.4613C2.11993 39.3643 2.07229 39.2753 2.00234 39.2054L1.23034 38.4334L2.00234 37.661C2.19754 37.4658 2.19754 37.1498 2.00234 36.9546C1.80715 36.7594 1.49064 36.7594 1.29544 36.9546L0.170432 38.0804C-0.0247639 38.2756 -0.0247639 38.5916 0.170432 38.7868Z" fill="black"/>
</g>
<defs>
<clipPath id="clip0_32_1227">
<rect width="40" height="40" fill="white"/>
</clipPath>
</defs>
</svg>
