<svg width="24" height="25" viewBox="0 0 24 25" fill="none" xmlns="http://www.w3.org/2000/svg">
<g clip-path="url(#clip0_236_1002)">
<path d="M6.79903 11.3002H3.99942C3.89335 11.3002 3.79163 11.3423 3.71663 11.4173C3.64162 11.4923 3.59949 11.594 3.59949 11.7001V15.6995C3.59949 15.8056 3.64162 15.9073 3.71663 15.9823C3.79163 16.0573 3.89335 16.0995 3.99942 16.0995H6.79903C6.9051 16.0995 7.00683 16.0573 7.08183 15.9823C7.15684 15.9073 7.19897 15.8056 7.19897 15.6995V11.7001C7.19897 11.594 7.15684 11.4923 7.08183 11.4173C7.00683 11.3423 6.9051 11.3002 6.79903 11.3002ZM6.3991 15.2996H4.39936V12.1H6.3991V15.2996ZM13.598 11.3002H10.7984C10.6923 11.3002 10.5906 11.3423 10.5156 11.4173C10.4406 11.4923 10.3985 11.594 10.3985 11.7001V15.6995C10.3985 15.8056 10.4406 15.9073 10.5156 15.9823C10.5906 16.0573 10.6923 16.0995 10.7984 16.0995H13.598C13.7041 16.0995 13.8058 16.0573 13.8808 15.9823C13.9558 15.9073 13.998 15.8056 13.998 15.6995V11.7001C13.998 11.594 13.9558 11.4923 13.8808 11.4173C13.8058 11.3423 13.7041 11.3002 13.598 11.3002ZM13.1981 15.2996H11.1984V12.1H13.1981V15.2996ZM13.598 17.6992H10.7984C10.6923 17.6992 10.5906 17.7414 10.5156 17.8164C10.4406 17.8914 10.3985 17.9931 10.3985 18.0992V22.0986C10.3985 22.2046 10.4406 22.3064 10.5156 22.3814C10.5906 22.4564 10.6923 22.4985 10.7984 22.4985H13.598C13.7041 22.4985 13.8058 22.4564 13.8808 22.3814C13.9558 22.3064 13.998 22.2046 13.998 22.0986V18.0992C13.9979 17.9931 13.9558 17.8914 13.8808 17.8164C13.8058 17.7414 13.7041 17.6992 13.598 17.6992ZM13.1981 21.6986H11.1984V18.4991H13.1981V21.6986ZM19.9971 11.3002H17.1975C17.0914 11.3002 16.9897 11.3423 16.9147 11.4173C16.8397 11.4923 16.7976 11.594 16.7976 11.7001V15.6995C16.7976 15.8056 16.8397 15.9073 16.9147 15.9823C16.9897 16.0573 17.0914 16.0995 17.1975 16.0995H19.9971C20.1032 16.0995 20.2049 16.0573 20.2799 15.9823C20.3549 15.9073 20.397 15.8056 20.397 15.6995V11.7001C20.397 11.594 20.3549 11.4923 20.2799 11.4173C20.2049 11.3423 20.1032 11.3002 19.9971 11.3002ZM19.5972 15.2996H17.5975V12.1H19.5972V15.2996ZM6.79903 17.6992H3.99942C3.89335 17.6992 3.79163 17.7414 3.71663 17.8164C3.64162 17.8914 3.59949 17.9931 3.59949 18.0992V22.0986C3.59949 22.2046 3.64162 22.3064 3.71663 22.3814C3.79163 22.4564 3.89335 22.4985 3.99942 22.4985H6.79903C6.9051 22.4985 7.00683 22.4564 7.08183 22.3814C7.15684 22.3064 7.19897 22.2046 7.19897 22.0986V18.0992C7.19896 17.9931 7.15682 17.8914 7.08182 17.8164C7.00682 17.7414 6.9051 17.6992 6.79903 17.6992ZM6.3991 21.6986H4.39936V18.4991H6.3991V21.6986ZM19.9971 17.6992H17.1975C17.0914 17.6992 16.9897 17.7414 16.9147 17.8164C16.8397 17.8914 16.7976 17.9931 16.7976 18.0992V22.0986C16.7976 22.2046 16.8397 22.3064 16.9147 22.3814C16.9897 22.4564 17.0914 22.4985 17.1975 22.4985H19.9971C20.1032 22.4985 20.2049 22.4564 20.2799 22.3814C20.3549 22.3064 20.397 22.2046 20.397 22.0986V18.0992C20.397 17.9931 20.3549 17.8914 20.2799 17.8164C20.2049 17.7414 20.1032 17.6992 19.9971 17.6992ZM19.5972 21.6986H17.5975V18.4991H19.5972V21.6986Z" fill="black"/>
<path d="M22.3968 23.6984V10.1003H22.7967C22.9028 10.1003 23.0045 10.0582 23.0795 9.98316C23.1545 9.90816 23.1967 9.80643 23.1967 9.70036V7.70068C23.1967 7.64816 23.1863 7.59615 23.1662 7.54763C23.1461 7.4991 23.1167 7.45502 23.0795 7.41788C23.0424 7.38074 22.9983 7.35128 22.9498 7.33118C22.9012 7.31108 22.8492 7.30074 22.7967 7.30074H22.3968V5.70099C22.3968 5.59492 22.3546 5.49319 22.2796 5.41819C22.2046 5.34319 22.1029 5.30105 21.9968 5.30105H21.197V0.901646C21.197 0.795576 21.1548 0.693851 21.0798 0.618848C21.0048 0.543845 20.9031 0.501709 20.797 0.501709H3.19955C3.09348 0.501709 2.99175 0.543845 2.91675 0.618848C2.84175 0.693851 2.79961 0.795576 2.79961 0.901646V5.30101H1.99973C1.89366 5.30101 1.79194 5.34314 1.71694 5.41814C1.64193 5.49315 1.5998 5.59487 1.5998 5.70094V7.30069H1.19986C1.09379 7.30069 0.992064 7.34283 0.917061 7.41783C0.842058 7.49283 0.799922 7.59456 0.799922 7.70063V9.70032C0.799922 9.80639 0.842058 9.90811 0.917061 9.98312C0.992064 10.0581 1.09379 10.1003 1.19986 10.1003H1.5998V23.6983H0V24.4981H24V23.6983H22.3968V23.6984ZM3.59948 1.30158H20.397V5.30101H3.59948V1.30158ZM2.39967 6.10088H21.5969V7.30069H2.39967V6.10088ZM21.5969 23.6984H2.39967V10.1003H21.5969V23.6984H21.5969ZM1.99973 9.30043H1.5998V8.10061H22.3968V9.30043H1.99973Z" fill="black"/>
<path d="M11.3839 2.66996C11.3203 2.5074 11.231 2.36701 11.1157 2.24884C11.0006 2.13067 10.862 2.03795 10.7 1.97078C10.538 1.9036 10.3587 1.87 10.1619 1.87C9.96511 1.87 9.78543 1.90328 9.62287 1.96989C9.46031 2.0365 9.32114 2.12917 9.20536 2.24795C9.08957 2.36673 8.9999 2.5074 8.93629 2.67001C8.87268 2.83257 8.8409 3.00925 8.8409 3.20003C8.8409 3.39081 8.87268 3.56748 8.93629 3.73004C8.9999 3.8926 9.08957 4.03328 9.20536 4.1521C9.32114 4.27089 9.46031 4.36356 9.62287 4.43017C9.78543 4.49678 9.96511 4.53006 10.1619 4.53006C10.3587 4.53006 10.538 4.49678 10.7 4.43017C10.862 4.3636 11.0006 4.27089 11.1157 4.1521C11.2309 4.03332 11.3203 3.89265 11.3839 3.73004C11.4475 3.56748 11.4793 3.39081 11.4793 3.20003C11.4793 3.0092 11.4475 2.83253 11.3839 2.66996ZM10.9259 3.58421C10.8881 3.6976 10.8337 3.7936 10.763 3.87217C10.6922 3.95078 10.6061 4.01106 10.5047 4.05306C10.4033 4.09506 10.289 4.11606 10.1618 4.11606C10.0347 4.11606 9.92006 4.09506 9.81811 4.05306C9.71611 4.01106 9.62943 3.95078 9.55804 3.87217C9.48665 3.79356 9.43176 3.6976 9.39337 3.58421C9.35498 3.47082 9.33576 3.34276 9.33576 3.19998C9.33576 3.0572 9.35498 2.92914 9.39337 2.81575C9.43176 2.70235 9.48665 2.60607 9.55804 2.5269C9.62943 2.44773 9.71611 2.38712 9.81811 2.34512C9.92011 2.30312 10.0347 2.28212 10.1618 2.28212C10.289 2.28212 10.4033 2.30312 10.5047 2.34512C10.6061 2.38712 10.6921 2.44773 10.763 2.5269C10.8337 2.60607 10.888 2.70235 10.9259 2.81575C10.9636 2.92914 10.9825 3.0572 10.9825 3.19998C10.9825 3.34276 10.9637 3.47082 10.9259 3.58421ZM7.96978 1.89878V3.0182H6.74958V1.89878H6.26184V4.50118H6.74958V3.36376H7.96978V4.50118H8.45751V1.89878H7.96978ZM16.407 4.10162V1.89878H15.9228V4.50118H17.449V4.10162H16.407ZM11.5009 1.89878V2.29651H12.2874V4.50118H12.7715V2.29651H13.5544V1.89878H11.5009ZM15.5035 2.2839V1.89878H13.8622V4.50118H15.5035V4.11423H14.3499V3.37815H15.2587V3.00559H14.3499V2.2839H15.5035Z" fill="black"/>
</g>
<defs>
<clipPath id="clip0_236_1002">
<rect width="24" height="24" fill="white" transform="translate(0 0.5)"/>
</clipPath>
</defs>
</svg>
