<svg width="20" height="20" viewBox="0 0 20 20" fill="none" xmlns="http://www.w3.org/2000/svg">
<path fill-rule="evenodd" clip-rule="evenodd" d="M7.172 11.834L10.002 13.769L12.73 11.887L18.845 17.92C18.684 17.972 18.512 18 18.333 18H1.667C1.447 18 1.237 17.957 1.044 17.88L7.172 11.834ZM20 6.876V16.333C20 16.58 19.946 16.814 19.85 17.025L13.856 11.111L20 6.876ZM9.43602e-07 6.929L6.042 11.061L0.106001 16.919C0.0356967 16.7316 -0.000212233 16.5331 9.43602e-07 16.333V6.929ZM18.333 3C19.253 3 20 3.746 20 4.667V5.253L9.998 12.148L9.43602e-07 5.31V4.667C9.43602e-07 3.747 0.746001 3 1.667 3H18.333Z" fill="white"/>
</svg>
