<svg width="24" height="25" viewBox="0 0 24 25" fill="none" xmlns="http://www.w3.org/2000/svg">
<g clip-path="url(#clip0_236_1005)">
<path d="M23.2324 10.9744L21.9026 10.0204C21.3936 9.65857 20.7845 9.4642 20.16 9.46423H17.7803L15.1553 6.83923H15.75C15.8495 6.83923 15.9448 6.79973 16.0152 6.7294C16.0855 6.65907 16.125 6.56369 16.125 6.46423V4.21423C16.125 4.11478 16.0855 4.01939 16.0152 3.94907C15.9448 3.87874 15.8495 3.83923 15.75 3.83923H12.1553L8.89013 0.574108C8.81982 0.503777 8.72445 0.464255 8.625 0.464233L4.875 0.464233C4.77555 0.464233 4.68016 0.503742 4.60984 0.574068C4.53951 0.644395 4.5 0.739777 4.5 0.839233C4.5 0.93869 4.53951 1.03407 4.60984 1.1044C4.68016 1.17472 4.77555 1.21423 4.875 1.21423H5.39325L9.51825 9.46423H4.65525L3.26513 8.07411C3.19482 8.00378 3.09945 7.96425 3 7.96423H0.375001C0.309934 7.96422 0.245984 7.98114 0.189436 8.01332C0.132887 8.04551 0.0856859 8.09186 0.0524712 8.14781C0.0192565 8.20376 0.00117139 8.26739 -6.83422e-06 8.33244C-0.00118506 8.3975 0.0145842 8.46174 0.0457511 8.51886L1.42538 11.0479L0.127876 12.1819C0.0875975 12.2171 0.0553152 12.2605 0.0331963 12.3092C0.0110774 12.3579 -0.000366211 12.4107 -0.000366211 12.4642C-0.000366211 12.5177 0.0110774 12.5706 0.0331963 12.6193C0.0553152 12.668 0.0875975 12.7114 0.127876 12.7466L1.42538 13.8806L0.0457511 16.4096C0.0145842 16.4667 -0.00118506 16.531 -6.83422e-06 16.596C0.00117139 16.6611 0.0192565 16.7247 0.0524712 16.7807C0.0856859 16.8366 0.132887 16.883 0.189436 16.9151C0.245984 16.9473 0.309934 16.9642 0.375001 16.9642H3C3.09945 16.9642 3.19482 16.9247 3.26513 16.8544L4.65525 15.4642H9.51825L5.39325 23.7142H4.875C4.77555 23.7142 4.68016 23.7537 4.60984 23.8241C4.53951 23.8944 4.5 23.9898 4.5 24.0892C4.5 24.1887 4.53951 24.2841 4.60984 24.3544C4.68016 24.4247 4.77555 24.4642 4.875 24.4642H8.625C8.67425 24.4643 8.72302 24.4546 8.76851 24.4357C8.81401 24.4169 8.85534 24.3892 8.89013 24.3544L12.1553 21.0892H15.75C15.8495 21.0892 15.9448 21.0497 16.0152 20.9794C16.0855 20.9091 16.125 20.8137 16.125 20.7142V18.4642C16.125 18.3648 16.0855 18.2694 16.0152 18.1991C15.9448 18.1287 15.8495 18.0892 15.75 18.0892H15.1553L17.7803 15.4642H20.16C20.7854 15.4641 21.3953 15.2692 21.9049 14.9066L23.2324 13.9541C23.7124 13.6102 24 13.053 24 12.4642C24 11.8755 23.7128 11.3182 23.2324 10.9744ZM15.375 4.58923V6.08923H14.4053L12.9053 4.58923H15.375ZM6.23175 1.21423H8.46975L16.7198 9.46423H10.3568L6.23175 1.21423ZM2.84475 8.71423L4.23488 10.1044L6.21975 12.0892H2.84775L1.0065 8.71423H2.84475ZM0.944626 12.4642L1.79325 11.7225L2.1975 12.4642L1.7925 13.206L0.944626 12.4642ZM2.84475 16.2142H1.00688L2.84775 12.8392H6.21975L4.23488 14.8241L2.84475 16.2142ZM15.375 18.8392V20.3392H12.9053L14.4053 18.8392H15.375ZM8.46975 23.7142H6.23175L10.3568 15.4642H16.7198L8.46975 23.7142ZM22.7951 13.3447L21.4699 14.2954C21.0873 14.5675 20.6295 14.7139 20.16 14.7142H5.40525L7.39013 12.7294C7.46043 12.659 7.49992 12.5637 7.49992 12.4642C7.49992 12.3648 7.46043 12.2694 7.39013 12.1991L5.40525 10.2142H20.16C20.6287 10.2142 21.0818 10.359 21.4676 10.6312L22.7955 11.5837C23.0801 11.7881 23.25 12.117 23.25 12.4642C23.25 12.8115 23.0801 13.1407 22.7951 13.3447Z" fill="black"/>
<path d="M18.4848 11.0742C18.4145 11.1445 18.375 11.2398 18.375 11.3393C18.375 11.4387 18.4145 11.5341 18.4848 11.6044C18.7125 11.8327 18.8404 12.1419 18.8404 12.4643C18.8404 12.7867 18.7125 13.0959 18.4848 13.3242C18.449 13.3587 18.4205 13.4001 18.4008 13.4459C18.3812 13.4916 18.3708 13.5408 18.3704 13.5906C18.3699 13.6404 18.3794 13.6898 18.3983 13.7359C18.4171 13.782 18.445 13.8238 18.4802 13.859C18.5154 13.8943 18.5573 13.9221 18.6034 13.941C18.6494 13.9598 18.6988 13.9693 18.7486 13.9689C18.7984 13.9684 18.8476 13.9581 18.8934 13.9384C18.9391 13.9188 18.9805 13.8902 19.0151 13.8544C19.3832 13.4854 19.5899 12.9855 19.5899 12.4643C19.5899 11.9431 19.3832 11.4432 19.0151 11.0742C18.9448 11.0038 18.8494 10.9644 18.75 10.9644C18.6505 10.9644 18.5552 11.0038 18.4848 11.0742Z" fill="black"/>
</g>
<defs>
<clipPath id="clip0_236_1005">
<rect width="24" height="24" fill="white" transform="translate(0 0.464233)"/>
</clipPath>
</defs>
</svg>
