<svg aria-hidden="true" style="position: absolute; width: 0; height: 0; overflow: hidden;" version="1.1" xmlns="http://www.w3.org/2000/svg" xmlns:xlink="http://www.w3.org/1999/xlink">
<defs>
<symbol id="npm" viewBox="0 0 32 32">
  <path d="M0 9.779v10.667h8.888v1.776h7.112v-1.776h16v-10.667h-32zM8.888 18.664h-1.776v-5.333h-1.78v5.333h-3.552v-7.108h7.108v7.108zM14.221 18.664v1.781h-3.553v-8.889h7.112v7.109l-3.559-0.001zM30.223 18.664h-1.773v-5.333h-1.781v5.333h-1.78v-5.333h-1.773v5.333h-3.561v-7.108h10.669l-0.001 7.108zM14.22 13.333h1.78v3.556h-1.78v-3.556z"></path>
</symbol>
<symbol id="person" viewBox="0 0 32 32">
  <path d="M16 16c2.947 0 5.333-2.387 5.333-5.333s-2.387-5.333-5.333-5.333c-2.947 0-5.333 2.387-5.333 5.333s2.387 5.333 5.333 5.333zM16 18.667c-3.56 0-10.667 1.787-10.667 5.333v1.333c0 0.733 0.6 1.333 1.333 1.333h18.667c0.733 0 1.333-0.6 1.333-1.333v-1.333c0-3.547-7.107-5.333-10.667-5.333z"></path>
</symbol>
<symbol id="phone" viewBox="0 0 32 32">
  <path d="M24.882 19.774l-3.268-0.373c-0.785-0.090-1.557 0.18-2.11 0.733l-2.367 2.367c-3.641-1.853-6.626-4.825-8.478-8.478l2.38-2.38c0.553-0.553 0.823-1.325 0.733-2.11l-0.373-3.242c-0.154-1.299-1.248-2.277-2.56-2.277h-2.226c-1.454 0-2.663 1.209-2.573 2.663 0.682 10.987 9.469 19.761 20.443 20.443 1.454 0.090 2.663-1.119 2.663-2.573v-2.226c0.013-1.299-0.965-2.393-2.264-2.547z"></path>
</symbol>
<symbol id="playstation" viewBox="0 0 32 32">
  <path d="M11.98 3.461v23.397l5.22 1.681v-19.623c0-0.92 0.405-1.535 1.059-1.321 0.848 0.241 1.013 1.085 1.013 2.007v7.835c3.255 1.591 5.816-0.003 5.816-4.204 0-4.316-1.501-6.233-5.917-7.769-1.743-0.597-4.971-1.581-7.188-2.003h-0.003zM18.188 25.117l8.395-3.033c0.953-0.344 1.101-0.833 0.328-1.091-0.781-0.256-2.183-0.185-3.143 0.164l-5.607 1.999v-3.18l0.32-0.113c0 0 1.601-0.56 3.884-0.82 2.261-0.24 5.047 0.039 7.249 0.881 2.464 0.801 2.721 1.963 2.101 2.763s-2.163 1.381-2.163 1.381l-11.392 4.143v-3.063l0.028-0.031zM2.411 24.8c-2.533-0.727-2.952-2.224-1.803-3.095 1.068-0.78 2.879-1.401 2.879-1.401l7.488-2.684v3.084l-5.367 1.963c-0.94 0.361-1.1 0.843-0.319 1.101 0.781 0.26 2.183 0.2 3.124-0.16l2.584-0.941v2.765c-0.161 0.039-0.341 0.059-0.521 0.097-2.584 0.441-5.327 0.261-8.049-0.639l-0.016-0.090z"></path>
</symbol>
<symbol id="rails" viewBox="0 0 32 32">
  <path d="M27.846 21.081v1.551h2.642c0.541 0 1.471-0.42 1.503-1.594v-0.6c0-1.003-0.776-1.594-1.503-1.594h-1.317v-0.72h2.61v-1.56h-2.505c-0.646 0-1.511 0.566-1.511 1.62v0.54c0 1.054 0.857 1.594 1.511 1.594 1.818 0.009-0.436 0 1.244 0v0.754l-2.674 0.009zM13.689 20.704c0 0 1.414-0.129 1.414-2.066s-1.713-2.117-1.713-2.117h-3.087v6.111h1.551v-1.474l1.341 1.474h2.295l-1.801-1.928zM13.091 19.452h-1.236v-1.397h1.244c0 0 0.347 0.137 0.347 0.694s-0.356 0.703-0.356 0.703h0.001zM18.933 16.564h-1.576c-1.123 0-1.503 1.080-1.503 1.594v4.474h1.576v-1.071h1.479v1.071h1.527v-4.474c0-1.303-1.115-1.594-1.503-1.594zM18.909 19.829h-1.487v-1.483c0 0 0-0.334 0.493-0.334h0.541c0.436 0 0.444 0.334 0.444 0.334v1.483h0.009zM21.156 16.564h1.64v6.069h-1.64v-6.069zM25.099 21.064v-4.5h-1.632v6.069h3.838v-1.569h-2.206zM0.566 22.632h6.384c0 0-1.22-5.906 2.82-8.297 0.881-0.454 3.685-2.151 8.275 1.449 0.145-0.129 0.283-0.231 0.283-0.231s-4.202-4.449-8.881-3.951c-2.351 0.223-5.244 2.494-6.941 5.494s-1.939 5.537-1.939 5.537l-0.001-0.001zM0.566 22.632h6.384c0 0-1.22-5.906 2.82-8.297 0.881-0.454 3.685-2.151 8.275 1.449 0.145-0.129 0.283-0.231 0.283-0.231s-4.202-4.449-8.881-3.951c-2.351 0.223-5.244 2.494-6.941 5.494s-1.939 5.537-1.939 5.537l-0.001-0.001zM0.566 22.632h6.384c0 0-1.22-5.906 2.82-8.297 0.881-0.454 3.685-2.151 8.275 1.449 0.145-0.129 0.283-0.231 0.283-0.231s-4.202-4.449-8.881-3.951c-2.36 0.223-5.253 2.494-6.949 5.494s-1.931 5.537-1.931 5.537l-0.001-0.001zM13.867 12.081l0.032-0.574c-0.073-0.043-0.275-0.146-0.784-0.3l-0.032 0.566c0.267 0.094 0.525 0.197 0.784 0.309v-0.001zM13.099 13.898l-0.032 0.54c0.267 0.009 0.533 0.043 0.8 0.103l0.032-0.531c-0.275-0.060-0.541-0.094-0.8-0.111v-0.001zM10.109 11.224h0.081l-0.162-0.523c-0.251 0-0.509 0.017-0.776 0.051l0.154 0.506c0.234-0.026 0.469-0.034 0.703-0.034zM10.497 14.378l0.186 0.591c0.234-0.12 0.469-0.223 0.703-0.3l-0.178-0.566c-0.275 0.086-0.509 0.18-0.711 0.274v0.001zM6.828 12.124l-0.364-0.591c-0.202 0.111-0.412 0.231-0.63 0.369l0.372 0.6c0.21-0.137 0.412-0.266 0.622-0.377v-0.001zM8.485 15.981l0.388 0.617c0.137-0.214 0.299-0.411 0.477-0.609l-0.364-0.583c-0.186 0.18-0.356 0.377-0.501 0.574v0.001zM7.313 18.741l0.655 0.549c0.032-0.334 0.089-0.669 0.17-1.003l-0.582-0.489c-0.105 0.317-0.178 0.634-0.242 0.943h-0.001zM3.774 14.669l-0.574-0.531c-0.21 0.214-0.412 0.429-0.598 0.643l0.622 0.566c0.17-0.231 0.356-0.463 0.549-0.677l0.001-0.001zM1.333 18.501l-0.929-0.36c-0.153 0.369-0.323 0.797-0.404 1.029l0.929 0.36c0.105-0.291 0.275-0.711 0.404-1.029zM7.192 20.918c0.016 0.454 0.057 0.823 0.097 1.080l0.97 0.369c-0.073-0.334-0.145-0.711-0.194-1.114l-0.873-0.335z"></path>
</symbol>
<symbol id="smartphone" viewBox="0 0 32 32">
  <path d="M23 0h-14c-1.654 0-3 1.346-3 3v26c0 1.654 1.346 3 3 3h14c1.654 0 3-1.346 3-3v-26c0-1.654-1.346-3-3-3zM9 2h14c0.552 0 1 0.448 1 1v21h-16v-21c0-0.552 0.448-1 1-1zM23 30h-14c-0.552 0-1-0.448-1-1v-3h16v3c0 0.552-0.448 1-1 1z"></path>
  <path d="M10.707 27.478c0.391 0.365 0.391 0.956 0 1.321s-1.024 0.365-1.414 0c-0.391-0.365-0.391-0.956 0-1.321s1.024-0.365 1.414 0z"></path>
</symbol>
<symbol id="twitter" viewBox="0 0 32 32">
  <path d="M32 6.078c-1.19 0.522-2.458 0.868-3.78 1.036 1.36-0.812 2.398-2.088 2.886-3.626-1.268 0.756-2.668 1.29-4.16 1.588-1.204-1.282-2.92-2.076-4.792-2.076-3.632 0-6.556 2.948-6.556 6.562 0 0.52 0.044 1.020 0.152 1.496-5.454-0.266-10.28-2.88-13.522-6.862-0.566 0.982-0.898 2.106-0.898 3.316 0 2.272 1.17 4.286 2.914 5.452-1.054-0.020-2.088-0.326-2.964-0.808 0 0.020 0 0.046 0 0.072 0 3.188 2.274 5.836 5.256 6.446-0.534 0.146-1.116 0.216-1.72 0.216-0.42 0-0.844-0.024-1.242-0.112 0.85 2.598 3.262 4.508 6.13 4.57-2.232 1.746-5.066 2.798-8.134 2.798-0.538 0-1.054-0.024-1.57-0.090 2.906 1.874 6.35 2.944 10.064 2.944 12.072 0 18.672-10 18.672-18.668 0-0.29-0.010-0.57-0.024-0.848 1.302-0.924 2.396-2.078 3.288-3.406z"></path>
</symbol>
<symbol id="ubereats" viewBox="0 0 32 32">
  <path d="M0 3.667v6.787c0 2.56 1.787 4.253 4.107 4.253 1.133 0 2.147-0.44 2.867-1.2v1.013h1.613v-10.853h-1.627v6.693c0 1.72-1.16 2.88-2.667 2.88-1.52 0-2.667-1.133-2.667-2.88v-6.693h-1.626zM9.8 3.667v10.853h1.533v-1c0.717 0.733 1.716 1.187 2.821 1.187 0.007 0 0.013 0 0.020 0h-0.001c0.008 0 0.017 0 0.027 0 2.275 0 4.12-1.845 4.12-4.12 0-0.005 0-0.009 0-0.014v0.001c0-0.004 0-0.009 0-0.013 0-2.275-1.845-4.12-4.12-4.12-0.009 0-0.019 0-0.028 0h0.001c-1.107 0-2.093 0.453-2.84 1.173v-3.947h-1.533zM23.013 6.453c-2.347 0-4.067 1.88-4.067 4.107 0 2.36 1.827 4.107 4.2 4.107 1.44 0 2.627-0.613 3.413-1.667l-1.133-0.84c-0.587 0.787-1.36 1.173-2.28 1.173-1.333 0-2.4-0.973-2.613-2.253h6.427v-0.52c0-2.347-1.667-4.107-3.947-4.107zM31.267 6.547c-0.867 0-1.493 0.4-1.88 1.040v-0.973h-1.56v7.907h1.573v-4.52c0-1.2 0.747-2 1.76-2h0.653v-1.453h-0.547l0.001-0.001zM22.973 7.813c1.173 0 2.147 0.813 2.413 2.027h-4.827c0.28-1.213 1.253-2.027 2.413-2.027h0.001zM14.067 7.84c1.48 0 2.707 1.2 2.707 2.733 0 1.52-1.227 2.76-2.707 2.76-0.004 0-0.009 0-0.014 0-1.502 0-2.72-1.218-2.72-2.72 0-0.014 0-0.028 0-0.042v0.002c0-1.533 1.227-2.733 2.733-2.733h0.001zM0 17.28v10.853h7.627v-1.853h-5.56v-2.693h5.413v-1.8h-5.413v-2.653h5.56v-1.853l-7.627-0.001zM19.413 17.84v2.28h-1.547v1.813h1.547v4.267c0 1.080 0.76 1.933 2.133 1.933h2.187v-1.813h-1.52c-0.467 0-0.76-0.213-0.76-0.64v-3.747h2.28v-1.813h-2.28v-2.28h-2.040zM12.427 19.92c-2.387 0-4.267 1.867-4.267 4.213 0 2.333 1.88 4.2 4.267 4.2 0.96 0 1.853-0.333 2.56-0.92v0.72h2.027v-8.013h-2.027v0.72c-0.68-0.572-1.566-0.92-2.533-0.92-0.009 0-0.019 0-0.028 0h0.001zM28.053 19.92c-2.12 0-3.6 0.867-3.6 2.56 0 1.16 0.813 1.92 2.573 2.293l1.933 0.453c0.76 0.147 0.96 0.347 0.96 0.667 0 0.493-0.587 0.813-1.507 0.813-1.16 0-1.827-0.267-2.093-1.147h-2.040c0.293 1.667 1.533 2.773 4.067 2.773 2.32 0 3.653-1.107 3.653-2.653 0-1.093-0.773-1.907-2.413-2.253l-1.72-0.36c-1-0.187-1.32-0.4-1.32-0.747 0-0.48 0.48-0.773 1.373-0.773 0.96 0 1.667 0.267 1.867 1.12h2.027c-0.107-1.64-1.32-2.747-3.76-2.747v0.001zM12.6 21.68c1.347 0 2.427 1.080 2.427 2.453s-1.080 2.44-2.427 2.44c-0.004 0-0.009 0-0.013 0-1.34 0-2.427-1.086-2.427-2.427 0-0.005 0-0.009 0-0.014v0.001c0-1.373 1.107-2.453 2.44-2.453z"></path>
</symbol>
<symbol id="applepay" viewBox="0 0 32 32">
  <path d="M5.851 11.045c-0.376 0.449-0.976 0.803-1.576 0.752-0.075-0.607 0.219-1.251 0.563-1.649 0.376-0.461 1.032-0.788 1.563-0.815 0.063 0.632-0.181 1.251-0.549 1.712h-0.001zM6.393 11.917c-0.868-0.051-1.613 0.5-2.024 0.5-0.42 0-1.051-0.475-1.739-0.461-0.893 0.013-1.724 0.524-2.18 1.34-0.939 1.629-0.244 4.044 0.661 5.371 0.444 0.657 0.976 1.377 1.676 1.352 0.661-0.025 0.924-0.436 1.724-0.436 0.807 0 1.037 0.436 1.739 0.424 0.724-0.013 1.18-0.657 1.624-1.315 0.507-0.747 0.713-1.472 0.725-1.511-0.013-0.013-1.4-0.549-1.413-2.167-0.012-1.353 1.093-1.997 1.144-2.035-0.624-0.936-1.6-1.037-1.937-1.063v0.001zM11.413 10.085v9.852h1.513v-3.368h2.093c1.912 0 3.256-1.328 3.256-3.248s-1.319-3.236-3.205-3.236h-3.657zM12.927 11.375h1.744c1.312 0 2.061 0.707 2.061 1.952s-0.749 1.96-2.068 1.96h-1.739l0.002-3.912zM21.039 20.012c0.951 0 1.832-0.485 2.232-1.257h0.031v1.183h1.4v-4.904c0-1.421-1.125-2.339-2.856-2.339-1.607 0-2.793 0.929-2.837 2.205h1.363c0.112-0.607 0.668-1.004 1.431-1.004 0.925 0 1.444 0.436 1.444 1.239v0.543l-1.888 0.115c-1.756 0.107-2.707 0.833-2.707 2.097 0 1.276 0.981 2.123 2.388 2.123l-0.001-0.001zM21.445 18.844c-0.807 0-1.32-0.392-1.32-0.992 0-0.62 0.495-0.98 1.439-1.037l1.68-0.107v0.556c0 0.923-0.773 1.58-1.799 1.58zM26.571 22.617c1.475 0 2.168-0.569 2.773-2.295l2.656-7.533h-1.537l-1.781 5.82h-0.031l-1.781-5.82h-1.581l2.561 7.173-0.137 0.436c-0.231 0.739-0.605 1.023-1.275 1.023-0.119 0-0.349-0.013-0.444-0.025v1.183c0.088 0.025 0.463 0.037 0.577 0.039v-0.001z"></path>
</symbol>
<symbol id="email" viewBox="0 0 32 32">
  <path d="M26.667 5.333h-21.333c-1.467 0-2.653 1.2-2.653 2.667l-0.013 16c0 1.467 1.2 2.667 2.667 2.667h21.333c1.467 0 2.667-1.2 2.667-2.667v-16c0-1.467-1.2-2.667-2.667-2.667zM26.133 11l-9.427 5.893c-0.427 0.267-0.987 0.267-1.413 0l-9.427-5.893c-0.333-0.213-0.533-0.573-0.533-0.96 0-0.893 0.973-1.427 1.733-0.96l8.933 5.587 8.933-5.587c0.76-0.467 1.733 0.067 1.733 0.96 0 0.387-0.2 0.747-0.533 0.96z"></path>
</symbol>
<symbol id="envelope" viewBox="0 0 32 32">
  <path d="M29 4h-26c-1.654 0-3 1.346-3 3v18c0 1.654 1.346 3 3 3h26c1.654 0 3-1.346 3-3v-18c0-1.654-1.346-3-3-3v0zM29 6c0.136 0 0.265 0.028 0.383 0.077l-13.383 11.599-13.383-11.599c0.118-0.049 0.247-0.077 0.383-0.077h26zM29 26h-26c-0.552 0-1-0.448-1-1v-16.81l13.345 11.565c0.188 0.163 0.422 0.244 0.655 0.244s0.467-0.081 0.655-0.244l13.345-11.565v16.81c0 0.552-0.448 1-1 1v0z"></path>
</symbol>
<symbol id="facebook" viewBox="0 0 32 32">
  <path d="M21.329 5.313h2.921v-5.088c-0.504-0.069-2.237-0.225-4.256-0.225-4.212 0-7.097 2.649-7.097 7.519v4.481h-4.648v5.688h4.648v14.312h5.699v-14.311h4.46l0.708-5.688h-5.169v-3.919c0.001-1.644 0.444-2.769 2.735-2.769z"></path>
</symbol>
<symbol id="googlepay" viewBox="0 0 32 32">
  <path d="M32 13.333l-4.179 9.333h-1.291l1.551-3.267-2.748-6.067h1.36l1.987 4.653h0.027l1.931-4.653 1.362 0.001zM14.644 16.221v3.779h-1.311v-9.333h3.476c0.025-0.001 0.053-0.001 0.082-0.001 0.831 0 1.59 0.306 2.171 0.812l-0.004-0.003c0.611 0.503 0.953 1.22 0.941 1.971 0 0.009 0 0.020 0 0.030 0 0.788-0.366 1.49-0.937 1.946l-0.005 0.004c-0.607 0.531-1.357 0.795-2.249 0.795h-2.164zM14.641 11.816v3.259h2.197c0.487 0.013 0.957-0.163 1.297-0.483 0.336-0.3 0.527-0.711 0.527-1.141s-0.191-0.84-0.527-1.14c-0.321-0.307-0.757-0.496-1.237-0.496-0.021 0-0.043 0-0.064 0.001h-2.193zM22.629 13.333c0.836 0 1.496 0.232 1.98 0.696 0.483 0.464 0.724 1.101 0.724 1.909v3.857h-1.081v-0.869h-0.049c-0.468 0.716-1.091 1.073-1.867 1.073-0.664 0-1.219-0.204-1.667-0.613-0.412-0.366-0.67-0.898-0.67-1.489 0-0.015 0-0.031 0.001-0.046v0.002c0-0.647 0.236-1.161 0.707-1.544s1.1-0.573 1.887-0.575c0.671 0 1.224 0.128 1.657 0.383v-0.268c0-0.004 0-0.009 0-0.014 0-0.408-0.18-0.775-0.465-1.024l-0.002-0.001c-0.28-0.266-0.66-0.429-1.078-0.429-0.005 0-0.009 0-0.014 0h0.001c-0.632 0-1.132 0.277-1.499 0.831l-0.996-0.651c0.547-0.817 1.357-1.227 2.431-1.227v-0.001zM21.167 17.88c0 0.003 0 0.006 0 0.009 0 0.308 0.147 0.582 0.374 0.756l0.002 0.002c0.249 0.204 0.56 0.312 0.879 0.307 0.476-0.001 0.933-0.2 1.271-0.549 0.346-0.32 0.563-0.777 0.563-1.284 0-0.002 0-0.004 0-0.005-0.353-0.293-0.844-0.439-1.475-0.439-0.46 0-0.843 0.116-1.149 0.347-0.309 0.232-0.464 0.516-0.464 0.857l-0.001-0.001zM5.441 10.667c0.020 0 0.043 0 0.067 0 1.379 0 2.635 0.528 3.577 1.393l-0.004-0.003-1.552 1.523c-0.532-0.496-1.248-0.8-2.035-0.8-0.019 0-0.037 0-0.056 0.001h0.003c-1.411 0.009-2.607 0.916-3.048 2.177l-0.007 0.023c-0.108 0.304-0.171 0.656-0.171 1.021s0.063 0.717 0.178 1.043l-0.007-0.022c0.447 1.284 1.644 2.191 3.054 2.2h0.001c0.735 0 1.364-0.184 1.853-0.508 0.572-0.373 0.964-0.96 1.085-1.623h-2.939v-2.053h5.132c0.063 0.359 0.093 0.72 0.093 1.084 0 1.623-0.592 2.996-1.619 3.924-0.901 0.816-2.139 1.288-3.607 1.288-0.007 0-0.014 0-0.022 0-2.093 0-3.91-1.179-4.825-2.909l-0.014-0.030c-0.365-0.696-0.579-1.52-0.579-2.395s0.214-1.699 0.593-2.424l-0.014 0.029c0.929-1.76 2.746-2.939 4.839-2.939 0.008 0 0.016 0 0.024 0v0z"></path>
</symbol>
<symbol id="instagram" viewBox="0 0 32 32">
  <path d="M31.969 9.408c-0.075-1.7-0.35-2.869-0.744-3.882-0.406-1.075-1.032-2.038-1.851-2.838-0.8-0.813-1.769-1.444-2.832-1.844-1.019-0.394-2.182-0.669-3.882-0.744-1.713-0.081-2.257-0.1-6.601-0.1s-4.888 0.019-6.595 0.094c-1.7 0.075-2.869 0.35-3.882 0.744-1.075 0.406-2.038 1.031-2.838 1.85-0.813 0.8-1.444 1.769-1.844 2.832-0.394 1.019-0.669 2.182-0.744 3.882-0.081 1.713-0.1 2.257-0.1 6.601s0.019 4.888 0.094 6.595c0.075 1.7 0.35 2.869 0.744 3.882 0.406 1.075 1.038 2.038 1.85 2.838 0.8 0.813 1.769 1.444 2.832 1.844 1.019 0.394 2.182 0.669 3.882 0.744 1.706 0.075 2.25 0.094 6.595 0.094s4.888-0.019 6.595-0.094c1.7-0.075 2.869-0.35 3.882-0.744 2.151-0.832 3.851-2.532 4.682-4.682 0.394-1.019 0.669-2.182 0.744-3.882 0.075-1.707 0.094-2.251 0.094-6.595s-0.006-4.888-0.081-6.595zM29.087 22.473c-0.069 1.563-0.331 2.407-0.55 2.969-0.538 1.394-1.644 2.5-3.038 3.038-0.563 0.219-1.413 0.481-2.969 0.55-1.688 0.075-2.194 0.094-6.464 0.094s-4.782-0.019-6.464-0.094c-1.563-0.069-2.407-0.331-2.969-0.55-0.694-0.256-1.325-0.663-1.838-1.194-0.531-0.519-0.938-1.144-1.194-1.838-0.219-0.563-0.481-1.413-0.55-2.969-0.075-1.688-0.094-2.194-0.094-6.464s0.019-4.782 0.094-6.464c0.069-1.563 0.331-2.407 0.55-2.969 0.256-0.694 0.663-1.325 1.2-1.838 0.519-0.531 1.144-0.938 1.838-1.194 0.563-0.219 1.413-0.481 2.969-0.55 1.688-0.075 2.194-0.094 6.464-0.094 4.276 0 4.782 0.019 6.464 0.094 1.563 0.069 2.407 0.331 2.969 0.55 0.694 0.256 1.325 0.662 1.838 1.194 0.531 0.519 0.938 1.144 1.194 1.838 0.219 0.563 0.481 1.413 0.55 2.969 0.075 1.688 0.094 2.194 0.094 6.464s-0.019 4.77-0.094 6.458z"></path>
  <path d="M16.059 7.783c-4.538 0-8.22 3.682-8.22 8.22s3.682 8.22 8.22 8.22c4.539 0 8.22-3.682 8.22-8.22s-3.682-8.22-8.22-8.22zM16.059 21.335c-2.944 0-5.332-2.388-5.332-5.332s2.388-5.332 5.332-5.332c2.944 0 5.332 2.388 5.332 5.332s-2.388 5.332-5.332 5.332v0z"></path>
  <path d="M26.524 7.458c0 1.060-0.859 1.919-1.919 1.919s-1.919-0.859-1.919-1.919c0-1.060 0.859-1.919 1.919-1.919s1.919 0.859 1.919 1.919v0z"></path>
</symbol>
<symbol id="icon-button-icon" viewBox="0 0 32 32">
  <path d="M20.476 28.443c-0.336 0.114-0.783 0.114-1.118 0.23 0.336-0.116 0.783-0.23 1.118-0.23z"></path>
  <path d="M29.763 19.497c-0.111 0.458-0.225 0.802-0.336 1.146 0.111-0.344 0.225-0.802 0.336-1.146z"></path>
  <path d="M29.317 20.76c-0.224 0.458-0.447 0.918-0.671 1.376 0.222-0.344 0.447-0.804 0.671-1.376z"></path>
  <path d="M30.099 18.007c0 0.344-0.111 0.688-0.225 1.032 0.113-0.344 0.113-0.688 0.225-1.032z"></path>
  <path d="M29.875 19.039c0 0.114-0.111 0.23-0.111 0.344 0-0.116-0-0.23 0.111-0.344z"></path>
  <path d="M30.099 17.547c0 0.114-0 0.23-0.111 0.458 0.111-0.228 0.111-0.342 0.111-0.458z"></path>
  <path d="M29.317 20.644c0 0.114 0 0.114-0.111 0.23 0.111-0.114 0.111-0.23 0.111-0.23z"></path>
  <path d="M27.303 24.2c-3.581-4.359-8.616-9.176-12.195-12.5-0.225-0.23-0.336-0.458-0.336-0.802 0-0.688 0.447-1.146 1.118-1.146 0.224 0 0.56 0.114 0.783 0.23h0.111c5.035 4.703 9.063 8.716 11.973 12.156 0.225-0.458 0.447-0.918 0.671-1.376 0 0 0-0.114 0.111-0.23 0.111-0.344 0.225-0.802 0.336-1.146 0-0.114 0.111-0.23 0.111-0.344 0.111-0.344 0.111-0.688 0.224-1.032 0-0.114 0-0.23 0.111-0.458-0.111-0.462-0.111-1.037-0.111-1.495 0-8.946-9.174-13.649-17.902-13.762-7.945-0.114-12.309-2.294-12.309-2.294s1.118 11.698 3.468 18.235c2.687 7.455 7.609 10.438 14.436 10.438 0.447 0 0.896 0 1.343-0.114h0.111c0.336 0 0.783-0.114 1.118-0.23h0.111c0.783-0.23 1.567-0.458 2.35-0.802 0.671-0.344 1.343-0.688 2.014-1.146 2.239 2.639 3.692 4.703 3.692 5.619h3.357c-0.111-1.722-2.012-4.703-4.697-7.8z"></path>
</symbol>
<symbol id="linkedin" viewBox="0 0 32 32">
  <path d="M31.992 32v-0.001h0.008v-11.736c0-5.741-1.236-10.164-7.948-10.164-3.227 0-5.392 1.771-6.276 3.449h-0.093v-2.913h-6.364v21.364h6.627v-10.579c0-2.785 0.528-5.479 3.977-5.479 3.399 0 3.449 3.179 3.449 5.657v10.401h6.62z"></path>
  <path d="M0.528 10.636h6.635v21.364h-6.635v-21.364z"></path>
  <path d="M3.843 0c-2.121 0-3.843 1.721-3.843 3.843s1.721 3.879 3.843 3.879c2.121 0 3.843-1.757 3.843-3.879-0.001-2.121-1.723-3.843-3.843-3.843v0z"></path>
</symbol>
<symbol id="icon-close" viewBox="0 0 32 32">
  <path d="M17.88 16l5.733-5.72c0.251-0.251 0.392-0.592 0.392-0.947s-0.141-0.696-0.392-0.947c-0.251-0.251-0.592-0.392-0.947-0.392s-0.696 0.141-0.947 0.392l-5.72 5.733-5.72-5.733c-0.251-0.251-0.592-0.392-0.947-0.392s-0.696 0.141-0.947 0.392c-0.251 0.251-0.392 0.592-0.392 0.947s0.141 0.696 0.392 0.947l5.733 5.72-5.733 5.72c-0.125 0.124-0.224 0.271-0.292 0.434s-0.103 0.337-0.103 0.513 0.035 0.35 0.103 0.513c0.068 0.162 0.167 0.31 0.292 0.434 0.124 0.125 0.271 0.224 0.434 0.292s0.337 0.102 0.513 0.102c0.176 0 0.35-0.035 0.513-0.102s0.31-0.167 0.434-0.292l5.72-5.733 5.72 5.733c0.124 0.125 0.271 0.224 0.434 0.292s0.337 0.102 0.513 0.102c0.176 0 0.35-0.035 0.513-0.102s0.31-0.167 0.434-0.292c0.125-0.124 0.224-0.271 0.292-0.434s0.102-0.337 0.102-0.513-0.035-0.35-0.102-0.513c-0.068-0.163-0.167-0.31-0.292-0.434l-5.733-5.72z"></path>
</symbol>
<symbol id="icon-email" viewBox="0 0 32 32">
  <path d="M26.667 5.333h-21.333c-1.467 0-2.653 1.2-2.653 2.667l-0.013 16c0 1.467 1.2 2.667 2.667 2.667h21.333c1.467 0 2.667-1.2 2.667-2.667v-16c0-1.467-1.2-2.667-2.667-2.667zM26.133 11l-9.427 5.893c-0.427 0.267-0.987 0.267-1.413 0l-9.427-5.893c-0.333-0.213-0.533-0.573-0.533-0.96 0-0.893 0.973-1.427 1.733-0.96l8.933 5.587 8.933-5.587c0.76-0.467 1.733 0.067 1.733 0.96 0 0.387-0.2 0.747-0.533 0.96z"></path>
</symbol>
<symbol id="icon-name" viewBox="0 0 32 32">
  <path d="M16 16c2.947 0 5.333-2.387 5.333-5.333s-2.387-5.333-5.333-5.333c-2.947 0-5.333 2.387-5.333 5.333s2.387 5.333 5.333 5.333zM16 18.667c-3.56 0-10.667 1.787-10.667 5.333v1.333c0 0.733 0.6 1.333 1.333 1.333h18.667c0.733 0 1.333-0.6 1.333-1.333v-1.333c0-3.547-7.107-5.333-10.667-5.333z"></path>
</symbol>
<symbol id="icon-phone" viewBox="0 0 32 32">
  <path d="M24.882 19.773l-3.268-0.373c-0.785-0.090-1.557 0.18-2.11 0.733l-2.367 2.367c-3.641-1.853-6.626-4.824-8.478-8.478l2.38-2.38c0.553-0.553 0.823-1.325 0.733-2.11l-0.373-3.242c-0.154-1.299-1.248-2.277-2.56-2.277h-2.226c-1.454 0-2.663 1.209-2.573 2.663 0.682 10.987 9.469 19.761 20.443 20.443 1.454 0.090 2.663-1.119 2.663-2.573v-2.226c0.013-1.299-0.965-2.393-2.264-2.547z"></path>
</symbol>
<symbol id="icon-close-menu" viewBox="0 0 22 22">
  <path d="M22 2.21571L19.7843 0L11 8.78429L2.21571 0L0 2.21571L8.78429 11L0 19.7843L2.21571 22L11 13.2157L19.7843 22L22 19.7843L13.2157 11L22 2.21571Z"></path>
</symbol>
<symbol id="icon-open-menu" viewBox="0 0 32 32">
  <path d="M6.4 21.333c0 0.589 0.478 1.067 1.067 1.067h17.067c0.589 0 1.067-0.478 1.067-1.067s-0.478-1.067-1.067-1.067h-17.067c-0.589 0-1.067 0.478-1.067 1.067z"></path>
  <path d="M6.4 16c0 0.589 0.478 1.067 1.067 1.067h17.067c0.589 0 1.067-0.478 1.067-1.067s-0.478-1.067-1.067-1.067h-17.067c-0.589 0-1.067 0.478-1.067 1.067z"></path>
  <path d="M7.467 9.6c-0.589 0-1.067 0.478-1.067 1.067s0.478 1.067 1.067 1.067h17.067c0.589 0 1.067-0.478 1.067-1.067s-0.478-1.067-1.067-1.067h-17.067z"></path>
</symbol>
<symbol id="icon-man" viewBox="0 0 32 32">
  <path fill="#ec3c05" style="fill: var(--color1, #ec3c05)" d="M16 11.573c2.539 0 4.592-2.087 4.592-4.652-0-2.568-2.052-4.644-4.592-4.644s-4.592 2.076-4.592 4.644c-0 2.565 2.052 4.652 4.592 4.652z"></path>
  <path fill="#000" style="fill: var(--color2, #000)" d="M24.179 23.669c1.266-1.142 2.016-2.56 2.016-4.097 0-3.776-4.529-6.838-10.117-6.838-0.026 0-0.052 0.001-0.078 0.001s-0.052-0.001-0.079-0.001c-5.587 0-10.116 3.061-10.116 6.838 0 1.537 0.75 2.955 2.016 4.097-3.088 0.76-5.078 1.95-5.078 3.288 0 2.296 3.292 4.092 13.179 2.739 0.027 0.004 0.052 0.007 0.079 0.012 0.027-0.005 0.052-0.008 0.078-0.012 9.887 1.354 13.179-0.443 13.179-2.739-0-1.338-1.991-2.528-5.079-3.288zM23.197 20.339c-0.035-0.002-0.070-0.006-0.105-0.006-0.995 0-1.803 0.807-1.803 1.803s0.807 1.802 1.803 1.802c0.035 0 0.070-0.003 0.105-0.005v1.921l-7.197 2.507-7.197-2.507v-1.921c0.035 0.002 0.069 0.005 0.104 0.005 0.995 0 1.802-0.807 1.802-1.802s-0.807-1.803-1.802-1.803c-0.035 0-0.070 0.004-0.104 0.006v-4.077l7.197 2.345 7.197-2.345v4.077z"></path>
</symbol>
<symbol id="icon-phone-adv" viewBox="0 0 32 32">
  <path fill="#000" style="fill: var(--color2, #000)" d="M20.662 7.758v1.579c0 0.442 0.351 0.801 0.782 0.801h4.58c0.435 0 0.783-0.359 0.783-0.801v-1.579h-6.145z"></path>
  <path fill="#000" style="fill: var(--color2, #000)" d="M26.801 12.874h-2.344c-0.351 0-0.627 0.286-0.627 0.639v1.755c0 0.356 0.277 0.639 0.627 0.639h2.344c0.351 0 0.627-0.283 0.627-0.639v-1.755c0-0.353-0.276-0.639-0.627-0.639z"></path>
  <path fill="#ec3c05" style="fill: var(--color1, #ec3c05)" d="M26.801 21.941h-2.344c-0.351 0-0.627 0.283-0.627 0.642v1.752c0 0.353 0.277 0.643 0.627 0.643h2.344c0.351 0 0.627-0.29 0.627-0.643v-1.752c0-0.359-0.276-0.642-0.627-0.642z"></path>
  <path fill="#000" style="fill: var(--color2, #000)" d="M24.305 26.226h-16.277c-0.344 0-0.627 0.283-0.627 0.635v1.759c0 0.352 0.283 0.636 0.627 0.636h16.277c0.344 0 0.621-0.284 0.621-0.636v-1.759c0-0.352-0.277-0.635-0.621-0.635z"></path>
  <path fill="#ec3c05" style="fill: var(--color1, #ec3c05)" d="M8.627 24.336v-1.756c0-0.356-0.283-0.639-0.627-0.639h-2.351c-0.341 0-0.617 0.283-0.617 0.639v1.756c0 0.352 0.277 0.643 0.617 0.643h2.351c0.344 0 0.628-0.29 0.628-0.643z"></path>
  <path fill="#000" style="fill: var(--color2, #000)" d="M5.649 15.908h2.351c0.344 0 0.627-0.283 0.627-0.639v-1.755c0-0.353-0.283-0.639-0.627-0.639h-2.351c-0.344 0-0.621 0.287-0.621 0.64v1.755c0 0.356 0.277 0.639 0.621 0.639z"></path>
  <path fill="#000" style="fill: var(--color2, #000)" d="M6.177 10.141h4.577c0.435 0 0.786-0.36 0.786-0.802v-1.579h-6.145v1.579c0 0.442 0.347 0.802 0.783 0.802z"></path>
  <path fill="#ec3c05" style="fill: var(--color1, #ec3c05)" d="M22.104 12.874h-2.351c-0.344 0-0.621 0.286-0.621 0.639v1.755c0 0.356 0.276 0.639 0.621 0.639h2.351c0.344 0 0.621-0.283 0.621-0.639v-1.755c0-0.353-0.277-0.639-0.621-0.639z"></path>
  <path fill="#ec3c05" style="fill: var(--color1, #ec3c05)" d="M25.102 19.821v-1.756c0-0.349-0.283-0.64-0.627-0.64h-2.351c-0.341 0-0.617 0.29-0.617 0.639v1.756c0 0.359 0.276 0.643 0.617 0.643h2.351c0.344 0 0.627-0.283 0.627-0.643z"></path>
  <path fill="#000" style="fill: var(--color2, #000)" d="M19.753 24.978h2.351c0.344 0 0.621-0.291 0.621-0.643v-1.752c0-0.36-0.277-0.643-0.621-0.643h-2.351c-0.344 0-0.62 0.283-0.62 0.643v1.752c0 0.352 0.276 0.643 0.62 0.643z"></path>
  <path fill="#000" style="fill: var(--color2, #000)" d="M20.398 19.821v-1.756c0-0.349-0.276-0.64-0.621-0.64h-2.351c-0.341 0-0.624 0.29-0.624 0.639v1.756c0 0.359 0.283 0.643 0.624 0.643h2.351c0.344 0 0.621-0.283 0.621-0.643z"></path>
  <path fill="#ec3c05" style="fill: var(--color1, #ec3c05)" d="M15.056 24.978h2.344c0.344 0 0.627-0.291 0.627-0.643v-1.752c0-0.36-0.283-0.643-0.627-0.643h-2.344c-0.35 0-0.627 0.283-0.627 0.643v1.752c0 0.352 0.277 0.643 0.627 0.643z"></path>
  <path fill="#000" style="fill: var(--color2, #000)" d="M17.401 15.908c0.344 0 0.627-0.283 0.627-0.639v-1.755c0-0.353-0.283-0.639-0.627-0.639h-2.344c-0.351 0-0.628 0.286-0.628 0.639v1.755c0 0.356 0.277 0.639 0.628 0.639h2.344z"></path>
  <path fill="#ec3c05" style="fill: var(--color1, #ec3c05)" d="M15.702 19.821v-1.756c0-0.349-0.283-0.64-0.627-0.64h-2.351c-0.341 0-0.617 0.29-0.617 0.639v1.756c0 0.359 0.277 0.643 0.617 0.643h2.351c0.344 0 0.627-0.283 0.627-0.643z"></path>
  <path fill="#000" style="fill: var(--color2, #000)" d="M10.386 24.978h2.351c0.344 0 0.627-0.291 0.627-0.643v-1.752c0-0.36-0.283-0.643-0.627-0.643h-2.351c-0.344 0-0.621 0.283-0.621 0.643v1.752c0 0.352 0.277 0.643 0.621 0.643z"></path>
  <path fill="#ec3c05" style="fill: var(--color1, #ec3c05)" d="M12.704 15.908c0.344 0 0.621-0.283 0.621-0.639v-1.755c0-0.353-0.277-0.639-0.621-0.639h-2.351c-0.344 0-0.621 0.286-0.621 0.639v1.755c0 0.356 0.276 0.639 0.621 0.639h2.351z"></path>
  <path fill="#000" style="fill: var(--color2, #000)" d="M7.402 18.066v1.756c0 0.355 0.283 0.639 0.628 0.639h2.35c0.341 0 0.617-0.284 0.617-0.639v-1.756c0-0.353-0.277-0.642-0.617-0.642h-2.35c-0.344 0-0.628 0.29-0.628 0.642z"></path>
  <path fill="#000" style="fill: var(--color2, #000)" d="M11.538 7.13c0-0.456 0.374-1.24 4.566-1.254 4.182-0.014 4.557 0.798 4.557 1.254v0.132h6.145v-0.166c0-0.819-1.44-4.81-10.702-4.81-9.271 0-10.712 3.991-10.712 4.81v0.166h6.145v-0.132z"></path>
</symbol>
<symbol id="icon-desk" viewBox="0 0 32 32">
  <path fill="#ec3c05" style="fill: var(--color1, #ec3c05)" d="M18.693 4.702l-1.84-1.577c-0.202-0.175-0.504-0.175-0.706 0l-1.9 1.629c-0.173 0.148-0.235 0.387-0.156 0.6s0.281 0.354 0.509 0.354h0.543v1.086c0 0.3 0.243 0.543 0.543 0.543h1.629c0.3 0 0.543-0.243 0.543-0.543v-1.086h0.543c0.004 0.001 0.008 0.001 0.011 0 0.3 0 0.543-0.243 0.543-0.543 0-0.196-0.105-0.368-0.26-0.464z"></path>
  <path fill="#ec3c05" style="fill: var(--color1, #ec3c05)" d="M14.317 27.344l1.84 1.577c0.202 0.175 0.504 0.175 0.706 0l1.9-1.629c0.173-0.147 0.235-0.387 0.156-0.6s-0.281-0.354-0.509-0.354h-0.543v-1.086c0-0.3-0.243-0.543-0.543-0.543h-1.629c-0.3 0-0.543 0.243-0.543 0.543v1.086h-0.543c-0.004-0.001-0.008-0.001-0.011 0-0.3 0-0.543 0.243-0.543 0.543 0 0.196 0.104 0.368 0.26 0.464z"></path>
  <path fill="#ec3c05" style="fill: var(--color1, #ec3c05)" d="M27.549 18.477l1.577-1.84c0.175-0.202 0.175-0.504 0-0.706l-1.629-1.9c-0.147-0.173-0.387-0.235-0.6-0.156s-0.354 0.282-0.354 0.509v0.543h-1.086c-0.3 0-0.543 0.243-0.543 0.543v1.629c0 0.3 0.243 0.543 0.543 0.543h1.086v0.543c-0.001 0.004-0.001 0.008 0 0.011 0 0.3 0.243 0.543 0.543 0.543 0.196 0 0.368-0.104 0.464-0.26z"></path>
  <path fill="#ec3c05" style="fill: var(--color1, #ec3c05)" d="M4.908 14.101l-1.577 1.84c-0.175 0.202-0.175 0.504 0 0.706l1.629 1.9c0.147 0.173 0.387 0.235 0.6 0.156s0.354-0.281 0.354-0.509v-0.543h1.086c0.3 0 0.543-0.243 0.543-0.543v-1.629c0-0.3-0.243-0.543-0.543-0.543h-1.086v-0.543c0.001-0.004 0.001-0.008 0-0.011 0-0.3-0.243-0.543-0.543-0.543-0.196-0-0.368 0.104-0.464 0.26z"></path>
  <path fill="#000" style="fill: var(--color2, #000)" d="M21.098 23.492l-1.058-4.229 1.065-5.856c0.054-0.295-0.142-0.577-0.437-0.631-0.294-0.057-0.577 0.142-0.631 0.437l-1.005 5.525h-3.347c-0.3 0-0.543 0.243-0.543 0.543s0.243 0.543 0.543 0.543h0.391l-0.917 3.669c-0.073 0.29 0.104 0.585 0.395 0.658 0.044 0.011 0.088 0.016 0.132 0.016 0.244 0 0.464-0.164 0.526-0.411l0.983-3.932h1.867l0.983 3.932c0.061 0.247 0.283 0.411 0.526 0.411 0.043 0 0.088-0.006 0.132-0.016 0.291-0.072 0.468-0.367 0.395-0.658z"></path>
  <path fill="#000" style="fill: var(--color2, #000)" d="M18.579 18.194l0.395-2.171h-10.345v8.143h1.629v-5.972h8.322z"></path>
  <path fill="#000" style="fill: var(--color2, #000)" d="M21.181 16.023l-0.395 2.171h1.414v5.972h1.629v-8.143h-2.647z"></path>
  <path fill="#000" style="fill: var(--color2, #000)" d="M15.686 13.309v-4.886h-5.972v4.886h2.171v0.543c0 0.494-0.248 0.543-1.086 0.543-1.115 0-1.086 0.591-1.086 1.086h5.972c0-0.494 0-1.086-1.086-1.086-0.838 0-1.086-0.049-1.086-0.543v-0.543h2.172zM10.8 12.223v-2.714h3.8v2.714h-3.8z"></path>
</symbol>
<symbol id="icon-hands" viewBox="0 0 32 32">
  <path fill="#ec3c05" style="fill: var(--color1, #ec3c05)" d="M29.666 9.876c-1.598 0.945-2.458 1.331-4.114 1.244-0.623-0.007-0.953-0.276-1.569-0.218-0.573 0.022-0.867 0.24-1.441 0.436-0.881 0.276-1.362 0.524-2.286 0.815-0.587 0.167-0.96 0.175-1.569 0.385-0.523 0.225-0.272 0.044-0.638 0.472-0.473 0.531-0.358 0.945-0.803 1.854-0.552 1.193-0.488 1.352-0.172 1.498-0.208 0.61-0.258 1.018-0.208 1.679 0.057 0.502-0.15 0.85 0.38 1.25 0.724 0.546 2.243 1.825 2.631 1.846 0.58-0.021 2.272 0.044 3.132-0.559 0.194-0.124 0.251-0.247 0.086 0.218-0.035 0.058-2.143 1.723-2.372 1.715-1.623 0.053-1.935 0.13-1.964 0.168-0.187-0.073-1.43-1.579-2.192-1.026-0.294 0.182-0.43 0.357-0.545 0.684 0.1 0.211 0.574 0.546 1.010 0.822 0.631 0.408 0.688 0.836 1.319 0.989 0.767 0.174 1.584 0.058 2.071 0.123 0.187 0.051 1.878-0.451 2.931-1.025 0.975-0.509-1.34 0.982-1.906 1.716-1.706 0.546-1.225 0.567-2.035 0.735-0.752 0.174-0.717 0.131-1.233 0.298-0.53 0.131-0.968 0.865-0.465 1.25 0.301 0.255 1.24-0.102 2.164-0.131 0.409-0.007 2.078-0.785 2.458-0.988 0.946-0.516 1.641-1.229 2.2-1.636 0.774-0.545-0.874 1.505-1.57 2.363-0.201 0.277-0.294 0.334-0.544 0.691-0.415 0.546 0.114 1.375 0.379 1.244 0.308-0.116 0.509-0.741 0.846-0.945 0.172-0.095 0.631-0.778 1.061-1.244 0.315-0.363 0.545-0.523 0.846-0.901 0.509-0.64 0.616-1.127 1.061-1.811 0.272-0.357 0.465-0.465 0.716-0.901 1.326-2.545 0.939-3.686 2.208-5.504 0.387-0.538 0.824-0.669 1.441-0.989 0.573-4.239-1.326-6.609-1.312-6.616zM23.517 16.623c-0.301 1.069-0.272 1.192-0.846 1.592-0.695 0.538-0.731 0.131-2.329 1.032 0 0-0.66-0.698-1.699-1.032 0.007 0.015-0.28-1.352-0.846-1.811 1.347-1.040 1.311-1.919 1.526-1.89 0.48 0.044 1.247 0.291 2.666-0.254 0.817 1.578 1.806 1.498 1.526 2.363z"></path>
  <path fill="#000" style="fill: var(--color2, #000)" d="M15.426 8.886c-0.631-0.429-0.695-0.858-1.319-0.996-0.767-0.189-1.591-0.073-2.071-0.167-0.186-0.022-1.877 0.48-2.924 1.032-0.989 0.531 1.333-0.96 1.906-1.723 1.698-0.516 1.211-0.538 2.035-0.727 0.745-0.152 0.709-0.109 1.225-0.262 0.523-0.145 0.967-0.873 0.466-1.287-0.308-0.233-1.24 0.124-2.157 0.131-0.415 0.030-2.086 0.808-2.465 1.026-0.946 0.502-1.641 1.214-2.2 1.592-0.781 0.575 0.874-1.469 1.569-2.319 0.201-0.291 0.294-0.349 0.552-0.691 0.402-0.56-0.122-1.389-0.379-1.287-0.316 0.145-0.516 0.77-0.896 0.989-0.136 0.080-0.595 0.764-1.017 1.244-0.316 0.349-0.545 0.509-0.846 0.909-0.516 0.618-0.616 1.105-1.060 1.76-0.272 0.392-0.473 0.494-0.717 0.945-1.326 2.53-0.946 3.672-2.207 5.46-0.387 0.574-0.824 0.698-1.441 1.032-0.574 4.232 1.319 6.595 1.311 6.58 1.598-0.923 2.451-1.309 4.114-1.25 0.624 0.036 0.953 0.305 1.569 0.261 0.573-0.036 0.867-0.254 1.441-0.429 0.882-0.298 1.361-0.546 2.243-0.822 0.631-0.182 1.003-0.189 1.613-0.429 0.523-0.197 0.272-0.015 0.638-0.429 0.466-0.545 0.358-0.96 0.76-1.847 0.595-1.214 0.53-1.374 0.215-1.505 0.201-0.625 0.258-1.025 0.208-1.679-0.065-0.509 0.151-0.865-0.379-1.243-0.724-0.567-2.243-1.847-2.623-1.854-0.588 0.007-2.279-0.058-3.139 0.516-0.193 0.153-0.251 0.276-0.086-0.167 0.036-0.080 2.143-1.745 2.372-1.767 1.503-0.033 1.882-0.095 1.953-0.129 0.149 0.004 1.427 1.581 2.204 1.031 0.287-0.196 0.43-0.371 0.552-0.683-0.108-0.225-0.581-0.56-1.018-0.815zM9.786 13.787c0.688-0.516 0.731-0.109 2.329-0.989 0-0.022 0.659 0.676 1.699 0.989-0.007 0.007 0.279 1.374 0.846 1.847-1.348 1.025-1.312 1.905-1.527 1.89-0.48-0.058-1.247-0.306-2.666 0.219-0.824-1.556-1.806-1.469-1.527-2.371 0.301-1.032 0.265-1.163 0.846-1.585z"></path>
</symbol>
</defs>
</svg>
