<svg width="24" height="25" viewBox="0 0 24 25" fill="none" xmlns="http://www.w3.org/2000/svg">
<g clip-path="url(#clip0_236_1006)">
<path d="M20.5526 17.7911L18.9262 6.08173C18.8624 5.63412 18.6397 5.22442 18.2987 4.92746C17.9578 4.63051 17.5214 4.46613 17.0692 4.46436H14.25V3.71436C14.25 3.30073 13.9136 2.96436 13.5 2.96436H12.375V1.46436H15.5947L16.2349 2.10448C16.2696 2.13942 16.3109 2.16716 16.3564 2.18608C16.4019 2.205 16.4507 2.21474 16.5 2.21474C16.5493 2.21474 16.598 2.205 16.6435 2.18608C16.689 2.16716 16.7304 2.13942 16.7651 2.10448C16.8354 2.03416 16.8749 1.93879 16.8749 1.83936C16.8749 1.73992 16.8354 1.64455 16.7651 1.57423L16.0151 0.82423C15.9448 0.753899 15.8494 0.714377 15.75 0.714355H8.24998C8.15053 0.714377 8.05516 0.753899 7.98485 0.82423L7.23485 1.57423C7.19904 1.60882 7.17047 1.6502 7.15081 1.69595C7.13116 1.74171 7.12082 1.79091 7.12038 1.8407C7.11995 1.8905 7.12944 1.93988 7.14829 1.98596C7.16715 2.03205 7.19499 2.07392 7.2302 2.10913C7.26541 2.14434 7.30728 2.17218 7.35337 2.19104C7.39946 2.20989 7.44884 2.21938 7.49863 2.21895C7.54842 2.21852 7.59763 2.20817 7.64338 2.18852C7.68913 2.16887 7.73051 2.1403 7.7651 2.10448L8.40523 1.46436H11.625V2.96436H10.5C10.0864 2.96436 9.74998 3.30073 9.74998 3.71436V4.46436H6.9311C6.4789 4.46604 6.04241 4.63038 5.70138 4.92734C5.36035 5.2243 5.13757 5.63406 5.07373 6.08173L3.44773 17.7911C3.39236 18.1939 3.46879 18.6038 3.6656 18.9596L4.8686 21.1249C5.03096 21.4171 5.26851 21.6607 5.55664 21.8303C5.84478 21.9998 6.17302 22.0893 6.50735 22.0894H6.5561L5.65535 24.1916C5.63512 24.237 5.62411 24.286 5.62297 24.3356C5.62183 24.3853 5.63057 24.4347 5.64869 24.481C5.66681 24.5273 5.69395 24.5695 5.72853 24.6052C5.76311 24.6409 5.80443 24.6693 5.85011 24.6889C5.89578 24.7085 5.94489 24.7188 5.99459 24.7192C6.04428 24.7197 6.09356 24.7102 6.13957 24.6915C6.18559 24.6727 6.2274 24.6449 6.2626 24.6099C6.2978 24.5748 6.32567 24.5331 6.3446 24.4871L6.72935 23.5894H17.2706L17.6554 24.4871C17.6747 24.5324 17.7028 24.5735 17.738 24.6079C17.7732 24.6424 17.8149 24.6695 17.8607 24.6878C17.9064 24.7061 17.9553 24.7152 18.0046 24.7145C18.0538 24.7139 18.1025 24.7035 18.1477 24.684C18.2391 24.6448 18.3112 24.5709 18.3481 24.4786C18.385 24.3862 18.3838 24.283 18.3446 24.1916L17.4435 22.0894H17.4922C18.1732 22.0894 18.801 21.72 19.131 21.1249L20.3344 18.9596C20.5305 18.6067 20.6081 18.1916 20.5526 17.7911ZM10.5 3.71436H13.5V4.46436H10.5V3.71436ZM16.9492 22.8394H7.05073L7.3721 22.0894H16.6279L16.9492 22.8394ZM15.375 21.3394H8.62498V20.2144C8.62498 20.0074 8.79335 19.8394 8.99998 19.8394H15C15.0994 19.8394 15.1948 19.8789 15.2651 19.9492C15.3355 20.0195 15.375 20.1149 15.375 20.2144V21.3394ZM19.6789 18.5955L18.4759 20.7607C18.3784 20.9361 18.2358 21.0823 18.0629 21.184C17.8899 21.2858 17.6929 21.3394 17.4922 21.3394H16.125V20.2144C16.125 19.5941 15.6202 19.0894 15 19.0894H8.99998C8.37973 19.0894 7.87498 19.5941 7.87498 20.2144V21.3394H6.50773C6.30707 21.3394 6.11005 21.2858 5.9371 21.184C5.76415 21.0823 5.62156 20.9361 5.5241 20.7607L4.3211 18.5959C4.2032 18.3823 4.15743 18.1363 4.1906 17.8946L5.81698 6.18486C5.85516 5.91631 5.9887 5.67048 6.1932 5.49229C6.39769 5.31409 6.65949 5.21544 6.93073 5.21436H17.0692C17.3405 5.2155 17.6023 5.31417 17.8068 5.49234C18.0114 5.67052 18.145 5.91632 18.1834 6.18486L19.8097 17.8942C19.8428 18.136 19.7972 18.382 19.6789 18.5955Z" fill="black"/>
<path d="M7.87499 14.9644C6.84112 14.9644 5.99999 15.8055 5.99999 16.8394C5.99999 17.8732 6.84112 18.7144 7.87499 18.7144C8.90887 18.7144 9.74999 17.8732 9.74999 16.8394C9.74999 15.8055 8.90887 14.9644 7.87499 14.9644ZM7.87499 17.9644C7.25474 17.9644 6.74999 17.4596 6.74999 16.8394C6.74999 16.2191 7.25474 15.7144 7.87499 15.7144C8.49524 15.7144 8.99999 16.2191 8.99999 16.8394C8.99999 17.4596 8.49524 17.9644 7.87499 17.9644ZM16.1325 14.9719C15.102 14.9719 14.2642 15.8096 14.2642 16.8394C14.2642 17.8691 15.102 18.7069 16.1325 18.7069C17.1622 18.7069 18 17.8691 18 16.8394C18 15.8096 17.1622 14.9719 16.1325 14.9719ZM16.1325 17.9569C15.516 17.9569 15.0142 17.4559 15.0142 16.8394C15.0142 16.2229 15.516 15.7219 16.1325 15.7219C16.749 15.7219 17.25 16.2229 17.25 16.8394C17.25 17.4559 16.7486 17.9569 16.1325 17.9569ZM6.37499 13.8394H17.625C17.6777 13.8394 17.7299 13.8282 17.778 13.8067C17.8261 13.7852 17.8692 13.7538 17.9044 13.7145C17.9396 13.6752 17.9661 13.629 17.9821 13.5788C17.9982 13.5286 18.0035 13.4755 17.9977 13.4231L17.2477 6.67311C17.2376 6.58135 17.1939 6.49656 17.1252 6.43498C17.0564 6.3734 16.9673 6.33935 16.875 6.33936H7.12499C7.03267 6.33935 6.9436 6.3734 6.87482 6.43498C6.80604 6.49656 6.7624 6.58135 6.75224 6.67311L6.00224 13.4231C5.99632 13.4755 6.00155 13.5286 6.01759 13.5789C6.03364 13.6292 6.06013 13.6755 6.09533 13.7148C6.13053 13.7541 6.17364 13.7855 6.22184 13.807C6.27003 13.8284 6.32223 13.8395 6.37499 13.8394ZM7.46062 7.08936H16.5394L17.2061 13.0894H6.79387L7.46062 7.08936ZM13.125 15.7144H10.875C10.7755 15.7144 10.6802 15.7539 10.6098 15.8242C10.5395 15.8945 10.5 15.9899 10.5 16.0894C10.5 16.1888 10.5395 16.2842 10.6098 16.3545C10.6802 16.4248 10.7755 16.4644 10.875 16.4644H13.125C13.2244 16.4644 13.3198 16.4248 13.3902 16.3545C13.4605 16.2842 13.5 16.1888 13.5 16.0894C13.5 15.9899 13.4605 15.8945 13.3902 15.8242C13.3198 15.7539 13.2244 15.7144 13.125 15.7144ZM13.125 17.2144H10.875C10.7755 17.2144 10.6802 17.2539 10.6098 17.3242C10.5395 17.3945 10.5 17.4899 10.5 17.5894C10.5 17.6888 10.5395 17.7842 10.6098 17.8545C10.6802 17.9248 10.7755 17.9644 10.875 17.9644H13.125C13.2244 17.9644 13.3198 17.9248 13.3902 17.8545C13.4605 17.7842 13.5 17.6888 13.5 17.5894C13.5 17.4899 13.4605 17.3945 13.3902 17.3242C13.3198 17.2539 13.2244 17.2144 13.125 17.2144Z" fill="black"/>
</g>
<defs>
<clipPath id="clip0_236_1006">
<rect width="24" height="24" fill="white" transform="translate(0 0.714355)"/>
</clipPath>
</defs>
</svg>
