<svg width="24" height="25" viewBox="0 0 24 25" fill="none" xmlns="http://www.w3.org/2000/svg">
<g clip-path="url(#clip0_236_1008)">
<path d="M20.9096 5.09561L18.6596 2.47061C18.6245 2.42945 18.5809 2.39641 18.5317 2.37375C18.4826 2.35109 18.4291 2.33936 18.375 2.33936H13.125V1.21436C13.125 0.594105 12.6203 0.0893555 12 0.0893555C11.3798 0.0893555 10.875 0.594105 10.875 1.21436V2.33936H8.62501C8.52555 2.33936 8.43017 2.37886 8.35984 2.44919C8.28952 2.51952 8.25001 2.6149 8.25001 2.71436V7.96436C8.25001 8.06381 8.28952 8.15919 8.35984 8.22952C8.43017 8.29985 8.52555 8.33936 8.62501 8.33936H10.875V9.83936H5.62501C5.5709 9.83936 5.51743 9.85109 5.4683 9.87375C5.41916 9.89641 5.37552 9.92945 5.34038 9.97061L3.09038 12.5956C3.03214 12.6635 3.00012 12.7499 3.00012 12.8394C3.00012 12.9288 3.03214 13.0152 3.09038 13.0831L5.34038 15.7081C5.41163 15.7914 5.51551 15.8394 5.62501 15.8394H10.875V18.5356C10.875 18.6351 10.9145 18.7304 10.9848 18.8008C11.0552 18.8711 11.1506 18.9106 11.25 18.9106C11.3495 18.9106 11.4448 18.8711 11.5152 18.8008C11.5855 18.7304 11.625 18.6351 11.625 18.5356V15.8394H12.375V18.5356C12.375 18.6351 12.4145 18.7304 12.4848 18.8008C12.5552 18.8711 12.6506 18.9106 12.75 18.9106C12.8495 18.9106 12.9448 18.8711 13.0152 18.8008C13.0855 18.7304 13.125 18.6351 13.125 18.5356V15.8394H15.375C15.4745 15.8394 15.5698 15.7998 15.6402 15.7295C15.7105 15.6592 15.75 15.5638 15.75 15.4644V10.2144C15.75 10.1149 15.7105 10.0195 15.6402 9.94919C15.5698 9.87886 15.4745 9.83936 15.375 9.83936H13.125V8.33936H18.375C18.4845 8.33936 18.5888 8.29136 18.6596 8.20811L20.9096 5.58311C20.9679 5.51525 20.9999 5.42878 20.9999 5.33936C20.9999 5.24993 20.9679 5.16346 20.9096 5.09561ZM11.625 1.21436C11.625 1.1149 11.6645 1.01952 11.7348 0.94919C11.8052 0.878864 11.9006 0.839355 12 0.839355C12.0995 0.839355 12.1948 0.878864 12.2652 0.94919C12.3355 1.01952 12.375 1.1149 12.375 1.21436V2.33936H11.625V1.21436ZM15 15.0894H5.79751L3.86888 12.8394L5.79751 10.5894H15V15.0894ZM12.375 9.83936H11.625V8.33936H12.375V9.83936ZM18.2025 7.58936H9.00001V3.08936H18.2025L20.1311 5.33936L18.2025 7.58936Z" fill="black"/>
<path d="M16.5 4.21436H10.5C10.4005 4.21436 10.3052 4.25386 10.2348 4.32419C10.1645 4.39452 10.125 4.4899 10.125 4.58936C10.125 4.68881 10.1645 4.78419 10.2348 4.85452C10.3052 4.92485 10.4005 4.96436 10.5 4.96436H16.5C16.5995 4.96436 16.6948 4.92485 16.7652 4.85452C16.8355 4.78419 16.875 4.68881 16.875 4.58936C16.875 4.4899 16.8355 4.39452 16.7652 4.32419C16.6948 4.25386 16.5995 4.21436 16.5 4.21436ZM14.25 5.71436H10.5C10.4005 5.71436 10.3052 5.75386 10.2348 5.82419C10.1645 5.89452 10.125 5.9899 10.125 6.08936C10.125 6.18881 10.1645 6.28419 10.2348 6.35452C10.3052 6.42485 10.4005 6.46436 10.5 6.46436H14.25C14.3495 6.46436 14.4448 6.42485 14.5152 6.35452C14.5855 6.28419 14.625 6.18881 14.625 6.08936C14.625 5.9899 14.5855 5.89452 14.5152 5.82419C14.4448 5.75386 14.3495 5.71436 14.25 5.71436ZM7.125 12.0894C7.125 12.1888 7.16451 12.2842 7.23483 12.3545C7.30516 12.4248 7.40054 12.4644 7.5 12.4644H13.5C13.5995 12.4644 13.6948 12.4248 13.7652 12.3545C13.8355 12.2842 13.875 12.1888 13.875 12.0894C13.875 11.9899 13.8355 11.8945 13.7652 11.8242C13.6948 11.7539 13.5995 11.7144 13.5 11.7144H7.5C7.40054 11.7144 7.30516 11.7539 7.23483 11.8242C7.16451 11.8945 7.125 11.9899 7.125 12.0894ZM13.5 13.2144H9.75C9.65054 13.2144 9.55516 13.2539 9.48483 13.3242C9.41451 13.3945 9.375 13.4899 9.375 13.5894C9.375 13.6888 9.41451 13.7842 9.48483 13.8545C9.55516 13.9248 9.65054 13.9644 9.75 13.9644H13.5C13.5995 13.9644 13.6948 13.9248 13.7652 13.8545C13.8355 13.7842 13.875 13.6888 13.875 13.5894C13.875 13.4899 13.8355 13.3945 13.7652 13.3242C13.6948 13.2539 13.5995 13.2144 13.5 13.2144ZM18 21.4644C17.7413 21.4644 17.4851 21.5097 17.2429 21.5971C17.0085 21.2125 16.6791 20.8947 16.2862 20.6744C15.8934 20.4541 15.4504 20.3387 15 20.3394C14.7037 20.3394 14.415 20.3881 14.1386 20.4852C13.5761 19.9126 12.8111 19.5894 12 19.5894C11.1889 19.5894 10.4243 19.9126 9.86138 20.4852C9.58458 20.3882 9.29331 20.3389 9 20.3394C8.5496 20.3387 8.10663 20.4541 7.71379 20.6744C7.32094 20.8947 6.99147 21.2125 6.75712 21.5971C6.5143 21.5095 6.25815 21.4646 6 21.4644C4.75912 21.4644 3.75 22.4735 3.75 23.7144C3.75 23.8138 3.78951 23.9092 3.85984 23.9795C3.93016 24.0498 4.02554 24.0894 4.125 24.0894H19.875C19.9745 24.0894 20.0698 24.0498 20.1402 23.9795C20.2105 23.9092 20.25 23.8138 20.25 23.7144C20.25 22.4735 19.2409 21.4644 18 21.4644ZM4.54762 23.3394C4.63111 23.0176 4.81898 22.7325 5.0818 22.529C5.34462 22.3254 5.66755 22.2147 6 22.2144C6.2625 22.2144 6.51112 22.2811 6.73875 22.4116C6.7848 22.438 6.83592 22.4543 6.88873 22.4595C6.94155 22.4647 6.99486 22.4587 7.04517 22.4418C7.09548 22.4249 7.14163 22.3975 7.1806 22.3615C7.21957 22.3254 7.25046 22.2816 7.27125 22.2327C7.41489 21.8932 7.65555 21.6035 7.96307 21.4001C8.27059 21.1968 8.6313 21.0886 9 21.0894C9.27938 21.0894 9.54938 21.1505 9.80325 21.2705C9.9585 21.3444 10.1452 21.3027 10.2544 21.1692C10.4652 20.9097 10.7314 20.7005 11.0334 20.5569C11.3354 20.4134 11.6656 20.339 12 20.3394C12.3344 20.339 12.6646 20.4134 12.9666 20.5569C13.2686 20.7005 13.5348 20.9097 13.7456 21.1692C13.7987 21.2341 13.872 21.2793 13.9537 21.2977C14.0355 21.316 14.1211 21.3064 14.1968 21.2705C14.4476 21.1509 14.7221 21.0891 15 21.0894C15.3687 21.0887 15.7295 21.1968 16.037 21.4003C16.3445 21.6038 16.5852 21.8935 16.7288 22.2331C16.7496 22.2819 16.7805 22.3257 16.8195 22.3617C16.8585 22.3977 16.9046 22.425 16.9549 22.4419C17.0052 22.4588 17.0585 22.4648 17.1113 22.4596C17.1641 22.4543 17.2152 22.438 17.2612 22.4116C17.4857 22.2817 17.7406 22.2136 18 22.2144C18.3324 22.2147 18.6554 22.3254 18.9182 22.529C19.181 22.7325 19.3689 23.0176 19.4524 23.3394H4.54762Z" fill="black"/>
</g>
<defs>
<clipPath id="clip0_236_1008">
<rect width="24" height="24" fill="white" transform="translate(0 0.0893555)"/>
</clipPath>
</defs>
</svg>
