<svg width="40" height="40" viewBox="0 0 40 40" fill="none" xmlns="http://www.w3.org/2000/svg">
<path d="M34.0842 26.097L30.8736 22.8864C30.7876 22.8003 30.6709 22.752 30.5493 22.752H28.9045L26.7424 20.5917C30.2193 16.4376 32.7632 11.5851 34.2021 6.36257C34.2238 6.28432 34.2244 6.20171 34.2037 6.12318C34.183 6.04465 34.1419 5.97301 34.0845 5.91559C34.027 5.85817 33.9554 5.81702 33.8769 5.79635C33.7983 5.77569 33.7157 5.77624 33.6375 5.79795C28.415 7.23684 23.5625 9.78079 19.4084 13.2576L17.2481 11.0955V9.45075C17.2481 9.32911 17.1997 9.21247 17.1137 9.12647L13.9031 5.91583C13.817 5.82984 13.7004 5.78154 13.5788 5.78154C13.4572 5.78154 13.3405 5.82984 13.2545 5.91583L10.0439 9.12647C9.95788 9.21248 9.90957 9.32912 9.90957 9.45075C9.90957 9.57237 9.95788 9.68901 10.0439 9.77502L13.2545 12.9857C13.3405 13.0717 13.4571 13.12 13.5788 13.12H15.2235L17.2696 15.1661C12.0197 20.3141 8.08511 26.6494 5.79802 33.6374C5.77915 33.7055 5.77628 33.7771 5.78963 33.8465C5.80299 33.9159 5.83221 33.9813 5.87501 34.0376C5.91782 34.0939 5.97305 34.1395 6.0364 34.1709C6.09974 34.2022 6.16948 34.2186 6.24017 34.2185C6.28155 34.2185 6.32273 34.2129 6.36264 34.202C13.3507 31.9149 19.686 27.9804 24.8339 22.7304L26.88 24.7765V26.4213C26.88 26.5429 26.9284 26.6595 27.0144 26.7455L30.225 29.9562C30.311 30.0422 30.4277 30.0905 30.5493 30.0905C30.6709 30.0905 30.7876 30.0422 30.8736 29.9562L34.0842 26.7455C34.1702 26.6595 34.2185 26.5429 34.2185 26.4213C34.2185 26.2996 34.1702 26.183 34.0842 26.097ZM32.1239 7.22761L28.849 10.5025L29.4976 11.151L32.7724 7.87616C31.3244 12.2814 29.0583 16.3739 26.0929 19.939L24.7702 18.618C25.5499 17.1999 26.2035 15.4647 25.3692 14.6304C24.5349 13.7961 22.8007 14.4515 21.3816 15.2294L20.0597 13.9071C23.6252 10.9416 27.7182 8.67546 32.1239 7.22761ZM22.064 15.9096C23.4859 15.1726 24.4628 15.0194 24.7243 15.279C24.9857 15.5386 24.8312 16.5174 24.0936 17.9392L22.064 15.9096ZM11.0167 9.45075L13.5788 6.88865L16.3308 9.64063V11.0955L15.2235 12.2027H13.7687L11.0167 9.45075ZM16.7894 11.9339L28.0661 23.2106L27.3387 23.9381L16.062 12.6614L16.7894 11.9339ZM22.4943 20.3908C22.188 20.7825 21.8595 21.1563 21.5104 21.5104C19.5992 23.4221 17.4701 23.9573 16.7569 23.2432C16.0436 22.5291 16.5784 20.3995 18.4897 18.4896C18.8438 18.1405 19.2176 17.8121 19.6093 17.5058L22.4943 20.3908ZM7.96062 32.688L11.1511 29.4975L10.5025 28.849L7.31207 32.0394C9.63953 25.9314 13.257 20.3971 17.9177 15.8142L18.9557 16.8522C18.5665 17.1613 18.1944 17.4914 17.8411 17.8411C15.6588 20.0234 14.8974 22.6813 16.1083 23.8917C16.3154 24.0866 16.5596 24.2379 16.8263 24.3367C17.093 24.4354 17.3768 24.4795 17.6609 24.4664C18.9786 24.4664 20.6793 23.6409 22.1599 22.1589C22.5095 21.8057 22.8397 21.4336 23.1488 21.0444L24.1867 22.0823C19.6036 26.7432 14.069 30.3606 7.96062 32.688ZM30.5493 28.9834L27.7973 26.2314V24.7765L28.9045 23.6693H30.3594L33.1114 26.4213L30.5493 28.9834Z" fill="black"/>
</svg>
