<svg width="32" height="31" viewBox="0 0 32 31" fill="none" xmlns="http://www.w3.org/2000/svg">
<g clip-path="url(#clip0_247_381)">
<path d="M28.7527 8.19783C28.0409 8.52823 27.448 8.78427 27.448 8.78427L27.2172 9.92054C27.1784 10.1111 26.9093 10.1188 26.8597 9.93085L26.6179 9.01457C26.4895 9.03801 26.421 9.00627 26.421 9.00627C26.421 9.00627 26.4299 8.93118 26.5171 8.83411L25.8642 8.14773C25.7302 8.00693 25.8779 7.78157 26.0603 7.84844L27.1482 8.24725C27.1482 8.24725 27.6769 7.87611 28.3311 7.44268L26.6991 5.73438C26.6446 5.67727 26.646 5.5864 26.7035 5.53225C26.8316 5.4116 27.07 5.24847 27.3171 5.39675C27.5727 5.55018 28.7937 6.27575 29.5009 6.69592C29.8105 6.50829 30.0975 6.34523 30.3214 6.23789C31.3027 5.76745 31.5311 6.14863 31.5311 6.14863C31.5311 6.14863 31.7357 6.54315 30.8211 7.13292C30.6124 7.2675 30.3232 7.42666 30.0013 7.59215C29.9881 8.41519 29.9655 9.83615 29.9621 10.1345C29.9587 10.4228 29.6949 10.5405 29.5252 10.5864C29.4489 10.607 29.3709 10.5606 29.3509 10.4842L28.7527 8.19783ZM25.4788 10.214C23.9165 11.3935 22.19 12.5194 20.3825 13.5419C19.4873 15.907 17.2039 17.5887 14.5269 17.5887C13.7321 17.5887 12.9734 17.4375 12.274 17.1671C9.84294 17.9575 7.57607 18.4428 5.37985 18.5371C8.41074 25.7044 14.6288 30.3675 14.6288 30.3675C14.6288 30.3675 25.5019 22.2158 25.5019 10.8995C25.5019 10.669 25.4929 10.4408 25.4788 10.214ZM25.3719 9.21979C20.5172 11.8669 14.6799 13.8204 9.1494 14.5338C7.32442 14.7562 5.58408 14.8118 4.02624 14.6543C1.83625 14.3913 0.49378 13.5654 0.0879829 12.3778C-0.25585 11.2633 0.393468 9.70685 2.29383 8.31317C2.87633 7.88317 3.58912 7.46384 4.40974 7.08757V7.08624C5.95304 2.94621 9.9389 0 14.6124 0C18.228 0 21.4336 1.76428 23.4133 4.47886C24.4138 5.84741 25.1089 7.48959 25.3719 9.21979ZM3.80803 12.2547C3.6004 10.6294 3.78555 8.877 4.30923 7.37081C3.44028 8.02274 2.74127 8.59839 2.39698 9.36274C1.88652 10.6545 2.48823 11.6776 3.80803 12.2547ZM20.7473 10.6135C20.5225 8.61493 19.3587 6.90095 17.7083 5.92418C16.776 5.37225 15.6876 5.05593 14.5265 5.05593C12.7319 5.05593 11.1146 5.81035 9.97328 7.02007C8.91532 8.14244 8.266 9.65656 8.266 11.3216C8.266 11.892 8.3427 12.4439 8.48553 12.9694C12.6627 12.895 16.7918 11.9415 20.7473 10.6135Z" fill="#FFB500"/>
<path d="M10.2659 11.3217C10.2659 11.8921 10.3426 12.444 10.4855 12.9695C8.77112 12.9679 7.22041 12.859 5.80795 12.2548C5.60033 10.6294 5.78548 8.87708 6.30916 7.37088L6.40438 7.10353C7.63425 7.23191 9.60338 7.21471 11.9732 7.02014C10.9152 8.14251 10.2659 9.65664 10.2659 11.3217Z" fill="url(#paint0_linear_247_381)"/>
<path d="M27.2975 8.79496C25.9024 9.44482 24.3749 10.0603 22.747 10.6135C22.5222 8.61495 21.3584 6.90097 19.708 5.9242C21.611 5.54037 23.5471 5.06257 25.413 4.47888C26.3322 5.74022 26.9881 7.20538 27.2975 8.79496Z" fill="url(#paint1_linear_247_381)"/>
</g>
<defs>
<linearGradient id="paint0_linear_247_381" x1="9.01743" y1="10.2654" x2="10.7473" y2="18.8148" gradientUnits="userSpaceOnUse">
<stop stop-opacity="0"/>
<stop offset="1" stop-opacity="0.4"/>
</linearGradient>
<linearGradient id="paint1_linear_247_381" x1="23.6177" y1="7.92799" x2="25.0641" y2="15.0764" gradientUnits="userSpaceOnUse">
<stop stop-opacity="0"/>
<stop offset="1" stop-opacity="0.4"/>
</linearGradient>
<clipPath id="clip0_247_381">
<rect width="32" height="31" fill="white"/>
</clipPath>
</defs>
</svg>
