<?xml version="1.0" standalone="no"?>
<!DOCTYPE svg PUBLIC "-//W3C//DTD SVG 20010904//EN"
 "http://www.w3.org/TR/2001/REC-SVG-20010904/DTD/svg10.dtd">
<svg version="1.0" xmlns="http://www.w3.org/2000/svg"
 width="1024.000000pt" height="1024.000000pt" viewBox="0 0 1024.000000 1024.000000"
 preserveAspectRatio="xMidYMid meet">
<metadata>
Created by potrace 1.14, written by Peter Selinger 2001-2017
</metadata>
<g transform="translate(0.000000,1024.000000) scale(0.100000,-0.100000)"
fill="#000000" stroke="none">
<path d="M4458 10075 c-2 -1 -43 -6 -92 -10 -49 -4 -98 -9 -110 -11 -11 -2
-41 -5 -66 -8 -25 -2 -52 -7 -60 -10 -8 -2 -33 -7 -55 -10 -22 -3 -56 -9 -75
-12 -19 -4 -43 -7 -52 -8 -10 0 -18 -5 -18 -10 0 -5 -2 -7 -6 -4 -4 5 -28 1
-99 -18 -11 -3 -30 -7 -42 -10 -12 -2 -34 -9 -48 -14 -14 -5 -25 -7 -25 -4 0
2 -9 0 -21 -6 -20 -11 -53 -21 -76 -22 -7 -1 -13 -6 -13 -11 0 -6 -3 -8 -6 -4
-3 3 -28 -3 -54 -13 -26 -10 -51 -16 -54 -13 -3 4 -6 1 -6 -5 0 -7 -6 -12 -14
-12 -8 0 -27 -5 -43 -12 -15 -6 -30 -12 -33 -13 -3 -1 -21 -8 -40 -17 -19 -8
-63 -27 -97 -41 -34 -15 -106 -50 -160 -78 -54 -28 -111 -59 -128 -67 -16 -8
-32 -18 -35 -21 -3 -3 -21 -15 -40 -25 -52 -28 -282 -182 -307 -206 -12 -11
-27 -20 -33 -20 -5 0 -10 -4 -10 -8 0 -5 -19 -22 -42 -39 -44 -31 -105 -84
-163 -138 -17 -16 -54 -51 -81 -76 -27 -25 -87 -88 -134 -139 -47 -51 -95
-103 -108 -116 -12 -13 -22 -28 -22 -33 0 -6 -6 -14 -13 -18 -7 -4 -42 -48
-79 -98 -37 -49 -74 -98 -82 -107 -9 -10 -13 -18 -8 -18 4 0 3 -4 -3 -8 -15
-11 -55 -70 -55 -82 0 -5 -4 -10 -9 -10 -5 0 -14 -14 -21 -31 -7 -17 -18 -36
-24 -43 -11 -11 -28 -40 -63 -106 -10 -19 -20 -37 -23 -40 -7 -6 -98 -194
-125 -255 -9 -22 -21 -49 -26 -60 -5 -11 -17 -42 -27 -70 -16 -40 -27 -54 -58
-69 -22 -10 -42 -23 -46 -30 -4 -6 -8 -7 -8 -2 0 4 -11 1 -25 -8 -14 -9 -25
-14 -25 -11 0 4 -12 -3 -26 -14 -15 -11 -30 -18 -35 -15 -5 3 -9 0 -9 -5 0 -6
-4 -11 -9 -11 -8 0 -107 -53 -178 -96 -67 -40 -158 -98 -163 -103 -3 -3 -12
-10 -21 -16 -55 -34 -119 -81 -119 -87 0 -5 -4 -8 -10 -8 -9 0 -34 -18 -69
-50 -9 -8 -37 -31 -62 -51 -129 -105 -312 -310 -396 -444 -54 -86 -136 -272
-149 -340 -2 -11 -7 -31 -10 -45 -13 -53 -12 -227 2 -289 15 -70 78 -206 122
-261 36 -46 162 -171 191 -190 13 -8 34 -23 46 -32 13 -10 28 -18 34 -18 6 0
11 -4 11 -9 0 -5 8 -11 18 -15 9 -3 35 -17 57 -30 22 -14 48 -25 58 -26 9 0
17 -4 17 -8 0 -4 24 -16 53 -26 28 -11 61 -24 72 -30 21 -11 99 -34 230 -67
115 -30 117 -30 155 -34 19 -2 35 -4 35 -5 0 -2 38 -10 70 -14 17 -3 46 -7 65
-10 237 -40 943 -41 1350 -1 36 3 88 8 115 10 28 2 70 7 95 10 51 7 83 11 155
20 28 3 64 8 80 10 17 3 46 7 65 9 19 2 64 9 100 15 36 6 83 13 105 16 22 4
47 8 55 10 13 4 54 10 135 21 11 1 20 3 20 4 0 2 24 7 72 14 21 3 49 8 63 11
14 3 41 8 60 11 19 3 51 9 70 14 19 5 51 12 70 15 19 4 44 8 55 11 11 2 35 6
53 9 19 2 37 7 42 10 4 3 25 7 46 11 22 3 57 10 79 16 22 5 49 12 60 14 55 10
83 16 110 24 17 5 125 32 240 60 116 29 217 54 225 57 8 3 20 7 25 8 6 2 30 8
55 15 25 7 50 13 55 14 6 1 37 10 70 20 33 10 65 19 70 21 6 1 17 5 25 8 20 7
69 18 72 15 2 -1 13 4 26 11 13 7 33 14 45 17 34 6 201 59 477 151 221 74 284
96 395 138 11 5 27 9 35 11 8 2 32 10 55 20 22 9 49 20 60 24 11 4 37 15 58
24 21 9 42 16 47 16 6 0 29 8 53 19 23 10 62 26 87 36 25 10 59 24 75 31 53
23 90 37 100 39 6 2 31 12 55 23 25 11 62 25 83 33 20 7 37 16 37 19 0 4 6 7
13 7 6 0 32 9 57 20 25 11 119 53 210 94 91 41 168 73 173 71 4 -1 7 3 7 9 0
6 7 9 15 5 8 -3 15 -1 15 5 0 6 8 8 17 5 10 -4 14 -4 10 0 -8 8 143 85 154 79
4 -3 10 2 13 11 3 8 10 12 16 9 5 -3 10 -1 10 4 0 6 3 10 8 9 4 -1 17 3 30 10
12 7 22 9 22 5 0 -4 4 -3 8 3 11 18 94 54 106 47 6 -3 8 -2 3 2 -8 9 231 137
243 130 3 -2 13 5 20 16 8 10 22 19 32 19 10 0 18 4 18 9 0 9 29 23 40 19 3
-1 15 6 27 16 26 23 24 38 -24 261 -4 17 -7 40 -7 52 -1 11 -4 19 -8 16 -5 -2
-9 5 -9 16 -2 24 -1 20 -18 81 -23 82 -61 195 -72 213 -5 10 -7 22 -4 27 4 6
1 10 -4 10 -6 0 -10 3 -9 8 1 4 -4 23 -11 42 -8 19 -15 37 -16 40 0 3 -9 22
-18 44 -9 21 -17 40 -17 41 0 2 -16 38 -35 79 -19 42 -35 80 -35 85 0 5 -3 11
-7 13 -5 2 -26 38 -48 80 -65 125 -72 137 -99 178 -14 22 -26 44 -26 50 0 5
-4 10 -10 10 -5 0 -10 4 -10 10 0 24 -251 357 -345 457 -129 137 -245 250
-340 329 -92 76 -106 88 -120 102 -8 6 -16 12 -19 12 -5 0 -69 46 -116 83 -8
7 -40 28 -70 47 -30 19 -57 37 -60 40 -6 6 -34 23 -85 51 -22 11 -42 24 -45
28 -9 12 -265 139 -365 181 -90 38 -266 105 -305 116 -8 2 -40 11 -70 20 -30
8 -59 16 -65 17 -5 2 -16 6 -22 10 -7 5 -13 6 -13 3 0 -3 -17 1 -37 8 -21 7
-44 11 -50 9 -7 -3 -13 -1 -13 4 0 4 -11 9 -25 10 -53 5 -65 7 -65 13 0 3 -10
5 -22 6 -25 1 -103 12 -128 19 -17 4 -61 11 -140 20 -30 4 -68 9 -85 11 -34 5
-542 14 -547 9z m327 -1620 c55 -3 114 -8 130 -11 17 -2 48 -7 70 -10 53 -7
67 -10 85 -17 8 -3 29 -8 45 -11 35 -6 73 -15 95 -23 8 -3 20 -7 25 -8 98 -22
337 -131 463 -211 29 -19 56 -34 61 -34 5 0 11 -3 13 -7 2 -5 30 -28 63 -52
33 -25 85 -65 115 -90 76 -64 260 -253 260 -268 0 -3 14 -22 30 -42 43 -50 42
-49 88 -121 23 -36 46 -71 52 -77 6 -7 8 -13 5 -13 -4 0 2 -12 13 -27 38 -56
170 -363 155 -363 -3 0 -1 -6 4 -12 9 -11 30 -86 36 -129 2 -8 6 -19 9 -25 4
-6 10 -35 13 -64 4 -30 8 -57 10 -61 3 -3 7 -27 9 -51 l5 -45 -117 -37 c-64
-21 -126 -41 -137 -46 -17 -8 -61 -22 -75 -25 -50 -11 -77 -19 -87 -27 -7 -6
-13 -7 -13 -3 0 4 -7 2 -15 -5 -8 -7 -15 -9 -15 -6 0 4 -6 4 -12 -1 -7 -4 -18
-8 -25 -9 -7 -1 -45 -12 -85 -25 -40 -13 -77 -24 -83 -25 -38 -10 -62 -16
-155 -44 -58 -17 -112 -33 -120 -35 -8 -1 -75 -19 -148 -39 -74 -20 -137 -34
-142 -31 -5 3 -10 1 -12 -5 -1 -5 -19 -11 -38 -12 -19 -2 -38 -6 -41 -11 -3
-4 -20 -9 -37 -10 -18 -1 -32 -5 -32 -9 0 -4 -9 -5 -20 -3 -11 2 -20 1 -20 -3
0 -4 -28 -13 -62 -20 -55 -11 -84 -17 -123 -26 -19 -4 -130 -28 -145 -31 -8
-2 -15 -4 -15 -5 0 -3 -41 -10 -67 -12 -16 0 -28 -4 -28 -8 0 -3 -10 -6 -22
-7 -13 -1 -34 -4 -48 -7 -14 -3 -61 -13 -105 -20 -44 -8 -129 -24 -189 -35
-60 -12 -130 -24 -155 -27 -25 -3 -55 -8 -66 -10 -23 -5 -334 -50 -410 -59
-71 -9 -91 -11 -170 -19 -38 -4 -88 -9 -109 -12 -21 -3 -72 -7 -112 -9 -40 -1
-77 -6 -83 -9 -6 -4 -11 -2 -11 5 0 10 -3 10 -12 1 -16 -16 -31 -15 -22 1 6 9
4 9 -7 1 -12 -9 -69 -15 -176 -17 -18 0 -33 -5 -33 -11 0 -6 -4 -5 -9 2 -4 8
-12 14 -16 14 -4 0 -12 -6 -16 -14 -7 -10 -9 -10 -9 0 0 7 -5 10 -11 6 -6 -3
-69 -8 -139 -10 l-128 -3 -6 32 c-3 18 -9 43 -12 57 -3 14 -7 39 -8 57 0 17
-4 29 -7 27 -4 -2 -9 12 -11 30 -2 19 0 32 5 29 5 -3 4 4 -2 16 -7 12 -14 50
-16 86 -2 36 -7 69 -10 75 -3 5 -1 10 5 10 6 0 8 5 4 12 -14 23 1 363 20 438
3 14 8 36 10 50 14 79 45 189 86 305 28 79 136 301 166 342 13 17 24 34 24 37
0 10 107 158 160 220 49 58 196 202 260 255 97 80 272 192 391 250 59 29 113
54 120 55 8 1 32 10 53 20 22 9 51 19 65 23 14 3 32 10 39 16 7 5 15 7 19 4 3
-4 12 -2 20 4 7 6 13 8 13 4 0 -4 7 -2 15 5 8 7 15 10 15 7 0 -3 15 -1 33 4
17 6 43 12 57 15 14 3 32 6 40 8 107 21 140 24 275 32 66 4 122 8 123 10 2 1
9 1 15 -1 7 -2 57 -7 112 -10z m-3415 -753 c0 -5 -9 -35 -19 -68 -43 -131 -97
-365 -116 -494 -3 -25 -8 -58 -11 -75 -20 -124 -27 -254 -27 -490 -1 -185 3
-265 18 -382 l4 -32 -34 15 c-19 8 -51 24 -72 36 -21 11 -47 26 -58 32 -36 19
-108 78 -160 130 -55 56 -98 106 -90 106 2 0 -6 16 -20 35 -22 33 -46 94 -62
156 -13 51 -12 217 2 268 7 28 13 52 13 54 -3 6 26 84 35 95 5 6 7 12 3 12 -3
0 5 18 19 40 14 22 25 44 25 50 0 5 4 10 9 10 5 0 12 8 16 19 3 10 16 30 28
43 12 14 31 37 42 51 48 62 144 153 245 236 41 33 82 67 90 74 8 8 33 27 55
43 22 16 42 32 43 37 5 10 22 9 22 -1z"/>
<path d="M3273 6205 c0 -8 4 -12 9 -9 5 3 6 10 3 15 -9 13 -12 11 -12 -6z"/>
<path d="M2755 6131 c-3 -5 -2 -12 3 -15 5 -3 9 1 9 9 0 17 -3 19 -12 6z"/>
<path d="M8678 8375 c-2 -2 -15 -6 -28 -9 -58 -11 -120 -58 -120 -91 0 -16 76
-98 426 -461 50 -52 88 -94 85 -94 -3 0 0 -4 8 -9 16 -10 6 -31 -15 -31 -8 0
-14 -5 -14 -10 0 -6 -10 -15 -22 -20 -13 -5 -48 -27 -78 -50 -30 -22 -65 -44
-77 -50 -13 -5 -23 -13 -23 -18 0 -5 -15 -16 -32 -25 -40 -21 -68 -38 -85 -54
-10 -9 -27 -7 -73 9 -33 11 -60 24 -60 28 0 4 -9 6 -20 3 -11 -3 -20 -1 -20 4
0 5 -6 10 -12 10 -7 1 -51 15 -98 32 -47 17 -95 31 -107 31 -30 0 -65 -49 -51
-74 11 -20 12 -21 113 -128 113 -119 108 -110 90 -144 l-15 -29 35 -5 c20 -3
36 -8 36 -12 0 -4 6 -26 14 -49 8 -23 12 -45 9 -50 -3 -5 0 -9 7 -9 7 0 10 -3
6 -6 -3 -4 0 -21 8 -39 7 -19 11 -36 8 -39 -3 -3 -1 -12 5 -19 7 -8 10 -16 7
-19 -12 -12 20 -70 46 -84 18 -9 29 -11 29 -4 0 6 4 9 9 6 24 -15 53 72 86
259 2 17 7 41 10 55 3 14 8 38 11 55 3 16 6 30 7 31 18 12 112 54 123 54 8 0
14 5 14 10 0 6 6 10 14 10 8 0 49 17 93 37 43 21 80 38 83 38 3 0 22 9 43 19
22 11 42 15 46 10 8 -9 28 -76 36 -119 2 -11 4 -20 5 -20 1 0 3 -7 5 -15 1 -8
21 -85 43 -170 41 -153 51 -194 91 -339 11 -41 25 -78 33 -83 28 -18 118 20
150 65 25 35 25 33 33 422 6 285 5 253 5 368 0 49 2 93 6 98 6 10 55 32 63 29
2 -1 7 3 10 8 3 5 29 21 57 35 87 44 228 143 276 195 106 113 109 215 8 235
-26 6 -111 2 -145 -6 -67 -16 -82 -22 -102 -34 -12 -8 -26 -15 -30 -15 -14 -1
-158 -72 -161 -80 -2 -4 -8 -8 -12 -8 -5 0 -35 -16 -67 -35 -54 -32 -87 -37
-103 -15 -3 3 -32 21 -65 40 -33 19 -62 36 -65 40 -3 3 -21 14 -40 23 -19 10
-47 26 -62 35 -15 9 -77 46 -138 82 -62 36 -117 70 -124 76 -6 6 -22 15 -34
18 -12 4 -22 12 -22 17 0 5 -6 9 -13 9 -7 0 -28 11 -48 24 -38 26 -105 57
-111 51z"/>
<path d="M8155 7231 c-3 -5 -2 -12 3 -15 5 -3 9 1 9 9 0 17 -3 19 -12 6z"/>
<path d="M8135 6798 c-11 -10 -180 -134 -215 -158 -12 -8 -44 -31 -70 -50 -27
-20 -69 -49 -94 -65 -25 -16 -46 -33 -46 -37 0 -4 -6 -8 -13 -8 -7 0 -22 -8
-33 -17 -29 -27 -264 -183 -275 -183 -5 0 -9 -4 -9 -9 0 -5 -13 -14 -30 -21
-16 -7 -30 -16 -30 -21 0 -5 -5 -9 -10 -9 -6 0 -32 -15 -58 -33 -26 -18 -78
-52 -117 -76 -38 -23 -99 -60 -134 -82 -34 -21 -67 -39 -72 -39 -5 0 -9 -4 -9
-10 0 -5 -4 -10 -9 -10 -5 0 -38 -18 -72 -40 -35 -22 -80 -48 -99 -58 -91 -49
-220 -128 -219 -135 0 -4 -6 -18 -14 -30 -8 -12 -20 -39 -26 -60 -7 -20 -30
-69 -52 -108 -21 -40 -39 -75 -39 -78 0 -4 -7 -16 -15 -26 -8 -11 -34 -49 -58
-84 -60 -92 -61 -93 -77 -111 -8 -10 -26 -33 -40 -51 -35 -47 -226 -239 -279
-280 -24 -19 -48 -39 -55 -45 -23 -21 -193 -132 -246 -160 -30 -16 -58 -33
-61 -37 -3 -5 -10 -9 -15 -9 -5 0 -27 -8 -49 -18 -49 -23 -114 -49 -120 -49
-3 0 -19 -8 -35 -16 -16 -8 -32 -15 -35 -15 -3 0 -49 -13 -102 -30 -53 -16
-99 -28 -101 -25 -3 2 -12 0 -21 -4 -9 -5 -41 -12 -71 -16 -30 -4 -57 -8 -61
-10 -15 -10 -171 -19 -304 -19 -138 0 -243 7 -305 19 -14 3 -41 8 -60 11 -19
3 -42 7 -50 10 -8 3 -28 8 -44 11 -16 2 -83 22 -149 43 -80 26 -125 36 -136
30 -29 -16 -483 -152 -517 -155 -11 -1 -25 -4 -30 -8 -6 -3 -21 -8 -35 -11
-13 -3 -42 -10 -64 -16 -22 -6 -51 -13 -65 -16 -14 -2 -32 -7 -40 -11 -8 -3
-23 -7 -32 -8 -10 -2 -19 -3 -20 -4 -2 -2 -14 -5 -28 -7 -14 -3 -61 -13 -105
-24 -44 -10 -98 -22 -120 -26 -22 -4 -49 -9 -60 -11 -43 -10 -102 -21 -135
-27 -19 -3 -44 -7 -55 -10 -11 -2 -40 -7 -65 -11 -25 -4 -52 -9 -60 -10 -24
-4 -161 -24 -210 -30 -25 -3 -62 -8 -83 -11 -21 -3 -57 -7 -80 -9 -23 -2 -80
-6 -127 -10 -112 -10 -146 -13 -202 -14 l-47 -1 26 -62 c15 -35 32 -66 38 -70
5 -4 6 -8 1 -8 -4 0 -1 -11 8 -25 9 -14 14 -25 11 -25 -4 0 1 -12 9 -27 8 -16
59 -116 112 -223 53 -107 127 -249 164 -315 37 -66 76 -136 86 -155 11 -19 22
-36 26 -38 5 -2 8 -7 8 -12 0 -4 18 -37 40 -71 22 -35 48 -79 57 -96 9 -18 20
-33 24 -33 4 0 10 -11 13 -25 4 -14 11 -25 16 -25 6 0 10 -4 10 -9 0 -12 61
-105 72 -109 4 -2 8 -8 8 -14 0 -12 61 -102 72 -106 4 -2 8 -8 8 -14 0 -10 53
-89 82 -122 10 -11 18 -25 18 -32 0 -7 3 -14 8 -16 4 -1 35 -41 69 -88 34 -47
66 -90 70 -95 4 -6 28 -37 53 -70 86 -115 163 -210 171 -213 5 -2 9 -10 9 -17
0 -7 3 -15 8 -17 6 -3 58 -64 112 -132 8 -10 22 -26 31 -35 8 -9 37 -43 65
-76 27 -33 54 -65 59 -71 6 -6 39 -44 75 -84 241 -272 604 -638 835 -846 43
-38 87 -78 99 -89 12 -11 48 -42 81 -70 33 -27 72 -62 88 -77 15 -16 30 -28
32 -28 3 0 36 -25 73 -56 97 -81 101 -84 113 -84 11 0 74 44 99 70 8 8 44 38
78 65 35 28 84 69 109 93 25 23 47 42 50 42 4 0 48 39 129 115 24 22 78 72
120 110 151 139 564 558 673 684 16 18 78 88 166 187 11 12 29 33 39 46 17 20
110 132 149 178 6 8 34 41 60 75 26 33 59 74 72 90 14 17 59 75 101 130 41 55
80 107 87 115 16 19 207 292 275 392 29 42 52 81 52 86 0 6 3 12 8 14 8 3 82
114 82 123 0 3 15 27 33 53 37 55 35 53 142 237 44 77 92 163 105 190 14 28
27 52 30 55 3 3 30 55 60 115 30 61 57 112 60 115 3 3 19 34 35 70 50 113 105
234 115 252 6 10 10 25 10 33 0 8 5 15 10 15 6 0 9 3 8 8 -2 4 6 27 16 52 11
25 20 47 21 50 4 12 18 47 26 65 42 96 187 509 194 555 1 8 5 22 8 30 18 49
18 52 62 215 13 49 36 145 60 255 18 82 41 202 60 318 3 17 8 47 11 65 3 17 7
50 10 72 2 22 6 54 9 70 2 17 7 57 10 90 3 33 8 71 10 85 7 37 18 232 19 332
1 49 4 88 8 88 4 0 4 10 0 23 -4 12 -5 40 -2 62 3 22 2 52 -1 68 -5 16 -4 27
2 27 6 0 7 5 3 11 -3 6 -7 39 -8 74 -1 67 -5 78 -21 63z"/>
</g>
</svg>
